0
SECTION
2
HEADER
9
$ANGDIR
70
1
9
$AUNITS
70
0
9
$PROJECTNAME
1
LED and Push button to ATMega32
9
$TDCREATE
40
2460506.97260527
9
$INSUNITS
70
4
0
ENDSEC
0
SECTION
2
ENTITIES
0
POLYLINE
66
1
8
outline
10
0.0
20
0.0
30
0.0
70
1
0
VERTEX
8
0
10
0
20
0
30
0
0
VERTEX
8
0
10
27.610000000000003
20
0
30
0
0
VERTEX
8
0
10
27.610000000000003
20
33.010000000000005
30
0
0
VERTEX
8
0
10
0
20
33.010000000000005
30
0
0
VERTEX
8
0
10
0
20
0
30
0
0
SEQEND
0
POLYLINE
66
1
8
1_copper
10
0.0
20
0.0
30
0.0
70
1
0
VERTEX
8
0
10
7.993950000000001
20
20.7601125
30
0
0
VERTEX
8
0
10
8.011050000000001
20
20.769984375
30
0
0
VERTEX
8
0
10
8.025015625
20
20.78395
30
0
0
VERTEX
8
0
10
8.0348875
20
20.80105
30
0
0
VERTEX
8
0
10
8.040000000000001
20
20.820125
30
0
0
VERTEX
8
0
10
8.040000000000001
20
21.389875
30
0
0
VERTEX
8
0
10
8.0348875
20
21.40895
30
0
0
VERTEX
8
0
10
8.025015625
20
21.42605
30
0
0
VERTEX
8
0
10
8.011050000000001
20
21.440015625
30
0
0
VERTEX
8
0
10
7.993950000000001
20
21.449887500000003
30
0
0
VERTEX
8
0
10
7.974875000000001
20
21.455000000000002
30
0
0
VERTEX
8
0
10
7.805125
20
21.455000000000002
30
0
0
VERTEX
8
0
10
7.78605
20
21.449887500000003
30
0
0
VERTEX
8
0
10
7.76895
20
21.440015625
30
0
0
VERTEX
8
0
10
7.754984375
20
21.42605
30
0
0
VERTEX
8
0
10
7.7451125
20
21.40895
30
0
0
VERTEX
8
0
10
7.74
20
21.389875
30
0
0
VERTEX
8
0
10
7.74
20
20.820125
30
0
0
VERTEX
8
0
10
7.7451125
20
20.80105
30
0
0
VERTEX
8
0
10
7.754984375
20
20.78395
30
0
0
VERTEX
8
0
10
7.76895
20
20.769984375
30
0
0
VERTEX
8
0
10
7.78605
20
20.7601125
30
0
0
VERTEX
8
0
10
7.805125
20
20.755000000000003
30
0
0
VERTEX
8
0
10
7.974875000000001
20
20.755000000000003
30
0
0
SEQEND
0
POLYLINE
66
1
8
1_copper
10
0.0
20
0.0
30
0.0
70
1
0
VERTEX
8
0
10
7.493950000000001
20
20.7601125
30
0
0
VERTEX
8
0
10
7.51105
20
20.769984375
30
0
0
VERTEX
8
0
10
7.525015625
20
20.78395
30
0
0
VERTEX
8
0
10
7.5348875
20
20.80105
30
0
0
VERTEX
8
0
10
7.54
20
20.820125
30
0
0
VERTEX
8
0
10
7.54
20
21.389875
30
0
0
VERTEX
8
0
10
7.5348875
20
21.40895
30
0
0
VERTEX
8
0
10
7.525015625
20
21.42605
30
0
0
VERTEX
8
0
10
7.51105
20
21.440015625
30
0
0
VERTEX
8
0
10
7.493950000000001
20
21.449887500000003
30
0
0
VERTEX
8
0
10
7.474875
20
21.455000000000002
30
0
0
VERTEX
8
0
10
7.305125
20
21.455000000000002
30
0
0
VERTEX
8
0
10
7.28605
20
21.449887500000003
30
0
0
VERTEX
8
0
10
7.26895
20
21.440015625
30
0
0
VERTEX
8
0
10
7.254984375
20
21.42605
30
0
0
VERTEX
8
0
10
7.2451125
20
21.40895
30
0
0
VERTEX
8
0
10
7.24
20
21.389875
30
0
0
VERTEX
8
0
10
7.24
20
20.820125
30
0
0
VERTEX
8
0
10
7.2451125
20
20.80105
30
0
0
VERTEX
8
0
10
7.254984375
20
20.78395
30
0
0
VERTEX
8
0
10
7.26895
20
20.769984375
30
0
0
VERTEX
8
0
10
7.28605
20
20.7601125
30
0
0
VERTEX
8
0
10
7.305125
20
20.755000000000003
30
0
0
VERTEX
8
0
10
7.474875
20
20.755000000000003
30
0
0
SEQEND
0
POLYLINE
66
1
8
1_copper
10
0.0
20
0.0
30
0.0
70
1
0
VERTEX
8
0
10
6.993950000000001
20
20.7601125
30
0
0
VERTEX
8
0
10
7.01105
20
20.769984375
30
0
0
VERTEX
8
0
10
7.025015625
20
20.78395
30
0
0
VERTEX
8
0
10
7.0348875
20
20.80105
30
0
0
VERTEX
8
0
10
7.04
20
20.820125
30
0
0
VERTEX
8
0
10
7.04
20
21.389875
30
0
0
VERTEX
8
0
10
7.0348875
20
21.40895
30
0
0
VERTEX
8
0
10
7.025015625
20
21.42605
30
0
0
VERTEX
8
0
10
7.01105
20
21.440015625
30
0
0
VERTEX
8
0
10
6.993950000000001
20
21.449887500000003
30
0
0
VERTEX
8
0
10
6.974875
20
21.455000000000002
30
0
0
VERTEX
8
0
10
6.805125
20
21.455000000000002
30
0
0
VERTEX
8
0
10
6.78605
20
21.449887500000003
30
0
0
VERTEX
8
0
10
6.76895
20
21.440015625
30
0
0
VERTEX
8
0
10
6.754984375
20
21.42605
30
0
0
VERTEX
8
0
10
6.7451125
20
21.40895
30
0
0
VERTEX
8
0
10
6.74
20
21.389875
30
0
0
VERTEX
8
0
10
6.74
20
20.820125
30
0
0
VERTEX
8
0
10
6.7451125
20
20.80105
30
0
0
VERTEX
8
0
10
6.754984375
20
20.78395
30
0
0
VERTEX
8
0
10
6.76895
20
20.769984375
30
0
0
VERTEX
8
0
10
6.78605
20
20.7601125
30
0
0
VERTEX
8
0
10
6.805125
20
20.755000000000003
30
0
0
VERTEX
8
0
10
6.974875
20
20.755000000000003
30
0
0
SEQEND
0
POLYLINE
66
1
8
1_copper
10
0.0
20
0.0
30
0.0
70
1
0
VERTEX
8
0
10
6.49395
20
20.7601125
30
0
0
VERTEX
8
0
10
6.51105
20
20.769984375
30
0
0
VERTEX
8
0
10
6.525015625
20
20.78395
30
0
0
VERTEX
8
0
10
6.5348875
20
20.80105
30
0
0
VERTEX
8
0
10
6.54
20
20.820125
30
0
0
VERTEX
8
0
10
6.54
20
21.389875
30
0
0
VERTEX
8
0
10
6.5348875
20
21.40895
30
0
0
VERTEX
8
0
10
6.525015625
20
21.42605
30
0
0
VERTEX
8
0
10
6.51105
20
21.440015625
30
0
0
VERTEX
8
0
10
6.49395
20
21.449887500000003
30
0
0
VERTEX
8
0
10
6.474875
20
21.455000000000002
30
0
0
VERTEX
8
0
10
6.305125
20
21.455000000000002
30
0
0
VERTEX
8
0
10
6.28605
20
21.449887500000003
30
0
0
VERTEX
8
0
10
6.26895
20
21.440015625
30
0
0
VERTEX
8
0
10
6.254984375
20
21.42605
30
0
0
VERTEX
8
0
10
6.2451125
20
21.40895
30
0
0
VERTEX
8
0
10
6.24
20
21.389875
30
0
0
VERTEX
8
0
10
6.24
20
20.820125
30
0
0
VERTEX
8
0
10
6.2451125
20
20.80105
30
0
0
VERTEX
8
0
10
6.254984375
20
20.78395
30
0
0
VERTEX
8
0
10
6.26895
20
20.769984375
30
0
0
VERTEX
8
0
10
6.28605
20
20.7601125
30
0
0
VERTEX
8
0
10
6.305125
20
20.755000000000003
30
0
0
VERTEX
8
0
10
6.474875
20
20.755000000000003
30
0
0
SEQEND
0
POLYLINE
66
1
8
1_copper
10
0.0
20
0.0
30
0.0
70
1
0
VERTEX
8
0
10
5.86895
20
20.1351125
30
0
0
VERTEX
8
0
10
5.88605
20
20.144984375
30
0
0
VERTEX
8
0
10
5.900015625
20
20.15895
30
0
0
VERTEX
8
0
10
5.9098875
20
20.17605
30
0
0
VERTEX
8
0
10
5.915
20
20.195125
30
0
0
VERTEX
8
0
10
5.915
20
20.364875
30
0
0
VERTEX
8
0
10
5.9098875
20
20.383950000000002
30
0
0
VERTEX
8
0
10
5.900015625
20
20.40105
30
0
0
VERTEX
8
0
10
5.88605
20
20.415015625000002
30
0
0
VERTEX
8
0
10
5.86895
20
20.4248875
30
0
0
VERTEX
8
0
10
5.849875
20
20.43
30
0
0
VERTEX
8
0
10
5.280125
20
20.43
30
0
0
VERTEX
8
0
10
5.26105
20
20.4248875
30
0
0
VERTEX
8
0
10
5.24395
20
20.415015625000002
30
0
0
VERTEX
8
0
10
5.229984375
20
20.40105
30
0
0
VERTEX
8
0
10
5.2201125
20
20.383950000000002
30
0
0
VERTEX
8
0
10
5.215
20
20.364875
30
0
0
VERTEX
8
0
10
5.215
20
20.195125
30
0
0
VERTEX
8
0
10
5.2201125
20
20.17605
30
0
0
VERTEX
8
0
10
5.229984375
20
20.15895
30
0
0
VERTEX
8
0
10
5.24395
20
20.144984375
30
0
0
VERTEX
8
0
10
5.26105
20
20.1351125
30
0
0
VERTEX
8
0
10
5.280125
20
20.130000000000003
30
0
0
VERTEX
8
0
10
5.849875
20
20.130000000000003
30
0
0
SEQEND
0
POLYLINE
66
1
8
1_copper
10
0.0
20
0.0
30
0.0
70
1
0
VERTEX
8
0
10
11.198540625
20
15.286156250000001
30
0
0
VERTEX
8
0
10
11.235965625
20
15.298315625
30
0
0
VERTEX
8
0
10
11.271028125
20
15.316181250000001
30
0
0
VERTEX
8
0
10
11.302865625
20
15.339309375000001
30
0
0
VERTEX
8
0
10
11.330690625
20
15.367134375000001
30
0
0
VERTEX
8
0
10
11.35381875
20
15.398971875
30
0
0
VERTEX
8
0
10
11.371684375000001
20
15.434034375000001
30
0
0
VERTEX
8
0
10
11.38384375
20
15.471459375
30
0
0
VERTEX
8
0
10
11.39
20
15.510325
30
0
0
VERTEX
8
0
10
11.39
20
20.049675
30
0
0
VERTEX
8
0
10
11.38384375
20
20.088540625
30
0
0
VERTEX
8
0
10
11.371684375000001
20
20.125965625
30
0
0
VERTEX
8
0
10
11.35381875
20
20.161028125
30
0
0
VERTEX
8
0
10
11.330690625
20
20.192865625
30
0
0
VERTEX
8
0
10
11.302865625
20
20.220690625
30
0
0
VERTEX
8
0
10
11.271028125
20
20.243818750000003
30
0
0
VERTEX
8
0
10
11.235965625
20
20.261684375
30
0
0
VERTEX
8
0
10
11.198540625
20
20.27384375
30
0
0
VERTEX
8
0
10
11.159675
20
20.28
30
0
0
VERTEX
8
0
10
6.620325
20
20.28
30
0
0
VERTEX
8
0
10
6.5814593750000006
20
20.27384375
30
0
0
VERTEX
8
0
10
6.544034375000001
20
20.261684375
30
0
0
VERTEX
8
0
10
6.508971875
20
20.243818750000003
30
0
0
VERTEX
8
0
10
6.477134375
20
20.220690625
30
0
0
VERTEX
8
0
10
6.449309375
20
20.192865625
30
0
0
VERTEX
8
0
10
6.42618125
20
20.161028125
30
0
0
VERTEX
8
0
10
6.408315625
20
20.125965625
30
0
0
VERTEX
8
0
10
6.396156250000001
20
20.088540625
30
0
0
VERTEX
8
0
10
6.390000000000001
20
20.049675
30
0
0
VERTEX
8
0
10
6.390000000000001
20
15.510325
30
0
0
VERTEX
8
0
10
6.396156250000001
20
15.471459375
30
0
0
VERTEX
8
0
10
6.408315625
20
15.434034375000001
30
0
0
VERTEX
8
0
10
6.42618125
20
15.398971875
30
0
0
VERTEX
8
0
10
6.449309375
20
15.367134375000001
30
0
0
VERTEX
8
0
10
6.477134375
20
15.339309375000001
30
0
0
VERTEX
8
0
10
6.508971875
20
15.316181250000001
30
0
0
VERTEX
8
0
10
6.544034375000001
20
15.298315625
30
0
0
VERTEX
8
0
10
6.5814593750000006
20
15.286156250000001
30
0
0
VERTEX
8
0
10
6.620325
20
15.280000000000001
30
0
0
VERTEX
8
0
10
11.159675
20
15.280000000000001
30
0
0
SEQEND
0
POLYLINE
66
1
8
1_copper
10
0.0
20
0.0
30
0.0
70
1
0
VERTEX
8
0
10
5.86895
20
19.6351125
30
0
0
VERTEX
8
0
10
5.88605
20
19.644984375
30
0
0
VERTEX
8
0
10
5.900015625
20
19.65895
30
0
0
VERTEX
8
0
10
5.9098875
20
19.67605
30
0
0
VERTEX
8
0
10
5.915
20
19.695125
30
0
0
VERTEX
8
0
10
5.915
20
19.864875
30
0
0
VERTEX
8
0
10
5.9098875
20
19.883950000000002
30
0
0
VERTEX
8
0
10
5.900015625
20
19.90105
30
0
0
VERTEX
8
0
10
5.88605
20
19.915015625000002
30
0
0
VERTEX
8
0
10
5.86895
20
19.9248875
30
0
0
VERTEX
8
0
10
5.849875
20
19.93
30
0
0
VERTEX
8
0
10
5.280125
20
19.93
30
0
0
VERTEX
8
0
10
5.26105
20
19.9248875
30
0
0
VERTEX
8
0
10
5.24395
20
19.915015625000002
30
0
0
VERTEX
8
0
10
5.229984375
20
19.90105
30
0
0
VERTEX
8
0
10
5.2201125
20
19.883950000000002
30
0
0
VERTEX
8
0
10
5.215
20
19.864875
30
0
0
VERTEX
8
0
10
5.215
20
19.695125
30
0
0
VERTEX
8
0
10
5.2201125
20
19.67605
30
0
0
VERTEX
8
0
10
5.229984375
20
19.65895
30
0
0
VERTEX
8
0
10
5.24395
20
19.644984375
30
0
0
VERTEX
8
0
10
5.26105
20
19.6351125
30
0
0
VERTEX
8
0
10
5.280125
20
19.630000000000003
30
0
0
VERTEX
8
0
10
5.849875
20
19.630000000000003
30
0
0
SEQEND
0
POLYLINE
66
1
8
1_copper
10
0.0
20
0.0
30
0.0
70
1
0
VERTEX
8
0
10
5.86895
20
19.1351125
30
0
0
VERTEX
8
0
10
5.88605
20
19.144984375
30
0
0
VERTEX
8
0
10
5.900015625
20
19.15895
30
0
0
VERTEX
8
0
10
5.9098875
20
19.17605
30
0
0
VERTEX
8
0
10
5.915
20
19.195125
30
0
0
VERTEX
8
0
10
5.915
20
19.364875
30
0
0
VERTEX
8
0
10
5.9098875
20
19.383950000000002
30
0
0
VERTEX
8
0
10
5.900015625
20
19.40105
30
0
0
VERTEX
8
0
10
5.88605
20
19.415015625000002
30
0
0
VERTEX
8
0
10
5.86895
20
19.4248875
30
0
0
VERTEX
8
0
10
5.849875
20
19.43
30
0
0
VERTEX
8
0
10
5.280125
20
19.43
30
0
0
VERTEX
8
0
10
5.26105
20
19.4248875
30
0
0
VERTEX
8
0
10
5.24395
20
19.415015625000002
30
0
0
VERTEX
8
0
10
5.229984375
20
19.40105
30
0
0
VERTEX
8
0
10
5.2201125
20
19.383950000000002
30
0
0
VERTEX
8
0
10
5.215
20
19.364875
30
0
0
VERTEX
8
0
10
5.215
20
19.195125
30
0
0
VERTEX
8
0
10
5.2201125
20
19.17605
30
0
0
VERTEX
8
0
10
5.229984375
20
19.15895
30
0
0
VERTEX
8
0
10
5.24395
20
19.144984375
30
0
0
VERTEX
8
0
10
5.26105
20
19.1351125
30
0
0
VERTEX
8
0
10
5.280125
20
19.130000000000003
30
0
0
VERTEX
8
0
10
5.849875
20
19.130000000000003
30
0
0
SEQEND
0
POLYLINE
66
1
8
1_copper
10
0.0
20
0.0
30
0.0
70
1
0
VERTEX
8
0
10
12.51895
20
18.6351125
30
0
0
VERTEX
8
0
10
12.536050000000001
20
18.644984375
30
0
0
VERTEX
8
0
10
12.550015625
20
18.65895
30
0
0
VERTEX
8
0
10
12.5598875
20
18.67605
30
0
0
VERTEX
8
0
10
12.565000000000001
20
18.695125
30
0
0
VERTEX
8
0
10
12.565000000000001
20
18.864875
30
0
0
VERTEX
8
0
10
12.5598875
20
18.883950000000002
30
0
0
VERTEX
8
0
10
12.550015625
20
18.90105
30
0
0
VERTEX
8
0
10
12.536050000000001
20
18.915015625000002
30
0
0
VERTEX
8
0
10
12.51895
20
18.9248875
30
0
0
VERTEX
8
0
10
12.499875000000001
20
18.93
30
0
0
VERTEX
8
0
10
11.930125
20
18.93
30
0
0
VERTEX
8
0
10
11.911050000000001
20
18.9248875
30
0
0
VERTEX
8
0
10
11.89395
20
18.915015625000002
30
0
0
VERTEX
8
0
10
11.879984375000001
20
18.90105
30
0
0
VERTEX
8
0
10
11.870112500000001
20
18.883950000000002
30
0
0
VERTEX
8
0
10
11.865
20
18.864875
30
0
0
VERTEX
8
0
10
11.865
20
18.695125
30
0
0
VERTEX
8
0
10
11.870112500000001
20
18.67605
30
0
0
VERTEX
8
0
10
11.879984375000001
20
18.65895
30
0
0
VERTEX
8
0
10
11.89395
20
18.644984375
30
0
0
VERTEX
8
0
10
11.911050000000001
20
18.6351125
30
0
0
VERTEX
8
0
10
11.930125
20
18.630000000000003
30
0
0
VERTEX
8
0
10
12.499875000000001
20
18.630000000000003
30
0
0
SEQEND
0
POLYLINE
66
1
8
1_copper
10
0.0
20
0.0
30
0.0
70
1
0
VERTEX
8
0
10
5.86895
20
18.6351125
30
0
0
VERTEX
8
0
10
5.88605
20
18.644984375
30
0
0
VERTEX
8
0
10
5.900015625
20
18.65895
30
0
0
VERTEX
8
0
10
5.9098875
20
18.67605
30
0
0
VERTEX
8
0
10
5.915
20
18.695125
30
0
0
VERTEX
8
0
10
5.915
20
18.864875
30
0
0
VERTEX
8
0
10
5.9098875
20
18.883950000000002
30
0
0
VERTEX
8
0
10
5.900015625
20
18.90105
30
0
0
VERTEX
8
0
10
5.88605
20
18.915015625000002
30
0
0
VERTEX
8
0
10
5.86895
20
18.9248875
30
0
0
VERTEX
8
0
10
5.849875
20
18.93
30
0
0
VERTEX
8
0
10
5.280125
20
18.93
30
0
0
VERTEX
8
0
10
5.26105
20
18.9248875
30
0
0
VERTEX
8
0
10
5.24395
20
18.915015625000002
30
0
0
VERTEX
8
0
10
5.229984375
20
18.90105
30
0
0
VERTEX
8
0
10
5.2201125
20
18.883950000000002
30
0
0
VERTEX
8
0
10
5.215
20
18.864875
30
0
0
VERTEX
8
0
10
5.215
20
18.695125
30
0
0
VERTEX
8
0
10
5.2201125
20
18.67605
30
0
0
VERTEX
8
0
10
5.229984375
20
18.65895
30
0
0
VERTEX
8
0
10
5.24395
20
18.644984375
30
0
0
VERTEX
8
0
10
5.26105
20
18.6351125
30
0
0
VERTEX
8
0
10
5.280125
20
18.630000000000003
30
0
0
VERTEX
8
0
10
5.849875
20
18.630000000000003
30
0
0
SEQEND
0
POLYLINE
66
1
8
1_copper
10
0.0
20
0.0
30
0.0
70
1
0
VERTEX
8
0
10
12.51895
20
18.1351125
30
0
0
VERTEX
8
0
10
12.536050000000001
20
18.144984375
30
0
0
VERTEX
8
0
10
12.550015625
20
18.15895
30
0
0
VERTEX
8
0
10
12.5598875
20
18.17605
30
0
0
VERTEX
8
0
10
12.565000000000001
20
18.195125
30
0
0
VERTEX
8
0
10
12.565000000000001
20
18.364875
30
0
0
VERTEX
8
0
10
12.5598875
20
18.383950000000002
30
0
0
VERTEX
8
0
10
12.550015625
20
18.40105
30
0
0
VERTEX
8
0
10
12.536050000000001
20
18.415015625000002
30
0
0
VERTEX
8
0
10
12.51895
20
18.4248875
30
0
0
VERTEX
8
0
10
12.499875000000001
20
18.43
30
0
0
VERTEX
8
0
10
11.930125
20
18.43
30
0
0
VERTEX
8
0
10
11.911050000000001
20
18.4248875
30
0
0
VERTEX
8
0
10
11.89395
20
18.415015625000002
30
0
0
VERTEX
8
0
10
11.879984375000001
20
18.40105
30
0
0
VERTEX
8
0
10
11.870112500000001
20
18.383950000000002
30
0
0
VERTEX
8
0
10
11.865
20
18.364875
30
0
0
VERTEX
8
0
10
11.865
20
18.195125
30
0
0
VERTEX
8
0
10
11.870112500000001
20
18.17605
30
0
0
VERTEX
8
0
10
11.879984375000001
20
18.15895
30
0
0
VERTEX
8
0
10
11.89395
20
18.144984375
30
0
0
VERTEX
8
0
10
11.911050000000001
20
18.1351125
30
0
0
VERTEX
8
0
10
11.930125
20
18.130000000000003
30
0
0
VERTEX
8
0
10
12.499875000000001
20
18.130000000000003
30
0
0
SEQEND
0
POLYLINE
66
1
8
1_copper
10
0.0
20
0.0
30
0.0
70
1
0
VERTEX
8
0
10
5.86895
20
17.1351125
30
0
0
VERTEX
8
0
10
5.88605
20
17.144984375
30
0
0
VERTEX
8
0
10
5.900015625
20
17.15895
30
0
0
VERTEX
8
0
10
5.9098875
20
17.17605
30
0
0
VERTEX
8
0
10
5.915
20
17.195125
30
0
0
VERTEX
8
0
10
5.915
20
17.364875
30
0
0
VERTEX
8
0
10
5.9098875
20
17.383950000000002
30
0
0
VERTEX
8
0
10
5.900015625
20
17.40105
30
0
0
VERTEX
8
0
10
5.88605
20
17.415015625000002
30
0
0
VERTEX
8
0
10
5.86895
20
17.4248875
30
0
0
VERTEX
8
0
10
5.849875
20
17.43
30
0
0
VERTEX
8
0
10
5.280125
20
17.43
30
0
0
VERTEX
8
0
10
5.26105
20
17.4248875
30
0
0
VERTEX
8
0
10
5.24395
20
17.415015625000002
30
0
0
VERTEX
8
0
10
5.229984375
20
17.40105
30
0
0
VERTEX
8
0
10
5.2201125
20
17.383950000000002
30
0
0
VERTEX
8
0
10
5.215
20
17.364875
30
0
0
VERTEX
8
0
10
5.215
20
17.195125
30
0
0
VERTEX
8
0
10
5.2201125
20
17.17605
30
0
0
VERTEX
8
0
10
5.229984375
20
17.15895
30
0
0
VERTEX
8
0
10
5.24395
20
17.144984375
30
0
0
VERTEX
8
0
10
5.26105
20
17.1351125
30
0
0
VERTEX
8
0
10
5.280125
20
17.130000000000003
30
0
0
VERTEX
8
0
10
5.849875
20
17.130000000000003
30
0
0
SEQEND
0
POLYLINE
66
1
8
1_copper
10
0.0
20
0.0
30
0.0
70
1
0
VERTEX
8
0
10
5.86895
20
16.6351125
30
0
0
VERTEX
8
0
10
5.88605
20
16.644984375
30
0
0
VERTEX
8
0
10
5.900015625
20
16.65895
30
0
0
VERTEX
8
0
10
5.9098875
20
16.67605
30
0
0
VERTEX
8
0
10
5.915
20
16.695125
30
0
0
VERTEX
8
0
10
5.915
20
16.864875
30
0
0
VERTEX
8
0
10
5.9098875
20
16.883950000000002
30
0
0
VERTEX
8
0
10
5.900015625
20
16.90105
30
0
0
VERTEX
8
0
10
5.88605
20
16.915015625000002
30
0
0
VERTEX
8
0
10
5.86895
20
16.9248875
30
0
0
VERTEX
8
0
10
5.849875
20
16.93
30
0
0
VERTEX
8
0
10
5.280125
20
16.93
30
0
0
VERTEX
8
0
10
5.26105
20
16.9248875
30
0
0
VERTEX
8
0
10
5.24395
20
16.915015625000002
30
0
0
VERTEX
8
0
10
5.229984375
20
16.90105
30
0
0
VERTEX
8
0
10
5.2201125
20
16.883950000000002
30
0
0
VERTEX
8
0
10
5.215
20
16.864875
30
0
0
VERTEX
8
0
10
5.215
20
16.695125
30
0
0
VERTEX
8
0
10
5.2201125
20
16.67605
30
0
0
VERTEX
8
0
10
5.229984375
20
16.65895
30
0
0
VERTEX
8
0
10
5.24395
20
16.644984375
30
0
0
VERTEX
8
0
10
5.26105
20
16.6351125
30
0
0
VERTEX
8
0
10
5.280125
20
16.630000000000003
30
0
0
VERTEX
8
0
10
5.849875
20
16.630000000000003
30
0
0
SEQEND
0
POLYLINE
66
1
8
1_copper
10
0.0
20
0.0
30
0.0
70
1
0
VERTEX
8
0
10
12.51895
20
16.1351125
30
0
0
VERTEX
8
0
10
12.536050000000001
20
16.144984375
30
0
0
VERTEX
8
0
10
12.550015625
20
16.15895
30
0
0
VERTEX
8
0
10
12.5598875
20
16.17605
30
0
0
VERTEX
8
0
10
12.565000000000001
20
16.195125
30
0
0
VERTEX
8
0
10
12.565000000000001
20
16.364875
30
0
0
VERTEX
8
0
10
12.5598875
20
16.383950000000002
30
0
0
VERTEX
8
0
10
12.550015625
20
16.40105
30
0
0
VERTEX
8
0
10
12.536050000000001
20
16.415015625000002
30
0
0
VERTEX
8
0
10
12.51895
20
16.4248875
30
0
0
VERTEX
8
0
10
12.499875000000001
20
16.43
30
0
0
VERTEX
8
0
10
11.930125
20
16.43
30
0
0
VERTEX
8
0
10
11.911050000000001
20
16.4248875
30
0
0
VERTEX
8
0
10
11.89395
20
16.415015625000002
30
0
0
VERTEX
8
0
10
11.879984375000001
20
16.40105
30
0
0
VERTEX
8
0
10
11.870112500000001
20
16.383950000000002
30
0
0
VERTEX
8
0
10
11.865
20
16.364875
30
0
0
VERTEX
8
0
10
11.865
20
16.195125
30
0
0
VERTEX
8
0
10
11.870112500000001
20
16.17605
30
0
0
VERTEX
8
0
10
11.879984375000001
20
16.15895
30
0
0
VERTEX
8
0
10
11.89395
20
16.144984375
30
0
0
VERTEX
8
0
10
11.911050000000001
20
16.1351125
30
0
0
VERTEX
8
0
10
11.930125
20
16.13
30
0
0
VERTEX
8
0
10
12.499875000000001
20
16.13
30
0
0
SEQEND
0
POLYLINE
66
1
8
1_copper
10
0.0
20
0.0
30
0.0
70
1
0
VERTEX
8
0
10
5.86895
20
16.1351125
30
0
0
VERTEX
8
0
10
5.88605
20
16.144984375
30
0
0
VERTEX
8
0
10
5.900015625
20
16.15895
30
0
0
VERTEX
8
0
10
5.9098875
20
16.17605
30
0
0
VERTEX
8
0
10
5.915
20
16.195125
30
0
0
VERTEX
8
0
10
5.915
20
16.364875
30
0
0
VERTEX
8
0
10
5.9098875
20
16.383950000000002
30
0
0
VERTEX
8
0
10
5.900015625
20
16.40105
30
0
0
VERTEX
8
0
10
5.88605
20
16.415015625000002
30
0
0
VERTEX
8
0
10
5.86895
20
16.4248875
30
0
0
VERTEX
8
0
10
5.849875
20
16.43
30
0
0
VERTEX
8
0
10
5.280125
20
16.43
30
0
0
VERTEX
8
0
10
5.26105
20
16.4248875
30
0
0
VERTEX
8
0
10
5.24395
20
16.415015625000002
30
0
0
VERTEX
8
0
10
5.229984375
20
16.40105
30
0
0
VERTEX
8
0
10
5.2201125
20
16.383950000000002
30
0
0
VERTEX
8
0
10
5.215
20
16.364875
30
0
0
VERTEX
8
0
10
5.215
20
16.195125
30
0
0
VERTEX
8
0
10
5.2201125
20
16.17605
30
0
0
VERTEX
8
0
10
5.229984375
20
16.15895
30
0
0
VERTEX
8
0
10
5.24395
20
16.144984375
30
0
0
VERTEX
8
0
10
5.26105
20
16.1351125
30
0
0
VERTEX
8
0
10
5.280125
20
16.13
30
0
0
VERTEX
8
0
10
5.849875
20
16.13
30
0
0
SEQEND
0
POLYLINE
66
1
8
1_copper
10
0.0
20
0.0
30
0.0
70
1
0
VERTEX
8
0
10
12.51895
20
15.6351125
30
0
0
VERTEX
8
0
10
12.536050000000001
20
15.644984375
30
0
0
VERTEX
8
0
10
12.550015625
20
15.65895
30
0
0
VERTEX
8
0
10
12.5598875
20
15.67605
30
0
0
VERTEX
8
0
10
12.565000000000001
20
15.695125
30
0
0
VERTEX
8
0
10
12.565000000000001
20
15.864875000000001
30
0
0
VERTEX
8
0
10
12.5598875
20
15.88395
30
0
0
VERTEX
8
0
10
12.550015625
20
15.901050000000001
30
0
0
VERTEX
8
0
10
12.536050000000001
20
15.915015625
30
0
0
VERTEX
8
0
10
12.51895
20
15.9248875
30
0
0
VERTEX
8
0
10
12.499875000000001
20
15.930000000000001
30
0
0
VERTEX
8
0
10
11.930125
20
15.930000000000001
30
0
0
VERTEX
8
0
10
11.911050000000001
20
15.9248875
30
0
0
VERTEX
8
0
10
11.89395
20
15.915015625
30
0
0
VERTEX
8
0
10
11.879984375000001
20
15.901050000000001
30
0
0
VERTEX
8
0
10
11.870112500000001
20
15.88395
30
0
0
VERTEX
8
0
10
11.865
20
15.864875000000001
30
0
0
VERTEX
8
0
10
11.865
20
15.695125
30
0
0
VERTEX
8
0
10
11.870112500000001
20
15.67605
30
0
0
VERTEX
8
0
10
11.879984375000001
20
15.65895
30
0
0
VERTEX
8
0
10
11.89395
20
15.644984375
30
0
0
VERTEX
8
0
10
11.911050000000001
20
15.6351125
30
0
0
VERTEX
8
0
10
11.930125
20
15.63
30
0
0
VERTEX
8
0
10
12.499875000000001
20
15.63
30
0
0
SEQEND
0
POLYLINE
66
1
8
1_copper
10
0.0
20
0.0
30
0.0
70
1
0
VERTEX
8
0
10
5.86895
20
15.6351125
30
0
0
VERTEX
8
0
10
5.88605
20
15.644984375
30
0
0
VERTEX
8
0
10
5.900015625
20
15.65895
30
0
0
VERTEX
8
0
10
5.9098875
20
15.67605
30
0
0
VERTEX
8
0
10
5.915
20
15.695125
30
0
0
VERTEX
8
0
10
5.915
20
15.864875000000001
30
0
0
VERTEX
8
0
10
5.9098875
20
15.88395
30
0
0
VERTEX
8
0
10
5.900015625
20
15.901050000000001
30
0
0
VERTEX
8
0
10
5.88605
20
15.915015625
30
0
0
VERTEX
8
0
10
5.86895
20
15.9248875
30
0
0
VERTEX
8
0
10
5.849875
20
15.930000000000001
30
0
0
VERTEX
8
0
10
5.280125
20
15.930000000000001
30
0
0
VERTEX
8
0
10
5.26105
20
15.9248875
30
0
0
VERTEX
8
0
10
5.24395
20
15.915015625
30
0
0
VERTEX
8
0
10
5.229984375
20
15.901050000000001
30
0
0
VERTEX
8
0
10
5.2201125
20
15.88395
30
0
0
VERTEX
8
0
10
5.215
20
15.864875000000001
30
0
0
VERTEX
8
0
10
5.215
20
15.695125
30
0
0
VERTEX
8
0
10
5.2201125
20
15.67605
30
0
0
VERTEX
8
0
10
5.229984375
20
15.65895
30
0
0
VERTEX
8
0
10
5.24395
20
15.644984375
30
0
0
VERTEX
8
0
10
5.26105
20
15.6351125
30
0
0
VERTEX
8
0
10
5.280125
20
15.63
30
0
0
VERTEX
8
0
10
5.849875
20
15.63
30
0
0
SEQEND
0
POLYLINE
66
1
8
1_copper
10
0.0
20
0.0
30
0.0
70
1
0
VERTEX
8
0
10
12.51895
20
15.1351125
30
0
0
VERTEX
8
0
10
12.536050000000001
20
15.144984375
30
0
0
VERTEX
8
0
10
12.550015625
20
15.15895
30
0
0
VERTEX
8
0
10
12.5598875
20
15.17605
30
0
0
VERTEX
8
0
10
12.565000000000001
20
15.195125
30
0
0
VERTEX
8
0
10
12.565000000000001
20
15.364875000000001
30
0
0
VERTEX
8
0
10
12.5598875
20
15.38395
30
0
0
VERTEX
8
0
10
12.550015625
20
15.401050000000001
30
0
0
VERTEX
8
0
10
12.536050000000001
20
15.415015625
30
0
0
VERTEX
8
0
10
12.51895
20
15.4248875
30
0
0
VERTEX
8
0
10
12.499875000000001
20
15.430000000000001
30
0
0
VERTEX
8
0
10
11.930125
20
15.430000000000001
30
0
0
VERTEX
8
0
10
11.911050000000001
20
15.4248875
30
0
0
VERTEX
8
0
10
11.89395
20
15.415015625
30
0
0
VERTEX
8
0
10
11.879984375000001
20
15.401050000000001
30
0
0
VERTEX
8
0
10
11.870112500000001
20
15.38395
30
0
0
VERTEX
8
0
10
11.865
20
15.364875000000001
30
0
0
VERTEX
8
0
10
11.865
20
15.195125
30
0
0
VERTEX
8
0
10
11.870112500000001
20
15.17605
30
0
0
VERTEX
8
0
10
11.879984375000001
20
15.15895
30
0
0
VERTEX
8
0
10
11.89395
20
15.144984375
30
0
0
VERTEX
8
0
10
11.911050000000001
20
15.1351125
30
0
0
VERTEX
8
0
10
11.930125
20
15.13
30
0
0
VERTEX
8
0
10
12.499875000000001
20
15.13
30
0
0
SEQEND
0
POLYLINE
66
1
8
1_copper
10
0.0
20
0.0
30
0.0
70
1
0
VERTEX
8
0
10
5.86895
20
15.1351125
30
0
0
VERTEX
8
0
10
5.88605
20
15.144984375
30
0
0
VERTEX
8
0
10
5.900015625
20
15.15895
30
0
0
VERTEX
8
0
10
5.9098875
20
15.17605
30
0
0
VERTEX
8
0
10
5.915
20
15.195125
30
0
0
VERTEX
8
0
10
5.915
20
15.364875000000001
30
0
0
VERTEX
8
0
10
5.9098875
20
15.38395
30
0
0
VERTEX
8
0
10
5.900015625
20
15.401050000000001
30
0
0
VERTEX
8
0
10
5.88605
20
15.415015625
30
0
0
VERTEX
8
0
10
5.86895
20
15.4248875
30
0
0
VERTEX
8
0
10
5.849875
20
15.430000000000001
30
0
0
VERTEX
8
0
10
5.280125
20
15.430000000000001
30
0
0
VERTEX
8
0
10
5.26105
20
15.4248875
30
0
0
VERTEX
8
0
10
5.24395
20
15.415015625
30
0
0
VERTEX
8
0
10
5.229984375
20
15.401050000000001
30
0
0
VERTEX
8
0
10
5.2201125
20
15.38395
30
0
0
VERTEX
8
0
10
5.215
20
15.364875000000001
30
0
0
VERTEX
8
0
10
5.215
20
15.195125
30
0
0
VERTEX
8
0
10
5.2201125
20
15.17605
30
0
0
VERTEX
8
0
10
5.229984375
20
15.15895
30
0
0
VERTEX
8
0
10
5.24395
20
15.144984375
30
0
0
VERTEX
8
0
10
5.26105
20
15.1351125
30
0
0
VERTEX
8
0
10
5.280125
20
15.13
30
0
0
VERTEX
8
0
10
5.849875
20
15.13
30
0
0
SEQEND
0
POLYLINE
66
1
8
1_copper
10
0.0
20
0.0
30
0.0
70
1
0
VERTEX
8
0
10
6.49395
20
14.110112500000001
30
0
0
VERTEX
8
0
10
6.51105
20
14.119984375000001
30
0
0
VERTEX
8
0
10
6.525015625
20
14.13395
30
0
0
VERTEX
8
0
10
6.5348875
20
14.151050000000001
30
0
0
VERTEX
8
0
10
6.54
20
14.170125
30
0
0
VERTEX
8
0
10
6.54
20
14.739875000000001
30
0
0
VERTEX
8
0
10
6.5348875
20
14.75895
30
0
0
VERTEX
8
0
10
6.525015625
20
14.776050000000001
30
0
0
VERTEX
8
0
10
6.51105
20
14.790015625
30
0
0
VERTEX
8
0
10
6.49395
20
14.7998875
30
0
0
VERTEX
8
0
10
6.474875
20
14.805000000000001
30
0
0
VERTEX
8
0
10
6.305125
20
14.805000000000001
30
0
0
VERTEX
8
0
10
6.28605
20
14.7998875
30
0
0
VERTEX
8
0
10
6.26895
20
14.790015625
30
0
0
VERTEX
8
0
10
6.254984375
20
14.776050000000001
30
0
0
VERTEX
8
0
10
6.2451125
20
14.75895
30
0
0
VERTEX
8
0
10
6.24
20
14.739875000000001
30
0
0
VERTEX
8
0
10
6.24
20
14.170125
30
0
0
VERTEX
8
0
10
6.2451125
20
14.151050000000001
30
0
0
VERTEX
8
0
10
6.254984375
20
14.13395
30
0
0
VERTEX
8
0
10
6.26895
20
14.119984375000001
30
0
0
VERTEX
8
0
10
6.28605
20
14.110112500000001
30
0
0
VERTEX
8
0
10
6.305125
20
14.105
30
0
0
VERTEX
8
0
10
6.474875
20
14.105
30
0
0
SEQEND
0
POLYLINE
66
1
8
1_copper
10
0.0
20
0.0
30
0.0
70
1
0
VERTEX
8
0
10
6.993950000000001
20
14.110112500000001
30
0
0
VERTEX
8
0
10
7.01105
20
14.119984375000001
30
0
0
VERTEX
8
0
10
7.025015625
20
14.13395
30
0
0
VERTEX
8
0
10
7.0348875
20
14.151050000000001
30
0
0
VERTEX
8
0
10
7.04
20
14.170125
30
0
0
VERTEX
8
0
10
7.04
20
14.739875000000001
30
0
0
VERTEX
8
0
10
7.0348875
20
14.75895
30
0
0
VERTEX
8
0
10
7.025015625
20
14.776050000000001
30
0
0
VERTEX
8
0
10
7.01105
20
14.790015625
30
0
0
VERTEX
8
0
10
6.993950000000001
20
14.7998875
30
0
0
VERTEX
8
0
10
6.974875
20
14.805000000000001
30
0
0
VERTEX
8
0
10
6.805125
20
14.805000000000001
30
0
0
VERTEX
8
0
10
6.78605
20
14.7998875
30
0
0
VERTEX
8
0
10
6.76895
20
14.790015625
30
0
0
VERTEX
8
0
10
6.754984375
20
14.776050000000001
30
0
0
VERTEX
8
0
10
6.7451125
20
14.75895
30
0
0
VERTEX
8
0
10
6.74
20
14.739875000000001
30
0
0
VERTEX
8
0
10
6.74
20
14.170125
30
0
0
VERTEX
8
0
10
6.7451125
20
14.151050000000001
30
0
0
VERTEX
8
0
10
6.754984375
20
14.13395
30
0
0
VERTEX
8
0
10
6.76895
20
14.119984375000001
30
0
0
VERTEX
8
0
10
6.78605
20
14.110112500000001
30
0
0
VERTEX
8
0
10
6.805125
20
14.105
30
0
0
VERTEX
8
0
10
6.974875
20
14.105
30
0
0
SEQEND
0
POLYLINE
66
1
8
1_copper
10
0.0
20
0.0
30
0.0
70
1
0
VERTEX
8
0
10
7.493950000000001
20
14.110112500000001
30
0
0
VERTEX
8
0
10
7.51105
20
14.119984375000001
30
0
0
VERTEX
8
0
10
7.525015625
20
14.13395
30
0
0
VERTEX
8
0
10
7.5348875
20
14.151050000000001
30
0
0
VERTEX
8
0
10
7.54
20
14.170125
30
0
0
VERTEX
8
0
10
7.54
20
14.739875000000001
30
0
0
VERTEX
8
0
10
7.5348875
20
14.75895
30
0
0
VERTEX
8
0
10
7.525015625
20
14.776050000000001
30
0
0
VERTEX
8
0
10
7.51105
20
14.790015625
30
0
0
VERTEX
8
0
10
7.493950000000001
20
14.7998875
30
0
0
VERTEX
8
0
10
7.474875
20
14.805000000000001
30
0
0
VERTEX
8
0
10
7.305125
20
14.805000000000001
30
0
0
VERTEX
8
0
10
7.28605
20
14.7998875
30
0
0
VERTEX
8
0
10
7.26895
20
14.790015625
30
0
0
VERTEX
8
0
10
7.254984375
20
14.776050000000001
30
0
0
VERTEX
8
0
10
7.2451125
20
14.75895
30
0
0
VERTEX
8
0
10
7.24
20
14.739875000000001
30
0
0
VERTEX
8
0
10
7.24
20
14.170125
30
0
0
VERTEX
8
0
10
7.2451125
20
14.151050000000001
30
0
0
VERTEX
8
0
10
7.254984375
20
14.13395
30
0
0
VERTEX
8
0
10
7.26895
20
14.119984375000001
30
0
0
VERTEX
8
0
10
7.28605
20
14.110112500000001
30
0
0
VERTEX
8
0
10
7.305125
20
14.105
30
0
0
VERTEX
8
0
10
7.474875
20
14.105
30
0
0
SEQEND
0
POLYLINE
66
1
8
1_copper
10
0.0
20
0.0
30
0.0
70
1
0
VERTEX
8
0
10
7.993950000000001
20
14.110112500000001
30
0
0
VERTEX
8
0
10
8.011050000000001
20
14.119984375000001
30
0
0
VERTEX
8
0
10
8.025015625
20
14.13395
30
0
0
VERTEX
8
0
10
8.0348875
20
14.151050000000001
30
0
0
VERTEX
8
0
10
8.040000000000001
20
14.170125
30
0
0
VERTEX
8
0
10
8.040000000000001
20
14.739875000000001
30
0
0
VERTEX
8
0
10
8.0348875
20
14.75895
30
0
0
VERTEX
8
0
10
8.025015625
20
14.776050000000001
30
0
0
VERTEX
8
0
10
8.011050000000001
20
14.790015625
30
0
0
VERTEX
8
0
10
7.993950000000001
20
14.7998875
30
0
0
VERTEX
8
0
10
7.974875000000001
20
14.805000000000001
30
0
0
VERTEX
8
0
10
7.805125
20
14.805000000000001
30
0
0
VERTEX
8
0
10
7.78605
20
14.7998875
30
0
0
VERTEX
8
0
10
7.76895
20
14.790015625
30
0
0
VERTEX
8
0
10
7.754984375
20
14.776050000000001
30
0
0
VERTEX
8
0
10
7.7451125
20
14.75895
30
0
0
VERTEX
8
0
10
7.74
20
14.739875000000001
30
0
0
VERTEX
8
0
10
7.74
20
14.170125
30
0
0
VERTEX
8
0
10
7.7451125
20
14.151050000000001
30
0
0
VERTEX
8
0
10
7.754984375
20
14.13395
30
0
0
VERTEX
8
0
10
7.76895
20
14.119984375000001
30
0
0
VERTEX
8
0
10
7.78605
20
14.110112500000001
30
0
0
VERTEX
8
0
10
7.805125
20
14.105
30
0
0
VERTEX
8
0
10
7.974875000000001
20
14.105
30
0
0
SEQEND
0
POLYLINE
66
1
8
1_copper
10
0.0
20
0.0
30
0.0
70
1
0
VERTEX
8
0
10
9.49395
20
14.110112500000001
30
0
0
VERTEX
8
0
10
9.511050000000001
20
14.119984375000001
30
0
0
VERTEX
8
0
10
9.525015625
20
14.13395
30
0
0
VERTEX
8
0
10
9.5348875
20
14.151050000000001
30
0
0
VERTEX
8
0
10
9.540000000000001
20
14.170125
30
0
0
VERTEX
8
0
10
9.540000000000001
20
14.739875000000001
30
0
0
VERTEX
8
0
10
9.5348875
20
14.75895
30
0
0
VERTEX
8
0
10
9.525015625
20
14.776050000000001
30
0
0
VERTEX
8
0
10
9.511050000000001
20
14.790015625
30
0
0
VERTEX
8
0
10
9.49395
20
14.7998875
30
0
0
VERTEX
8
0
10
9.474875
20
14.805000000000001
30
0
0
VERTEX
8
0
10
9.305125
20
14.805000000000001
30
0
0
VERTEX
8
0
10
9.286050000000001
20
14.7998875
30
0
0
VERTEX
8
0
10
9.26895
20
14.790015625
30
0
0
VERTEX
8
0
10
9.254984375000001
20
14.776050000000001
30
0
0
VERTEX
8
0
10
9.245112500000001
20
14.75895
30
0
0
VERTEX
8
0
10
9.24
20
14.739875000000001
30
0
0
VERTEX
8
0
10
9.24
20
14.170125
30
0
0
VERTEX
8
0
10
9.245112500000001
20
14.151050000000001
30
0
0
VERTEX
8
0
10
9.254984375000001
20
14.13395
30
0
0
VERTEX
8
0
10
9.26895
20
14.119984375000001
30
0
0
VERTEX
8
0
10
9.286050000000001
20
14.110112500000001
30
0
0
VERTEX
8
0
10
9.305125
20
14.105
30
0
0
VERTEX
8
0
10
9.474875
20
14.105
30
0
0
SEQEND
0
POLYLINE
66
1
8
1_copper
10
0.0
20
0.0
30
0.0
70
1
0
VERTEX
8
0
10
9.99395
20
14.110112500000001
30
0
0
VERTEX
8
0
10
10.011050000000001
20
14.119984375000001
30
0
0
VERTEX
8
0
10
10.025015625
20
14.13395
30
0
0
VERTEX
8
0
10
10.0348875
20
14.151050000000001
30
0
0
VERTEX
8
0
10
10.040000000000001
20
14.170125
30
0
0
VERTEX
8
0
10
10.040000000000001
20
14.739875000000001
30
0
0
VERTEX
8
0
10
10.0348875
20
14.75895
30
0
0
VERTEX
8
0
10
10.025015625
20
14.776050000000001
30
0
0
VERTEX
8
0
10
10.011050000000001
20
14.790015625
30
0
0
VERTEX
8
0
10
9.99395
20
14.7998875
30
0
0
VERTEX
8
0
10
9.974875
20
14.805000000000001
30
0
0
VERTEX
8
0
10
9.805125
20
14.805000000000001
30
0
0
VERTEX
8
0
10
9.786050000000001
20
14.7998875
30
0
0
VERTEX
8
0
10
9.76895
20
14.790015625
30
0
0
VERTEX
8
0
10
9.754984375000001
20
14.776050000000001
30
0
0
VERTEX
8
0
10
9.745112500000001
20
14.75895
30
0
0
VERTEX
8
0
10
9.74
20
14.739875000000001
30
0
0
VERTEX
8
0
10
9.74
20
14.170125
30
0
0
VERTEX
8
0
10
9.745112500000001
20
14.151050000000001
30
0
0
VERTEX
8
0
10
9.754984375000001
20
14.13395
30
0
0
VERTEX
8
0
10
9.76895
20
14.119984375000001
30
0
0
VERTEX
8
0
10
9.786050000000001
20
14.110112500000001
30
0
0
VERTEX
8
0
10
9.805125
20
14.105
30
0
0
VERTEX
8
0
10
9.974875
20
14.105
30
0
0
SEQEND
0
POLYLINE
66
1
8
1_copper
10
0.0
20
0.0
30
0.0
70
1
0
VERTEX
8
0
10
10.49395
20
14.110112500000001
30
0
0
VERTEX
8
0
10
10.511050000000001
20
14.119984375000001
30
0
0
VERTEX
8
0
10
10.525015625
20
14.13395
30
0
0
VERTEX
8
0
10
10.5348875
20
14.151050000000001
30
0
0
VERTEX
8
0
10
10.540000000000001
20
14.170125
30
0
0
VERTEX
8
0
10
10.540000000000001
20
14.739875000000001
30
0
0
VERTEX
8
0
10
10.5348875
20
14.75895
30
0
0
VERTEX
8
0
10
10.525015625
20
14.776050000000001
30
0
0
VERTEX
8
0
10
10.511050000000001
20
14.790015625
30
0
0
VERTEX
8
0
10
10.49395
20
14.7998875
30
0
0
VERTEX
8
0
10
10.474875
20
14.805000000000001
30
0
0
VERTEX
8
0
10
10.305125
20
14.805000000000001
30
0
0
VERTEX
8
0
10
10.286050000000001
20
14.7998875
30
0
0
VERTEX
8
0
10
10.26895
20
14.790015625
30
0
0
VERTEX
8
0
10
10.254984375000001
20
14.776050000000001
30
0
0
VERTEX
8
0
10
10.245112500000001
20
14.75895
30
0
0
VERTEX
8
0
10
10.24
20
14.739875000000001
30
0
0
VERTEX
8
0
10
10.24
20
14.170125
30
0
0
VERTEX
8
0
10
10.245112500000001
20
14.151050000000001
30
0
0
VERTEX
8
0
10
10.254984375000001
20
14.13395
30
0
0
VERTEX
8
0
10
10.26895
20
14.119984375000001
30
0
0
VERTEX
8
0
10
10.286050000000001
20
14.110112500000001
30
0
0
VERTEX
8
0
10
10.305125
20
14.105
30
0
0
VERTEX
8
0
10
10.474875
20
14.105
30
0
0
SEQEND
0
POLYLINE
66
1
8
1_copper
10
0.0
20
0.0
30
0.0
70
1
0
VERTEX
8
0
10
10.99395
20
14.110112500000001
30
0
0
VERTEX
8
0
10
11.011050000000001
20
14.119984375000001
30
0
0
VERTEX
8
0
10
11.025015625
20
14.13395
30
0
0
VERTEX
8
0
10
11.0348875
20
14.151050000000001
30
0
0
VERTEX
8
0
10
11.040000000000001
20
14.170125
30
0
0
VERTEX
8
0
10
11.040000000000001
20
14.739875000000001
30
0
0
VERTEX
8
0
10
11.0348875
20
14.75895
30
0
0
VERTEX
8
0
10
11.025015625
20
14.776050000000001
30
0
0
VERTEX
8
0
10
11.011050000000001
20
14.790015625
30
0
0
VERTEX
8
0
10
10.99395
20
14.7998875
30
0
0
VERTEX
8
0
10
10.974875
20
14.805000000000001
30
0
0
VERTEX
8
0
10
10.805125
20
14.805000000000001
30
0
0
VERTEX
8
0
10
10.786050000000001
20
14.7998875
30
0
0
VERTEX
8
0
10
10.76895
20
14.790015625
30
0
0
VERTEX
8
0
10
10.754984375000001
20
14.776050000000001
30
0
0
VERTEX
8
0
10
10.745112500000001
20
14.75895
30
0
0
VERTEX
8
0
10
10.74
20
14.739875000000001
30
0
0
VERTEX
8
0
10
10.74
20
14.170125
30
0
0
VERTEX
8
0
10
10.745112500000001
20
14.151050000000001
30
0
0
VERTEX
8
0
10
10.754984375000001
20
14.13395
30
0
0
VERTEX
8
0
10
10.76895
20
14.119984375000001
30
0
0
VERTEX
8
0
10
10.786050000000001
20
14.110112500000001
30
0
0
VERTEX
8
0
10
10.805125
20
14.105
30
0
0
VERTEX
8
0
10
10.974875
20
14.105
30
0
0
SEQEND
0
POLYLINE
66
1
8
1_copper
10
0.0
20
0.0
30
0.0
70
1
0
VERTEX
8
0
10
11.49395
20
14.110112500000001
30
0
0
VERTEX
8
0
10
11.511050000000001
20
14.119984375000001
30
0
0
VERTEX
8
0
10
11.525015625
20
14.13395
30
0
0
VERTEX
8
0
10
11.5348875
20
14.151050000000001
30
0
0
VERTEX
8
0
10
11.540000000000001
20
14.170125
30
0
0
VERTEX
8
0
10
11.540000000000001
20
14.739875000000001
30
0
0
VERTEX
8
0
10
11.5348875
20
14.75895
30
0
0
VERTEX
8
0
10
11.525015625
20
14.776050000000001
30
0
0
VERTEX
8
0
10
11.511050000000001
20
14.790015625
30
0
0
VERTEX
8
0
10
11.49395
20
14.7998875
30
0
0
VERTEX
8
0
10
11.474875
20
14.805000000000001
30
0
0
VERTEX
8
0
10
11.305125
20
14.805000000000001
30
0
0
VERTEX
8
0
10
11.286050000000001
20
14.7998875
30
0
0
VERTEX
8
0
10
11.26895
20
14.790015625
30
0
0
VERTEX
8
0
10
11.254984375000001
20
14.776050000000001
30
0
0
VERTEX
8
0
10
11.245112500000001
20
14.75895
30
0
0
VERTEX
8
0
10
11.24
20
14.739875000000001
30
0
0
VERTEX
8
0
10
11.24
20
14.170125
30
0
0
VERTEX
8
0
10
11.245112500000001
20
14.151050000000001
30
0
0
VERTEX
8
0
10
11.254984375000001
20
14.13395
30
0
0
VERTEX
8
0
10
11.26895
20
14.119984375000001
30
0
0
VERTEX
8
0
10
11.286050000000001
20
14.110112500000001
30
0
0
VERTEX
8
0
10
11.305125
20
14.105
30
0
0
VERTEX
8
0
10
11.474875
20
14.105
30
0
0
SEQEND
0
POLYLINE
66
1
8
1_copper
10
0.0
20
0.0
30
0.0
70
1
0
VERTEX
8
0
10
11.346671875
20
14.976415625000001
30
0
42
0.16997656369761122
0
VERTEX
8
0
10
11.392125
20
14.997518750000001
30
0
0
VERTEX
8
0
10
11.67248125
20
15.277875
30
0
42
0.198912367379658
0
VERTEX
8
0
10
11.6948
20
15.331756250000002
30
0
0
VERTEX
8
0
10
11.6948
20
17.43139375
30
0
0
VERTEX
8
0
10
11.90310625
20
17.6397
30
0
0
VERTEX
8
0
10
11.911050000000001
20
17.6351125
30
0
0
VERTEX
8
0
10
11.930125
20
17.630000000000003
30
0
0
VERTEX
8
0
10
12.499875000000001
20
17.630000000000003
30
0
0
VERTEX
8
0
10
12.51895
20
17.6351125
30
0
0
VERTEX
8
0
10
12.536050000000001
20
17.644984375
30
0
0
VERTEX
8
0
10
12.550015625
20
17.65895
30
0
0
VERTEX
8
0
10
12.5598875
20
17.67605
30
0
0
VERTEX
8
0
10
12.565000000000001
20
17.695125
30
0
0
VERTEX
8
0
10
12.565000000000001
20
17.864875
30
0
0
VERTEX
8
0
10
12.5598875
20
17.883950000000002
30
0
0
VERTEX
8
0
10
12.550015625
20
17.90105
30
0
0
VERTEX
8
0
10
12.536050000000001
20
17.915015625000002
30
0
0
VERTEX
8
0
10
12.51895
20
17.9248875
30
0
0
VERTEX
8
0
10
12.499875000000001
20
17.93
30
0
0
VERTEX
8
0
10
11.930125
20
17.93
30
0
0
VERTEX
8
0
10
11.911050000000001
20
17.9248875
30
0
0
VERTEX
8
0
10
11.89395
20
17.915015625000002
30
0
0
VERTEX
8
0
10
11.879984375000001
20
17.90105
30
0
0
VERTEX
8
0
10
11.870112500000001
20
17.883950000000002
30
0
0
VERTEX
8
0
10
11.865
20
17.864875
30
0
0
VERTEX
8
0
10
11.865
20
17.817118750000002
30
0
0
VERTEX
8
0
10
11.56471875
20
17.5168375
30
0
42
0.198912367379658
0
VERTEX
8
0
10
11.5424
20
17.46295625
30
0
0
VERTEX
8
0
10
11.5424
20
15.363318750000001
30
0
0
VERTEX
8
0
10
11.30668125
20
15.127600000000001
30
0
0
VERTEX
8
0
10
6.473318750000001
20
15.127600000000001
30
0
0
VERTEX
8
0
10
6.2376000000000005
20
15.363318750000001
30
0
0
VERTEX
8
0
10
6.2376000000000005
20
17.46295625
30
0
42
0.198912367379658
0
VERTEX
8
0
10
6.21528125
20
17.5168375
30
0
0
VERTEX
8
0
10
5.915
20
17.817118750000002
30
0
0
VERTEX
8
0
10
5.915
20
17.864875
30
0
0
VERTEX
8
0
10
5.9098875
20
17.883950000000002
30
0
0
VERTEX
8
0
10
5.900015625
20
17.90105
30
0
0
VERTEX
8
0
10
5.88605
20
17.915015625000002
30
0
0
VERTEX
8
0
10
5.86895
20
17.9248875
30
0
0
VERTEX
8
0
10
5.849875
20
17.93
30
0
0
VERTEX
8
0
10
5.280125
20
17.93
30
0
0
VERTEX
8
0
10
5.26105
20
17.9248875
30
0
0
VERTEX
8
0
10
5.24395
20
17.915015625000002
30
0
0
VERTEX
8
0
10
5.229984375
20
17.90105
30
0
0
VERTEX
8
0
10
5.2201125
20
17.883950000000002
30
0
0
VERTEX
8
0
10
5.215
20
17.864875
30
0
0
VERTEX
8
0
10
5.215
20
17.695125
30
0
0
VERTEX
8
0
10
5.2201125
20
17.67605
30
0
0
VERTEX
8
0
10
5.229984375
20
17.65895
30
0
0
VERTEX
8
0
10
5.24395
20
17.644984375
30
0
0
VERTEX
8
0
10
5.26105
20
17.6351125
30
0
0
VERTEX
8
0
10
5.280125
20
17.630000000000003
30
0
0
VERTEX
8
0
10
5.849875
20
17.630000000000003
30
0
0
VERTEX
8
0
10
5.86895
20
17.6351125
30
0
0
VERTEX
8
0
10
5.876893750000001
20
17.6397
30
0
0
VERTEX
8
0
10
6.0852
20
17.43139375
30
0
0
VERTEX
8
0
10
6.0852
20
15.331756250000002
30
0
42
0.198912367379658
0
VERTEX
8
0
10
6.1075187500000006
20
15.277875
30
0
0
VERTEX
8
0
10
6.387875
20
14.997518750000001
30
0
42
0.198912367379658
0
VERTEX
8
0
10
6.44175625
20
14.975200000000001
30
0
0
VERTEX
8
0
10
11.33824375
20
14.975200000000001
30
0
0
SEQEND
0
POLYLINE
66
1
8
1_copper
10
0.0
20
0.0
30
0.0
70
1
0
VERTEX
8
0
10
5.86895
20
18.1351125
30
0
0
VERTEX
8
0
10
5.88605
20
18.144984375
30
0
0
VERTEX
8
0
10
5.900015625
20
18.15895
30
0
0
VERTEX
8
0
10
5.9098875
20
18.17605
30
0
0
VERTEX
8
0
10
5.915
20
18.195125
30
0
0
VERTEX
8
0
10
5.915
20
18.364875
30
0
0
VERTEX
8
0
10
5.9098875
20
18.383950000000002
30
0
0
VERTEX
8
0
10
5.900015625
20
18.40105
30
0
0
VERTEX
8
0
10
5.88605
20
18.415015625000002
30
0
0
VERTEX
8
0
10
5.86895
20
18.4248875
30
0
0
VERTEX
8
0
10
5.849875
20
18.43
30
0
0
VERTEX
8
0
10
5.280125
20
18.43
30
0
0
VERTEX
8
0
10
5.26105
20
18.4248875
30
0
0
VERTEX
8
0
10
5.24395
20
18.415015625000002
30
0
0
VERTEX
8
0
10
5.229984375
20
18.40105
30
0
0
VERTEX
8
0
10
5.2201125
20
18.383950000000002
30
0
0
VERTEX
8
0
10
5.215
20
18.364875
30
0
0
VERTEX
8
0
10
5.215
20
18.195125
30
0
0
VERTEX
8
0
10
5.2201125
20
18.17605
30
0
0
VERTEX
8
0
10
5.229984375
20
18.15895
30
0
0
VERTEX
8
0
10
5.24395
20
18.144984375
30
0
0
VERTEX
8
0
10
5.26105
20
18.1351125
30
0
0
VERTEX
8
0
10
5.280125
20
18.130000000000003
30
0
0
VERTEX
8
0
10
5.849875
20
18.130000000000003
30
0
0
SEQEND
0
POLYLINE
66
1
8
1_copper
10
0.0
20
0.0
30
0.0
70
1
0
VERTEX
8
0
10
8.49395
20
20.7601125
30
0
0
VERTEX
8
0
10
8.511050000000001
20
20.769984375
30
0
0
VERTEX
8
0
10
8.525015625
20
20.78395
30
0
0
VERTEX
8
0
10
8.5348875
20
20.80105
30
0
0
VERTEX
8
0
10
8.540000000000001
20
20.820125
30
0
0
VERTEX
8
0
10
8.540000000000001
20
21.389875
30
0
0
VERTEX
8
0
10
8.5348875
20
21.40895
30
0
0
VERTEX
8
0
10
8.525015625
20
21.42605
30
0
0
VERTEX
8
0
10
8.511050000000001
20
21.440015625
30
0
0
VERTEX
8
0
10
8.49395
20
21.449887500000003
30
0
0
VERTEX
8
0
10
8.474875
20
21.455000000000002
30
0
0
VERTEX
8
0
10
8.305125
20
21.455000000000002
30
0
0
VERTEX
8
0
10
8.286050000000001
20
21.449887500000003
30
0
0
VERTEX
8
0
10
8.26895
20
21.440015625
30
0
0
VERTEX
8
0
10
8.254984375000001
20
21.42605
30
0
0
VERTEX
8
0
10
8.245112500000001
20
21.40895
30
0
0
VERTEX
8
0
10
8.24
20
21.389875
30
0
0
VERTEX
8
0
10
8.24
20
20.820125
30
0
0
VERTEX
8
0
10
8.245112500000001
20
20.80105
30
0
0
VERTEX
8
0
10
8.254984375000001
20
20.78395
30
0
0
VERTEX
8
0
10
8.26895
20
20.769984375
30
0
0
VERTEX
8
0
10
8.286050000000001
20
20.7601125
30
0
0
VERTEX
8
0
10
8.305125
20
20.755000000000003
30
0
0
VERTEX
8
0
10
8.474875
20
20.755000000000003
30
0
0
SEQEND
0
POLYLINE
66
1
8
1_copper
10
0.0
20
0.0
30
0.0
70
1
0
VERTEX
8
0
10
22.85
20
2.4638
30
0
0
VERTEX
8
0
10
24.130000000000003
20
2.4638
30
0
42
0.198912367379658
0
VERTEX
8
0
10
24.183881250000002
20
2.48611875
30
0
0
VERTEX
8
0
10
25.453881250000002
20
3.75611875
30
0
42
0.198912367379658
0
VERTEX
8
0
10
25.476200000000002
20
3.81
30
0
0
VERTEX
8
0
10
25.476200000000002
20
5.08
30
0
42
0.198912367379658
0
VERTEX
8
0
10
25.453881250000002
20
5.13388125
30
0
0
VERTEX
8
0
10
24.183881250000002
20
6.40388125
30
0
42
0.198912367379658
0
VERTEX
8
0
10
24.130000000000003
20
6.426200000000001
30
0
0
VERTEX
8
0
10
22.17
20
6.426200000000001
30
0
0
VERTEX
8
0
10
22.17
20
7.5438
30
0
0
VERTEX
8
0
10
24.130000000000003
20
7.5438
30
0
42
0.198912367379658
0
VERTEX
8
0
10
24.183881250000002
20
7.56611875
30
0
0
VERTEX
8
0
10
25.453881250000002
20
8.83611875
30
0
42
0.198912367379658
0
VERTEX
8
0
10
25.476200000000002
20
8.89
30
0
0
VERTEX
8
0
10
25.476200000000002
20
13.97
30
0
42
0.198912367379658
0
VERTEX
8
0
10
25.453881250000002
20
14.02388125
30
0
0
VERTEX
8
0
10
24.183881250000002
20
15.29388125
30
0
42
0.198912367379658
0
VERTEX
8
0
10
24.130000000000003
20
15.3162
30
0
0
VERTEX
8
0
10
22.17
20
15.3162
30
0
0
VERTEX
8
0
10
22.17
20
16.4338
30
0
0
VERTEX
8
0
10
24.130000000000003
20
16.4338
30
0
42
0.198912367379658
0
VERTEX
8
0
10
24.183881250000002
20
16.45611875
30
0
0
VERTEX
8
0
10
25.453881250000002
20
17.72611875
30
0
42
0.198912367379658
0
VERTEX
8
0
10
25.476200000000002
20
17.78
30
0
0
VERTEX
8
0
10
25.476200000000002
20
25.400000000000002
30
0
42
0.198912367379658
0
VERTEX
8
0
10
25.453881250000002
20
25.453881250000002
30
0
0
VERTEX
8
0
10
24.183881250000002
20
26.72388125
30
0
42
0.198912367379658
0
VERTEX
8
0
10
24.130000000000003
20
26.7462
30
0
0
VERTEX
8
0
10
22.85
20
26.7462
30
0
0
VERTEX
8
0
10
22.85
20
27.4122375
30
0
0
VERTEX
8
0
10
22.913881250000003
20
27.47611875
30
0
42
0.198912367379658
0
VERTEX
8
0
10
22.9362
20
27.53
30
0
0
VERTEX
8
0
10
22.9362
20
29.21
30
0
42
0.198912367379658
0
VERTEX
8
0
10
22.913881250000003
20
29.26388125
30
0
0
VERTEX
8
0
10
21.64388125
20
30.53388125
30
0
42
0.198912367379658
0
VERTEX
8
0
10
21.59
20
30.5562
30
0
0
VERTEX
8
0
10
13.97
20
30.5562
30
0
42
0.198912367379658
0
VERTEX
8
0
10
13.91611875
20
30.53388125
30
0
0
VERTEX
8
0
10
12.646118750000001
20
29.26388125
30
0
42
0.198912367379658
0
VERTEX
8
0
10
12.623800000000001
20
29.21
30
0
0
VERTEX
8
0
10
12.623800000000001
20
27.9715625
30
0
0
VERTEX
8
0
10
11.922237500000001
20
27.27
30
0
0
VERTEX
8
0
10
11.05
20
27.27
30
0
0
VERTEX
8
0
10
11.05
20
27.1577625
30
0
0
VERTEX
8
0
10
10.21388125
20
27.99388125
30
0
42
0.198912367379658
0
VERTEX
8
0
10
10.16
20
28.0162
30
0
0
VERTEX
8
0
10
8.67
20
28.0162
30
0
42
0.198912367379658
0
VERTEX
8
0
10
8.61611875
20
27.99388125
30
0
0
VERTEX
8
0
10
6.875
20
26.252762500000003
30
0
0
VERTEX
8
0
10
6.73
20
26.397762500000002
30
0
0
VERTEX
8
0
10
6.73
20
27.27
30
0
0
VERTEX
8
0
10
5.857762500000001
20
27.27
30
0
0
VERTEX
8
0
10
5.13388125
20
27.99388125
30
0
42
0.198912367379658
0
VERTEX
8
0
10
5.08
20
28.0162
30
0
0
VERTEX
8
0
10
3.81
20
28.0162
30
0
42
0.198912367379658
0
VERTEX
8
0
10
3.75611875
20
27.99388125
30
0
0
VERTEX
8
0
10
3.3370375
20
27.5748
30
0
42
0.2048014252134768
0
VERTEX
8
0
10
3.2814312500000002
20
27.55248125
30
0
0
VERTEX
8
0
10
2.48611875
20
26.75716875
30
0
42
0.198912367379658
0
VERTEX
8
0
10
2.4638
20
26.703287500000002
30
0
0
VERTEX
8
0
10
2.4638
20
12.25
30
0
0
VERTEX
8
0
10
1.9400000000000002
20
12.25
30
0
0
VERTEX
8
0
10
1.9400000000000002
20
11.05
30
0
0
VERTEX
8
0
10
3.14
20
11.05
30
0
0
VERTEX
8
0
10
3.14
20
11.3538
30
0
0
VERTEX
8
0
10
7.62
20
11.3538
30
0
42
0.198912367379658
0
VERTEX
8
0
10
7.67388125
20
11.37611875
30
0
0
VERTEX
8
0
10
8.94388125
20
12.646118750000001
30
0
42
0.198912367379658
0
VERTEX
8
0
10
8.9662
20
12.700000000000001
30
0
0
VERTEX
8
0
10
8.9662
20
14.105
30
0
0
VERTEX
8
0
10
8.974875
20
14.105
30
0
0
VERTEX
8
0
10
8.99395
20
14.110112500000001
30
0
0
VERTEX
8
0
10
9.011050000000001
20
14.119984375000001
30
0
0
VERTEX
8
0
10
9.025015625
20
14.13395
30
0
0
VERTEX
8
0
10
9.0348875
20
14.151050000000001
30
0
0
VERTEX
8
0
10
9.040000000000001
20
14.170125
30
0
0
VERTEX
8
0
10
9.040000000000001
20
14.739875000000001
30
0
0
VERTEX
8
0
10
9.0348875
20
14.75895
30
0
0
VERTEX
8
0
10
9.025015625
20
14.776050000000001
30
0
0
VERTEX
8
0
10
9.011050000000001
20
14.790015625
30
0
0
VERTEX
8
0
10
8.99395
20
14.7998875
30
0
0
VERTEX
8
0
10
8.974875
20
14.805000000000001
30
0
0
VERTEX
8
0
10
8.805125
20
14.805000000000001
30
0
0
VERTEX
8
0
10
8.786050000000001
20
14.7998875
30
0
0
VERTEX
8
0
10
8.76895
20
14.790015625
30
0
0
VERTEX
8
0
10
8.754984375000001
20
14.776050000000001
30
0
0
VERTEX
8
0
10
8.745112500000001
20
14.75895
30
0
0
VERTEX
8
0
10
8.74
20
14.739875000000001
30
0
0
VERTEX
8
0
10
8.74
20
14.170125
30
0
0
VERTEX
8
0
10
8.745112500000001
20
14.151050000000001
30
0
0
VERTEX
8
0
10
8.754984375000001
20
14.13395
30
0
0
VERTEX
8
0
10
8.76895
20
14.119984375000001
30
0
0
VERTEX
8
0
10
8.786050000000001
20
14.110112500000001
30
0
0
VERTEX
8
0
10
8.805125
20
14.105
30
0
0
VERTEX
8
0
10
8.8138
20
14.105
30
0
0
VERTEX
8
0
10
8.8138
20
12.7315625
30
0
0
VERTEX
8
0
10
7.5884375
20
11.5062
30
0
0
VERTEX
8
0
10
3.14
20
11.5062
30
0
0
VERTEX
8
0
10
3.14
20
12.25
30
0
0
VERTEX
8
0
10
2.6162
20
12.25
30
0
0
VERTEX
8
0
10
2.6162
20
26.671725000000002
30
0
0
VERTEX
8
0
10
3.3668750000000003
20
27.4224
30
0
42
0.13652134667804794
0
VERTEX
8
0
10
3.415525
20
27.439453125
30
0
0
VERTEX
8
0
10
3.42248125
20
27.44471875
30
0
0
VERTEX
8
0
10
3.8415625
20
27.8638
30
0
0
VERTEX
8
0
10
5.0484375
20
27.8638
30
0
0
VERTEX
8
0
10
5.6422375
20
27.27
30
0
0
VERTEX
8
0
10
5.53
20
27.27
30
0
0
VERTEX
8
0
10
5.53
20
26.07
30
0
0
VERTEX
8
0
10
6.73
20
26.07
30
0
0
VERTEX
8
0
10
6.73
20
26.182237500000003
30
0
0
VERTEX
8
0
10
6.82111875
20
26.09111875
30
0
42
0.41421356237309503
0
VERTEX
8
0
10
6.928881250000001
20
26.09111875
30
0
0
VERTEX
8
0
10
8.7015625
20
27.8638
30
0
0
VERTEX
8
0
10
10.1284375
20
27.8638
30
0
0
VERTEX
8
0
10
11.05
20
26.9422375
30
0
0
VERTEX
8
0
10
11.05
20
26.7462
30
0
0
VERTEX
8
0
10
10.540000000000001
20
26.7462
30
0
0
VERTEX
8
0
10
10.540000000000001
20
27.27
30
0
0
VERTEX
8
0
10
9.34
20
27.27
30
0
0
VERTEX
8
0
10
9.34
20
26.07
30
0
0
VERTEX
8
0
10
10.540000000000001
20
26.07
30
0
0
VERTEX
8
0
10
10.540000000000001
20
26.5938
30
0
0
VERTEX
8
0
10
11.05
20
26.5938
30
0
0
VERTEX
8
0
10
11.05
20
26.07
30
0
0
VERTEX
8
0
10
12.25
20
26.07
30
0
0
VERTEX
8
0
10
12.25
20
27.27
30
0
0
VERTEX
8
0
10
12.137762500000001
20
27.27
30
0
0
VERTEX
8
0
10
12.753881250000001
20
27.88611875
30
0
42
0.198912367379658
0
VERTEX
8
0
10
12.776200000000001
20
27.94
30
0
0
VERTEX
8
0
10
12.776200000000001
20
29.1784375
30
0
0
VERTEX
8
0
10
14.0015625
20
30.4038
30
0
0
VERTEX
8
0
10
21.5584375
20
30.4038
30
0
0
VERTEX
8
0
10
22.7838
20
29.1784375
30
0
0
VERTEX
8
0
10
22.7838
20
28.520000000000003
30
0
0
VERTEX
8
0
10
21.150000000000002
20
28.520000000000003
30
0
0
VERTEX
8
0
10
21.150000000000002
20
24.82
30
0
0
VERTEX
8
0
10
22.85
20
24.82
30
0
0
VERTEX
8
0
10
22.85
20
26.5938
30
0
0
VERTEX
8
0
10
24.098437500000003
20
26.5938
30
0
0
VERTEX
8
0
10
25.323800000000002
20
25.368437500000002
30
0
0
VERTEX
8
0
10
25.323800000000002
20
17.8115625
30
0
0
VERTEX
8
0
10
24.098437500000003
20
16.5862
30
0
0
VERTEX
8
0
10
22.17
20
16.5862
30
0
0
VERTEX
8
0
10
22.17
20
16.95
30
0
0
VERTEX
8
0
10
18.470000000000002
20
16.95
30
0
0
VERTEX
8
0
10
18.470000000000002
20
15.25
30
0
0
VERTEX
8
0
10
21.104521875
20
15.25
30
0
42
0.4533417814691251
0
VERTEX
8
0
10
21.18
20
15.1638
30
0
0
VERTEX
8
0
10
24.098437500000003
20
15.1638
30
0
0
VERTEX
8
0
10
25.323800000000002
20
13.938437500000001
30
0
0
VERTEX
8
0
10
25.323800000000002
20
8.9215625
30
0
0
VERTEX
8
0
10
24.098437500000003
20
7.6962
30
0
0
VERTEX
8
0
10
22.17
20
7.6962
30
0
0
VERTEX
8
0
10
22.17
20
8.06
30
0
0
VERTEX
8
0
10
18.470000000000002
20
8.06
30
0
0
VERTEX
8
0
10
18.470000000000002
20
6.36
30
0
0
VERTEX
8
0
10
21.062237500000002
20
6.36
30
0
0
VERTEX
8
0
10
21.12611875
20
6.296118750000001
30
0
42
0.198912367379658
0
VERTEX
8
0
10
21.18
20
6.2738000000000005
30
0
0
VERTEX
8
0
10
24.098437500000003
20
6.2738000000000005
30
0
0
VERTEX
8
0
10
25.323800000000002
20
5.0484375
30
0
0
VERTEX
8
0
10
25.323800000000002
20
3.8415625
30
0
0
VERTEX
8
0
10
24.098437500000003
20
2.6162
30
0
0
VERTEX
8
0
10
22.85
20
2.6162
30
0
0
VERTEX
8
0
10
22.85
20
5.66
30
0
0
VERTEX
8
0
10
21.150000000000002
20
5.66
30
0
0
VERTEX
8
0
10
21.150000000000002
20
1.9600000000000002
30
0
0
VERTEX
8
0
10
22.85
20
1.9600000000000002
30
0
0
SEQEND
0
POLYLINE
66
1
8
1_copper
10
0.0
20
0.0
30
0.0
70
1
0
VERTEX
8
0
10
8.99395
20
20.7601125
30
0
0
VERTEX
8
0
10
9.011050000000001
20
20.769984375
30
0
0
VERTEX
8
0
10
9.025015625
20
20.78395
30
0
0
VERTEX
8
0
10
9.0348875
20
20.80105
30
0
0
VERTEX
8
0
10
9.040000000000001
20
20.820125
30
0
0
VERTEX
8
0
10
9.040000000000001
20
21.389875
30
0
0
VERTEX
8
0
10
9.0348875
20
21.40895
30
0
0
VERTEX
8
0
10
9.025015625
20
21.42605
30
0
0
VERTEX
8
0
10
9.011050000000001
20
21.440015625
30
0
0
VERTEX
8
0
10
8.99395
20
21.449887500000003
30
0
0
VERTEX
8
0
10
8.974875
20
21.455000000000002
30
0
0
VERTEX
8
0
10
8.805125
20
21.455000000000002
30
0
0
VERTEX
8
0
10
8.786050000000001
20
21.449887500000003
30
0
0
VERTEX
8
0
10
8.76895
20
21.440015625
30
0
0
VERTEX
8
0
10
8.754984375000001
20
21.42605
30
0
0
VERTEX
8
0
10
8.745112500000001
20
21.40895
30
0
0
VERTEX
8
0
10
8.74
20
21.389875
30
0
0
VERTEX
8
0
10
8.74
20
20.820125
30
0
0
VERTEX
8
0
10
8.745112500000001
20
20.80105
30
0
0
VERTEX
8
0
10
8.754984375000001
20
20.78395
30
0
0
VERTEX
8
0
10
8.76895
20
20.769984375
30
0
0
VERTEX
8
0
10
8.786050000000001
20
20.7601125
30
0
0
VERTEX
8
0
10
8.805125
20
20.755000000000003
30
0
0
VERTEX
8
0
10
8.974875
20
20.755000000000003
30
0
0
SEQEND
0
POLYLINE
66
1
8
1_copper
10
0.0
20
0.0
30
0.0
70
1
0
VERTEX
8
0
10
16.84
20
12.18
30
0
0
VERTEX
8
0
10
15.867762500000001
20
12.18
30
0
0
VERTEX
8
0
10
14.0462
20
14.0015625
30
0
0
VERTEX
8
0
10
14.0462
20
16.51
30
0
42
0.198912367379658
0
VERTEX
8
0
10
14.02388125
20
16.56388125
30
0
0
VERTEX
8
0
10
13.253881250000001
20
17.33388125
30
0
42
0.198912367379658
0
VERTEX
8
0
10
13.200000000000001
20
17.3562
30
0
0
VERTEX
8
0
10
12.565000000000001
20
17.3562
30
0
0
VERTEX
8
0
10
12.565000000000001
20
17.364875
30
0
0
VERTEX
8
0
10
12.5598875
20
17.383950000000002
30
0
0
VERTEX
8
0
10
12.550015625
20
17.40105
30
0
0
VERTEX
8
0
10
12.536050000000001
20
17.415015625000002
30
0
0
VERTEX
8
0
10
12.51895
20
17.4248875
30
0
0
VERTEX
8
0
10
12.499875000000001
20
17.43
30
0
0
VERTEX
8
0
10
11.930125
20
17.43
30
0
0
VERTEX
8
0
10
11.911050000000001
20
17.4248875
30
0
0
VERTEX
8
0
10
11.89395
20
17.415015625000002
30
0
0
VERTEX
8
0
10
11.879984375000001
20
17.40105
30
0
0
VERTEX
8
0
10
11.870112500000001
20
17.383950000000002
30
0
0
VERTEX
8
0
10
11.865
20
17.364875
30
0
0
VERTEX
8
0
10
11.865
20
17.195125
30
0
0
VERTEX
8
0
10
11.870112500000001
20
17.17605
30
0
0
VERTEX
8
0
10
11.879984375000001
20
17.15895
30
0
0
VERTEX
8
0
10
11.89395
20
17.144984375
30
0
0
VERTEX
8
0
10
11.911050000000001
20
17.1351125
30
0
0
VERTEX
8
0
10
11.930125
20
17.130000000000003
30
0
0
VERTEX
8
0
10
12.499875000000001
20
17.130000000000003
30
0
0
VERTEX
8
0
10
12.51895
20
17.1351125
30
0
0
VERTEX
8
0
10
12.536050000000001
20
17.144984375
30
0
0
VERTEX
8
0
10
12.550015625
20
17.15895
30
0
0
VERTEX
8
0
10
12.5598875
20
17.17605
30
0
0
VERTEX
8
0
10
12.565000000000001
20
17.195125
30
0
0
VERTEX
8
0
10
12.565000000000001
20
17.2038
30
0
0
VERTEX
8
0
10
13.168437500000001
20
17.2038
30
0
0
VERTEX
8
0
10
13.8938
20
16.478437500000002
30
0
0
VERTEX
8
0
10
13.8938
20
13.97
30
0
42
0.198912367379658
0
VERTEX
8
0
10
13.91611875
20
13.91611875
30
0
0
VERTEX
8
0
10
15.6522375
20
12.18
30
0
0
VERTEX
8
0
10
15.540000000000001
20
12.18
30
0
0
VERTEX
8
0
10
15.540000000000001
20
10.68
30
0
0
VERTEX
8
0
10
16.84
20
10.68
30
0
0
SEQEND
0
POLYLINE
66
1
8
1_copper
10
0.0
20
0.0
30
0.0
70
1
0
VERTEX
8
0
10
8.49395
20
14.110112500000001
30
0
0
VERTEX
8
0
10
8.511050000000001
20
14.119984375000001
30
0
0
VERTEX
8
0
10
8.525015625
20
14.13395
30
0
0
VERTEX
8
0
10
8.5348875
20
14.151050000000001
30
0
0
VERTEX
8
0
10
8.540000000000001
20
14.170125
30
0
0
VERTEX
8
0
10
8.540000000000001
20
14.739875000000001
30
0
0
VERTEX
8
0
10
8.5348875
20
14.75895
30
0
0
VERTEX
8
0
10
8.525015625
20
14.776050000000001
30
0
0
VERTEX
8
0
10
8.511050000000001
20
14.790015625
30
0
0
VERTEX
8
0
10
8.49395
20
14.7998875
30
0
0
VERTEX
8
0
10
8.474875
20
14.805000000000001
30
0
0
VERTEX
8
0
10
8.305125
20
14.805000000000001
30
0
0
VERTEX
8
0
10
8.286050000000001
20
14.7998875
30
0
0
VERTEX
8
0
10
8.26895
20
14.790015625
30
0
0
VERTEX
8
0
10
8.254984375000001
20
14.776050000000001
30
0
0
VERTEX
8
0
10
8.245112500000001
20
14.75895
30
0
0
VERTEX
8
0
10
8.24
20
14.739875000000001
30
0
0
VERTEX
8
0
10
8.24
20
14.170125
30
0
0
VERTEX
8
0
10
8.245112500000001
20
14.151050000000001
30
0
0
VERTEX
8
0
10
8.254984375000001
20
14.13395
30
0
0
VERTEX
8
0
10
8.26895
20
14.119984375000001
30
0
0
VERTEX
8
0
10
8.286050000000001
20
14.110112500000001
30
0
0
VERTEX
8
0
10
8.305125
20
14.105
30
0
0
VERTEX
8
0
10
8.474875
20
14.105
30
0
0
SEQEND
0
POLYLINE
66
1
8
1_copper
10
0.0
20
0.0
30
0.0
70
1
0
VERTEX
8
0
10
22.17
20
13.96
30
0
0
VERTEX
8
0
10
18.470000000000002
20
13.96
30
0
0
VERTEX
8
0
10
18.470000000000002
20
13.186200000000001
30
0
0
VERTEX
8
0
10
17.4015625
20
13.186200000000001
30
0
0
VERTEX
8
0
10
16.5862
20
14.0015625
30
0
0
VERTEX
8
0
10
16.5862
20
17.78
30
0
42
0.198912367379658
0
VERTEX
8
0
10
16.56388125
20
17.83388125
30
0
0
VERTEX
8
0
10
15.063881250000001
20
19.33388125
30
0
42
0.198912367379658
0
VERTEX
8
0
10
15.010000000000002
20
19.3562
30
0
0
VERTEX
8
0
10
12.565000000000001
20
19.3562
30
0
0
VERTEX
8
0
10
12.565000000000001
20
19.364875
30
0
0
VERTEX
8
0
10
12.5598875
20
19.383950000000002
30
0
0
VERTEX
8
0
10
12.550015625
20
19.40105
30
0
0
VERTEX
8
0
10
12.536050000000001
20
19.415015625000002
30
0
0
VERTEX
8
0
10
12.51895
20
19.4248875
30
0
0
VERTEX
8
0
10
12.499875000000001
20
19.43
30
0
0
VERTEX
8
0
10
11.930125
20
19.43
30
0
0
VERTEX
8
0
10
11.911050000000001
20
19.4248875
30
0
0
VERTEX
8
0
10
11.89395
20
19.415015625000002
30
0
0
VERTEX
8
0
10
11.879984375000001
20
19.40105
30
0
0
VERTEX
8
0
10
11.870112500000001
20
19.383950000000002
30
0
0
VERTEX
8
0
10
11.865
20
19.364875
30
0
0
VERTEX
8
0
10
11.865
20
19.195125
30
0
0
VERTEX
8
0
10
11.870112500000001
20
19.17605
30
0
0
VERTEX
8
0
10
11.879984375000001
20
19.15895
30
0
0
VERTEX
8
0
10
11.89395
20
19.144984375
30
0
0
VERTEX
8
0
10
11.911050000000001
20
19.1351125
30
0
0
VERTEX
8
0
10
11.930125
20
19.130000000000003
30
0
0
VERTEX
8
0
10
12.499875000000001
20
19.130000000000003
30
0
0
VERTEX
8
0
10
12.51895
20
19.1351125
30
0
0
VERTEX
8
0
10
12.536050000000001
20
19.144984375
30
0
0
VERTEX
8
0
10
12.550015625
20
19.15895
30
0
0
VERTEX
8
0
10
12.5598875
20
19.17605
30
0
0
VERTEX
8
0
10
12.565000000000001
20
19.195125
30
0
0
VERTEX
8
0
10
12.565000000000001
20
19.2038
30
0
0
VERTEX
8
0
10
14.9784375
20
19.2038
30
0
0
VERTEX
8
0
10
16.4338
20
17.7484375
30
0
0
VERTEX
8
0
10
16.4338
20
13.97
30
0
42
0.198912367379658
0
VERTEX
8
0
10
16.45611875
20
13.91611875
30
0
0
VERTEX
8
0
10
17.31611875
20
13.056118750000001
30
0
42
0.198912367379658
0
VERTEX
8
0
10
17.37
20
13.033800000000001
30
0
0
VERTEX
8
0
10
18.470000000000002
20
13.033800000000001
30
0
0
VERTEX
8
0
10
18.470000000000002
20
12.26
30
0
0
VERTEX
8
0
10
22.17
20
12.26
30
0
0
SEQEND
0
POLYLINE
66
1
8
1_copper
10
0.0
20
0.0
30
0.0
70
1
0
VERTEX
8
0
10
12.51895
20
19.6351125
30
0
0
VERTEX
8
0
10
12.536050000000001
20
19.644984375
30
0
0
VERTEX
8
0
10
12.550015625
20
19.65895
30
0
0
VERTEX
8
0
10
12.5598875
20
19.67605
30
0
0
VERTEX
8
0
10
12.565000000000001
20
19.695125
30
0
0
VERTEX
8
0
10
12.565000000000001
20
19.864875
30
0
0
VERTEX
8
0
10
12.5598875
20
19.883950000000002
30
0
0
VERTEX
8
0
10
12.550015625
20
19.90105
30
0
0
VERTEX
8
0
10
12.536050000000001
20
19.915015625000002
30
0
0
VERTEX
8
0
10
12.51895
20
19.9248875
30
0
0
VERTEX
8
0
10
12.499875000000001
20
19.93
30
0
0
VERTEX
8
0
10
11.930125
20
19.93
30
0
0
VERTEX
8
0
10
11.911050000000001
20
19.9248875
30
0
0
VERTEX
8
0
10
11.90310625
20
19.9203
30
0
0
VERTEX
8
0
10
11.7126
20
20.11080625
30
0
0
VERTEX
8
0
10
11.7126
20
20.21044375
30
0
42
0.198912367379658
0
VERTEX
8
0
10
11.69028125
20
20.264325
30
0
0
VERTEX
8
0
10
11.5633625
20
20.39124375
30
0
0
VERTEX
8
0
10
11.822481250000001
20
20.6503625
30
0
42
0.198912367379658
0
VERTEX
8
0
10
11.844800000000001
20
20.70424375
30
0
0
VERTEX
8
0
10
11.844800000000001
20
21.354925
30
0
0
VERTEX
8
0
10
12.003675000000001
20
21.5138
30
0
0
VERTEX
8
0
10
18.470000000000002
20
21.5138
30
0
0
VERTEX
8
0
10
18.470000000000002
20
21.150000000000002
30
0
0
VERTEX
8
0
10
22.17
20
21.150000000000002
30
0
0
VERTEX
8
0
10
22.17
20
22.85
30
0
0
VERTEX
8
0
10
18.470000000000002
20
22.85
30
0
0
VERTEX
8
0
10
18.470000000000002
20
21.6662
30
0
0
VERTEX
8
0
10
11.9721125
20
21.6662
30
0
42
0.198912367379658
0
VERTEX
8
0
10
11.91823125
20
21.64388125
30
0
0
VERTEX
8
0
10
11.714718750000001
20
21.44036875
30
0
42
0.198912367379658
0
VERTEX
8
0
10
11.692400000000001
20
21.3864875
30
0
0
VERTEX
8
0
10
11.692400000000001
20
20.73580625
30
0
0
VERTEX
8
0
10
11.424540625
20
20.467946875000003
30
0
42
0.4019483854038984
0
VERTEX
8
0
10
11.40533125
20
20.346878125
30
0
0
VERTEX
8
0
10
11.408875
20
20.33915
30
0
42
0.09705561579820741
0
VERTEX
8
0
10
11.424540625
20
20.314540625
30
0
0
VERTEX
8
0
10
11.5602
20
20.17888125
30
0
0
VERTEX
8
0
10
11.5602
20
20.07924375
30
0
42
0.198912367379658
0
VERTEX
8
0
10
11.58251875
20
20.0253625
30
0
0
VERTEX
8
0
10
11.865
20
19.74288125
30
0
0
VERTEX
8
0
10
11.865
20
19.695125
30
0
0
VERTEX
8
0
10
11.870112500000001
20
19.67605
30
0
0
VERTEX
8
0
10
11.879984375000001
20
19.65895
30
0
0
VERTEX
8
0
10
11.89395
20
19.644984375
30
0
0
VERTEX
8
0
10
11.911050000000001
20
19.6351125
30
0
0
VERTEX
8
0
10
11.930125
20
19.630000000000003
30
0
0
VERTEX
8
0
10
12.499875000000001
20
19.630000000000003
30
0
0
SEQEND
0
POLYLINE
66
1
8
1_copper
10
0.0
20
0.0
30
0.0
70
1
0
VERTEX
8
0
10
16.95
20
4.5522375
30
0
0
VERTEX
8
0
10
17.83388125
20
5.43611875
30
0
42
0.198912367379658
0
VERTEX
8
0
10
17.8562
20
5.49
30
0
0
VERTEX
8
0
10
17.8562
20
7.661725000000001
30
0
0
VERTEX
8
0
10
18.406875
20
8.2124
30
0
0
VERTEX
8
0
10
18.448600000000003
20
8.2124
30
0
42
0.198912367379658
0
VERTEX
8
0
10
18.502481250000002
20
8.23471875
30
0
0
VERTEX
8
0
10
19.0815625
20
8.8138
30
0
0
VERTEX
8
0
10
22.86
20
8.8138
30
0
42
0.198912367379658
0
VERTEX
8
0
10
22.913881250000003
20
8.83611875
30
0
0
VERTEX
8
0
10
24.183881250000002
20
10.10611875
30
0
42
0.198912367379658
0
VERTEX
8
0
10
24.206200000000003
20
10.16
30
0
0
VERTEX
8
0
10
24.206200000000003
20
12.700000000000001
30
0
42
0.198912367379658
0
VERTEX
8
0
10
24.183881250000002
20
12.753881250000001
30
0
0
VERTEX
8
0
10
21.94868125
20
14.98908125
30
0
42
0.198912367379658
0
VERTEX
8
0
10
21.8948
20
15.0114
30
0
0
VERTEX
8
0
10
18.1163625
20
15.0114
30
0
0
VERTEX
8
0
10
17.8562
20
15.2715625
30
0
0
VERTEX
8
0
10
17.8562
20
19.05
30
0
42
0.198912367379658
0
VERTEX
8
0
10
17.83388125
20
19.10388125
30
0
0
VERTEX
8
0
10
16.56388125
20
20.37388125
30
0
42
0.198912367379658
0
VERTEX
8
0
10
16.51
20
20.3962
30
0
0
VERTEX
8
0
10
12.552815625000001
20
20.3962
30
0
0
VERTEX
8
0
10
12.550015625
20
20.40105
30
0
0
VERTEX
8
0
10
12.536050000000001
20
20.415015625000002
30
0
0
VERTEX
8
0
10
12.51895
20
20.4248875
30
0
0
VERTEX
8
0
10
12.499875000000001
20
20.43
30
0
0
VERTEX
8
0
10
11.930125
20
20.43
30
0
0
VERTEX
8
0
10
11.911050000000001
20
20.4248875
30
0
0
VERTEX
8
0
10
11.89395
20
20.415015625000002
30
0
0
VERTEX
8
0
10
11.879984375000001
20
20.40105
30
0
0
VERTEX
8
0
10
11.870112500000001
20
20.383950000000002
30
0
0
VERTEX
8
0
10
11.865
20
20.364875
30
0
0
VERTEX
8
0
10
11.865
20
20.195125
30
0
0
VERTEX
8
0
10
11.870112500000001
20
20.17605
30
0
0
VERTEX
8
0
10
11.879984375000001
20
20.15895
30
0
0
VERTEX
8
0
10
11.89395
20
20.144984375
30
0
0
VERTEX
8
0
10
11.911050000000001
20
20.1351125
30
0
0
VERTEX
8
0
10
11.930125
20
20.130000000000003
30
0
0
VERTEX
8
0
10
12.499875000000001
20
20.130000000000003
30
0
0
VERTEX
8
0
10
12.51895
20
20.1351125
30
0
0
VERTEX
8
0
10
12.536050000000001
20
20.144984375
30
0
0
VERTEX
8
0
10
12.550015625
20
20.15895
30
0
0
VERTEX
8
0
10
12.5598875
20
20.17605
30
0
0
VERTEX
8
0
10
12.565000000000001
20
20.195125
30
0
0
VERTEX
8
0
10
12.565000000000001
20
20.2438
30
0
0
VERTEX
8
0
10
16.478437500000002
20
20.2438
30
0
0
VERTEX
8
0
10
17.7038
20
19.0184375
30
0
0
VERTEX
8
0
10
17.7038
20
15.24
30
0
42
0.198912367379658
0
VERTEX
8
0
10
17.72611875
20
15.18611875
30
0
0
VERTEX
8
0
10
18.03091875
20
14.88131875
30
0
42
0.198912367379658
0
VERTEX
8
0
10
18.0848
20
14.859
30
0
0
VERTEX
8
0
10
21.8632375
20
14.859
30
0
0
VERTEX
8
0
10
24.053800000000003
20
12.668437500000001
30
0
0
VERTEX
8
0
10
24.053800000000003
20
10.1915625
30
0
0
VERTEX
8
0
10
22.8284375
20
8.9662
30
0
0
VERTEX
8
0
10
19.05
20
8.9662
30
0
42
0.198912367379658
0
VERTEX
8
0
10
18.99611875
20
8.94388125
30
0
0
VERTEX
8
0
10
18.4170375
20
8.3648
30
0
42
0.33315925230482374
0
VERTEX
8
0
10
18.32143125
20
8.34248125
30
0
0
VERTEX
8
0
10
17.72611875
20
7.74716875
30
0
42
0.198912367379658
0
VERTEX
8
0
10
17.7038
20
7.6932875
30
0
0
VERTEX
8
0
10
17.7038
20
5.5215625
30
0
0
VERTEX
8
0
10
16.95
20
4.7677625
30
0
0
VERTEX
8
0
10
16.95
20
5.66
30
0
0
VERTEX
8
0
10
15.25
20
5.66
30
0
0
VERTEX
8
0
10
15.25
20
1.9600000000000002
30
0
0
VERTEX
8
0
10
16.95
20
1.9600000000000002
30
0
0
SEQEND
0
POLYLINE
66
1
8
1_copper
10
0.0
20
0.0
30
0.0
70
1
0
VERTEX
8
0
10
11.49395
20
20.7601125
30
0
0
VERTEX
8
0
10
11.511050000000001
20
20.769984375
30
0
0
VERTEX
8
0
10
11.525015625
20
20.78395
30
0
0
VERTEX
8
0
10
11.5348875
20
20.80105
30
0
0
VERTEX
8
0
10
11.540000000000001
20
20.820125
30
0
0
VERTEX
8
0
10
11.540000000000001
20
21.389875
30
0
0
VERTEX
8
0
10
11.5348875
20
21.40895
30
0
0
VERTEX
8
0
10
11.525015625
20
21.42605
30
0
0
VERTEX
8
0
10
11.511050000000001
20
21.440015625
30
0
0
VERTEX
8
0
10
11.503306250000001
20
21.4444875
30
0
0
VERTEX
8
0
10
12.84261875
20
22.7838
30
0
0
VERTEX
8
0
10
15.24
20
22.7838
30
0
42
0.198912367379658
0
VERTEX
8
0
10
15.29388125
20
22.80611875
30
0
0
VERTEX
8
0
10
16.56388125
20
24.076118750000003
30
0
42
0.198912367379658
0
VERTEX
8
0
10
16.5862
20
24.130000000000003
30
0
0
VERTEX
8
0
10
16.5862
20
24.82
30
0
0
VERTEX
8
0
10
16.95
20
24.82
30
0
0
VERTEX
8
0
10
16.95
20
28.520000000000003
30
0
0
VERTEX
8
0
10
15.25
20
28.520000000000003
30
0
0
VERTEX
8
0
10
15.25
20
24.82
30
0
0
VERTEX
8
0
10
16.4338
20
24.82
30
0
0
VERTEX
8
0
10
16.4338
20
24.161562500000002
30
0
0
VERTEX
8
0
10
15.2084375
20
22.9362
30
0
0
VERTEX
8
0
10
12.81105625
20
22.9362
30
0
42
0.198912367379658
0
VERTEX
8
0
10
12.757175
20
22.913881250000003
30
0
0
VERTEX
8
0
10
11.33611875
20
21.492825
30
0
42
0.15073437562517905
0
VERTEX
8
0
10
11.305125
20
21.455000000000002
30
0
0
VERTEX
8
0
10
11.286050000000001
20
21.449887500000003
30
0
0
VERTEX
8
0
10
11.26895
20
21.440015625
30
0
0
VERTEX
8
0
10
11.254984375000001
20
21.42605
30
0
0
VERTEX
8
0
10
11.245112500000001
20
21.40895
30
0
0
VERTEX
8
0
10
11.24
20
21.389875
30
0
0
VERTEX
8
0
10
11.24
20
20.820125
30
0
0
VERTEX
8
0
10
11.245112500000001
20
20.80105
30
0
0
VERTEX
8
0
10
11.254984375000001
20
20.78395
30
0
0
VERTEX
8
0
10
11.26895
20
20.769984375
30
0
0
VERTEX
8
0
10
11.286050000000001
20
20.7601125
30
0
0
VERTEX
8
0
10
11.305125
20
20.755000000000003
30
0
0
VERTEX
8
0
10
11.474875
20
20.755000000000003
30
0
0
SEQEND
0
POLYLINE
66
1
8
1_copper
10
0.0
20
0.0
30
0.0
70
1
0
VERTEX
8
0
10
10.99395
20
20.7601125
30
0
0
VERTEX
8
0
10
11.011050000000001
20
20.769984375
30
0
0
VERTEX
8
0
10
11.025015625
20
20.78395
30
0
0
VERTEX
8
0
10
11.0348875
20
20.80105
30
0
0
VERTEX
8
0
10
11.040000000000001
20
20.820125
30
0
0
VERTEX
8
0
10
11.040000000000001
20
21.389875
30
0
0
VERTEX
8
0
10
11.0348875
20
21.40895
30
0
0
VERTEX
8
0
10
11.0303
20
21.41689375
30
0
0
VERTEX
8
0
10
11.223709375
20
21.610303125
30
0
42
0.13013513530583803
0
VERTEX
8
0
10
11.25748125
20
21.629718750000002
30
0
0
VERTEX
8
0
10
13.0077625
20
23.380000000000003
30
0
0
VERTEX
8
0
10
14.3
20
23.380000000000003
30
0
0
VERTEX
8
0
10
14.3
20
24.880000000000003
30
0
0
VERTEX
8
0
10
13
20
24.880000000000003
30
0
0
VERTEX
8
0
10
13
20
23.5877625
30
0
0
VERTEX
8
0
10
11.169134375
20
21.756896875000002
30
0
42
0.11623934177008935
0
VERTEX
8
0
10
11.135362500000001
20
21.737481250000002
30
0
0
VERTEX
8
0
10
10.852881250000001
20
21.455000000000002
30
0
0
VERTEX
8
0
10
10.805125
20
21.455000000000002
30
0
0
VERTEX
8
0
10
10.786050000000001
20
21.449887500000003
30
0
0
VERTEX
8
0
10
10.76895
20
21.440015625
30
0
0
VERTEX
8
0
10
10.754984375000001
20
21.42605
30
0
0
VERTEX
8
0
10
10.745112500000001
20
21.40895
30
0
0
VERTEX
8
0
10
10.74
20
21.389875
30
0
0
VERTEX
8
0
10
10.74
20
20.820125
30
0
0
VERTEX
8
0
10
10.745112500000001
20
20.80105
30
0
0
VERTEX
8
0
10
10.754984375000001
20
20.78395
30
0
0
VERTEX
8
0
10
10.76895
20
20.769984375
30
0
0
VERTEX
8
0
10
10.786050000000001
20
20.7601125
30
0
0
VERTEX
8
0
10
10.805125
20
20.755000000000003
30
0
0
VERTEX
8
0
10
10.974875
20
20.755000000000003
30
0
0
SEQEND
0
POLYLINE
66
1
8
1_copper
10
0.0
20
0.0
30
0.0
70
1
0
VERTEX
8
0
10
3.29
20
18.1022375
30
0
0
VERTEX
8
0
10
5.0402812500000005
20
19.85251875
30
0
42
0.198912367379658
0
VERTEX
8
0
10
5.062600000000001
20
19.9064
30
0
0
VERTEX
8
0
10
5.062600000000001
20
20.449193750000003
30
0
0
VERTEX
8
0
10
5.19580625
20
20.5824
30
0
0
VERTEX
8
0
10
6.02548125
20
20.5824
30
0
0
VERTEX
8
0
10
6.1353625
20
20.472518750000003
30
0
42
0.198912367379658
0
VERTEX
8
0
10
6.18924375
20
20.450200000000002
30
0
0
VERTEX
8
0
10
10.09075625
20
20.450200000000002
30
0
42
0.198912367379658
0
VERTEX
8
0
10
10.1446375
20
20.472518750000003
30
0
0
VERTEX
8
0
10
10.322481250000001
20
20.6503625
30
0
42
0.3573986666421138
0
VERTEX
8
0
10
10.344800000000001
20
20.755000000000003
30
0
0
VERTEX
8
0
10
10.474875
20
20.755000000000003
30
0
0
VERTEX
8
0
10
10.49395
20
20.7601125
30
0
0
VERTEX
8
0
10
10.511050000000001
20
20.769984375
30
0
0
VERTEX
8
0
10
10.525015625
20
20.78395
30
0
0
VERTEX
8
0
10
10.5348875
20
20.80105
30
0
0
VERTEX
8
0
10
10.540000000000001
20
20.820125
30
0
0
VERTEX
8
0
10
10.540000000000001
20
21.389875
30
0
0
VERTEX
8
0
10
10.5348875
20
21.40895
30
0
0
VERTEX
8
0
10
10.525015625
20
21.42605
30
0
0
VERTEX
8
0
10
10.511050000000001
20
21.440015625
30
0
0
VERTEX
8
0
10
10.49395
20
21.449887500000003
30
0
0
VERTEX
8
0
10
10.474875
20
21.455000000000002
30
0
0
VERTEX
8
0
10
10.305125
20
21.455000000000002
30
0
0
VERTEX
8
0
10
10.286050000000001
20
21.449887500000003
30
0
0
VERTEX
8
0
10
10.26895
20
21.440015625
30
0
0
VERTEX
8
0
10
10.254984375000001
20
21.42605
30
0
0
VERTEX
8
0
10
10.245112500000001
20
21.40895
30
0
0
VERTEX
8
0
10
10.24
20
21.389875
30
0
0
VERTEX
8
0
10
10.24
20
21.0627625
30
0
42
0.3159518709647982
0
VERTEX
8
0
10
10.192400000000001
20
20.983600000000003
30
0
0
VERTEX
8
0
10
10.192400000000001
20
20.73580625
30
0
0
VERTEX
8
0
10
10.05919375
20
20.602600000000002
30
0
0
VERTEX
8
0
10
6.22080625
20
20.602600000000002
30
0
0
VERTEX
8
0
10
6.110925
20
20.71248125
30
0
42
0.198912367379658
0
VERTEX
8
0
10
6.05704375
20
20.7348
30
0
0
VERTEX
8
0
10
5.164243750000001
20
20.7348
30
0
42
0.198912367379658
0
VERTEX
8
0
10
5.1103625
20
20.71248125
30
0
0
VERTEX
8
0
10
4.93251875
20
20.534637500000002
30
0
42
0.198912367379658
0
VERTEX
8
0
10
4.910200000000001
20
20.480756250000002
30
0
0
VERTEX
8
0
10
4.910200000000001
20
19.9379625
30
0
0
VERTEX
8
0
10
3.0822375
20
18.11
30
0
0
VERTEX
8
0
10
1.79
20
18.11
30
0
0
VERTEX
8
0
10
1.79
20
16.810000000000002
30
0
0
VERTEX
8
0
10
3.29
20
16.810000000000002
30
0
0
SEQEND
0
POLYLINE
66
1
8
1_copper
10
0.0
20
0.0
30
0.0
70
1
0
VERTEX
8
0
10
9.99395
20
20.7601125
30
0
0
VERTEX
8
0
10
10.011050000000001
20
20.769984375
30
0
0
VERTEX
8
0
10
10.025015625
20
20.78395
30
0
0
VERTEX
8
0
10
10.0348875
20
20.80105
30
0
0
VERTEX
8
0
10
10.040000000000001
20
20.820125
30
0
0
VERTEX
8
0
10
10.040000000000001
20
21.389875
30
0
0
VERTEX
8
0
10
10.0348875
20
21.40895
30
0
0
VERTEX
8
0
10
10.025015625
20
21.42605
30
0
0
VERTEX
8
0
10
10.011050000000001
20
21.440015625
30
0
0
VERTEX
8
0
10
9.99395
20
21.449887500000003
30
0
0
VERTEX
8
0
10
9.974875
20
21.455000000000002
30
0
0
VERTEX
8
0
10
9.9662
20
21.455000000000002
30
0
0
VERTEX
8
0
10
9.9662
20
23.380000000000003
30
0
0
VERTEX
8
0
10
10.49
20
23.380000000000003
30
0
0
VERTEX
8
0
10
10.49
20
24.880000000000003
30
0
0
VERTEX
8
0
10
9.190000000000001
20
24.880000000000003
30
0
0
VERTEX
8
0
10
9.190000000000001
20
23.380000000000003
30
0
0
VERTEX
8
0
10
9.8138
20
23.380000000000003
30
0
0
VERTEX
8
0
10
9.8138
20
21.455000000000002
30
0
0
VERTEX
8
0
10
9.805125
20
21.455000000000002
30
0
0
VERTEX
8
0
10
9.786050000000001
20
21.449887500000003
30
0
0
VERTEX
8
0
10
9.76895
20
21.440015625
30
0
0
VERTEX
8
0
10
9.754984375000001
20
21.42605
30
0
0
VERTEX
8
0
10
9.745112500000001
20
21.40895
30
0
0
VERTEX
8
0
10
9.74
20
21.389875
30
0
0
VERTEX
8
0
10
9.74
20
20.820125
30
0
0
VERTEX
8
0
10
9.745112500000001
20
20.80105
30
0
0
VERTEX
8
0
10
9.754984375000001
20
20.78395
30
0
0
VERTEX
8
0
10
9.76895
20
20.769984375
30
0
0
VERTEX
8
0
10
9.786050000000001
20
20.7601125
30
0
0
VERTEX
8
0
10
9.805125
20
20.755000000000003
30
0
0
VERTEX
8
0
10
9.974875
20
20.755000000000003
30
0
0
SEQEND
0
POLYLINE
66
1
8
1_copper
10
0.0
20
0.0
30
0.0
70
1
0
VERTEX
8
0
10
9.49395
20
20.7601125
30
0
0
VERTEX
8
0
10
9.511050000000001
20
20.769984375
30
0
0
VERTEX
8
0
10
9.525015625
20
20.78395
30
0
0
VERTEX
8
0
10
9.5348875
20
20.80105
30
0
0
VERTEX
8
0
10
9.540000000000001
20
20.820125
30
0
0
VERTEX
8
0
10
9.540000000000001
20
21.389875
30
0
0
VERTEX
8
0
10
9.5348875
20
21.40895
30
0
0
VERTEX
8
0
10
9.525015625
20
21.42605
30
0
0
VERTEX
8
0
10
9.511050000000001
20
21.440015625
30
0
0
VERTEX
8
0
10
9.49395
20
21.449887500000003
30
0
0
VERTEX
8
0
10
9.474875
20
21.455000000000002
30
0
0
VERTEX
8
0
10
9.344800000000001
20
21.455000000000002
30
0
42
0.3573986666421138
0
VERTEX
8
0
10
9.322481250000001
20
21.5596375
30
0
0
VERTEX
8
0
10
9.1446375
20
21.737481250000002
30
0
42
0.198912367379658
0
VERTEX
8
0
10
9.09075625
20
21.759800000000002
30
0
0
VERTEX
8
0
10
8.5079625
20
21.759800000000002
30
0
0
VERTEX
8
0
10
6.680000000000001
20
23.5877625
30
0
0
VERTEX
8
0
10
6.680000000000001
20
24.880000000000003
30
0
0
VERTEX
8
0
10
5.38
20
24.880000000000003
30
0
0
VERTEX
8
0
10
5.38
20
23.380000000000003
30
0
0
VERTEX
8
0
10
6.6722375000000005
20
23.380000000000003
30
0
0
VERTEX
8
0
10
8.42251875
20
21.629718750000002
30
0
42
0.198912367379658
0
VERTEX
8
0
10
8.4764
20
21.607400000000002
30
0
0
VERTEX
8
0
10
9.05919375
20
21.607400000000002
30
0
0
VERTEX
8
0
10
9.192400000000001
20
21.47419375
30
0
0
VERTEX
8
0
10
9.192400000000001
20
21.2264
30
0
42
0.3159518709647982
0
VERTEX
8
0
10
9.24
20
21.1472375
30
0
0
VERTEX
8
0
10
9.24
20
20.820125
30
0
0
VERTEX
8
0
10
9.245112500000001
20
20.80105
30
0
0
VERTEX
8
0
10
9.254984375000001
20
20.78395
30
0
0
VERTEX
8
0
10
9.26895
20
20.769984375
30
0
0
VERTEX
8
0
10
9.286050000000001
20
20.7601125
30
0
0
VERTEX
8
0
10
9.305125
20
20.755000000000003
30
0
0
VERTEX
8
0
10
9.474875
20
20.755000000000003
30
0
0
SEQEND
0
POLYLINE
66
1
8
1_copper
10
0.0
20
0.0
30
0.0
70
1
0
VERTEX
8
0
10
4.78
20
24.880000000000003
30
0
0
VERTEX
8
0
10
4.1062
20
24.880000000000003
30
0
0
VERTEX
8
0
10
4.1062
20
26.07
30
0
0
VERTEX
8
0
10
4.63
20
26.07
30
0
0
VERTEX
8
0
10
4.63
20
27.27
30
0
0
VERTEX
8
0
10
3.43
20
27.27
30
0
0
VERTEX
8
0
10
3.43
20
26.07
30
0
0
VERTEX
8
0
10
3.9538
20
26.07
30
0
0
VERTEX
8
0
10
3.9538
20
24.880000000000003
30
0
0
VERTEX
8
0
10
3.48
20
24.880000000000003
30
0
0
VERTEX
8
0
10
3.48
20
23.380000000000003
30
0
0
VERTEX
8
0
10
4.78
20
23.380000000000003
30
0
0
SEQEND
0
POLYLINE
66
1
8
1_copper
10
0.0
20
0.0
30
0.0
70
1
0
VERTEX
8
0
10
8.59
20
24.880000000000003
30
0
0
VERTEX
8
0
10
7.916200000000001
20
24.880000000000003
30
0
0
VERTEX
8
0
10
7.916200000000001
20
26.07
30
0
0
VERTEX
8
0
10
8.440000000000001
20
26.07
30
0
0
VERTEX
8
0
10
8.440000000000001
20
27.27
30
0
0
VERTEX
8
0
10
7.24
20
27.27
30
0
0
VERTEX
8
0
10
7.24
20
26.07
30
0
0
VERTEX
8
0
10
7.763800000000001
20
26.07
30
0
0
VERTEX
8
0
10
7.763800000000001
20
24.880000000000003
30
0
0
VERTEX
8
0
10
7.29
20
24.880000000000003
30
0
0
VERTEX
8
0
10
7.29
20
23.380000000000003
30
0
0
VERTEX
8
0
10
8.59
20
23.380000000000003
30
0
0
SEQEND
0
POLYLINE
66
1
8
1_copper
10
0.0
20
0.0
30
0.0
70
1
0
VERTEX
8
0
10
3.14
20
14.350000000000001
30
0
0
VERTEX
8
0
10
2.6162
20
14.350000000000001
30
0
0
VERTEX
8
0
10
2.6162
20
14.91
30
0
0
VERTEX
8
0
10
3.29
20
14.91
30
0
0
VERTEX
8
0
10
3.29
20
16.21
30
0
0
VERTEX
8
0
10
1.79
20
16.21
30
0
0
VERTEX
8
0
10
1.79
20
14.91
30
0
0
VERTEX
8
0
10
2.4638
20
14.91
30
0
0
VERTEX
8
0
10
2.4638
20
14.350000000000001
30
0
0
VERTEX
8
0
10
1.9400000000000002
20
14.350000000000001
30
0
0
VERTEX
8
0
10
1.9400000000000002
20
13.15
30
0
0
VERTEX
8
0
10
3.14
20
13.15
30
0
0
SEQEND
0
POLYLINE
66
1
8
1_copper
10
0.0
20
0.0
30
0.0
70
1
0
VERTEX
8
0
10
12.4
20
24.880000000000003
30
0
0
VERTEX
8
0
10
12.0677625
20
24.880000000000003
30
0
0
VERTEX
8
0
10
13.2577625
20
26.07
30
0
0
VERTEX
8
0
10
14.350000000000001
20
26.07
30
0
0
VERTEX
8
0
10
14.350000000000001
20
27.27
30
0
0
VERTEX
8
0
10
13.15
20
27.27
30
0
0
VERTEX
8
0
10
13.15
20
26.1777625
30
0
0
VERTEX
8
0
10
11.852237500000001
20
24.880000000000003
30
0
0
VERTEX
8
0
10
11.1
20
24.880000000000003
30
0
0
VERTEX
8
0
10
11.1
20
23.380000000000003
30
0
0
VERTEX
8
0
10
12.4
20
23.380000000000003
30
0
0
SEQEND
0
POLYLINE
66
1
8
1_copper
10
0.0
20
0.0
30
0.0
70
1
0
VERTEX
8
0
10
14.940000000000001
20
12.18
30
0
0
VERTEX
8
0
10
13.6477625
20
12.18
30
0
0
VERTEX
8
0
10
12.776200000000001
20
13.051562500000001
30
0
0
VERTEX
8
0
10
12.776200000000001
20
14.954081250000002
30
0
0
VERTEX
8
0
10
12.847481250000001
20
15.0253625
30
0
42
0.198912367379658
0
VERTEX
8
0
10
12.869800000000001
20
15.07924375
30
0
0
VERTEX
8
0
10
12.869800000000001
20
16.480756250000002
30
0
42
0.198912367379658
0
VERTEX
8
0
10
12.847481250000001
20
16.534637500000002
30
0
0
VERTEX
8
0
10
12.6696375
20
16.71248125
30
0
42
0.3573986666421138
0
VERTEX
8
0
10
12.565000000000001
20
16.7348
30
0
0
VERTEX
8
0
10
12.565000000000001
20
16.864875
30
0
0
VERTEX
8
0
10
12.5598875
20
16.883950000000002
30
0
0
VERTEX
8
0
10
12.550015625
20
16.90105
30
0
0
VERTEX
8
0
10
12.536050000000001
20
16.915015625000002
30
0
0
VERTEX
8
0
10
12.51895
20
16.9248875
30
0
0
VERTEX
8
0
10
12.499875000000001
20
16.93
30
0
0
VERTEX
8
0
10
11.930125
20
16.93
30
0
0
VERTEX
8
0
10
11.911050000000001
20
16.9248875
30
0
0
VERTEX
8
0
10
11.89395
20
16.915015625000002
30
0
0
VERTEX
8
0
10
11.879984375000001
20
16.90105
30
0
0
VERTEX
8
0
10
11.870112500000001
20
16.883950000000002
30
0
0
VERTEX
8
0
10
11.865
20
16.864875
30
0
0
VERTEX
8
0
10
11.865
20
16.695125
30
0
0
VERTEX
8
0
10
11.870112500000001
20
16.67605
30
0
0
VERTEX
8
0
10
11.879984375000001
20
16.65895
30
0
0
VERTEX
8
0
10
11.89395
20
16.644984375
30
0
0
VERTEX
8
0
10
11.911050000000001
20
16.6351125
30
0
0
VERTEX
8
0
10
11.930125
20
16.630000000000003
30
0
0
VERTEX
8
0
10
12.2572375
20
16.630000000000003
30
0
42
0.3159518709647982
0
VERTEX
8
0
10
12.336400000000001
20
16.5824
30
0
0
VERTEX
8
0
10
12.58419375
20
16.5824
30
0
0
VERTEX
8
0
10
12.717400000000001
20
16.44919375
30
0
0
VERTEX
8
0
10
12.717400000000001
20
15.110806250000001
30
0
0
VERTEX
8
0
10
12.646118750000001
20
15.039525000000001
30
0
42
0.198912367379658
0
VERTEX
8
0
10
12.623800000000001
20
14.985643750000001
30
0
0
VERTEX
8
0
10
12.623800000000001
20
13.020000000000001
30
0
42
0.198912367379658
0
VERTEX
8
0
10
12.646118750000001
20
12.966118750000001
30
0
0
VERTEX
8
0
10
13.64
20
11.9722375
30
0
0
VERTEX
8
0
10
13.64
20
10.68
30
0
0
VERTEX
8
0
10
14.940000000000001
20
10.68
30
0
0
SEQEND
0
ENDSEC
0
EOF