0
SECTION
2
HEADER
9
$ANGDIR
70
1
9
$AUNITS
70
0
9
$PROJECTNAME
1
4x4 Keypad with ATMega32
9
$TDCREATE
40
2460508.31949706
9
$INSUNITS
70
4
0
ENDSEC
0
SECTION
2
ENTITIES
0
POLYLINE
66
1
8
outline
10
0.0
20
0.0
30
0.0
70
1
0
VERTEX
8
0
10
0
20
0
30
0
0
VERTEX
8
0
10
45.39
20
0
30
0
0
VERTEX
8
0
10
45.39
20
58.410000000000004
30
0
0
VERTEX
8
0
10
0
20
58.410000000000004
30
0
0
VERTEX
8
0
10
0
20
0
30
0
0
SEQEND
0
POLYLINE
66
1
8
1_copper
10
0.0
20
0.0
30
0.0
70
1
0
VERTEX
8
0
10
24.19395
20
32.190112500000005
30
0
0
VERTEX
8
0
10
24.21105
20
32.199984375
30
0
0
VERTEX
8
0
10
24.225015625
20
32.213950000000004
30
0
0
VERTEX
8
0
10
24.234887500000003
20
32.23105
30
0
0
VERTEX
8
0
10
24.240000000000002
20
32.250125000000004
30
0
0
VERTEX
8
0
10
24.240000000000002
20
32.819875
30
0
0
VERTEX
8
0
10
24.234887500000003
20
32.838950000000004
30
0
0
VERTEX
8
0
10
24.225015625
20
32.85605
30
0
0
VERTEX
8
0
10
24.21105
20
32.870015625
30
0
0
VERTEX
8
0
10
24.19395
20
32.8798875
30
0
0
VERTEX
8
0
10
24.174875
20
32.885000000000005
30
0
0
VERTEX
8
0
10
24.005125
20
32.885000000000005
30
0
0
VERTEX
8
0
10
23.986050000000002
20
32.8798875
30
0
0
VERTEX
8
0
10
23.96895
20
32.870015625
30
0
0
VERTEX
8
0
10
23.954984375000002
20
32.85605
30
0
0
VERTEX
8
0
10
23.9451125
20
32.838950000000004
30
0
0
VERTEX
8
0
10
23.94
20
32.819875
30
0
0
VERTEX
8
0
10
23.94
20
32.250125000000004
30
0
0
VERTEX
8
0
10
23.9451125
20
32.23105
30
0
0
VERTEX
8
0
10
23.954984375000002
20
32.213950000000004
30
0
0
VERTEX
8
0
10
23.96895
20
32.199984375
30
0
0
VERTEX
8
0
10
23.986050000000002
20
32.190112500000005
30
0
0
VERTEX
8
0
10
24.005125
20
32.185
30
0
0
VERTEX
8
0
10
24.174875
20
32.185
30
0
0
SEQEND
0
POLYLINE
66
1
8
1_copper
10
0.0
20
0.0
30
0.0
70
1
0
VERTEX
8
0
10
23.69395
20
32.190112500000005
30
0
0
VERTEX
8
0
10
23.71105
20
32.199984375
30
0
0
VERTEX
8
0
10
23.725015625
20
32.213950000000004
30
0
0
VERTEX
8
0
10
23.734887500000003
20
32.23105
30
0
0
VERTEX
8
0
10
23.740000000000002
20
32.250125000000004
30
0
0
VERTEX
8
0
10
23.740000000000002
20
32.819875
30
0
0
VERTEX
8
0
10
23.734887500000003
20
32.838950000000004
30
0
0
VERTEX
8
0
10
23.725015625
20
32.85605
30
0
0
VERTEX
8
0
10
23.71105
20
32.870015625
30
0
0
VERTEX
8
0
10
23.69395
20
32.8798875
30
0
0
VERTEX
8
0
10
23.674875
20
32.885000000000005
30
0
0
VERTEX
8
0
10
23.505125
20
32.885000000000005
30
0
0
VERTEX
8
0
10
23.486050000000002
20
32.8798875
30
0
0
VERTEX
8
0
10
23.46895
20
32.870015625
30
0
0
VERTEX
8
0
10
23.454984375000002
20
32.85605
30
0
0
VERTEX
8
0
10
23.4451125
20
32.838950000000004
30
0
0
VERTEX
8
0
10
23.44
20
32.819875
30
0
0
VERTEX
8
0
10
23.44
20
32.250125000000004
30
0
0
VERTEX
8
0
10
23.4451125
20
32.23105
30
0
0
VERTEX
8
0
10
23.454984375000002
20
32.213950000000004
30
0
0
VERTEX
8
0
10
23.46895
20
32.199984375
30
0
0
VERTEX
8
0
10
23.486050000000002
20
32.190112500000005
30
0
0
VERTEX
8
0
10
23.505125
20
32.185
30
0
0
VERTEX
8
0
10
23.674875
20
32.185
30
0
0
SEQEND
0
POLYLINE
66
1
8
1_copper
10
0.0
20
0.0
30
0.0
70
1
0
VERTEX
8
0
10
23.19395
20
32.190112500000005
30
0
0
VERTEX
8
0
10
23.21105
20
32.199984375
30
0
0
VERTEX
8
0
10
23.225015625
20
32.213950000000004
30
0
0
VERTEX
8
0
10
23.234887500000003
20
32.23105
30
0
0
VERTEX
8
0
10
23.240000000000002
20
32.250125000000004
30
0
0
VERTEX
8
0
10
23.240000000000002
20
32.819875
30
0
0
VERTEX
8
0
10
23.234887500000003
20
32.838950000000004
30
0
0
VERTEX
8
0
10
23.225015625
20
32.85605
30
0
0
VERTEX
8
0
10
23.21105
20
32.870015625
30
0
0
VERTEX
8
0
10
23.19395
20
32.8798875
30
0
0
VERTEX
8
0
10
23.174875
20
32.885000000000005
30
0
0
VERTEX
8
0
10
23.005125
20
32.885000000000005
30
0
0
VERTEX
8
0
10
22.986050000000002
20
32.8798875
30
0
0
VERTEX
8
0
10
22.96895
20
32.870015625
30
0
0
VERTEX
8
0
10
22.954984375000002
20
32.85605
30
0
0
VERTEX
8
0
10
22.9451125
20
32.838950000000004
30
0
0
VERTEX
8
0
10
22.94
20
32.819875
30
0
0
VERTEX
8
0
10
22.94
20
32.250125000000004
30
0
0
VERTEX
8
0
10
22.9451125
20
32.23105
30
0
0
VERTEX
8
0
10
22.954984375000002
20
32.213950000000004
30
0
0
VERTEX
8
0
10
22.96895
20
32.199984375
30
0
0
VERTEX
8
0
10
22.986050000000002
20
32.190112500000005
30
0
0
VERTEX
8
0
10
23.005125
20
32.185
30
0
0
VERTEX
8
0
10
23.174875
20
32.185
30
0
0
SEQEND
0
POLYLINE
66
1
8
1_copper
10
0.0
20
0.0
30
0.0
70
1
0
VERTEX
8
0
10
22.69395
20
32.190112500000005
30
0
0
VERTEX
8
0
10
22.71105
20
32.199984375
30
0
0
VERTEX
8
0
10
22.725015625
20
32.213950000000004
30
0
0
VERTEX
8
0
10
22.734887500000003
20
32.23105
30
0
0
VERTEX
8
0
10
22.740000000000002
20
32.250125000000004
30
0
0
VERTEX
8
0
10
22.740000000000002
20
32.819875
30
0
0
VERTEX
8
0
10
22.734887500000003
20
32.838950000000004
30
0
0
VERTEX
8
0
10
22.725015625
20
32.85605
30
0
0
VERTEX
8
0
10
22.71105
20
32.870015625
30
0
0
VERTEX
8
0
10
22.69395
20
32.8798875
30
0
0
VERTEX
8
0
10
22.674875
20
32.885000000000005
30
0
0
VERTEX
8
0
10
22.505125
20
32.885000000000005
30
0
0
VERTEX
8
0
10
22.486050000000002
20
32.8798875
30
0
0
VERTEX
8
0
10
22.46895
20
32.870015625
30
0
0
VERTEX
8
0
10
22.454984375000002
20
32.85605
30
0
0
VERTEX
8
0
10
22.4451125
20
32.838950000000004
30
0
0
VERTEX
8
0
10
22.44
20
32.819875
30
0
0
VERTEX
8
0
10
22.44
20
32.250125000000004
30
0
0
VERTEX
8
0
10
22.4451125
20
32.23105
30
0
0
VERTEX
8
0
10
22.454984375000002
20
32.213950000000004
30
0
0
VERTEX
8
0
10
22.46895
20
32.199984375
30
0
0
VERTEX
8
0
10
22.486050000000002
20
32.190112500000005
30
0
0
VERTEX
8
0
10
22.505125
20
32.185
30
0
0
VERTEX
8
0
10
22.674875
20
32.185
30
0
0
SEQEND
0
POLYLINE
66
1
8
1_copper
10
0.0
20
0.0
30
0.0
70
1
0
VERTEX
8
0
10
21.19395
20
32.190112500000005
30
0
0
VERTEX
8
0
10
21.21105
20
32.199984375
30
0
0
VERTEX
8
0
10
21.225015625
20
32.213950000000004
30
0
0
VERTEX
8
0
10
21.2348875
20
32.23105
30
0
0
VERTEX
8
0
10
21.240000000000002
20
32.250125000000004
30
0
0
VERTEX
8
0
10
21.240000000000002
20
32.819875
30
0
0
VERTEX
8
0
10
21.2348875
20
32.838950000000004
30
0
0
VERTEX
8
0
10
21.225015625
20
32.85605
30
0
0
VERTEX
8
0
10
21.21105
20
32.870015625
30
0
0
VERTEX
8
0
10
21.19395
20
32.8798875
30
0
0
VERTEX
8
0
10
21.174875
20
32.885000000000005
30
0
0
VERTEX
8
0
10
21.005125
20
32.885000000000005
30
0
0
VERTEX
8
0
10
20.986050000000002
20
32.8798875
30
0
0
VERTEX
8
0
10
20.96895
20
32.870015625
30
0
0
VERTEX
8
0
10
20.954984375000002
20
32.85605
30
0
0
VERTEX
8
0
10
20.9451125
20
32.838950000000004
30
0
0
VERTEX
8
0
10
20.94
20
32.819875
30
0
0
VERTEX
8
0
10
20.94
20
32.250125000000004
30
0
0
VERTEX
8
0
10
20.9451125
20
32.23105
30
0
0
VERTEX
8
0
10
20.954984375000002
20
32.213950000000004
30
0
0
VERTEX
8
0
10
20.96895
20
32.199984375
30
0
0
VERTEX
8
0
10
20.986050000000002
20
32.190112500000005
30
0
0
VERTEX
8
0
10
21.005125
20
32.185
30
0
0
VERTEX
8
0
10
21.174875
20
32.185
30
0
0
SEQEND
0
POLYLINE
66
1
8
1_copper
10
0.0
20
0.0
30
0.0
70
1
0
VERTEX
8
0
10
25.21895
20
31.5651125
30
0
0
VERTEX
8
0
10
25.236050000000002
20
31.574984375000003
30
0
0
VERTEX
8
0
10
25.250015625
20
31.58895
30
0
0
VERTEX
8
0
10
25.2598875
20
31.60605
30
0
0
VERTEX
8
0
10
25.265
20
31.625125
30
0
0
VERTEX
8
0
10
25.265
20
31.794875
30
0
0
VERTEX
8
0
10
25.2598875
20
31.813950000000002
30
0
0
VERTEX
8
0
10
25.250015625
20
31.83105
30
0
0
VERTEX
8
0
10
25.236050000000002
20
31.845015625000002
30
0
0
VERTEX
8
0
10
25.21895
20
31.8548875
30
0
0
VERTEX
8
0
10
25.199875000000002
20
31.860000000000003
30
0
0
VERTEX
8
0
10
24.630125
20
31.860000000000003
30
0
0
VERTEX
8
0
10
24.611050000000002
20
31.8548875
30
0
0
VERTEX
8
0
10
24.59395
20
31.845015625000002
30
0
0
VERTEX
8
0
10
24.579984375000002
20
31.83105
30
0
0
VERTEX
8
0
10
24.5701125
20
31.813950000000002
30
0
0
VERTEX
8
0
10
24.565
20
31.794875
30
0
0
VERTEX
8
0
10
24.565
20
31.625125
30
0
0
VERTEX
8
0
10
24.5701125
20
31.60605
30
0
0
VERTEX
8
0
10
24.579984375000002
20
31.58895
30
0
0
VERTEX
8
0
10
24.59395
20
31.574984375000003
30
0
0
VERTEX
8
0
10
24.611050000000002
20
31.5651125
30
0
0
VERTEX
8
0
10
24.630125
20
31.560000000000002
30
0
0
VERTEX
8
0
10
25.199875000000002
20
31.560000000000002
30
0
0
SEQEND
0
POLYLINE
66
1
8
1_copper
10
0.0
20
0.0
30
0.0
70
1
0
VERTEX
8
0
10
23.898540625000003
20
26.71615625
30
0
0
VERTEX
8
0
10
23.935965625
20
26.728315625
30
0
0
VERTEX
8
0
10
23.971028125
20
26.746181250000003
30
0
0
VERTEX
8
0
10
24.002865625000002
20
26.769309375000002
30
0
0
VERTEX
8
0
10
24.030690625000002
20
26.797134375000002
30
0
0
VERTEX
8
0
10
24.05381875
20
26.828971875
30
0
0
VERTEX
8
0
10
24.071684375
20
26.864034375000003
30
0
0
VERTEX
8
0
10
24.08384375
20
26.901459375
30
0
0
VERTEX
8
0
10
24.09
20
26.940325
30
0
0
VERTEX
8
0
10
24.09
20
31.479675
30
0
0
VERTEX
8
0
10
24.08384375
20
31.518540625
30
0
0
VERTEX
8
0
10
24.071684375
20
31.555965625000002
30
0
0
VERTEX
8
0
10
24.05381875
20
31.591028125
30
0
0
VERTEX
8
0
10
24.030690625000002
20
31.622865625000003
30
0
0
VERTEX
8
0
10
24.002865625000002
20
31.650690625000003
30
0
0
VERTEX
8
0
10
23.971028125
20
31.673818750000002
30
0
0
VERTEX
8
0
10
23.935965625
20
31.691684375
30
0
0
VERTEX
8
0
10
23.898540625000003
20
31.70384375
30
0
0
VERTEX
8
0
10
23.859675000000003
20
31.71
30
0
0
VERTEX
8
0
10
19.320325
20
31.71
30
0
0
VERTEX
8
0
10
19.281459375
20
31.70384375
30
0
0
VERTEX
8
0
10
19.244034375000002
20
31.691684375
30
0
0
VERTEX
8
0
10
19.208971875
20
31.673818750000002
30
0
0
VERTEX
8
0
10
19.177134375
20
31.650690625000003
30
0
0
VERTEX
8
0
10
19.149309375
20
31.622865625000003
30
0
0
VERTEX
8
0
10
19.126181250000002
20
31.591028125
30
0
0
VERTEX
8
0
10
19.108315625
20
31.555965625000002
30
0
0
VERTEX
8
0
10
19.09615625
20
31.518540625
30
0
0
VERTEX
8
0
10
19.09
20
31.479675
30
0
0
VERTEX
8
0
10
19.09
20
26.940325
30
0
0
VERTEX
8
0
10
19.09615625
20
26.901459375
30
0
0
VERTEX
8
0
10
19.108315625
20
26.864034375000003
30
0
0
VERTEX
8
0
10
19.126181250000002
20
26.828971875
30
0
0
VERTEX
8
0
10
19.149309375
20
26.797134375000002
30
0
0
VERTEX
8
0
10
19.177134375
20
26.769309375000002
30
0
0
VERTEX
8
0
10
19.208971875
20
26.746181250000003
30
0
0
VERTEX
8
0
10
19.244034375000002
20
26.728315625
30
0
0
VERTEX
8
0
10
19.281459375
20
26.71615625
30
0
0
VERTEX
8
0
10
19.320325
20
26.71
30
0
0
VERTEX
8
0
10
23.859675000000003
20
26.71
30
0
0
SEQEND
0
POLYLINE
66
1
8
1_copper
10
0.0
20
0.0
30
0.0
70
1
0
VERTEX
8
0
10
25.21895
20
31.0651125
30
0
0
VERTEX
8
0
10
25.236050000000002
20
31.074984375000003
30
0
0
VERTEX
8
0
10
25.250015625
20
31.08895
30
0
0
VERTEX
8
0
10
25.2598875
20
31.10605
30
0
0
VERTEX
8
0
10
25.265
20
31.125125
30
0
0
VERTEX
8
0
10
25.265
20
31.294875
30
0
0
VERTEX
8
0
10
25.2598875
20
31.313950000000002
30
0
0
VERTEX
8
0
10
25.250015625
20
31.33105
30
0
0
VERTEX
8
0
10
25.236050000000002
20
31.345015625000002
30
0
0
VERTEX
8
0
10
25.21895
20
31.3548875
30
0
0
VERTEX
8
0
10
25.199875000000002
20
31.360000000000003
30
0
0
VERTEX
8
0
10
24.630125
20
31.360000000000003
30
0
0
VERTEX
8
0
10
24.611050000000002
20
31.3548875
30
0
0
VERTEX
8
0
10
24.59395
20
31.345015625000002
30
0
0
VERTEX
8
0
10
24.579984375000002
20
31.33105
30
0
0
VERTEX
8
0
10
24.5701125
20
31.313950000000002
30
0
0
VERTEX
8
0
10
24.565
20
31.294875
30
0
0
VERTEX
8
0
10
24.565
20
31.125125
30
0
0
VERTEX
8
0
10
24.5701125
20
31.10605
30
0
0
VERTEX
8
0
10
24.579984375000002
20
31.08895
30
0
0
VERTEX
8
0
10
24.59395
20
31.074984375000003
30
0
0
VERTEX
8
0
10
24.611050000000002
20
31.0651125
30
0
0
VERTEX
8
0
10
24.630125
20
31.060000000000002
30
0
0
VERTEX
8
0
10
25.199875000000002
20
31.060000000000002
30
0
0
SEQEND
0
POLYLINE
66
1
8
1_copper
10
0.0
20
0.0
30
0.0
70
1
0
VERTEX
8
0
10
25.21895
20
30.5651125
30
0
0
VERTEX
8
0
10
25.236050000000002
20
30.574984375000003
30
0
0
VERTEX
8
0
10
25.250015625
20
30.58895
30
0
0
VERTEX
8
0
10
25.2598875
20
30.60605
30
0
0
VERTEX
8
0
10
25.265
20
30.625125
30
0
0
VERTEX
8
0
10
25.265
20
30.794875
30
0
0
VERTEX
8
0
10
25.2598875
20
30.813950000000002
30
0
0
VERTEX
8
0
10
25.250015625
20
30.83105
30
0
0
VERTEX
8
0
10
25.236050000000002
20
30.845015625000002
30
0
0
VERTEX
8
0
10
25.21895
20
30.8548875
30
0
0
VERTEX
8
0
10
25.199875000000002
20
30.860000000000003
30
0
0
VERTEX
8
0
10
24.630125
20
30.860000000000003
30
0
0
VERTEX
8
0
10
24.611050000000002
20
30.8548875
30
0
0
VERTEX
8
0
10
24.59395
20
30.845015625000002
30
0
0
VERTEX
8
0
10
24.579984375000002
20
30.83105
30
0
0
VERTEX
8
0
10
24.5701125
20
30.813950000000002
30
0
0
VERTEX
8
0
10
24.565
20
30.794875
30
0
0
VERTEX
8
0
10
24.565
20
30.625125
30
0
0
VERTEX
8
0
10
24.5701125
20
30.60605
30
0
0
VERTEX
8
0
10
24.579984375000002
20
30.58895
30
0
0
VERTEX
8
0
10
24.59395
20
30.574984375000003
30
0
0
VERTEX
8
0
10
24.611050000000002
20
30.5651125
30
0
0
VERTEX
8
0
10
24.630125
20
30.560000000000002
30
0
0
VERTEX
8
0
10
25.199875000000002
20
30.560000000000002
30
0
0
SEQEND
0
POLYLINE
66
1
8
1_copper
10
0.0
20
0.0
30
0.0
70
1
0
VERTEX
8
0
10
25.21895
20
30.0651125
30
0
0
VERTEX
8
0
10
25.236050000000002
20
30.074984375000003
30
0
0
VERTEX
8
0
10
25.250015625
20
30.08895
30
0
0
VERTEX
8
0
10
25.2598875
20
30.10605
30
0
0
VERTEX
8
0
10
25.265
20
30.125125
30
0
0
VERTEX
8
0
10
25.265
20
30.294875
30
0
0
VERTEX
8
0
10
25.2598875
20
30.313950000000002
30
0
0
VERTEX
8
0
10
25.250015625
20
30.33105
30
0
0
VERTEX
8
0
10
25.236050000000002
20
30.345015625000002
30
0
0
VERTEX
8
0
10
25.21895
20
30.3548875
30
0
0
VERTEX
8
0
10
25.199875000000002
20
30.360000000000003
30
0
0
VERTEX
8
0
10
24.630125
20
30.360000000000003
30
0
0
VERTEX
8
0
10
24.611050000000002
20
30.3548875
30
0
0
VERTEX
8
0
10
24.59395
20
30.345015625000002
30
0
0
VERTEX
8
0
10
24.579984375000002
20
30.33105
30
0
0
VERTEX
8
0
10
24.5701125
20
30.313950000000002
30
0
0
VERTEX
8
0
10
24.565
20
30.294875
30
0
0
VERTEX
8
0
10
24.565
20
30.125125
30
0
0
VERTEX
8
0
10
24.5701125
20
30.10605
30
0
0
VERTEX
8
0
10
24.579984375000002
20
30.08895
30
0
0
VERTEX
8
0
10
24.59395
20
30.074984375000003
30
0
0
VERTEX
8
0
10
24.611050000000002
20
30.0651125
30
0
0
VERTEX
8
0
10
24.630125
20
30.060000000000002
30
0
0
VERTEX
8
0
10
25.199875000000002
20
30.060000000000002
30
0
0
SEQEND
0
POLYLINE
66
1
8
1_copper
10
0.0
20
0.0
30
0.0
70
1
0
VERTEX
8
0
10
25.21895
20
28.5651125
30
0
0
VERTEX
8
0
10
25.236050000000002
20
28.574984375
30
0
0
VERTEX
8
0
10
25.250015625
20
28.58895
30
0
0
VERTEX
8
0
10
25.2598875
20
28.60605
30
0
0
VERTEX
8
0
10
25.265
20
28.625125
30
0
0
VERTEX
8
0
10
25.265
20
28.794875
30
0
0
VERTEX
8
0
10
25.2598875
20
28.813950000000002
30
0
0
VERTEX
8
0
10
25.250015625
20
28.83105
30
0
0
VERTEX
8
0
10
25.236050000000002
20
28.845015625000002
30
0
0
VERTEX
8
0
10
25.21895
20
28.8548875
30
0
0
VERTEX
8
0
10
25.199875000000002
20
28.860000000000003
30
0
0
VERTEX
8
0
10
24.630125
20
28.860000000000003
30
0
0
VERTEX
8
0
10
24.611050000000002
20
28.8548875
30
0
0
VERTEX
8
0
10
24.59395
20
28.845015625000002
30
0
0
VERTEX
8
0
10
24.579984375000002
20
28.83105
30
0
0
VERTEX
8
0
10
24.5701125
20
28.813950000000002
30
0
0
VERTEX
8
0
10
24.565
20
28.794875
30
0
0
VERTEX
8
0
10
24.565
20
28.625125
30
0
0
VERTEX
8
0
10
24.5701125
20
28.60605
30
0
0
VERTEX
8
0
10
24.579984375000002
20
28.58895
30
0
0
VERTEX
8
0
10
24.59395
20
28.574984375
30
0
0
VERTEX
8
0
10
24.611050000000002
20
28.5651125
30
0
0
VERTEX
8
0
10
24.630125
20
28.560000000000002
30
0
0
VERTEX
8
0
10
25.199875000000002
20
28.560000000000002
30
0
0
SEQEND
0
POLYLINE
66
1
8
1_copper
10
0.0
20
0.0
30
0.0
70
1
0
VERTEX
8
0
10
18.56895
20
28.5651125
30
0
0
VERTEX
8
0
10
18.58605
20
28.574984375
30
0
0
VERTEX
8
0
10
18.600015625
20
28.58895
30
0
0
VERTEX
8
0
10
18.6098875
20
28.60605
30
0
0
VERTEX
8
0
10
18.615000000000002
20
28.625125
30
0
0
VERTEX
8
0
10
18.615000000000002
20
28.794875
30
0
0
VERTEX
8
0
10
18.6098875
20
28.813950000000002
30
0
0
VERTEX
8
0
10
18.600015625
20
28.83105
30
0
0
VERTEX
8
0
10
18.58605
20
28.845015625000002
30
0
0
VERTEX
8
0
10
18.56895
20
28.8548875
30
0
0
VERTEX
8
0
10
18.549875
20
28.860000000000003
30
0
0
VERTEX
8
0
10
17.980125
20
28.860000000000003
30
0
0
VERTEX
8
0
10
17.96105
20
28.8548875
30
0
0
VERTEX
8
0
10
17.94395
20
28.845015625000002
30
0
0
VERTEX
8
0
10
17.929984375
20
28.83105
30
0
0
VERTEX
8
0
10
17.920112500000002
20
28.813950000000002
30
0
0
VERTEX
8
0
10
17.915
20
28.794875
30
0
0
VERTEX
8
0
10
17.915
20
28.625125
30
0
0
VERTEX
8
0
10
17.920112500000002
20
28.60605
30
0
0
VERTEX
8
0
10
17.929984375
20
28.58895
30
0
0
VERTEX
8
0
10
17.94395
20
28.574984375
30
0
0
VERTEX
8
0
10
17.96105
20
28.5651125
30
0
0
VERTEX
8
0
10
17.980125
20
28.560000000000002
30
0
0
VERTEX
8
0
10
18.549875
20
28.560000000000002
30
0
0
SEQEND
0
POLYLINE
66
1
8
1_copper
10
0.0
20
0.0
30
0.0
70
1
0
VERTEX
8
0
10
25.21895
20
28.0651125
30
0
0
VERTEX
8
0
10
25.236050000000002
20
28.074984375
30
0
0
VERTEX
8
0
10
25.250015625
20
28.08895
30
0
0
VERTEX
8
0
10
25.2598875
20
28.10605
30
0
0
VERTEX
8
0
10
25.265
20
28.125125
30
0
0
VERTEX
8
0
10
25.265
20
28.294875
30
0
0
VERTEX
8
0
10
25.2598875
20
28.313950000000002
30
0
0
VERTEX
8
0
10
25.250015625
20
28.33105
30
0
0
VERTEX
8
0
10
25.236050000000002
20
28.345015625000002
30
0
0
VERTEX
8
0
10
25.21895
20
28.3548875
30
0
0
VERTEX
8
0
10
25.199875000000002
20
28.360000000000003
30
0
0
VERTEX
8
0
10
24.630125
20
28.360000000000003
30
0
0
VERTEX
8
0
10
24.611050000000002
20
28.3548875
30
0
0
VERTEX
8
0
10
24.59395
20
28.345015625000002
30
0
0
VERTEX
8
0
10
24.579984375000002
20
28.33105
30
0
0
VERTEX
8
0
10
24.5701125
20
28.313950000000002
30
0
0
VERTEX
8
0
10
24.565
20
28.294875
30
0
0
VERTEX
8
0
10
24.565
20
28.125125
30
0
0
VERTEX
8
0
10
24.5701125
20
28.10605
30
0
0
VERTEX
8
0
10
24.579984375000002
20
28.08895
30
0
0
VERTEX
8
0
10
24.59395
20
28.074984375
30
0
0
VERTEX
8
0
10
24.611050000000002
20
28.0651125
30
0
0
VERTEX
8
0
10
24.630125
20
28.060000000000002
30
0
0
VERTEX
8
0
10
25.199875000000002
20
28.060000000000002
30
0
0
SEQEND
0
POLYLINE
66
1
8
1_copper
10
0.0
20
0.0
30
0.0
70
1
0
VERTEX
8
0
10
18.56895
20
28.0651125
30
0
0
VERTEX
8
0
10
18.58605
20
28.074984375
30
0
0
VERTEX
8
0
10
18.600015625
20
28.08895
30
0
0
VERTEX
8
0
10
18.6098875
20
28.10605
30
0
0
VERTEX
8
0
10
18.615000000000002
20
28.125125
30
0
0
VERTEX
8
0
10
18.615000000000002
20
28.294875
30
0
0
VERTEX
8
0
10
18.6098875
20
28.313950000000002
30
0
0
VERTEX
8
0
10
18.600015625
20
28.33105
30
0
0
VERTEX
8
0
10
18.58605
20
28.345015625000002
30
0
0
VERTEX
8
0
10
18.56895
20
28.3548875
30
0
0
VERTEX
8
0
10
18.549875
20
28.360000000000003
30
0
0
VERTEX
8
0
10
17.980125
20
28.360000000000003
30
0
0
VERTEX
8
0
10
17.96105
20
28.3548875
30
0
0
VERTEX
8
0
10
17.94395
20
28.345015625000002
30
0
0
VERTEX
8
0
10
17.929984375
20
28.33105
30
0
0
VERTEX
8
0
10
17.920112500000002
20
28.313950000000002
30
0
0
VERTEX
8
0
10
17.915
20
28.294875
30
0
0
VERTEX
8
0
10
17.915
20
28.125125
30
0
0
VERTEX
8
0
10
17.920112500000002
20
28.10605
30
0
0
VERTEX
8
0
10
17.929984375
20
28.08895
30
0
0
VERTEX
8
0
10
17.94395
20
28.074984375
30
0
0
VERTEX
8
0
10
17.96105
20
28.0651125
30
0
0
VERTEX
8
0
10
17.980125
20
28.060000000000002
30
0
0
VERTEX
8
0
10
18.549875
20
28.060000000000002
30
0
0
SEQEND
0
POLYLINE
66
1
8
1_copper
10
0.0
20
0.0
30
0.0
70
1
0
VERTEX
8
0
10
25.21895
20
27.5651125
30
0
0
VERTEX
8
0
10
25.236050000000002
20
27.574984375
30
0
0
VERTEX
8
0
10
25.250015625
20
27.58895
30
0
0
VERTEX
8
0
10
25.2598875
20
27.60605
30
0
0
VERTEX
8
0
10
25.265
20
27.625125
30
0
0
VERTEX
8
0
10
25.265
20
27.794875
30
0
0
VERTEX
8
0
10
25.2598875
20
27.813950000000002
30
0
0
VERTEX
8
0
10
25.250015625
20
27.83105
30
0
0
VERTEX
8
0
10
25.236050000000002
20
27.845015625000002
30
0
0
VERTEX
8
0
10
25.21895
20
27.8548875
30
0
0
VERTEX
8
0
10
25.199875000000002
20
27.860000000000003
30
0
0
VERTEX
8
0
10
24.630125
20
27.860000000000003
30
0
0
VERTEX
8
0
10
24.611050000000002
20
27.8548875
30
0
0
VERTEX
8
0
10
24.59395
20
27.845015625000002
30
0
0
VERTEX
8
0
10
24.579984375000002
20
27.83105
30
0
0
VERTEX
8
0
10
24.5701125
20
27.813950000000002
30
0
0
VERTEX
8
0
10
24.565
20
27.794875
30
0
0
VERTEX
8
0
10
24.565
20
27.625125
30
0
0
VERTEX
8
0
10
24.5701125
20
27.60605
30
0
0
VERTEX
8
0
10
24.579984375000002
20
27.58895
30
0
0
VERTEX
8
0
10
24.59395
20
27.574984375
30
0
0
VERTEX
8
0
10
24.611050000000002
20
27.5651125
30
0
0
VERTEX
8
0
10
24.630125
20
27.560000000000002
30
0
0
VERTEX
8
0
10
25.199875000000002
20
27.560000000000002
30
0
0
SEQEND
0
POLYLINE
66
1
8
1_copper
10
0.0
20
0.0
30
0.0
70
1
0
VERTEX
8
0
10
18.56895
20
27.5651125
30
0
0
VERTEX
8
0
10
18.58605
20
27.574984375
30
0
0
VERTEX
8
0
10
18.600015625
20
27.58895
30
0
0
VERTEX
8
0
10
18.6098875
20
27.60605
30
0
0
VERTEX
8
0
10
18.615000000000002
20
27.625125
30
0
0
VERTEX
8
0
10
18.615000000000002
20
27.794875
30
0
0
VERTEX
8
0
10
18.6098875
20
27.813950000000002
30
0
0
VERTEX
8
0
10
18.600015625
20
27.83105
30
0
0
VERTEX
8
0
10
18.58605
20
27.845015625000002
30
0
0
VERTEX
8
0
10
18.56895
20
27.8548875
30
0
0
VERTEX
8
0
10
18.549875
20
27.860000000000003
30
0
0
VERTEX
8
0
10
17.980125
20
27.860000000000003
30
0
0
VERTEX
8
0
10
17.96105
20
27.8548875
30
0
0
VERTEX
8
0
10
17.94395
20
27.845015625000002
30
0
0
VERTEX
8
0
10
17.929984375
20
27.83105
30
0
0
VERTEX
8
0
10
17.920112500000002
20
27.813950000000002
30
0
0
VERTEX
8
0
10
17.915
20
27.794875
30
0
0
VERTEX
8
0
10
17.915
20
27.625125
30
0
0
VERTEX
8
0
10
17.920112500000002
20
27.60605
30
0
0
VERTEX
8
0
10
17.929984375
20
27.58895
30
0
0
VERTEX
8
0
10
17.94395
20
27.574984375
30
0
0
VERTEX
8
0
10
17.96105
20
27.5651125
30
0
0
VERTEX
8
0
10
17.980125
20
27.560000000000002
30
0
0
VERTEX
8
0
10
18.549875
20
27.560000000000002
30
0
0
SEQEND
0
POLYLINE
66
1
8
1_copper
10
0.0
20
0.0
30
0.0
70
1
0
VERTEX
8
0
10
25.21895
20
27.0651125
30
0
0
VERTEX
8
0
10
25.236050000000002
20
27.074984375
30
0
0
VERTEX
8
0
10
25.250015625
20
27.08895
30
0
0
VERTEX
8
0
10
25.2598875
20
27.10605
30
0
0
VERTEX
8
0
10
25.265
20
27.125125
30
0
0
VERTEX
8
0
10
25.265
20
27.294875
30
0
0
VERTEX
8
0
10
25.2598875
20
27.313950000000002
30
0
0
VERTEX
8
0
10
25.250015625
20
27.33105
30
0
0
VERTEX
8
0
10
25.236050000000002
20
27.345015625000002
30
0
0
VERTEX
8
0
10
25.21895
20
27.3548875
30
0
0
VERTEX
8
0
10
25.199875000000002
20
27.360000000000003
30
0
0
VERTEX
8
0
10
24.630125
20
27.360000000000003
30
0
0
VERTEX
8
0
10
24.611050000000002
20
27.3548875
30
0
0
VERTEX
8
0
10
24.59395
20
27.345015625000002
30
0
0
VERTEX
8
0
10
24.579984375000002
20
27.33105
30
0
0
VERTEX
8
0
10
24.5701125
20
27.313950000000002
30
0
0
VERTEX
8
0
10
24.565
20
27.294875
30
0
0
VERTEX
8
0
10
24.565
20
27.125125
30
0
0
VERTEX
8
0
10
24.5701125
20
27.10605
30
0
0
VERTEX
8
0
10
24.579984375000002
20
27.08895
30
0
0
VERTEX
8
0
10
24.59395
20
27.074984375
30
0
0
VERTEX
8
0
10
24.611050000000002
20
27.0651125
30
0
0
VERTEX
8
0
10
24.630125
20
27.060000000000002
30
0
0
VERTEX
8
0
10
25.199875000000002
20
27.060000000000002
30
0
0
SEQEND
0
POLYLINE
66
1
8
1_copper
10
0.0
20
0.0
30
0.0
70
1
0
VERTEX
8
0
10
18.56895
20
27.0651125
30
0
0
VERTEX
8
0
10
18.58605
20
27.074984375
30
0
0
VERTEX
8
0
10
18.600015625
20
27.08895
30
0
0
VERTEX
8
0
10
18.6098875
20
27.10605
30
0
0
VERTEX
8
0
10
18.615000000000002
20
27.125125
30
0
0
VERTEX
8
0
10
18.615000000000002
20
27.294875
30
0
0
VERTEX
8
0
10
18.6098875
20
27.313950000000002
30
0
0
VERTEX
8
0
10
18.600015625
20
27.33105
30
0
0
VERTEX
8
0
10
18.58605
20
27.345015625000002
30
0
0
VERTEX
8
0
10
18.56895
20
27.3548875
30
0
0
VERTEX
8
0
10
18.549875
20
27.360000000000003
30
0
0
VERTEX
8
0
10
17.980125
20
27.360000000000003
30
0
0
VERTEX
8
0
10
17.96105
20
27.3548875
30
0
0
VERTEX
8
0
10
17.94395
20
27.345015625000002
30
0
0
VERTEX
8
0
10
17.929984375
20
27.33105
30
0
0
VERTEX
8
0
10
17.920112500000002
20
27.313950000000002
30
0
0
VERTEX
8
0
10
17.915
20
27.294875
30
0
0
VERTEX
8
0
10
17.915
20
27.125125
30
0
0
VERTEX
8
0
10
17.920112500000002
20
27.10605
30
0
0
VERTEX
8
0
10
17.929984375
20
27.08895
30
0
0
VERTEX
8
0
10
17.94395
20
27.074984375
30
0
0
VERTEX
8
0
10
17.96105
20
27.0651125
30
0
0
VERTEX
8
0
10
17.980125
20
27.060000000000002
30
0
0
VERTEX
8
0
10
18.549875
20
27.060000000000002
30
0
0
SEQEND
0
POLYLINE
66
1
8
1_copper
10
0.0
20
0.0
30
0.0
70
1
0
VERTEX
8
0
10
25.21895
20
26.5651125
30
0
0
VERTEX
8
0
10
25.236050000000002
20
26.574984375
30
0
0
VERTEX
8
0
10
25.250015625
20
26.58895
30
0
0
VERTEX
8
0
10
25.2598875
20
26.60605
30
0
0
VERTEX
8
0
10
25.265
20
26.625125
30
0
0
VERTEX
8
0
10
25.265
20
26.794875
30
0
0
VERTEX
8
0
10
25.2598875
20
26.813950000000002
30
0
0
VERTEX
8
0
10
25.250015625
20
26.83105
30
0
0
VERTEX
8
0
10
25.236050000000002
20
26.845015625000002
30
0
0
VERTEX
8
0
10
25.21895
20
26.8548875
30
0
0
VERTEX
8
0
10
25.199875000000002
20
26.860000000000003
30
0
0
VERTEX
8
0
10
24.630125
20
26.860000000000003
30
0
0
VERTEX
8
0
10
24.611050000000002
20
26.8548875
30
0
0
VERTEX
8
0
10
24.59395
20
26.845015625000002
30
0
0
VERTEX
8
0
10
24.579984375000002
20
26.83105
30
0
0
VERTEX
8
0
10
24.5701125
20
26.813950000000002
30
0
0
VERTEX
8
0
10
24.565
20
26.794875
30
0
0
VERTEX
8
0
10
24.565
20
26.625125
30
0
0
VERTEX
8
0
10
24.5701125
20
26.60605
30
0
0
VERTEX
8
0
10
24.579984375000002
20
26.58895
30
0
0
VERTEX
8
0
10
24.59395
20
26.574984375
30
0
0
VERTEX
8
0
10
24.611050000000002
20
26.5651125
30
0
0
VERTEX
8
0
10
24.630125
20
26.560000000000002
30
0
0
VERTEX
8
0
10
25.199875000000002
20
26.560000000000002
30
0
0
SEQEND
0
POLYLINE
66
1
8
1_copper
10
0.0
20
0.0
30
0.0
70
1
0
VERTEX
8
0
10
18.56895
20
26.5651125
30
0
0
VERTEX
8
0
10
18.58605
20
26.574984375
30
0
0
VERTEX
8
0
10
18.600015625
20
26.58895
30
0
0
VERTEX
8
0
10
18.6098875
20
26.60605
30
0
0
VERTEX
8
0
10
18.615000000000002
20
26.625125
30
0
0
VERTEX
8
0
10
18.615000000000002
20
26.794875
30
0
0
VERTEX
8
0
10
18.6098875
20
26.813950000000002
30
0
0
VERTEX
8
0
10
18.600015625
20
26.83105
30
0
0
VERTEX
8
0
10
18.58605
20
26.845015625000002
30
0
0
VERTEX
8
0
10
18.56895
20
26.8548875
30
0
0
VERTEX
8
0
10
18.549875
20
26.860000000000003
30
0
0
VERTEX
8
0
10
17.980125
20
26.860000000000003
30
0
0
VERTEX
8
0
10
17.96105
20
26.8548875
30
0
0
VERTEX
8
0
10
17.94395
20
26.845015625000002
30
0
0
VERTEX
8
0
10
17.929984375
20
26.83105
30
0
0
VERTEX
8
0
10
17.920112500000002
20
26.813950000000002
30
0
0
VERTEX
8
0
10
17.915
20
26.794875
30
0
0
VERTEX
8
0
10
17.915
20
26.625125
30
0
0
VERTEX
8
0
10
17.920112500000002
20
26.60605
30
0
0
VERTEX
8
0
10
17.929984375
20
26.58895
30
0
0
VERTEX
8
0
10
17.94395
20
26.574984375
30
0
0
VERTEX
8
0
10
17.96105
20
26.5651125
30
0
0
VERTEX
8
0
10
17.980125
20
26.560000000000002
30
0
0
VERTEX
8
0
10
18.549875
20
26.560000000000002
30
0
0
SEQEND
0
POLYLINE
66
1
8
1_copper
10
0.0
20
0.0
30
0.0
70
1
0
VERTEX
8
0
10
19.19395
20
25.540112500000003
30
0
0
VERTEX
8
0
10
19.21105
20
25.549984375
30
0
0
VERTEX
8
0
10
19.225015625
20
25.563950000000002
30
0
0
VERTEX
8
0
10
19.2348875
20
25.58105
30
0
0
VERTEX
8
0
10
19.240000000000002
20
25.600125000000002
30
0
0
VERTEX
8
0
10
19.240000000000002
20
26.169875
30
0
0
VERTEX
8
0
10
19.2348875
20
26.188950000000002
30
0
0
VERTEX
8
0
10
19.225015625
20
26.20605
30
0
0
VERTEX
8
0
10
19.21105
20
26.220015625000002
30
0
0
VERTEX
8
0
10
19.19395
20
26.2298875
30
0
0
VERTEX
8
0
10
19.174875
20
26.235000000000003
30
0
0
VERTEX
8
0
10
19.005125
20
26.235000000000003
30
0
0
VERTEX
8
0
10
18.986050000000002
20
26.2298875
30
0
0
VERTEX
8
0
10
18.96895
20
26.220015625000002
30
0
0
VERTEX
8
0
10
18.954984375000002
20
26.20605
30
0
0
VERTEX
8
0
10
18.9451125
20
26.188950000000002
30
0
0
VERTEX
8
0
10
18.94
20
26.169875
30
0
0
VERTEX
8
0
10
18.94
20
25.600125000000002
30
0
0
VERTEX
8
0
10
18.9451125
20
25.58105
30
0
0
VERTEX
8
0
10
18.954984375000002
20
25.563950000000002
30
0
0
VERTEX
8
0
10
18.96895
20
25.549984375
30
0
0
VERTEX
8
0
10
18.986050000000002
20
25.540112500000003
30
0
0
VERTEX
8
0
10
19.005125
20
25.535
30
0
0
VERTEX
8
0
10
19.174875
20
25.535
30
0
0
SEQEND
0
POLYLINE
66
1
8
1_copper
10
0.0
20
0.0
30
0.0
70
1
0
VERTEX
8
0
10
19.69395
20
25.540112500000003
30
0
0
VERTEX
8
0
10
19.71105
20
25.549984375
30
0
0
VERTEX
8
0
10
19.725015625
20
25.563950000000002
30
0
0
VERTEX
8
0
10
19.7348875
20
25.58105
30
0
0
VERTEX
8
0
10
19.740000000000002
20
25.600125000000002
30
0
0
VERTEX
8
0
10
19.740000000000002
20
26.169875
30
0
0
VERTEX
8
0
10
19.7348875
20
26.188950000000002
30
0
0
VERTEX
8
0
10
19.725015625
20
26.20605
30
0
0
VERTEX
8
0
10
19.71105
20
26.220015625000002
30
0
0
VERTEX
8
0
10
19.69395
20
26.2298875
30
0
0
VERTEX
8
0
10
19.674875
20
26.235000000000003
30
0
0
VERTEX
8
0
10
19.505125
20
26.235000000000003
30
0
0
VERTEX
8
0
10
19.486050000000002
20
26.2298875
30
0
0
VERTEX
8
0
10
19.46895
20
26.220015625000002
30
0
0
VERTEX
8
0
10
19.454984375000002
20
26.20605
30
0
0
VERTEX
8
0
10
19.4451125
20
26.188950000000002
30
0
0
VERTEX
8
0
10
19.44
20
26.169875
30
0
0
VERTEX
8
0
10
19.44
20
25.600125000000002
30
0
0
VERTEX
8
0
10
19.4451125
20
25.58105
30
0
0
VERTEX
8
0
10
19.454984375000002
20
25.563950000000002
30
0
0
VERTEX
8
0
10
19.46895
20
25.549984375
30
0
0
VERTEX
8
0
10
19.486050000000002
20
25.540112500000003
30
0
0
VERTEX
8
0
10
19.505125
20
25.535
30
0
0
VERTEX
8
0
10
19.674875
20
25.535
30
0
0
SEQEND
0
POLYLINE
66
1
8
1_copper
10
0.0
20
0.0
30
0.0
70
1
0
VERTEX
8
0
10
20.19395
20
25.540112500000003
30
0
0
VERTEX
8
0
10
20.21105
20
25.549984375
30
0
0
VERTEX
8
0
10
20.225015625
20
25.563950000000002
30
0
0
VERTEX
8
0
10
20.2348875
20
25.58105
30
0
0
VERTEX
8
0
10
20.240000000000002
20
25.600125000000002
30
0
0
VERTEX
8
0
10
20.240000000000002
20
26.169875
30
0
0
VERTEX
8
0
10
20.2348875
20
26.188950000000002
30
0
0
VERTEX
8
0
10
20.225015625
20
26.20605
30
0
0
VERTEX
8
0
10
20.21105
20
26.220015625000002
30
0
0
VERTEX
8
0
10
20.19395
20
26.2298875
30
0
0
VERTEX
8
0
10
20.174875
20
26.235000000000003
30
0
0
VERTEX
8
0
10
20.005125
20
26.235000000000003
30
0
0
VERTEX
8
0
10
19.986050000000002
20
26.2298875
30
0
0
VERTEX
8
0
10
19.96895
20
26.220015625000002
30
0
0
VERTEX
8
0
10
19.954984375000002
20
26.20605
30
0
0
VERTEX
8
0
10
19.9451125
20
26.188950000000002
30
0
0
VERTEX
8
0
10
19.94
20
26.169875
30
0
0
VERTEX
8
0
10
19.94
20
25.600125000000002
30
0
0
VERTEX
8
0
10
19.9451125
20
25.58105
30
0
0
VERTEX
8
0
10
19.954984375000002
20
25.563950000000002
30
0
0
VERTEX
8
0
10
19.96895
20
25.549984375
30
0
0
VERTEX
8
0
10
19.986050000000002
20
25.540112500000003
30
0
0
VERTEX
8
0
10
20.005125
20
25.535
30
0
0
VERTEX
8
0
10
20.174875
20
25.535
30
0
0
SEQEND
0
POLYLINE
66
1
8
1_copper
10
0.0
20
0.0
30
0.0
70
1
0
VERTEX
8
0
10
20.69395
20
25.540112500000003
30
0
0
VERTEX
8
0
10
20.71105
20
25.549984375
30
0
0
VERTEX
8
0
10
20.725015625
20
25.563950000000002
30
0
0
VERTEX
8
0
10
20.7348875
20
25.58105
30
0
0
VERTEX
8
0
10
20.740000000000002
20
25.600125000000002
30
0
0
VERTEX
8
0
10
20.740000000000002
20
26.169875
30
0
0
VERTEX
8
0
10
20.7348875
20
26.188950000000002
30
0
0
VERTEX
8
0
10
20.725015625
20
26.20605
30
0
0
VERTEX
8
0
10
20.71105
20
26.220015625000002
30
0
0
VERTEX
8
0
10
20.69395
20
26.2298875
30
0
0
VERTEX
8
0
10
20.674875
20
26.235000000000003
30
0
0
VERTEX
8
0
10
20.505125
20
26.235000000000003
30
0
0
VERTEX
8
0
10
20.486050000000002
20
26.2298875
30
0
0
VERTEX
8
0
10
20.46895
20
26.220015625000002
30
0
0
VERTEX
8
0
10
20.454984375000002
20
26.20605
30
0
0
VERTEX
8
0
10
20.4451125
20
26.188950000000002
30
0
0
VERTEX
8
0
10
20.44
20
26.169875
30
0
0
VERTEX
8
0
10
20.44
20
25.600125000000002
30
0
0
VERTEX
8
0
10
20.4451125
20
25.58105
30
0
0
VERTEX
8
0
10
20.454984375000002
20
25.563950000000002
30
0
0
VERTEX
8
0
10
20.46895
20
25.549984375
30
0
0
VERTEX
8
0
10
20.486050000000002
20
25.540112500000003
30
0
0
VERTEX
8
0
10
20.505125
20
25.535
30
0
0
VERTEX
8
0
10
20.674875
20
25.535
30
0
0
SEQEND
0
POLYLINE
66
1
8
1_copper
10
0.0
20
0.0
30
0.0
70
1
0
VERTEX
8
0
10
22.19395
20
25.540112500000003
30
0
0
VERTEX
8
0
10
22.21105
20
25.549984375
30
0
0
VERTEX
8
0
10
22.225015625
20
25.563950000000002
30
0
0
VERTEX
8
0
10
22.234887500000003
20
25.58105
30
0
0
VERTEX
8
0
10
22.240000000000002
20
25.600125000000002
30
0
0
VERTEX
8
0
10
22.240000000000002
20
26.169875
30
0
0
VERTEX
8
0
10
22.234887500000003
20
26.188950000000002
30
0
0
VERTEX
8
0
10
22.225015625
20
26.20605
30
0
0
VERTEX
8
0
10
22.21105
20
26.220015625000002
30
0
0
VERTEX
8
0
10
22.19395
20
26.2298875
30
0
0
VERTEX
8
0
10
22.174875
20
26.235000000000003
30
0
0
VERTEX
8
0
10
22.005125
20
26.235000000000003
30
0
0
VERTEX
8
0
10
21.986050000000002
20
26.2298875
30
0
0
VERTEX
8
0
10
21.96895
20
26.220015625000002
30
0
0
VERTEX
8
0
10
21.954984375000002
20
26.20605
30
0
0
VERTEX
8
0
10
21.9451125
20
26.188950000000002
30
0
0
VERTEX
8
0
10
21.94
20
26.169875
30
0
0
VERTEX
8
0
10
21.94
20
25.600125000000002
30
0
0
VERTEX
8
0
10
21.9451125
20
25.58105
30
0
0
VERTEX
8
0
10
21.954984375000002
20
25.563950000000002
30
0
0
VERTEX
8
0
10
21.96895
20
25.549984375
30
0
0
VERTEX
8
0
10
21.986050000000002
20
25.540112500000003
30
0
0
VERTEX
8
0
10
22.005125
20
25.535
30
0
0
VERTEX
8
0
10
22.174875
20
25.535
30
0
0
SEQEND
0
POLYLINE
66
1
8
1_copper
10
0.0
20
0.0
30
0.0
70
1
0
VERTEX
8
0
10
22.69395
20
25.540112500000003
30
0
0
VERTEX
8
0
10
22.71105
20
25.549984375
30
0
0
VERTEX
8
0
10
22.725015625
20
25.563950000000002
30
0
0
VERTEX
8
0
10
22.734887500000003
20
25.58105
30
0
0
VERTEX
8
0
10
22.740000000000002
20
25.600125000000002
30
0
0
VERTEX
8
0
10
22.740000000000002
20
26.169875
30
0
0
VERTEX
8
0
10
22.734887500000003
20
26.188950000000002
30
0
0
VERTEX
8
0
10
22.725015625
20
26.20605
30
0
0
VERTEX
8
0
10
22.71105
20
26.220015625000002
30
0
0
VERTEX
8
0
10
22.69395
20
26.2298875
30
0
0
VERTEX
8
0
10
22.674875
20
26.235000000000003
30
0
0
VERTEX
8
0
10
22.505125
20
26.235000000000003
30
0
0
VERTEX
8
0
10
22.486050000000002
20
26.2298875
30
0
0
VERTEX
8
0
10
22.46895
20
26.220015625000002
30
0
0
VERTEX
8
0
10
22.454984375000002
20
26.20605
30
0
0
VERTEX
8
0
10
22.4451125
20
26.188950000000002
30
0
0
VERTEX
8
0
10
22.44
20
26.169875
30
0
0
VERTEX
8
0
10
22.44
20
25.600125000000002
30
0
0
VERTEX
8
0
10
22.4451125
20
25.58105
30
0
0
VERTEX
8
0
10
22.454984375000002
20
25.563950000000002
30
0
0
VERTEX
8
0
10
22.46895
20
25.549984375
30
0
0
VERTEX
8
0
10
22.486050000000002
20
25.540112500000003
30
0
0
VERTEX
8
0
10
22.505125
20
25.535
30
0
0
VERTEX
8
0
10
22.674875
20
25.535
30
0
0
SEQEND
0
POLYLINE
66
1
8
1_copper
10
0.0
20
0.0
30
0.0
70
1
0
VERTEX
8
0
10
23.19395
20
25.540112500000003
30
0
0
VERTEX
8
0
10
23.21105
20
25.549984375
30
0
0
VERTEX
8
0
10
23.225015625
20
25.563950000000002
30
0
0
VERTEX
8
0
10
23.234887500000003
20
25.58105
30
0
0
VERTEX
8
0
10
23.240000000000002
20
25.600125000000002
30
0
0
VERTEX
8
0
10
23.240000000000002
20
26.169875
30
0
0
VERTEX
8
0
10
23.234887500000003
20
26.188950000000002
30
0
0
VERTEX
8
0
10
23.225015625
20
26.20605
30
0
0
VERTEX
8
0
10
23.21105
20
26.220015625000002
30
0
0
VERTEX
8
0
10
23.19395
20
26.2298875
30
0
0
VERTEX
8
0
10
23.174875
20
26.235000000000003
30
0
0
VERTEX
8
0
10
23.005125
20
26.235000000000003
30
0
0
VERTEX
8
0
10
22.986050000000002
20
26.2298875
30
0
0
VERTEX
8
0
10
22.96895
20
26.220015625000002
30
0
0
VERTEX
8
0
10
22.954984375000002
20
26.20605
30
0
0
VERTEX
8
0
10
22.9451125
20
26.188950000000002
30
0
0
VERTEX
8
0
10
22.94
20
26.169875
30
0
0
VERTEX
8
0
10
22.94
20
25.600125000000002
30
0
0
VERTEX
8
0
10
22.9451125
20
25.58105
30
0
0
VERTEX
8
0
10
22.954984375000002
20
25.563950000000002
30
0
0
VERTEX
8
0
10
22.96895
20
25.549984375
30
0
0
VERTEX
8
0
10
22.986050000000002
20
25.540112500000003
30
0
0
VERTEX
8
0
10
23.005125
20
25.535
30
0
0
VERTEX
8
0
10
23.174875
20
25.535
30
0
0
SEQEND
0
POLYLINE
66
1
8
1_copper
10
0.0
20
0.0
30
0.0
70
1
0
VERTEX
8
0
10
23.69395
20
25.540112500000003
30
0
0
VERTEX
8
0
10
23.71105
20
25.549984375
30
0
0
VERTEX
8
0
10
23.725015625
20
25.563950000000002
30
0
0
VERTEX
8
0
10
23.734887500000003
20
25.58105
30
0
0
VERTEX
8
0
10
23.740000000000002
20
25.600125000000002
30
0
0
VERTEX
8
0
10
23.740000000000002
20
26.169875
30
0
0
VERTEX
8
0
10
23.734887500000003
20
26.188950000000002
30
0
0
VERTEX
8
0
10
23.725015625
20
26.20605
30
0
0
VERTEX
8
0
10
23.71105
20
26.220015625000002
30
0
0
VERTEX
8
0
10
23.69395
20
26.2298875
30
0
0
VERTEX
8
0
10
23.674875
20
26.235000000000003
30
0
0
VERTEX
8
0
10
23.505125
20
26.235000000000003
30
0
0
VERTEX
8
0
10
23.486050000000002
20
26.2298875
30
0
0
VERTEX
8
0
10
23.46895
20
26.220015625000002
30
0
0
VERTEX
8
0
10
23.454984375000002
20
26.20605
30
0
0
VERTEX
8
0
10
23.4451125
20
26.188950000000002
30
0
0
VERTEX
8
0
10
23.44
20
26.169875
30
0
0
VERTEX
8
0
10
23.44
20
25.600125000000002
30
0
0
VERTEX
8
0
10
23.4451125
20
25.58105
30
0
0
VERTEX
8
0
10
23.454984375000002
20
25.563950000000002
30
0
0
VERTEX
8
0
10
23.46895
20
25.549984375
30
0
0
VERTEX
8
0
10
23.486050000000002
20
25.540112500000003
30
0
0
VERTEX
8
0
10
23.505125
20
25.535
30
0
0
VERTEX
8
0
10
23.674875
20
25.535
30
0
0
SEQEND
0
POLYLINE
66
1
8
1_copper
10
0.0
20
0.0
30
0.0
70
1
0
VERTEX
8
0
10
24.19395
20
25.540112500000003
30
0
0
VERTEX
8
0
10
24.21105
20
25.549984375
30
0
0
VERTEX
8
0
10
24.225015625
20
25.563950000000002
30
0
0
VERTEX
8
0
10
24.234887500000003
20
25.58105
30
0
0
VERTEX
8
0
10
24.240000000000002
20
25.600125000000002
30
0
0
VERTEX
8
0
10
24.240000000000002
20
26.169875
30
0
0
VERTEX
8
0
10
24.234887500000003
20
26.188950000000002
30
0
0
VERTEX
8
0
10
24.225015625
20
26.20605
30
0
0
VERTEX
8
0
10
24.21105
20
26.220015625000002
30
0
0
VERTEX
8
0
10
24.19395
20
26.2298875
30
0
0
VERTEX
8
0
10
24.174875
20
26.235000000000003
30
0
0
VERTEX
8
0
10
24.005125
20
26.235000000000003
30
0
0
VERTEX
8
0
10
23.986050000000002
20
26.2298875
30
0
0
VERTEX
8
0
10
23.96895
20
26.220015625000002
30
0
0
VERTEX
8
0
10
23.954984375000002
20
26.20605
30
0
0
VERTEX
8
0
10
23.9451125
20
26.188950000000002
30
0
0
VERTEX
8
0
10
23.94
20
26.169875
30
0
0
VERTEX
8
0
10
23.94
20
25.600125000000002
30
0
0
VERTEX
8
0
10
23.9451125
20
25.58105
30
0
0
VERTEX
8
0
10
23.954984375000002
20
25.563950000000002
30
0
0
VERTEX
8
0
10
23.96895
20
25.549984375
30
0
0
VERTEX
8
0
10
23.986050000000002
20
25.540112500000003
30
0
0
VERTEX
8
0
10
24.005125
20
25.535
30
0
0
VERTEX
8
0
10
24.174875
20
25.535
30
0
0
SEQEND
0
POLYLINE
66
1
8
1_copper
10
0.0
20
0.0
30
0.0
70
1
0
VERTEX
8
0
10
21.69395
20
25.540112500000003
30
0
0
VERTEX
8
0
10
21.71105
20
25.549984375
30
0
0
VERTEX
8
0
10
21.725015625
20
25.563950000000002
30
0
0
VERTEX
8
0
10
21.734887500000003
20
25.58105
30
0
0
VERTEX
8
0
10
21.740000000000002
20
25.600125000000002
30
0
0
VERTEX
8
0
10
21.740000000000002
20
26.169875
30
0
0
VERTEX
8
0
10
21.734887500000003
20
26.188950000000002
30
0
0
VERTEX
8
0
10
21.7303
20
26.19689375
30
0
0
VERTEX
8
0
10
21.93860625
20
26.4052
30
0
0
VERTEX
8
0
10
24.03824375
20
26.4052
30
0
42
0.198912367379658
0
VERTEX
8
0
10
24.092125000000003
20
26.42751875
30
0
0
VERTEX
8
0
10
24.37248125
20
26.707875
30
0
42
0.198912367379658
0
VERTEX
8
0
10
24.3948
20
26.76175625
30
0
0
VERTEX
8
0
10
24.3948
20
31.65824375
30
0
42
0.198912367379658
0
VERTEX
8
0
10
24.37248125
20
31.712125
30
0
0
VERTEX
8
0
10
24.092125000000003
20
31.99248125
30
0
42
0.198912367379658
0
VERTEX
8
0
10
24.03824375
20
32.0148
30
0
0
VERTEX
8
0
10
21.93860625
20
32.0148
30
0
0
VERTEX
8
0
10
21.7303
20
32.22310625
30
0
0
VERTEX
8
0
10
21.734887500000003
20
32.23105
30
0
0
VERTEX
8
0
10
21.740000000000002
20
32.250125000000004
30
0
0
VERTEX
8
0
10
21.740000000000002
20
32.819875
30
0
0
VERTEX
8
0
10
21.734887500000003
20
32.838950000000004
30
0
0
VERTEX
8
0
10
21.725015625
20
32.85605
30
0
0
VERTEX
8
0
10
21.71105
20
32.870015625
30
0
0
VERTEX
8
0
10
21.69395
20
32.8798875
30
0
0
VERTEX
8
0
10
21.674875
20
32.885000000000005
30
0
0
VERTEX
8
0
10
21.505125
20
32.885000000000005
30
0
0
VERTEX
8
0
10
21.486050000000002
20
32.8798875
30
0
0
VERTEX
8
0
10
21.46895
20
32.870015625
30
0
0
VERTEX
8
0
10
21.454984375000002
20
32.85605
30
0
0
VERTEX
8
0
10
21.4451125
20
32.838950000000004
30
0
0
VERTEX
8
0
10
21.44
20
32.819875
30
0
0
VERTEX
8
0
10
21.44
20
32.250125000000004
30
0
0
VERTEX
8
0
10
21.4451125
20
32.23105
30
0
0
VERTEX
8
0
10
21.454984375000002
20
32.213950000000004
30
0
0
VERTEX
8
0
10
21.46895
20
32.199984375
30
0
0
VERTEX
8
0
10
21.486050000000002
20
32.190112500000005
30
0
0
VERTEX
8
0
10
21.505125
20
32.185
30
0
0
VERTEX
8
0
10
21.552881250000002
20
32.185
30
0
0
VERTEX
8
0
10
21.8531625
20
31.88471875
30
0
42
0.198912367379658
0
VERTEX
8
0
10
21.90704375
20
31.8624
30
0
0
VERTEX
8
0
10
24.00668125
20
31.8624
30
0
0
VERTEX
8
0
10
24.2424
20
31.62668125
30
0
0
VERTEX
8
0
10
24.2424
20
26.79331875
30
0
0
VERTEX
8
0
10
24.00668125
20
26.5576
30
0
0
VERTEX
8
0
10
21.90704375
20
26.5576
30
0
42
0.198912367379658
0
VERTEX
8
0
10
21.8531625
20
26.53528125
30
0
0
VERTEX
8
0
10
21.552881250000002
20
26.235000000000003
30
0
0
VERTEX
8
0
10
21.505125
20
26.235000000000003
30
0
0
VERTEX
8
0
10
21.486050000000002
20
26.2298875
30
0
0
VERTEX
8
0
10
21.46895
20
26.220015625000002
30
0
0
VERTEX
8
0
10
21.454984375000002
20
26.20605
30
0
0
VERTEX
8
0
10
21.4451125
20
26.188950000000002
30
0
0
VERTEX
8
0
10
21.44
20
26.169875
30
0
0
VERTEX
8
0
10
21.44
20
25.600125000000002
30
0
0
VERTEX
8
0
10
21.4451125
20
25.58105
30
0
0
VERTEX
8
0
10
21.454984375000002
20
25.563950000000002
30
0
0
VERTEX
8
0
10
21.46895
20
25.549984375
30
0
0
VERTEX
8
0
10
21.486050000000002
20
25.540112500000003
30
0
0
VERTEX
8
0
10
21.505125
20
25.535
30
0
0
VERTEX
8
0
10
21.674875
20
25.535
30
0
0
SEQEND
0
POLYLINE
66
1
8
1_copper
10
0.0
20
0.0
30
0.0
70
1
0
VERTEX
8
0
10
22.19395
20
32.190112500000005
30
0
0
VERTEX
8
0
10
22.21105
20
32.199984375
30
0
0
VERTEX
8
0
10
22.225015625
20
32.213950000000004
30
0
0
VERTEX
8
0
10
22.234887500000003
20
32.23105
30
0
0
VERTEX
8
0
10
22.240000000000002
20
32.250125000000004
30
0
0
VERTEX
8
0
10
22.240000000000002
20
32.819875
30
0
0
VERTEX
8
0
10
22.234887500000003
20
32.838950000000004
30
0
0
VERTEX
8
0
10
22.225015625
20
32.85605
30
0
0
VERTEX
8
0
10
22.21105
20
32.870015625
30
0
0
VERTEX
8
0
10
22.19395
20
32.8798875
30
0
0
VERTEX
8
0
10
22.174875
20
32.885000000000005
30
0
0
VERTEX
8
0
10
22.005125
20
32.885000000000005
30
0
0
VERTEX
8
0
10
21.986050000000002
20
32.8798875
30
0
0
VERTEX
8
0
10
21.96895
20
32.870015625
30
0
0
VERTEX
8
0
10
21.954984375000002
20
32.85605
30
0
0
VERTEX
8
0
10
21.9451125
20
32.838950000000004
30
0
0
VERTEX
8
0
10
21.94
20
32.819875
30
0
0
VERTEX
8
0
10
21.94
20
32.250125000000004
30
0
0
VERTEX
8
0
10
21.9451125
20
32.23105
30
0
0
VERTEX
8
0
10
21.954984375000002
20
32.213950000000004
30
0
0
VERTEX
8
0
10
21.96895
20
32.199984375
30
0
0
VERTEX
8
0
10
21.986050000000002
20
32.190112500000005
30
0
0
VERTEX
8
0
10
22.005125
20
32.185
30
0
0
VERTEX
8
0
10
22.174875
20
32.185
30
0
0
SEQEND
0
POLYLINE
66
1
8
1_copper
10
0.0
20
0.0
30
0.0
70
1
0
VERTEX
8
0
10
25.21895
20
29.5651125
30
0
0
VERTEX
8
0
10
25.236050000000002
20
29.574984375
30
0
0
VERTEX
8
0
10
25.250015625
20
29.58895
30
0
0
VERTEX
8
0
10
25.2598875
20
29.60605
30
0
0
VERTEX
8
0
10
25.265
20
29.625125
30
0
0
VERTEX
8
0
10
25.265
20
29.794875
30
0
0
VERTEX
8
0
10
25.2598875
20
29.813950000000002
30
0
0
VERTEX
8
0
10
25.250015625
20
29.83105
30
0
0
VERTEX
8
0
10
25.236050000000002
20
29.845015625000002
30
0
0
VERTEX
8
0
10
25.21895
20
29.8548875
30
0
0
VERTEX
8
0
10
25.199875000000002
20
29.860000000000003
30
0
0
VERTEX
8
0
10
24.630125
20
29.860000000000003
30
0
0
VERTEX
8
0
10
24.611050000000002
20
29.8548875
30
0
0
VERTEX
8
0
10
24.59395
20
29.845015625000002
30
0
0
VERTEX
8
0
10
24.579984375000002
20
29.83105
30
0
0
VERTEX
8
0
10
24.5701125
20
29.813950000000002
30
0
0
VERTEX
8
0
10
24.565
20
29.794875
30
0
0
VERTEX
8
0
10
24.565
20
29.625125
30
0
0
VERTEX
8
0
10
24.5701125
20
29.60605
30
0
0
VERTEX
8
0
10
24.579984375000002
20
29.58895
30
0
0
VERTEX
8
0
10
24.59395
20
29.574984375
30
0
0
VERTEX
8
0
10
24.611050000000002
20
29.5651125
30
0
0
VERTEX
8
0
10
24.630125
20
29.560000000000002
30
0
0
VERTEX
8
0
10
25.199875000000002
20
29.560000000000002
30
0
0
SEQEND
0
POLYLINE
66
1
8
1_copper
10
0.0
20
0.0
30
0.0
70
1
0
VERTEX
8
0
10
18.56895
20
29.0651125
30
0
0
VERTEX
8
0
10
18.58605
20
29.074984375
30
0
0
VERTEX
8
0
10
18.600015625
20
29.08895
30
0
0
VERTEX
8
0
10
18.6098875
20
29.10605
30
0
0
VERTEX
8
0
10
18.615000000000002
20
29.125125
30
0
0
VERTEX
8
0
10
18.615000000000002
20
29.294875
30
0
0
VERTEX
8
0
10
18.6098875
20
29.313950000000002
30
0
0
VERTEX
8
0
10
18.600015625
20
29.33105
30
0
0
VERTEX
8
0
10
18.58605
20
29.345015625000002
30
0
0
VERTEX
8
0
10
18.56895
20
29.3548875
30
0
0
VERTEX
8
0
10
18.549875
20
29.360000000000003
30
0
0
VERTEX
8
0
10
17.980125
20
29.360000000000003
30
0
0
VERTEX
8
0
10
17.96105
20
29.3548875
30
0
0
VERTEX
8
0
10
17.94395
20
29.345015625000002
30
0
0
VERTEX
8
0
10
17.929984375
20
29.33105
30
0
0
VERTEX
8
0
10
17.920112500000002
20
29.313950000000002
30
0
0
VERTEX
8
0
10
17.915
20
29.294875
30
0
0
VERTEX
8
0
10
17.915
20
29.125125
30
0
0
VERTEX
8
0
10
17.920112500000002
20
29.10605
30
0
0
VERTEX
8
0
10
17.929984375
20
29.08895
30
0
0
VERTEX
8
0
10
17.94395
20
29.074984375
30
0
0
VERTEX
8
0
10
17.96105
20
29.0651125
30
0
0
VERTEX
8
0
10
17.980125
20
29.060000000000002
30
0
0
VERTEX
8
0
10
18.549875
20
29.060000000000002
30
0
0
SEQEND
0
POLYLINE
66
1
8
1_copper
10
0.0
20
0.0
30
0.0
70
1
0
VERTEX
8
0
10
25.21895
20
29.0651125
30
0
0
VERTEX
8
0
10
25.236050000000002
20
29.074984375
30
0
0
VERTEX
8
0
10
25.250015625
20
29.08895
30
0
0
VERTEX
8
0
10
25.2598875
20
29.10605
30
0
0
VERTEX
8
0
10
25.265
20
29.125125
30
0
0
VERTEX
8
0
10
25.265
20
29.294875
30
0
0
VERTEX
8
0
10
25.2598875
20
29.313950000000002
30
0
0
VERTEX
8
0
10
25.250015625
20
29.33105
30
0
0
VERTEX
8
0
10
25.236050000000002
20
29.345015625000002
30
0
0
VERTEX
8
0
10
25.21895
20
29.3548875
30
0
0
VERTEX
8
0
10
25.199875000000002
20
29.360000000000003
30
0
0
VERTEX
8
0
10
24.630125
20
29.360000000000003
30
0
0
VERTEX
8
0
10
24.611050000000002
20
29.3548875
30
0
0
VERTEX
8
0
10
24.59395
20
29.345015625000002
30
0
0
VERTEX
8
0
10
24.579984375000002
20
29.33105
30
0
0
VERTEX
8
0
10
24.5701125
20
29.313950000000002
30
0
0
VERTEX
8
0
10
24.565
20
29.294875
30
0
0
VERTEX
8
0
10
24.565
20
29.125125
30
0
0
VERTEX
8
0
10
24.5701125
20
29.10605
30
0
0
VERTEX
8
0
10
24.579984375000002
20
29.08895
30
0
0
VERTEX
8
0
10
24.59395
20
29.074984375
30
0
0
VERTEX
8
0
10
24.611050000000002
20
29.0651125
30
0
0
VERTEX
8
0
10
24.630125
20
29.060000000000002
30
0
0
VERTEX
8
0
10
25.199875000000002
20
29.060000000000002
30
0
0
SEQEND
0
POLYLINE
66
1
8
1_copper
10
0.0
20
0.0
30
0.0
70
1
0
VERTEX
8
0
10
21.19395
20
25.540112500000003
30
0
0
VERTEX
8
0
10
21.21105
20
25.549984375
30
0
0
VERTEX
8
0
10
21.225015625
20
25.563950000000002
30
0
0
VERTEX
8
0
10
21.2348875
20
25.58105
30
0
0
VERTEX
8
0
10
21.240000000000002
20
25.600125000000002
30
0
0
VERTEX
8
0
10
21.240000000000002
20
26.169875
30
0
0
VERTEX
8
0
10
21.2348875
20
26.188950000000002
30
0
0
VERTEX
8
0
10
21.225015625
20
26.20605
30
0
0
VERTEX
8
0
10
21.21105
20
26.220015625000002
30
0
0
VERTEX
8
0
10
21.19395
20
26.2298875
30
0
0
VERTEX
8
0
10
21.174875
20
26.235000000000003
30
0
0
VERTEX
8
0
10
21.005125
20
26.235000000000003
30
0
0
VERTEX
8
0
10
20.986050000000002
20
26.2298875
30
0
0
VERTEX
8
0
10
20.96895
20
26.220015625000002
30
0
0
VERTEX
8
0
10
20.954984375000002
20
26.20605
30
0
0
VERTEX
8
0
10
20.9451125
20
26.188950000000002
30
0
0
VERTEX
8
0
10
20.94
20
26.169875
30
0
0
VERTEX
8
0
10
20.94
20
25.600125000000002
30
0
0
VERTEX
8
0
10
20.9451125
20
25.58105
30
0
0
VERTEX
8
0
10
20.954984375000002
20
25.563950000000002
30
0
0
VERTEX
8
0
10
20.96895
20
25.549984375
30
0
0
VERTEX
8
0
10
20.986050000000002
20
25.540112500000003
30
0
0
VERTEX
8
0
10
21.005125
20
25.535
30
0
0
VERTEX
8
0
10
21.174875
20
25.535
30
0
0
SEQEND
0
POLYLINE
66
1
8
1_copper
10
0.0
20
0.0
30
0.0
70
1
0
VERTEX
8
0
10
18.56895
20
29.5651125
30
0
0
VERTEX
8
0
10
18.58605
20
29.574984375
30
0
0
VERTEX
8
0
10
18.600015625
20
29.58895
30
0
0
VERTEX
8
0
10
18.6098875
20
29.60605
30
0
0
VERTEX
8
0
10
18.615000000000002
20
29.625125
30
0
0
VERTEX
8
0
10
18.615000000000002
20
29.794875
30
0
0
VERTEX
8
0
10
18.6098875
20
29.813950000000002
30
0
0
VERTEX
8
0
10
18.600015625
20
29.83105
30
0
0
VERTEX
8
0
10
18.58605
20
29.845015625000002
30
0
0
VERTEX
8
0
10
18.56895
20
29.8548875
30
0
0
VERTEX
8
0
10
18.549875
20
29.860000000000003
30
0
0
VERTEX
8
0
10
17.980125
20
29.860000000000003
30
0
0
VERTEX
8
0
10
17.96105
20
29.8548875
30
0
0
VERTEX
8
0
10
17.94395
20
29.845015625000002
30
0
0
VERTEX
8
0
10
17.929984375
20
29.83105
30
0
0
VERTEX
8
0
10
17.920112500000002
20
29.813950000000002
30
0
0
VERTEX
8
0
10
17.915
20
29.794875
30
0
0
VERTEX
8
0
10
17.915
20
29.625125
30
0
0
VERTEX
8
0
10
17.920112500000002
20
29.60605
30
0
0
VERTEX
8
0
10
17.929984375
20
29.58895
30
0
0
VERTEX
8
0
10
17.94395
20
29.574984375
30
0
0
VERTEX
8
0
10
17.96105
20
29.5651125
30
0
0
VERTEX
8
0
10
17.980125
20
29.560000000000002
30
0
0
VERTEX
8
0
10
18.549875
20
29.560000000000002
30
0
0
SEQEND
0
POLYLINE
66
1
8
1_copper
10
0.0
20
0.0
30
0.0
70
1
0
VERTEX
8
0
10
41.983940625
20
42.808271875
30
0
42
0.7673286442183417
0
VERTEX
8
0
10
42.031828125000004
20
43.538896875
30
0
0
VERTEX
8
0
10
41.986200000000004
20
43.551121875
30
0
42
0.32507022383050505
0
VERTEX
8
0
10
41.96388125
20
43.64388125
30
0
0
VERTEX
8
0
10
40.3277625
20
45.28
30
0
0
VERTEX
8
0
10
41.22
20
45.28
30
0
0
VERTEX
8
0
10
41.22
20
46.980000000000004
30
0
0
VERTEX
8
0
10
37.52
20
46.980000000000004
30
0
0
VERTEX
8
0
10
37.52
20
45.28
30
0
0
VERTEX
8
0
10
40.1122375
20
45.28
30
0
0
VERTEX
8
0
10
41.833800000000004
20
43.558437500000004
30
0
0
VERTEX
8
0
10
41.833800000000004
20
43.551121875
30
0
0
VERTEX
8
0
10
41.788171875
20
43.538896875
30
0
0
VERTEX
8
0
10
41.742368750000004
20
43.519925
30
0
0
VERTEX
8
0
10
41.69943125
20
43.495137500000006
30
0
0
VERTEX
8
0
10
41.6601
20
43.46495625
30
0
0
VERTEX
8
0
10
41.62504375
20
43.4299
30
0
0
VERTEX
8
0
10
41.594862500000005
20
43.39056875
30
0
0
VERTEX
8
0
10
41.570075
20
43.34763125
30
0
0
VERTEX
8
0
10
41.551103125000004
20
43.301828125
30
0
0
VERTEX
8
0
10
41.538271875
20
43.253940625000006
30
0
0
VERTEX
8
0
10
41.531800000000004
20
43.2047875
30
0
0
VERTEX
8
0
10
41.531800000000004
20
43.155212500000005
30
0
0
VERTEX
8
0
10
41.538271875
20
43.106059375
30
0
0
VERTEX
8
0
10
41.551103125000004
20
43.058171875
30
0
0
VERTEX
8
0
10
41.570075
20
43.01236875
30
0
0
VERTEX
8
0
10
41.594862500000005
20
42.96943125
30
0
0
VERTEX
8
0
10
41.62504375
20
42.9301
30
0
0
VERTEX
8
0
10
41.6601
20
42.89504375
30
0
0
VERTEX
8
0
10
41.69943125
20
42.8648625
30
0
0
VERTEX
8
0
10
41.742368750000004
20
42.840075
30
0
0
VERTEX
8
0
10
41.788171875
20
42.821103125
30
0
0
VERTEX
8
0
10
41.836059375000005
20
42.808271875
30
0
0
VERTEX
8
0
10
41.8852125
20
42.8018
30
0
0
VERTEX
8
0
10
41.9347875
20
42.8018
30
0
0
SEQEND
0
POLYLINE
66
1
8
1_copper
10
0.0
20
0.0
30
0.0
70
1
0
VERTEX
8
0
10
41.983940625
20
23.758271875000002
30
0
42
0.7673286442183417
0
VERTEX
8
0
10
42.031828125000004
20
24.488896875000002
30
0
0
VERTEX
8
0
10
41.986200000000004
20
24.501121875000003
30
0
42
0.32507022383050505
0
VERTEX
8
0
10
41.96388125
20
24.593881250000003
30
0
0
VERTEX
8
0
10
40.3277625
20
26.23
30
0
0
VERTEX
8
0
10
41.22
20
26.23
30
0
0
VERTEX
8
0
10
41.22
20
26.5938
30
0
0
VERTEX
8
0
10
41.910000000000004
20
26.5938
30
0
42
0.198912367379658
0
VERTEX
8
0
10
41.96388125
20
26.616118750000002
30
0
0
VERTEX
8
0
10
43.23388125
20
27.88611875
30
0
42
0.198912367379658
0
VERTEX
8
0
10
43.2562
20
27.94
30
0
0
VERTEX
8
0
10
43.2562
20
35.56
30
0
42
0.198912367379658
0
VERTEX
8
0
10
43.23388125
20
35.61388125
30
0
0
VERTEX
8
0
10
41.96388125
20
36.88388125
30
0
42
0.198912367379658
0
VERTEX
8
0
10
41.910000000000004
20
36.9062
30
0
0
VERTEX
8
0
10
40.230000000000004
20
36.9062
30
0
42
0.198912367379658
0
VERTEX
8
0
10
40.17611875
20
36.88388125
30
0
0
VERTEX
8
0
10
40.1122375
20
36.82
30
0
0
VERTEX
8
0
10
39.4677625
20
36.82
30
0
0
VERTEX
8
0
10
40.6715625
20
38.0238
30
0
0
VERTEX
8
0
10
41.538878125000004
20
38.0238
30
0
42
0.9969241442347151
0
VERTEX
8
0
10
42.281728125
20
38.173940625
30
0
0
VERTEX
8
0
10
42.268896875
20
38.221828125
30
0
42
0.7648843201253167
0
VERTEX
8
0
10
41.538878125000004
20
38.1762
30
0
0
VERTEX
8
0
10
40.64
20
38.1762
30
0
42
0.198912367379658
0
VERTEX
8
0
10
40.586118750000004
20
38.153881250000005
30
0
0
VERTEX
8
0
10
39.31611875
20
36.88388125
30
0
42
0.23305875606234966
0
VERTEX
8
0
10
39.293800000000005
20
36.82
30
0
0
VERTEX
8
0
10
37.52
20
36.82
30
0
0
VERTEX
8
0
10
37.52
20
35.120000000000005
30
0
0
VERTEX
8
0
10
41.22
20
35.120000000000005
30
0
0
VERTEX
8
0
10
41.22
20
36.7538
30
0
0
VERTEX
8
0
10
41.878437500000004
20
36.7538
30
0
0
VERTEX
8
0
10
43.1038
20
35.5284375
30
0
0
VERTEX
8
0
10
43.1038
20
27.9715625
30
0
0
VERTEX
8
0
10
41.878437500000004
20
26.7462
30
0
0
VERTEX
8
0
10
41.22
20
26.7462
30
0
0
VERTEX
8
0
10
41.22
20
27.93
30
0
0
VERTEX
8
0
10
37.52
20
27.93
30
0
0
VERTEX
8
0
10
37.52
20
26.23
30
0
0
VERTEX
8
0
10
40.1122375
20
26.23
30
0
0
VERTEX
8
0
10
41.833800000000004
20
24.5084375
30
0
0
VERTEX
8
0
10
41.833800000000004
20
24.501121875000003
30
0
0
VERTEX
8
0
10
41.788171875
20
24.488896875000002
30
0
0
VERTEX
8
0
10
41.742368750000004
20
24.469925
30
0
0
VERTEX
8
0
10
41.69943125
20
24.4451375
30
0
0
VERTEX
8
0
10
41.6601
20
24.41495625
30
0
0
VERTEX
8
0
10
41.62504375
20
24.379900000000003
30
0
0
VERTEX
8
0
10
41.594862500000005
20
24.340568750000003
30
0
0
VERTEX
8
0
10
41.570075
20
24.297631250000002
30
0
0
VERTEX
8
0
10
41.551103125000004
20
24.251828125
30
0
0
VERTEX
8
0
10
41.538271875
20
24.203940625
30
0
0
VERTEX
8
0
10
41.531800000000004
20
24.1547875
30
0
0
VERTEX
8
0
10
41.531800000000004
20
24.1052125
30
0
0
VERTEX
8
0
10
41.538271875
20
24.056059375
30
0
0
VERTEX
8
0
10
41.551103125000004
20
24.008171875000002
30
0
0
VERTEX
8
0
10
41.570075
20
23.96236875
30
0
0
VERTEX
8
0
10
41.594862500000005
20
23.919431250000002
30
0
0
VERTEX
8
0
10
41.62504375
20
23.880100000000002
30
0
0
VERTEX
8
0
10
41.6601
20
23.845043750000002
30
0
0
VERTEX
8
0
10
41.69943125
20
23.8148625
30
0
0
VERTEX
8
0
10
41.742368750000004
20
23.790075
30
0
0
VERTEX
8
0
10
41.788171875
20
23.771103125
30
0
0
VERTEX
8
0
10
41.836059375000005
20
23.758271875000002
30
0
0
VERTEX
8
0
10
41.8852125
20
23.751800000000003
30
0
0
VERTEX
8
0
10
41.9347875
20
23.751800000000003
30
0
0
SEQEND
0
POLYLINE
66
1
8
1_copper
10
0.0
20
0.0
30
0.0
70
1
0
VERTEX
8
0
10
35.633940625
20
13.598271875
30
0
42
0.9999999999999999
0
VERTEX
8
0
10
35.486059375
20
14.341728125000001
30
0
0
VERTEX
8
0
10
35.438171875
20
14.328896875
30
0
42
0.2663001048044914
0
VERTEX
8
0
10
35.188878125
20
14.0462
30
0
0
VERTEX
8
0
10
22.891562500000003
20
14.0462
30
0
0
VERTEX
8
0
10
16.5862
20
20.3515625
30
0
0
VERTEX
8
0
10
16.5862
20
28.70279375
30
0
0
VERTEX
8
0
10
17.89580625
20
30.012400000000003
30
0
0
VERTEX
8
0
10
18.1436
20
30.012400000000003
30
0
42
0.3159518709647982
0
VERTEX
8
0
10
18.2227625
20
30.060000000000002
30
0
0
VERTEX
8
0
10
18.549875
20
30.060000000000002
30
0
0
VERTEX
8
0
10
18.56895
20
30.0651125
30
0
0
VERTEX
8
0
10
18.58605
20
30.074984375000003
30
0
0
VERTEX
8
0
10
18.600015625
20
30.08895
30
0
0
VERTEX
8
0
10
18.6098875
20
30.10605
30
0
0
VERTEX
8
0
10
18.615000000000002
20
30.125125
30
0
0
VERTEX
8
0
10
18.615000000000002
20
30.294875
30
0
0
VERTEX
8
0
10
18.6098875
20
30.313950000000002
30
0
0
VERTEX
8
0
10
18.600015625
20
30.33105
30
0
0
VERTEX
8
0
10
18.58605
20
30.345015625000002
30
0
0
VERTEX
8
0
10
18.56895
20
30.3548875
30
0
0
VERTEX
8
0
10
18.549875
20
30.360000000000003
30
0
0
VERTEX
8
0
10
17.980125
20
30.360000000000003
30
0
0
VERTEX
8
0
10
17.96105
20
30.3548875
30
0
0
VERTEX
8
0
10
17.94395
20
30.345015625000002
30
0
0
VERTEX
8
0
10
17.929984375
20
30.33105
30
0
0
VERTEX
8
0
10
17.920112500000002
20
30.313950000000002
30
0
0
VERTEX
8
0
10
17.915
20
30.294875
30
0
0
VERTEX
8
0
10
17.915
20
30.164800000000003
30
0
42
0.3573986666421138
0
VERTEX
8
0
10
17.8103625
20
30.142481250000003
30
0
0
VERTEX
8
0
10
16.45611875
20
28.7882375
30
0
42
0.198912367379658
0
VERTEX
8
0
10
16.4338
20
28.73435625
30
0
0
VERTEX
8
0
10
16.4338
20
20.32
30
0
42
0.198912367379658
0
VERTEX
8
0
10
16.45611875
20
20.26611875
30
0
0
VERTEX
8
0
10
22.80611875
20
13.91611875
30
0
42
0.198912367379658
0
VERTEX
8
0
10
22.86
20
13.8938
30
0
0
VERTEX
8
0
10
35.188878125
20
13.8938
30
0
0
VERTEX
8
0
10
35.201103125
20
13.848171875
30
0
0
VERTEX
8
0
10
35.220075
20
13.802368750000001
30
0
0
VERTEX
8
0
10
35.2448625
20
13.75943125
30
0
0
VERTEX
8
0
10
35.27504375
20
13.7201
30
0
0
VERTEX
8
0
10
35.3101
20
13.68504375
30
0
0
VERTEX
8
0
10
35.34943125
20
13.6548625
30
0
0
VERTEX
8
0
10
35.39236875
20
13.630075000000001
30
0
0
VERTEX
8
0
10
35.438171875
20
13.611103125000001
30
0
0
VERTEX
8
0
10
35.486059375
20
13.598271875
30
0
0
VERTEX
8
0
10
35.5352125
20
13.591800000000001
30
0
0
VERTEX
8
0
10
35.584787500000004
20
13.591800000000001
30
0
0
SEQEND
0
POLYLINE
66
1
8
1_copper
10
0.0
20
0.0
30
0.0
70
1
0
VERTEX
8
0
10
38.173940625
20
13.598271875
30
0
42
0.5325344265187388
0
VERTEX
8
0
10
38.416306250000005
20
14.178543750000001
30
0
0
VERTEX
8
0
10
39.42388125
20
15.18611875
30
0
42
0.198912367379658
0
VERTEX
8
0
10
39.446200000000005
20
15.24
30
0
0
VERTEX
8
0
10
39.446200000000005
20
16.07
30
0
0
VERTEX
8
0
10
41.22
20
16.07
30
0
0
VERTEX
8
0
10
41.22
20
17.77
30
0
0
VERTEX
8
0
10
39.4677625
20
17.77
30
0
0
VERTEX
8
0
10
40.6715625
20
18.9738
30
0
0
VERTEX
8
0
10
41.538878125000004
20
18.9738
30
0
42
0.9969241442347151
0
VERTEX
8
0
10
42.281728125
20
19.123940625
30
0
0
VERTEX
8
0
10
42.268896875
20
19.171828125
30
0
42
0.7648843201253167
0
VERTEX
8
0
10
41.538878125000004
20
19.1262
30
0
0
VERTEX
8
0
10
40.64
20
19.1262
30
0
42
0.198912367379658
0
VERTEX
8
0
10
40.586118750000004
20
19.10388125
30
0
0
VERTEX
8
0
10
39.31611875
20
17.83388125
30
0
42
0.23305875606234966
0
VERTEX
8
0
10
39.293800000000005
20
17.77
30
0
0
VERTEX
8
0
10
37.52
20
17.77
30
0
0
VERTEX
8
0
10
37.52
20
16.07
30
0
0
VERTEX
8
0
10
39.293800000000005
20
16.07
30
0
0
VERTEX
8
0
10
39.293800000000005
20
15.2715625
30
0
0
VERTEX
8
0
10
38.30854375
20
14.28630625
30
0
0
VERTEX
8
0
10
38.26763125
20
14.309925000000002
30
0
0
VERTEX
8
0
10
38.221828125
20
14.328896875
30
0
0
VERTEX
8
0
10
38.173940625
20
14.341728125000001
30
0
0
VERTEX
8
0
10
38.124787500000004
20
14.3482
30
0
0
VERTEX
8
0
10
38.0752125
20
14.3482
30
0
0
VERTEX
8
0
10
38.026059375
20
14.341728125000001
30
0
0
VERTEX
8
0
10
37.978171875
20
14.328896875
30
0
0
VERTEX
8
0
10
37.93236875
20
14.309925000000002
30
0
0
VERTEX
8
0
10
37.88943125
20
14.285137500000001
30
0
0
VERTEX
8
0
10
37.850100000000005
20
14.254956250000001
30
0
0
VERTEX
8
0
10
37.81504375
20
14.2199
30
0
0
VERTEX
8
0
10
37.7848625
20
14.18056875
30
0
0
VERTEX
8
0
10
37.760075
20
14.13763125
30
0
0
VERTEX
8
0
10
37.741103125
20
14.091828125000001
30
0
0
VERTEX
8
0
10
37.728271875000004
20
14.043940625000001
30
0
0
VERTEX
8
0
10
37.7218
20
13.994787500000001
30
0
0
VERTEX
8
0
10
37.7218
20
13.9452125
30
0
0
VERTEX
8
0
10
37.728271875000004
20
13.896059375
30
0
0
VERTEX
8
0
10
37.741103125
20
13.848171875
30
0
0
VERTEX
8
0
10
37.760075
20
13.802368750000001
30
0
0
VERTEX
8
0
10
37.7848625
20
13.75943125
30
0
0
VERTEX
8
0
10
37.81504375
20
13.7201
30
0
0
VERTEX
8
0
10
37.850100000000005
20
13.68504375
30
0
0
VERTEX
8
0
10
37.88943125
20
13.6548625
30
0
0
VERTEX
8
0
10
37.93236875
20
13.630075000000001
30
0
0
VERTEX
8
0
10
37.978171875
20
13.611103125000001
30
0
0
VERTEX
8
0
10
38.026059375
20
13.598271875
30
0
0
VERTEX
8
0
10
38.0752125
20
13.591800000000001
30
0
0
VERTEX
8
0
10
38.124787500000004
20
13.591800000000001
30
0
0
SEQEND
0
POLYLINE
66
1
8
16_copper
10
0.0
20
0.0
30
0.0
70
1
0
VERTEX
8
0
10
41.983940625
20
37.728271875000004
30
0
42
0.5325344265187388
0
VERTEX
8
0
10
42.22630625
20
38.30854375
30
0
0
VERTEX
8
0
10
43.23388125
20
39.31611875
30
0
42
0.198912367379658
0
VERTEX
8
0
10
43.2562
20
39.370000000000005
30
0
0
VERTEX
8
0
10
43.2562
20
41.910000000000004
30
0
42
0.198912367379658
0
VERTEX
8
0
10
43.23388125
20
41.96388125
30
0
0
VERTEX
8
0
10
42.22630625
20
42.97145625
30
0
42
0.9969257294187597
0
VERTEX
8
0
10
41.594862500000005
20
43.39056875
30
0
0
VERTEX
8
0
10
41.570075
20
43.34763125
30
0
42
0.76488331982605
0
VERTEX
8
0
10
42.11854375
20
42.86369375
30
0
0
VERTEX
8
0
10
43.1038
20
41.878437500000004
30
0
0
VERTEX
8
0
10
43.1038
20
39.401562500000004
30
0
0
VERTEX
8
0
10
42.11854375
20
38.416306250000005
30
0
0
VERTEX
8
0
10
42.07763125
20
38.439925
30
0
0
VERTEX
8
0
10
42.031828125000004
20
38.458896875
30
0
0
VERTEX
8
0
10
41.983940625
20
38.471728125
30
0
0
VERTEX
8
0
10
41.9347875
20
38.4782
30
0
0
VERTEX
8
0
10
41.8852125
20
38.4782
30
0
0
VERTEX
8
0
10
41.836059375000005
20
38.471728125
30
0
0
VERTEX
8
0
10
41.788171875
20
38.458896875
30
0
0
VERTEX
8
0
10
41.742368750000004
20
38.439925
30
0
0
VERTEX
8
0
10
41.69943125
20
38.4151375
30
0
0
VERTEX
8
0
10
41.6601
20
38.38495625
30
0
0
VERTEX
8
0
10
41.62504375
20
38.349900000000005
30
0
0
VERTEX
8
0
10
41.594862500000005
20
38.31056875
30
0
0
VERTEX
8
0
10
41.570075
20
38.26763125
30
0
0
VERTEX
8
0
10
41.551103125000004
20
38.221828125
30
0
0
VERTEX
8
0
10
41.538271875
20
38.173940625
30
0
0
VERTEX
8
0
10
41.531800000000004
20
38.124787500000004
30
0
0
VERTEX
8
0
10
41.531800000000004
20
38.0752125
30
0
0
VERTEX
8
0
10
41.538271875
20
38.026059375
30
0
0
VERTEX
8
0
10
41.551103125000004
20
37.978171875
30
0
0
VERTEX
8
0
10
41.570075
20
37.93236875
30
0
0
VERTEX
8
0
10
41.594862500000005
20
37.88943125
30
0
0
VERTEX
8
0
10
41.62504375
20
37.850100000000005
30
0
0
VERTEX
8
0
10
41.6601
20
37.81504375
30
0
0
VERTEX
8
0
10
41.69943125
20
37.7848625
30
0
0
VERTEX
8
0
10
41.742368750000004
20
37.760075
30
0
0
VERTEX
8
0
10
41.788171875
20
37.741103125
30
0
0
VERTEX
8
0
10
41.836059375000005
20
37.728271875000004
30
0
0
VERTEX
8
0
10
41.8852125
20
37.7218
30
0
0
VERTEX
8
0
10
41.9347875
20
37.7218
30
0
0
SEQEND
0
POLYLINE
66
1
8
16_copper
10
0.0
20
0.0
30
0.0
70
1
0
VERTEX
8
0
10
41.983940625
20
18.678271875
30
0
42
0.5325344265187388
0
VERTEX
8
0
10
42.22630625
20
19.25854375
30
0
0
VERTEX
8
0
10
43.23388125
20
20.26611875
30
0
42
0.198912367379658
0
VERTEX
8
0
10
43.2562
20
20.32
30
0
0
VERTEX
8
0
10
43.2562
20
22.86
30
0
42
0.198912367379658
0
VERTEX
8
0
10
43.23388125
20
22.913881250000003
30
0
0
VERTEX
8
0
10
42.22630625
20
23.921456250000002
30
0
42
0.9969257294187597
0
VERTEX
8
0
10
41.594862500000005
20
24.340568750000003
30
0
0
VERTEX
8
0
10
41.570075
20
24.297631250000002
30
0
42
0.76488331982605
0
VERTEX
8
0
10
42.11854375
20
23.813693750000002
30
0
0
VERTEX
8
0
10
43.1038
20
22.8284375
30
0
0
VERTEX
8
0
10
43.1038
20
20.3515625
30
0
0
VERTEX
8
0
10
42.11854375
20
19.36630625
30
0
0
VERTEX
8
0
10
42.07763125
20
19.389925
30
0
0
VERTEX
8
0
10
42.031828125000004
20
19.408896875
30
0
0
VERTEX
8
0
10
41.983940625
20
19.421728125
30
0
0
VERTEX
8
0
10
41.9347875
20
19.4282
30
0
0
VERTEX
8
0
10
41.8852125
20
19.4282
30
0
0
VERTEX
8
0
10
41.836059375000005
20
19.421728125
30
0
0
VERTEX
8
0
10
41.788171875
20
19.408896875
30
0
0
VERTEX
8
0
10
41.742368750000004
20
19.389925
30
0
0
VERTEX
8
0
10
41.69943125
20
19.3651375
30
0
0
VERTEX
8
0
10
41.6601
20
19.33495625
30
0
0
VERTEX
8
0
10
41.62504375
20
19.2999
30
0
0
VERTEX
8
0
10
41.594862500000005
20
19.26056875
30
0
0
VERTEX
8
0
10
41.570075
20
19.21763125
30
0
0
VERTEX
8
0
10
41.551103125000004
20
19.171828125
30
0
0
VERTEX
8
0
10
41.538271875
20
19.123940625
30
0
0
VERTEX
8
0
10
41.531800000000004
20
19.0747875
30
0
0
VERTEX
8
0
10
41.531800000000004
20
19.025212500000002
30
0
0
VERTEX
8
0
10
41.538271875
20
18.976059375000002
30
0
0
VERTEX
8
0
10
41.551103125000004
20
18.928171875
30
0
0
VERTEX
8
0
10
41.570075
20
18.88236875
30
0
0
VERTEX
8
0
10
41.594862500000005
20
18.83943125
30
0
0
VERTEX
8
0
10
41.62504375
20
18.8001
30
0
0
VERTEX
8
0
10
41.6601
20
18.76504375
30
0
0
VERTEX
8
0
10
41.69943125
20
18.734862500000002
30
0
0
VERTEX
8
0
10
41.742368750000004
20
18.710075
30
0
0
VERTEX
8
0
10
41.788171875
20
18.691103125
30
0
0
VERTEX
8
0
10
41.836059375000005
20
18.678271875
30
0
0
VERTEX
8
0
10
41.8852125
20
18.6718
30
0
0
VERTEX
8
0
10
41.9347875
20
18.6718
30
0
0
SEQEND
0
POLYLINE
66
1
8
16_copper
10
0.0
20
0.0
30
0.0
70
1
0
VERTEX
8
0
10
35.633940625
20
13.598271875
30
0
42
0.3016664185260731
0
VERTEX
8
0
10
35.931121875
20
13.8938
30
0
0
VERTEX
8
0
10
37.728878125
20
13.8938
30
0
42
0.9969241442347151
0
VERTEX
8
0
10
38.471728125
20
14.043940625000001
30
0
0
VERTEX
8
0
10
38.458896875
20
14.091828125000001
30
0
42
0.7648843201253167
0
VERTEX
8
0
10
37.728878125
20
14.0462
30
0
0
VERTEX
8
0
10
35.931121875
20
14.0462
30
0
0
VERTEX
8
0
10
35.918896875
20
14.091828125000001
30
0
0
VERTEX
8
0
10
35.899925
20
14.13763125
30
0
0
VERTEX
8
0
10
35.8751375
20
14.18056875
30
0
0
VERTEX
8
0
10
35.84495625
20
14.2199
30
0
0
VERTEX
8
0
10
35.8099
20
14.254956250000001
30
0
0
VERTEX
8
0
10
35.77056875
20
14.285137500000001
30
0
0
VERTEX
8
0
10
35.72763125
20
14.309925000000002
30
0
0
VERTEX
8
0
10
35.681828125
20
14.328896875
30
0
0
VERTEX
8
0
10
35.633940625
20
14.341728125000001
30
0
0
VERTEX
8
0
10
35.584787500000004
20
14.3482
30
0
0
VERTEX
8
0
10
35.5352125
20
14.3482
30
0
0
VERTEX
8
0
10
35.486059375
20
14.341728125000001
30
0
0
VERTEX
8
0
10
35.438171875
20
14.328896875
30
0
0
VERTEX
8
0
10
35.39236875
20
14.309925000000002
30
0
0
VERTEX
8
0
10
35.34943125
20
14.285137500000001
30
0
0
VERTEX
8
0
10
35.3101
20
14.254956250000001
30
0
0
VERTEX
8
0
10
35.27504375
20
14.2199
30
0
0
VERTEX
8
0
10
35.2448625
20
14.18056875
30
0
0
VERTEX
8
0
10
35.220075
20
14.13763125
30
0
0
VERTEX
8
0
10
35.201103125
20
14.091828125000001
30
0
0
VERTEX
8
0
10
35.188271875000005
20
14.043940625000001
30
0
0
VERTEX
8
0
10
35.1818
20
13.994787500000001
30
0
0
VERTEX
8
0
10
35.1818
20
13.9452125
30
0
0
VERTEX
8
0
10
35.188271875000005
20
13.896059375
30
0
0
VERTEX
8
0
10
35.201103125
20
13.848171875
30
0
0
VERTEX
8
0
10
35.220075
20
13.802368750000001
30
0
0
VERTEX
8
0
10
35.2448625
20
13.75943125
30
0
0
VERTEX
8
0
10
35.27504375
20
13.7201
30
0
0
VERTEX
8
0
10
35.3101
20
13.68504375
30
0
0
VERTEX
8
0
10
35.34943125
20
13.6548625
30
0
0
VERTEX
8
0
10
35.39236875
20
13.630075000000001
30
0
0
VERTEX
8
0
10
35.438171875
20
13.611103125000001
30
0
0
VERTEX
8
0
10
35.486059375
20
13.598271875
30
0
0
VERTEX
8
0
10
35.5352125
20
13.591800000000001
30
0
0
VERTEX
8
0
10
35.584787500000004
20
13.591800000000001
30
0
0
SEQEND
0
POLYLINE
66
1
8
1_copper
10
0.0
20
0.0
30
0.0
70
1
0
VERTEX
8
0
10
3.883940625
20
42.808271875
30
0
42
0.7673286442183417
0
VERTEX
8
0
10
3.931828125
20
43.538896875
30
0
0
VERTEX
8
0
10
3.8862
20
43.551121875
30
0
0
VERTEX
8
0
10
3.8862
20
43.558437500000004
30
0
0
VERTEX
8
0
10
5.607762500000001
20
45.28
30
0
0
VERTEX
8
0
10
8.200000000000001
20
45.28
30
0
0
VERTEX
8
0
10
8.200000000000001
20
46.980000000000004
30
0
0
VERTEX
8
0
10
4.5
20
46.980000000000004
30
0
0
VERTEX
8
0
10
4.5
20
45.28
30
0
0
VERTEX
8
0
10
5.3922375
20
45.28
30
0
0
VERTEX
8
0
10
3.75611875
20
43.64388125
30
0
42
0.32507022383050505
0
VERTEX
8
0
10
3.7338
20
43.551121875
30
0
0
VERTEX
8
0
10
3.688171875
20
43.538896875
30
0
0
VERTEX
8
0
10
3.64236875
20
43.519925
30
0
0
VERTEX
8
0
10
3.5994312500000003
20
43.495137500000006
30
0
0
VERTEX
8
0
10
3.5601000000000003
20
43.46495625
30
0
0
VERTEX
8
0
10
3.52504375
20
43.4299
30
0
0
VERTEX
8
0
10
3.4948625
20
43.39056875
30
0
0
VERTEX
8
0
10
3.470075
20
43.34763125
30
0
0
VERTEX
8
0
10
3.4511031250000004
20
43.301828125
30
0
0
VERTEX
8
0
10
3.4382718750000003
20
43.253940625000006
30
0
0
VERTEX
8
0
10
3.4318
20
43.2047875
30
0
0
VERTEX
8
0
10
3.4318
20
43.155212500000005
30
0
0
VERTEX
8
0
10
3.4382718750000003
20
43.106059375
30
0
0
VERTEX
8
0
10
3.4511031250000004
20
43.058171875
30
0
0
VERTEX
8
0
10
3.470075
20
43.01236875
30
0
0
VERTEX
8
0
10
3.4948625
20
42.96943125
30
0
0
VERTEX
8
0
10
3.52504375
20
42.9301
30
0
0
VERTEX
8
0
10
3.5601000000000003
20
42.89504375
30
0
0
VERTEX
8
0
10
3.5994312500000003
20
42.8648625
30
0
0
VERTEX
8
0
10
3.64236875
20
42.840075
30
0
0
VERTEX
8
0
10
3.688171875
20
42.821103125
30
0
0
VERTEX
8
0
10
3.736059375
20
42.808271875
30
0
0
VERTEX
8
0
10
3.7852125
20
42.8018
30
0
0
VERTEX
8
0
10
3.8347875
20
42.8018
30
0
0
SEQEND
0
POLYLINE
66
1
8
1_copper
10
0.0
20
0.0
30
0.0
70
1
0
VERTEX
8
0
10
8.200000000000001
20
17.77
30
0
0
VERTEX
8
0
10
4.5
20
17.77
30
0
0
VERTEX
8
0
10
4.5
20
16.5862
30
0
0
VERTEX
8
0
10
3.8415625
20
16.5862
30
0
0
VERTEX
8
0
10
2.6162
20
17.8115625
30
0
0
VERTEX
8
0
10
2.6162
20
24.098437500000003
30
0
0
VERTEX
8
0
10
3.8415625
20
25.323800000000002
30
0
0
VERTEX
8
0
10
4.67
20
25.323800000000002
30
0
42
0.198912367379658
0
VERTEX
8
0
10
4.72388125
20
25.346118750000002
30
0
0
VERTEX
8
0
10
5.607762500000001
20
26.23
30
0
0
VERTEX
8
0
10
8.200000000000001
20
26.23
30
0
0
VERTEX
8
0
10
8.200000000000001
20
27.003800000000002
30
0
0
VERTEX
8
0
10
10.57
20
27.003800000000002
30
0
42
0.198912367379658
0
VERTEX
8
0
10
10.62388125
20
27.026118750000002
30
0
0
VERTEX
8
0
10
14.7315625
20
31.1338
30
0
0
VERTEX
8
0
10
17.915
20
31.1338
30
0
0
VERTEX
8
0
10
17.915
20
31.125125
30
0
0
VERTEX
8
0
10
17.920112500000002
20
31.10605
30
0
0
VERTEX
8
0
10
17.929984375
20
31.08895
30
0
0
VERTEX
8
0
10
17.94395
20
31.074984375000003
30
0
0
VERTEX
8
0
10
17.96105
20
31.0651125
30
0
0
VERTEX
8
0
10
17.980125
20
31.060000000000002
30
0
0
VERTEX
8
0
10
18.549875
20
31.060000000000002
30
0
0
VERTEX
8
0
10
18.56895
20
31.0651125
30
0
0
VERTEX
8
0
10
18.58605
20
31.074984375000003
30
0
0
VERTEX
8
0
10
18.600015625
20
31.08895
30
0
0
VERTEX
8
0
10
18.6098875
20
31.10605
30
0
0
VERTEX
8
0
10
18.615000000000002
20
31.125125
30
0
0
VERTEX
8
0
10
18.615000000000002
20
31.294875
30
0
0
VERTEX
8
0
10
18.6098875
20
31.313950000000002
30
0
0
VERTEX
8
0
10
18.600015625
20
31.33105
30
0
0
VERTEX
8
0
10
18.58605
20
31.345015625000002
30
0
0
VERTEX
8
0
10
18.56895
20
31.3548875
30
0
0
VERTEX
8
0
10
18.549875
20
31.360000000000003
30
0
0
VERTEX
8
0
10
17.980125
20
31.360000000000003
30
0
0
VERTEX
8
0
10
17.96105
20
31.3548875
30
0
0
VERTEX
8
0
10
17.94395
20
31.345015625000002
30
0
0
VERTEX
8
0
10
17.929984375
20
31.33105
30
0
0
VERTEX
8
0
10
17.920112500000002
20
31.313950000000002
30
0
0
VERTEX
8
0
10
17.915
20
31.294875
30
0
0
VERTEX
8
0
10
17.915
20
31.2862
30
0
0
VERTEX
8
0
10
14.700000000000001
20
31.2862
30
0
42
0.198912367379658
0
VERTEX
8
0
10
14.646118750000001
20
31.26388125
30
0
0
VERTEX
8
0
10
10.5384375
20
27.156200000000002
30
0
0
VERTEX
8
0
10
8.200000000000001
20
27.156200000000002
30
0
0
VERTEX
8
0
10
8.200000000000001
20
27.93
30
0
0
VERTEX
8
0
10
4.5
20
27.93
30
0
0
VERTEX
8
0
10
4.5
20
26.7462
30
0
0
VERTEX
8
0
10
3.8415625
20
26.7462
30
0
0
VERTEX
8
0
10
2.6162
20
27.9715625
30
0
0
VERTEX
8
0
10
2.6162
20
35.5284375
30
0
0
VERTEX
8
0
10
3.8415625
20
36.7538
30
0
0
VERTEX
8
0
10
4.5
20
36.7538
30
0
0
VERTEX
8
0
10
4.5
20
35.120000000000005
30
0
0
VERTEX
8
0
10
8.200000000000001
20
35.120000000000005
30
0
0
VERTEX
8
0
10
8.200000000000001
20
36.82
30
0
0
VERTEX
8
0
10
6.426200000000001
20
36.82
30
0
42
0.23305875606234966
0
VERTEX
8
0
10
6.40388125
20
36.88388125
30
0
0
VERTEX
8
0
10
5.13388125
20
38.153881250000005
30
0
42
0.198912367379658
0
VERTEX
8
0
10
5.08
20
38.1762
30
0
0
VERTEX
8
0
10
3.8415625
20
38.1762
30
0
0
VERTEX
8
0
10
2.6162
20
39.401562500000004
30
0
0
VERTEX
8
0
10
2.6162
20
40.268878125
30
0
42
0.9969241442347151
0
VERTEX
8
0
10
2.466059375
20
41.011728125000005
30
0
0
VERTEX
8
0
10
2.418171875
20
40.998896875
30
0
42
0.7648843201253167
0
VERTEX
8
0
10
2.4638
20
40.268878125
30
0
0
VERTEX
8
0
10
2.4638
20
39.370000000000005
30
0
42
0.198912367379658
0
VERTEX
8
0
10
2.48611875
20
39.31611875
30
0
0
VERTEX
8
0
10
3.75611875
20
38.046118750000005
30
0
42
0.198912367379658
0
VERTEX
8
0
10
3.81
20
38.0238
30
0
0
VERTEX
8
0
10
5.0484375
20
38.0238
30
0
0
VERTEX
8
0
10
6.252237500000001
20
36.82
30
0
0
VERTEX
8
0
10
5.607762500000001
20
36.82
30
0
0
VERTEX
8
0
10
5.54388125
20
36.88388125
30
0
42
0.198912367379658
0
VERTEX
8
0
10
5.49
20
36.9062
30
0
0
VERTEX
8
0
10
3.81
20
36.9062
30
0
42
0.198912367379658
0
VERTEX
8
0
10
3.75611875
20
36.88388125
30
0
0
VERTEX
8
0
10
2.48611875
20
35.61388125
30
0
42
0.198912367379658
0
VERTEX
8
0
10
2.4638
20
35.56
30
0
0
VERTEX
8
0
10
2.4638
20
27.94
30
0
42
0.198912367379658
0
VERTEX
8
0
10
2.48611875
20
27.88611875
30
0
0
VERTEX
8
0
10
3.75611875
20
26.616118750000002
30
0
42
0.198912367379658
0
VERTEX
8
0
10
3.81
20
26.5938
30
0
0
VERTEX
8
0
10
4.5
20
26.5938
30
0
0
VERTEX
8
0
10
4.5
20
26.23
30
0
0
VERTEX
8
0
10
5.3922375
20
26.23
30
0
0
VERTEX
8
0
10
4.6384375
20
25.476200000000002
30
0
0
VERTEX
8
0
10
3.81
20
25.476200000000002
30
0
42
0.198912367379658
0
VERTEX
8
0
10
3.75611875
20
25.453881250000002
30
0
0
VERTEX
8
0
10
2.48611875
20
24.183881250000002
30
0
42
0.198912367379658
0
VERTEX
8
0
10
2.4638
20
24.130000000000003
30
0
0
VERTEX
8
0
10
2.4638
20
17.78
30
0
42
0.198912367379658
0
VERTEX
8
0
10
2.48611875
20
17.72611875
30
0
0
VERTEX
8
0
10
3.75611875
20
16.45611875
30
0
42
0.198912367379658
0
VERTEX
8
0
10
3.81
20
16.4338
30
0
0
VERTEX
8
0
10
4.5
20
16.4338
30
0
0
VERTEX
8
0
10
4.5
20
16.07
30
0
0
VERTEX
8
0
10
8.200000000000001
20
16.07
30
0
0
SEQEND
0
POLYLINE
66
1
8
16_copper
10
0.0
20
0.0
30
0.0
70
1
0
VERTEX
8
0
10
2.613940625
20
40.268271875
30
0
42
0.5325344265187388
0
VERTEX
8
0
10
2.8563062500000003
20
40.848543750000005
30
0
0
VERTEX
8
0
10
3.8638812500000004
20
41.85611875
30
0
42
0.198912367379658
0
VERTEX
8
0
10
3.8862
20
41.910000000000004
30
0
0
VERTEX
8
0
10
3.8862
20
42.808878125
30
0
42
0.9969241442347151
0
VERTEX
8
0
10
3.736059375
20
43.551728125000004
30
0
0
VERTEX
8
0
10
3.688171875
20
43.538896875
30
0
42
0.7648843201253167
0
VERTEX
8
0
10
3.7338
20
42.808878125
30
0
0
VERTEX
8
0
10
3.7338
20
41.9415625
30
0
0
VERTEX
8
0
10
2.74854375
20
40.956306250000004
30
0
0
VERTEX
8
0
10
2.70763125
20
40.979925
30
0
0
VERTEX
8
0
10
2.661828125
20
40.998896875
30
0
0
VERTEX
8
0
10
2.613940625
20
41.011728125000005
30
0
0
VERTEX
8
0
10
2.5647875
20
41.0182
30
0
0
VERTEX
8
0
10
2.5152125
20
41.0182
30
0
0
VERTEX
8
0
10
2.466059375
20
41.011728125000005
30
0
0
VERTEX
8
0
10
2.418171875
20
40.998896875
30
0
0
VERTEX
8
0
10
2.37236875
20
40.979925
30
0
0
VERTEX
8
0
10
2.3294312500000003
20
40.9551375
30
0
0
VERTEX
8
0
10
2.2901000000000002
20
40.92495625
30
0
0
VERTEX
8
0
10
2.25504375
20
40.889900000000004
30
0
0
VERTEX
8
0
10
2.2248625
20
40.85056875
30
0
0
VERTEX
8
0
10
2.200075
20
40.80763125
30
0
0
VERTEX
8
0
10
2.181103125
20
40.761828125
30
0
0
VERTEX
8
0
10
2.1682718750000003
20
40.713940625
30
0
0
VERTEX
8
0
10
2.1618
20
40.6647875
30
0
0
VERTEX
8
0
10
2.1618
20
40.615212500000005
30
0
0
VERTEX
8
0
10
2.1682718750000003
20
40.566059375
30
0
0
VERTEX
8
0
10
2.181103125
20
40.518171875
30
0
0
VERTEX
8
0
10
2.200075
20
40.47236875
30
0
0
VERTEX
8
0
10
2.2248625
20
40.42943125
30
0
0
VERTEX
8
0
10
2.25504375
20
40.390100000000004
30
0
0
VERTEX
8
0
10
2.2901000000000002
20
40.35504375
30
0
0
VERTEX
8
0
10
2.3294312500000003
20
40.3248625
30
0
0
VERTEX
8
0
10
2.37236875
20
40.300075
30
0
0
VERTEX
8
0
10
2.418171875
20
40.281103125
30
0
0
VERTEX
8
0
10
2.466059375
20
40.268271875
30
0
0
VERTEX
8
0
10
2.5152125
20
40.2618
30
0
0
VERTEX
8
0
10
2.5647875
20
40.2618
30
0
0
SEQEND
0
POLYLINE
66
1
8
1_copper
10
0.0
20
0.0
30
0.0
70
1
0
VERTEX
8
0
10
18.56895
20
31.5651125
30
0
0
VERTEX
8
0
10
18.58605
20
31.574984375000003
30
0
0
VERTEX
8
0
10
18.600015625
20
31.58895
30
0
0
VERTEX
8
0
10
18.6098875
20
31.60605
30
0
0
VERTEX
8
0
10
18.615000000000002
20
31.625125
30
0
0
VERTEX
8
0
10
18.615000000000002
20
31.794875
30
0
0
VERTEX
8
0
10
18.6098875
20
31.813950000000002
30
0
0
VERTEX
8
0
10
18.600015625
20
31.83105
30
0
0
VERTEX
8
0
10
18.58605
20
31.845015625000002
30
0
0
VERTEX
8
0
10
18.56895
20
31.8548875
30
0
0
VERTEX
8
0
10
18.549875
20
31.860000000000003
30
0
0
VERTEX
8
0
10
18.3412
20
31.860000000000003
30
0
0
VERTEX
8
0
10
18.3412
20
32.535000000000004
30
0
42
0.198912367379658
0
VERTEX
8
0
10
18.31888125
20
32.58888125
30
0
0
VERTEX
8
0
10
17.83388125
20
33.07388125
30
0
42
0.198912367379658
0
VERTEX
8
0
10
17.78
20
33.0962
30
0
0
VERTEX
8
0
10
16.881121875
20
33.0962
30
0
42
0.9969241442347151
0
VERTEX
8
0
10
16.138271875
20
32.946059375000004
30
0
0
VERTEX
8
0
10
16.151103125000002
20
32.898171875
30
0
42
0.7648843201253167
0
VERTEX
8
0
10
16.881121875
20
32.9438
30
0
0
VERTEX
8
0
10
17.7484375
20
32.9438
30
0
0
VERTEX
8
0
10
18.1888
20
32.503437500000004
30
0
0
VERTEX
8
0
10
18.1888
20
31.860000000000003
30
0
0
VERTEX
8
0
10
17.980125
20
31.860000000000003
30
0
0
VERTEX
8
0
10
17.96105
20
31.8548875
30
0
0
VERTEX
8
0
10
17.94395
20
31.845015625000002
30
0
0
VERTEX
8
0
10
17.929984375
20
31.83105
30
0
0
VERTEX
8
0
10
17.920112500000002
20
31.813950000000002
30
0
0
VERTEX
8
0
10
17.915
20
31.794875
30
0
0
VERTEX
8
0
10
17.915
20
31.625125
30
0
0
VERTEX
8
0
10
17.920112500000002
20
31.60605
30
0
0
VERTEX
8
0
10
17.929984375
20
31.58895
30
0
0
VERTEX
8
0
10
17.94395
20
31.574984375000003
30
0
0
VERTEX
8
0
10
17.96105
20
31.5651125
30
0
0
VERTEX
8
0
10
17.980125
20
31.560000000000002
30
0
0
VERTEX
8
0
10
18.549875
20
31.560000000000002
30
0
0
SEQEND
0
POLYLINE
66
1
8
1_copper
10
0.0
20
0.0
30
0.0
70
1
0
VERTEX
8
0
10
13.280000000000001
20
9.2238
30
0
0
VERTEX
8
0
10
17.2
20
9.2238
30
0
0
VERTEX
8
0
10
17.2
20
8.450000000000001
30
0
0
VERTEX
8
0
10
20.900000000000002
20
8.450000000000001
30
0
0
VERTEX
8
0
10
20.900000000000002
20
9.2238
30
0
0
VERTEX
8
0
10
23.55
20
9.2238
30
0
0
VERTEX
8
0
10
23.55
20
8.450000000000001
30
0
0
VERTEX
8
0
10
27.25
20
8.450000000000001
30
0
0
VERTEX
8
0
10
27.25
20
9.2238
30
0
0
VERTEX
8
0
10
31.17
20
9.2238
30
0
0
VERTEX
8
0
10
31.17
20
8.450000000000001
30
0
0
VERTEX
8
0
10
34.870000000000005
20
8.450000000000001
30
0
0
VERTEX
8
0
10
34.870000000000005
20
10.15
30
0
0
VERTEX
8
0
10
31.17
20
10.15
30
0
0
VERTEX
8
0
10
31.17
20
9.3762
30
0
0
VERTEX
8
0
10
27.25
20
9.3762
30
0
0
VERTEX
8
0
10
27.25
20
10.15
30
0
0
VERTEX
8
0
10
23.55
20
10.15
30
0
0
VERTEX
8
0
10
23.55
20
9.3762
30
0
0
VERTEX
8
0
10
20.900000000000002
20
9.3762
30
0
0
VERTEX
8
0
10
20.900000000000002
20
10.15
30
0
0
VERTEX
8
0
10
19.1262
20
10.15
30
0
0
VERTEX
8
0
10
19.1262
20
13.598878125
30
0
42
0.9969241442347151
0
VERTEX
8
0
10
18.976059375000002
20
14.341728125000001
30
0
0
VERTEX
8
0
10
18.928171875
20
14.328896875
30
0
42
0.7648843201253167
0
VERTEX
8
0
10
18.9738
20
13.598878125
30
0
0
VERTEX
8
0
10
18.9738
20
10.15
30
0
0
VERTEX
8
0
10
17.2
20
10.15
30
0
0
VERTEX
8
0
10
17.2
20
9.3762
30
0
0
VERTEX
8
0
10
13.280000000000001
20
9.3762
30
0
0
VERTEX
8
0
10
13.280000000000001
20
10.15
30
0
0
VERTEX
8
0
10
9.58
20
10.15
30
0
0
VERTEX
8
0
10
9.58
20
8.450000000000001
30
0
0
VERTEX
8
0
10
13.280000000000001
20
8.450000000000001
30
0
0
SEQEND
0
POLYLINE
66
1
8
16_copper
10
0.0
20
0.0
30
0.0
70
1
0
VERTEX
8
0
10
19.123940625
20
13.598271875
30
0
42
0.818105841543916
0
VERTEX
8
0
10
19.1262
20
14.341121875
30
0
0
VERTEX
8
0
10
19.1262
20
15.24
30
0
42
0.198912367379658
0
VERTEX
8
0
10
19.10388125
20
15.29388125
30
0
0
VERTEX
8
0
10
15.3162
20
19.0815625
30
0
0
VERTEX
8
0
10
15.3162
20
27.9084375
30
0
0
VERTEX
8
0
10
16.56388125
20
29.15611875
30
0
42
0.198912367379658
0
VERTEX
8
0
10
16.5862
20
29.21
30
0
0
VERTEX
8
0
10
16.5862
20
32.648878125
30
0
42
0.9969241442347151
0
VERTEX
8
0
10
16.436059375
20
33.391728125
30
0
0
VERTEX
8
0
10
16.388171875
20
33.378896875
30
0
42
0.7648843201253167
0
VERTEX
8
0
10
16.4338
20
32.648878125
30
0
0
VERTEX
8
0
10
16.4338
20
29.2415625
30
0
0
VERTEX
8
0
10
15.18611875
20
27.99388125
30
0
42
0.198912367379658
0
VERTEX
8
0
10
15.1638
20
27.94
30
0
0
VERTEX
8
0
10
15.1638
20
19.05
30
0
42
0.198912367379658
0
VERTEX
8
0
10
15.18611875
20
18.99611875
30
0
0
VERTEX
8
0
10
18.9738
20
15.2084375
30
0
0
VERTEX
8
0
10
18.9738
20
14.341121875
30
0
0
VERTEX
8
0
10
18.928171875
20
14.328896875
30
0
0
VERTEX
8
0
10
18.88236875
20
14.309925000000002
30
0
0
VERTEX
8
0
10
18.83943125
20
14.285137500000001
30
0
0
VERTEX
8
0
10
18.8001
20
14.254956250000001
30
0
0
VERTEX
8
0
10
18.76504375
20
14.2199
30
0
0
VERTEX
8
0
10
18.734862500000002
20
14.18056875
30
0
0
VERTEX
8
0
10
18.710075
20
14.13763125
30
0
0
VERTEX
8
0
10
18.691103125
20
14.091828125000001
30
0
0
VERTEX
8
0
10
18.678271875
20
14.043940625000001
30
0
0
VERTEX
8
0
10
18.6718
20
13.994787500000001
30
0
0
VERTEX
8
0
10
18.6718
20
13.9452125
30
0
0
VERTEX
8
0
10
18.678271875
20
13.896059375
30
0
0
VERTEX
8
0
10
18.691103125
20
13.848171875
30
0
0
VERTEX
8
0
10
18.710075
20
13.802368750000001
30
0
0
VERTEX
8
0
10
18.734862500000002
20
13.75943125
30
0
0
VERTEX
8
0
10
18.76504375
20
13.7201
30
0
0
VERTEX
8
0
10
18.8001
20
13.68504375
30
0
0
VERTEX
8
0
10
18.83943125
20
13.6548625
30
0
0
VERTEX
8
0
10
18.88236875
20
13.630075000000001
30
0
0
VERTEX
8
0
10
18.928171875
20
13.611103125000001
30
0
0
VERTEX
8
0
10
18.976059375000002
20
13.598271875
30
0
0
VERTEX
8
0
10
19.025212500000002
20
13.591800000000001
30
0
0
VERTEX
8
0
10
19.0747875
20
13.591800000000001
30
0
0
SEQEND
0
POLYLINE
66
1
8
1_copper
10
0.0
20
0.0
30
0.0
70
1
0
VERTEX
8
0
10
19.21798125
20
5.3086
30
0
0
VERTEX
8
0
10
19.5004625
20
5.02611875
30
0
42
0.198912367379658
0
VERTEX
8
0
10
19.55434375
20
5.0038
30
0
0
VERTEX
8
0
10
31.7184375
20
5.0038
30
0
0
VERTEX
8
0
10
32.4722375
20
4.25
30
0
0
VERTEX
8
0
10
31.17
20
4.25
30
0
0
VERTEX
8
0
10
31.17
20
2.5500000000000003
30
0
0
VERTEX
8
0
10
34.870000000000005
20
2.5500000000000003
30
0
0
VERTEX
8
0
10
34.870000000000005
20
4.25
30
0
0
VERTEX
8
0
10
32.6877625
20
4.25
30
0
0
VERTEX
8
0
10
31.80388125
20
5.13388125
30
0
42
0.198912367379658
0
VERTEX
8
0
10
31.75
20
5.1562
30
0
0
VERTEX
8
0
10
19.58590625
20
5.1562
30
0
0
VERTEX
8
0
10
19.303425
20
5.43868125
30
0
42
0.198912367379658
0
VERTEX
8
0
10
19.24954375
20
5.461
30
0
0
VERTEX
8
0
10
11.71374375
20
5.461
30
0
42
0.198912367379658
0
VERTEX
8
0
10
11.659862500000001
20
5.43868125
30
0
0
VERTEX
8
0
10
11.387909375000001
20
5.166728125000001
30
0
0
VERTEX
8
0
10
10.181034375000001
20
5.166728125000001
30
0
0
VERTEX
8
0
10
7.6962
20
7.651562500000001
30
0
0
VERTEX
8
0
10
7.6962
20
9.75
30
0
42
0.198912367379658
0
VERTEX
8
0
10
7.67388125
20
9.80388125
30
0
0
VERTEX
8
0
10
7.3077625
20
10.17
30
0
0
VERTEX
8
0
10
8.200000000000001
20
10.17
30
0
0
VERTEX
8
0
10
8.200000000000001
20
11.870000000000001
30
0
0
VERTEX
8
0
10
4.5
20
11.870000000000001
30
0
0
VERTEX
8
0
10
4.5
20
11.096200000000001
30
0
0
VERTEX
8
0
10
4.2515625
20
11.096200000000001
30
0
0
VERTEX
8
0
10
1.3462
20
14.0015625
30
0
0
VERTEX
8
0
10
1.3462
20
48.228437500000005
30
0
0
VERTEX
8
0
10
3.8415625
20
50.723800000000004
30
0
0
VERTEX
8
0
10
6.3500000000000005
20
50.723800000000004
30
0
42
0.198912367379658
0
VERTEX
8
0
10
6.40388125
20
50.74611875
30
0
0
VERTEX
8
0
10
7.67388125
20
52.016118750000004
30
0
42
0.198912367379658
0
VERTEX
8
0
10
7.6962
20
52.07
30
0
0
VERTEX
8
0
10
7.6962
20
55.8484375
30
0
0
VERTEX
8
0
10
8.9215625
20
57.073800000000006
30
0
0
VERTEX
8
0
10
34.2584375
20
57.073800000000006
30
0
0
VERTEX
8
0
10
35.4838
20
55.8484375
30
0
0
VERTEX
8
0
10
35.4838
20
52.1015625
30
0
0
VERTEX
8
0
10
33.3522375
20
49.97
30
0
0
VERTEX
8
0
10
31.17
20
49.97
30
0
0
VERTEX
8
0
10
31.17
20
48.27
30
0
0
VERTEX
8
0
10
34.870000000000005
20
48.27
30
0
0
VERTEX
8
0
10
34.870000000000005
20
49.4538
30
0
0
VERTEX
8
0
10
41.878437500000004
20
49.4538
30
0
0
VERTEX
8
0
10
43.1038
20
48.228437500000005
30
0
0
VERTEX
8
0
10
43.1038
20
41.9415625
30
0
0
VERTEX
8
0
10
41.878437500000004
20
40.7162
30
0
0
VERTEX
8
0
10
41.22
20
40.7162
30
0
0
VERTEX
8
0
10
41.22
20
41.080000000000005
30
0
0
VERTEX
8
0
10
37.52
20
41.080000000000005
30
0
0
VERTEX
8
0
10
37.52
20
40.7162
30
0
0
VERTEX
8
0
10
35.5915625
20
40.7162
30
0
0
VERTEX
8
0
10
34.3662
20
41.9415625
30
0
0
VERTEX
8
0
10
34.3662
20
45.72
30
0
42
0.198912367379658
0
VERTEX
8
0
10
34.34388125
20
45.77388125
30
0
0
VERTEX
8
0
10
33.07388125
20
47.043881250000005
30
0
42
0.198912367379658
0
VERTEX
8
0
10
33.02
20
47.0662
30
0
0
VERTEX
8
0
10
29.2415625
20
47.0662
30
0
0
VERTEX
8
0
10
28.0162
20
48.291562500000005
30
0
0
VERTEX
8
0
10
28.0162
20
49.6032875
30
0
42
0.198912367379658
0
VERTEX
8
0
10
27.99388125
20
49.657168750000004
30
0
0
VERTEX
8
0
10
27.398568750000003
20
50.25248125
30
0
42
0.33315925230482374
0
VERTEX
8
0
10
27.3029625
20
50.2748
30
0
0
VERTEX
8
0
10
26.72388125
20
50.85388125
30
0
42
0.198912367379658
0
VERTEX
8
0
10
26.67
20
50.876200000000004
30
0
0
VERTEX
8
0
10
24.0567125
20
50.876200000000004
30
0
42
0.198912367379658
0
VERTEX
8
0
10
24.00283125
20
50.85388125
30
0
0
VERTEX
8
0
10
23.26751875
20
50.11856875
30
0
42
0.33315925230482374
0
VERTEX
8
0
10
23.2452
20
50.022962500000006
30
0
0
VERTEX
8
0
10
21.53611875
20
48.31388125
30
0
42
0.198912367379658
0
VERTEX
8
0
10
21.5138
20
48.260000000000005
30
0
0
VERTEX
8
0
10
21.5138
20
38.1315625
30
0
0
VERTEX
8
0
10
18.99611875
20
35.61388125
30
0
42
0.198912367379658
0
VERTEX
8
0
10
18.9738
20
35.56
30
0
0
VERTEX
8
0
10
18.9738
20
32.872815625
30
0
0
VERTEX
8
0
10
18.96895
20
32.870015625
30
0
0
VERTEX
8
0
10
18.954984375000002
20
32.85605
30
0
0
VERTEX
8
0
10
18.9451125
20
32.838950000000004
30
0
0
VERTEX
8
0
10
18.94
20
32.819875
30
0
0
VERTEX
8
0
10
18.94
20
32.250125000000004
30
0
0
VERTEX
8
0
10
18.9451125
20
32.23105
30
0
0
VERTEX
8
0
10
18.954984375000002
20
32.213950000000004
30
0
0
VERTEX
8
0
10
18.96895
20
32.199984375
30
0
0
VERTEX
8
0
10
18.986050000000002
20
32.190112500000005
30
0
0
VERTEX
8
0
10
19.005125
20
32.185
30
0
0
VERTEX
8
0
10
19.174875
20
32.185
30
0
0
VERTEX
8
0
10
19.19395
20
32.190112500000005
30
0
0
VERTEX
8
0
10
19.21105
20
32.199984375
30
0
0
VERTEX
8
0
10
19.225015625
20
32.213950000000004
30
0
0
VERTEX
8
0
10
19.2348875
20
32.23105
30
0
0
VERTEX
8
0
10
19.240000000000002
20
32.250125000000004
30
0
0
VERTEX
8
0
10
19.240000000000002
20
32.819875
30
0
0
VERTEX
8
0
10
19.2348875
20
32.838950000000004
30
0
0
VERTEX
8
0
10
19.225015625
20
32.85605
30
0
0
VERTEX
8
0
10
19.21105
20
32.870015625
30
0
0
VERTEX
8
0
10
19.19395
20
32.8798875
30
0
0
VERTEX
8
0
10
19.174875
20
32.885000000000005
30
0
0
VERTEX
8
0
10
19.1262
20
32.885000000000005
30
0
0
VERTEX
8
0
10
19.1262
20
35.5284375
30
0
0
VERTEX
8
0
10
21.64388125
20
38.046118750000005
30
0
42
0.198912367379658
0
VERTEX
8
0
10
21.6662
20
38.1
30
0
0
VERTEX
8
0
10
21.6662
20
48.228437500000005
30
0
0
VERTEX
8
0
10
23.37528125
20
49.93751875
30
0
42
0.198912367379658
0
VERTEX
8
0
10
23.3976
20
49.991400000000006
30
0
0
VERTEX
8
0
10
23.3976
20
50.033125000000005
30
0
0
VERTEX
8
0
10
24.088275
20
50.723800000000004
30
0
0
VERTEX
8
0
10
26.638437500000002
20
50.723800000000004
30
0
0
VERTEX
8
0
10
27.21751875
20
50.14471875
30
0
42
0.198912367379658
0
VERTEX
8
0
10
27.2714
20
50.1224
30
0
0
VERTEX
8
0
10
27.313125000000003
20
50.1224
30
0
0
VERTEX
8
0
10
27.8638
20
49.571725
30
0
0
VERTEX
8
0
10
27.8638
20
48.260000000000005
30
0
42
0.198912367379658
0
VERTEX
8
0
10
27.88611875
20
48.20611875
30
0
0
VERTEX
8
0
10
29.15611875
20
46.936118750000006
30
0
42
0.198912367379658
0
VERTEX
8
0
10
29.21
20
46.9138
30
0
0
VERTEX
8
0
10
32.9884375
20
46.9138
30
0
0
VERTEX
8
0
10
34.2138
20
45.6884375
30
0
0
VERTEX
8
0
10
34.2138
20
41.910000000000004
30
0
42
0.198912367379658
0
VERTEX
8
0
10
34.23611875
20
41.85611875
30
0
0
VERTEX
8
0
10
35.50611875
20
40.586118750000004
30
0
42
0.198912367379658
0
VERTEX
8
0
10
35.56
20
40.5638
30
0
0
VERTEX
8
0
10
37.52
20
40.5638
30
0
0
VERTEX
8
0
10
37.52
20
39.38
30
0
0
VERTEX
8
0
10
41.22
20
39.38
30
0
0
VERTEX
8
0
10
41.22
20
40.5638
30
0
0
VERTEX
8
0
10
41.910000000000004
20
40.5638
30
0
42
0.198912367379658
0
VERTEX
8
0
10
41.96388125
20
40.586118750000004
30
0
0
VERTEX
8
0
10
43.23388125
20
41.85611875
30
0
42
0.198912367379658
0
VERTEX
8
0
10
43.2562
20
41.910000000000004
30
0
0
VERTEX
8
0
10
43.2562
20
48.260000000000005
30
0
42
0.198912367379658
0
VERTEX
8
0
10
43.23388125
20
48.31388125
30
0
0
VERTEX
8
0
10
41.96388125
20
49.583881250000005
30
0
42
0.198912367379658
0
VERTEX
8
0
10
41.910000000000004
20
49.6062
30
0
0
VERTEX
8
0
10
34.870000000000005
20
49.6062
30
0
0
VERTEX
8
0
10
34.870000000000005
20
49.97
30
0
0
VERTEX
8
0
10
33.5677625
20
49.97
30
0
0
VERTEX
8
0
10
35.61388125
20
52.016118750000004
30
0
42
0.198912367379658
0
VERTEX
8
0
10
35.6362
20
52.07
30
0
0
VERTEX
8
0
10
35.6362
20
55.88
30
0
42
0.198912367379658
0
VERTEX
8
0
10
35.61388125
20
55.933881250000006
30
0
0
VERTEX
8
0
10
34.34388125
20
57.20388125
30
0
42
0.198912367379658
0
VERTEX
8
0
10
34.29
20
57.226200000000006
30
0
0
VERTEX
8
0
10
8.89
20
57.226200000000006
30
0
42
0.198912367379658
0
VERTEX
8
0
10
8.83611875
20
57.20388125
30
0
0
VERTEX
8
0
10
7.56611875
20
55.933881250000006
30
0
42
0.198912367379658
0
VERTEX
8
0
10
7.5438
20
55.88
30
0
0
VERTEX
8
0
10
7.5438
20
52.1015625
30
0
0
VERTEX
8
0
10
6.3184375
20
50.876200000000004
30
0
0
VERTEX
8
0
10
3.81
20
50.876200000000004
30
0
42
0.198912367379658
0
VERTEX
8
0
10
3.75611875
20
50.85388125
30
0
0
VERTEX
8
0
10
1.2161187500000001
20
48.31388125
30
0
42
0.198912367379658
0
VERTEX
8
0
10
1.1938
20
48.260000000000005
30
0
0
VERTEX
8
0
10
1.1938
20
13.97
30
0
42
0.198912367379658
0
VERTEX
8
0
10
1.2161187500000001
20
13.91611875
30
0
0
VERTEX
8
0
10
4.16611875
20
10.96611875
30
0
42
0.198912367379658
0
VERTEX
8
0
10
4.220000000000001
20
10.943800000000001
30
0
0
VERTEX
8
0
10
4.5
20
10.943800000000001
30
0
0
VERTEX
8
0
10
4.5
20
10.17
30
0
0
VERTEX
8
0
10
7.0922375
20
10.17
30
0
0
VERTEX
8
0
10
7.5438
20
9.7184375
30
0
0
VERTEX
8
0
10
7.5438
20
7.62
30
0
42
0.198912367379658
0
VERTEX
8
0
10
7.56611875
20
7.56611875
30
0
0
VERTEX
8
0
10
10.095590625
20
5.036646875000001
30
0
42
0.198912367379658
0
VERTEX
8
0
10
10.149471875
20
5.0143281250000005
30
0
0
VERTEX
8
0
10
11.371825000000001
20
5.0143281250000005
30
0
42
0.33690541690322506
0
VERTEX
8
0
10
11.462825
20
5.02611875
30
0
0
VERTEX
8
0
10
11.74530625
20
5.3086
30
0
0
SEQEND
0
POLYLINE
66
1
8
1_copper
10
0.0
20
0.0
30
0.0
70
1
0
VERTEX
8
0
10
19.69395
20
32.190112500000005
30
0
0
VERTEX
8
0
10
19.71105
20
32.199984375
30
0
0
VERTEX
8
0
10
19.725015625
20
32.213950000000004
30
0
0
VERTEX
8
0
10
19.7348875
20
32.23105
30
0
0
VERTEX
8
0
10
19.740000000000002
20
32.250125000000004
30
0
0
VERTEX
8
0
10
19.740000000000002
20
32.819875
30
0
0
VERTEX
8
0
10
19.7348875
20
32.838950000000004
30
0
0
VERTEX
8
0
10
19.725015625
20
32.85605
30
0
0
VERTEX
8
0
10
19.71105
20
32.870015625
30
0
0
VERTEX
8
0
10
19.69395
20
32.8798875
30
0
0
VERTEX
8
0
10
19.674875
20
32.885000000000005
30
0
0
VERTEX
8
0
10
19.6662
20
32.885000000000005
30
0
0
VERTEX
8
0
10
19.6662
20
33.5284375
30
0
0
VERTEX
8
0
10
21.6215625
20
35.4838
30
0
0
VERTEX
8
0
10
22.488878125
20
35.4838
30
0
42
0.8155378645187369
0
VERTEX
8
0
10
23.231121875
20
35.4838
30
0
0
VERTEX
8
0
10
24.130000000000003
20
35.4838
30
0
42
0.198912367379658
0
VERTEX
8
0
10
24.183881250000002
20
35.50611875
30
0
0
VERTEX
8
0
10
25.453881250000002
20
36.77611875
30
0
42
0.198912367379658
0
VERTEX
8
0
10
25.476200000000002
20
36.83
30
0
0
VERTEX
8
0
10
25.476200000000002
20
37.728878125
30
0
42
0.9969241442347151
0
VERTEX
8
0
10
25.326059375
20
38.471728125
30
0
0
VERTEX
8
0
10
25.278171875
20
38.458896875
30
0
42
0.0639984307401922
0
VERTEX
8
0
10
25.19145625
20
38.416306250000005
30
0
0
VERTEX
8
0
10
24.206200000000003
20
39.401562500000004
30
0
0
VERTEX
8
0
10
24.206200000000003
20
47.8184375
30
0
0
VERTEX
8
0
10
24.6577625
20
48.27
30
0
0
VERTEX
8
0
10
27.25
20
48.27
30
0
0
VERTEX
8
0
10
27.25
20
49.97
30
0
0
VERTEX
8
0
10
23.55
20
49.97
30
0
0
VERTEX
8
0
10
23.55
20
48.27
30
0
0
VERTEX
8
0
10
24.4422375
20
48.27
30
0
0
VERTEX
8
0
10
24.076118750000003
20
47.903881250000005
30
0
42
0.198912367379658
0
VERTEX
8
0
10
24.053800000000003
20
47.85
30
0
0
VERTEX
8
0
10
24.053800000000003
20
39.370000000000005
30
0
42
0.198912367379658
0
VERTEX
8
0
10
24.076118750000003
20
39.31611875
30
0
0
VERTEX
8
0
10
25.083693750000002
20
38.30854375
30
0
42
0.5305589329458261
0
VERTEX
8
0
10
25.323800000000002
20
37.728878125
30
0
0
VERTEX
8
0
10
25.323800000000002
20
36.861562500000005
30
0
0
VERTEX
8
0
10
24.098437500000003
20
35.6362
30
0
0
VERTEX
8
0
10
23.231121875
20
35.6362
30
0
42
0.8155378645187369
0
VERTEX
8
0
10
22.488878125
20
35.6362
30
0
0
VERTEX
8
0
10
21.59
20
35.6362
30
0
42
0.198912367379658
0
VERTEX
8
0
10
21.53611875
20
35.61388125
30
0
0
VERTEX
8
0
10
19.53611875
20
33.61388125
30
0
42
0.198912367379658
0
VERTEX
8
0
10
19.5138
20
33.56
30
0
0
VERTEX
8
0
10
19.5138
20
32.885000000000005
30
0
0
VERTEX
8
0
10
19.505125
20
32.885000000000005
30
0
0
VERTEX
8
0
10
19.486050000000002
20
32.8798875
30
0
0
VERTEX
8
0
10
19.46895
20
32.870015625
30
0
0
VERTEX
8
0
10
19.454984375000002
20
32.85605
30
0
0
VERTEX
8
0
10
19.4451125
20
32.838950000000004
30
0
0
VERTEX
8
0
10
19.44
20
32.819875
30
0
0
VERTEX
8
0
10
19.44
20
32.250125000000004
30
0
0
VERTEX
8
0
10
19.4451125
20
32.23105
30
0
0
VERTEX
8
0
10
19.454984375000002
20
32.213950000000004
30
0
0
VERTEX
8
0
10
19.46895
20
32.199984375
30
0
0
VERTEX
8
0
10
19.486050000000002
20
32.190112500000005
30
0
0
VERTEX
8
0
10
19.505125
20
32.185
30
0
0
VERTEX
8
0
10
19.674875
20
32.185
30
0
0
SEQEND
0
POLYLINE
66
1
8
1_copper
10
0.0
20
0.0
30
0.0
70
1
0
VERTEX
8
0
10
35.349828125
20
2.246415625
30
0
42
0.16997656369761122
0
VERTEX
8
0
10
35.395281250000004
20
2.2675187500000002
30
0
0
VERTEX
8
0
10
36.88388125
20
3.75611875
30
0
42
0.198912367379658
0
VERTEX
8
0
10
36.9062
20
3.81
30
0
0
VERTEX
8
0
10
36.9062
20
29.1784375
30
0
0
VERTEX
8
0
10
37.52
20
29.792237500000002
30
0
0
VERTEX
8
0
10
37.52
20
29.220000000000002
30
0
0
VERTEX
8
0
10
41.22
20
29.220000000000002
30
0
0
VERTEX
8
0
10
41.22
20
30.92
30
0
0
VERTEX
8
0
10
37.7677625
20
30.92
30
0
0
VERTEX
8
0
10
36.88388125
20
31.80388125
30
0
42
0.198912367379658
0
VERTEX
8
0
10
36.83
20
31.8262
30
0
0
VERTEX
8
0
10
35.931121875
20
31.8262
30
0
42
0.9969241442347151
0
VERTEX
8
0
10
35.188271875000005
20
31.676059375
30
0
0
VERTEX
8
0
10
35.201103125
20
31.628171875000003
30
0
42
0.7648843201253167
0
VERTEX
8
0
10
35.931121875
20
31.6738
30
0
0
VERTEX
8
0
10
36.7984375
20
31.6738
30
0
0
VERTEX
8
0
10
37.552237500000004
20
30.92
30
0
0
VERTEX
8
0
10
37.52
20
30.92
30
0
0
VERTEX
8
0
10
37.52
20
30.007762500000002
30
0
0
VERTEX
8
0
10
36.77611875
20
29.26388125
30
0
42
0.198912367379658
0
VERTEX
8
0
10
36.7538
20
29.21
30
0
0
VERTEX
8
0
10
36.7538
20
3.8415625
30
0
0
VERTEX
8
0
10
35.3098375
20
2.3976
30
0
0
VERTEX
8
0
10
31.106875000000002
20
2.3976
30
0
0
VERTEX
8
0
10
30.05059375
20
3.4538812500000002
30
0
42
0.198912367379658
0
VERTEX
8
0
10
29.9967125
20
3.4762
30
0
0
VERTEX
8
0
10
27.25
20
3.4762
30
0
0
VERTEX
8
0
10
27.25
20
4.25
30
0
0
VERTEX
8
0
10
23.55
20
4.25
30
0
0
VERTEX
8
0
10
23.55
20
2.5500000000000003
30
0
0
VERTEX
8
0
10
27.25
20
2.5500000000000003
30
0
0
VERTEX
8
0
10
27.25
20
3.3238000000000003
30
0
0
VERTEX
8
0
10
29.96515
20
3.3238000000000003
30
0
0
VERTEX
8
0
10
31.021431250000003
20
2.2675187500000002
30
0
42
0.198912367379658
0
VERTEX
8
0
10
31.075312500000003
20
2.2452
30
0
0
VERTEX
8
0
10
35.3414
20
2.2452
30
0
0
SEQEND
0
POLYLINE
66
1
8
1_copper
10
0.0
20
0.0
30
0.0
70
1
0
VERTEX
8
0
10
8.200000000000001
20
22.03
30
0
0
VERTEX
8
0
10
6.897762500000001
20
22.03
30
0
0
VERTEX
8
0
10
7.651562500000001
20
22.7838
30
0
0
VERTEX
8
0
10
8.518878125
20
22.7838
30
0
42
0.9969241442347151
0
VERTEX
8
0
10
9.261728125000001
20
22.933940625
30
0
0
VERTEX
8
0
10
9.248896875
20
22.981828125
30
0
42
0.0639984307401922
0
VERTEX
8
0
10
9.20630625
20
23.06854375
30
0
0
VERTEX
8
0
10
9.95145625
20
23.813693750000002
30
0
42
0.9969257294187597
0
VERTEX
8
0
10
10.37056875
20
24.4451375
30
0
0
VERTEX
8
0
10
10.327631250000001
20
24.469925
30
0
42
0.76488331982605
0
VERTEX
8
0
10
9.84369375
20
23.921456250000002
30
0
0
VERTEX
8
0
10
9.098543750000001
20
23.17630625
30
0
42
0.5305589329458261
0
VERTEX
8
0
10
8.518878125
20
22.9362
30
0
0
VERTEX
8
0
10
7.62
20
22.9362
30
0
42
0.198912367379658
0
VERTEX
8
0
10
7.56611875
20
22.913881250000003
30
0
0
VERTEX
8
0
10
6.6822375
20
22.03
30
0
0
VERTEX
8
0
10
4.5
20
22.03
30
0
0
VERTEX
8
0
10
4.5
20
20.330000000000002
30
0
0
VERTEX
8
0
10
8.200000000000001
20
20.330000000000002
30
0
0
SEQEND
0
POLYLINE
66
1
8
16_copper
10
0.0
20
0.0
30
0.0
70
1
0
VERTEX
8
0
10
35.633940625
20
31.378271875000003
30
0
42
0.9999999999999999
0
VERTEX
8
0
10
35.486059375
20
32.121728125000004
30
0
0
VERTEX
8
0
10
35.438171875
20
32.108896875
30
0
42
0.0639984307401922
0
VERTEX
8
0
10
35.35145625
20
32.066306250000004
30
0
0
VERTEX
8
0
10
34.3662
20
33.0515625
30
0
0
VERTEX
8
0
10
34.3662
20
35.56
30
0
42
0.198912367379658
0
VERTEX
8
0
10
34.34388125
20
35.61388125
30
0
0
VERTEX
8
0
10
31.80388125
20
38.153881250000005
30
0
42
0.198912367379658
0
VERTEX
8
0
10
31.75
20
38.1762
30
0
0
VERTEX
8
0
10
25.771121875000002
20
38.1762
30
0
42
0.9969241442347151
0
VERTEX
8
0
10
25.028271875
20
38.026059375
30
0
0
VERTEX
8
0
10
25.041103125000003
20
37.978171875
30
0
42
0.7648843201253167
0
VERTEX
8
0
10
25.771121875000002
20
38.0238
30
0
0
VERTEX
8
0
10
31.7184375
20
38.0238
30
0
0
VERTEX
8
0
10
34.2138
20
35.5284375
30
0
0
VERTEX
8
0
10
34.2138
20
33.02
30
0
42
0.198912367379658
0
VERTEX
8
0
10
34.23611875
20
32.96611875
30
0
0
VERTEX
8
0
10
35.24369375
20
31.95854375
30
0
0
VERTEX
8
0
10
35.220075
20
31.917631250000003
30
0
0
VERTEX
8
0
10
35.201103125
20
31.871828125
30
0
0
VERTEX
8
0
10
35.188271875000005
20
31.823940625000002
30
0
0
VERTEX
8
0
10
35.1818
20
31.774787500000002
30
0
0
VERTEX
8
0
10
35.1818
20
31.7252125
30
0
0
VERTEX
8
0
10
35.188271875000005
20
31.676059375
30
0
0
VERTEX
8
0
10
35.201103125
20
31.628171875000003
30
0
0
VERTEX
8
0
10
35.220075
20
31.58236875
30
0
0
VERTEX
8
0
10
35.2448625
20
31.53943125
30
0
0
VERTEX
8
0
10
35.27504375
20
31.5001
30
0
0
VERTEX
8
0
10
35.3101
20
31.465043750000003
30
0
0
VERTEX
8
0
10
35.34943125
20
31.4348625
30
0
0
VERTEX
8
0
10
35.39236875
20
31.410075000000003
30
0
0
VERTEX
8
0
10
35.438171875
20
31.391103125
30
0
0
VERTEX
8
0
10
35.486059375
20
31.378271875000003
30
0
0
VERTEX
8
0
10
35.5352125
20
31.3718
30
0
0
VERTEX
8
0
10
35.584787500000004
20
31.3718
30
0
0
SEQEND
0
POLYLINE
66
1
8
16_copper
10
0.0
20
0.0
30
0.0
70
1
0
VERTEX
8
0
10
10.233940625
20
23.758271875000002
30
0
42
0.5325344265187388
0
VERTEX
8
0
10
10.47630625
20
24.33854375
30
0
0
VERTEX
8
0
10
15.29388125
20
29.15611875
30
0
42
0.198912367379658
0
VERTEX
8
0
10
15.3162
20
29.21
30
0
0
VERTEX
8
0
10
15.3162
20
34.2584375
30
0
0
VERTEX
8
0
10
16.5415625
20
35.4838
30
0
0
VERTEX
8
0
10
22.488878125
20
35.4838
30
0
42
0.9969241442347151
0
VERTEX
8
0
10
23.231728125
20
35.633940625
30
0
0
VERTEX
8
0
10
23.218896875000002
20
35.681828125
30
0
42
0.7648843201253167
0
VERTEX
8
0
10
22.488878125
20
35.6362
30
0
0
VERTEX
8
0
10
16.51
20
35.6362
30
0
42
0.198912367379658
0
VERTEX
8
0
10
16.45611875
20
35.61388125
30
0
0
VERTEX
8
0
10
15.18611875
20
34.34388125
30
0
42
0.198912367379658
0
VERTEX
8
0
10
15.1638
20
34.29
30
0
0
VERTEX
8
0
10
15.1638
20
29.2415625
30
0
0
VERTEX
8
0
10
10.36854375
20
24.446306250000003
30
0
0
VERTEX
8
0
10
10.327631250000001
20
24.469925
30
0
0
VERTEX
8
0
10
10.281828125
20
24.488896875000002
30
0
0
VERTEX
8
0
10
10.233940625
20
24.501728125
30
0
0
VERTEX
8
0
10
10.1847875
20
24.508200000000002
30
0
0
VERTEX
8
0
10
10.1352125
20
24.508200000000002
30
0
0
VERTEX
8
0
10
10.086059375
20
24.501728125
30
0
0
VERTEX
8
0
10
10.038171875
20
24.488896875000002
30
0
0
VERTEX
8
0
10
9.99236875
20
24.469925
30
0
0
VERTEX
8
0
10
9.94943125
20
24.4451375
30
0
0
VERTEX
8
0
10
9.9101
20
24.41495625
30
0
0
VERTEX
8
0
10
9.87504375
20
24.379900000000003
30
0
0
VERTEX
8
0
10
9.8448625
20
24.340568750000003
30
0
0
VERTEX
8
0
10
9.820075000000001
20
24.297631250000002
30
0
0
VERTEX
8
0
10
9.801103125000001
20
24.251828125
30
0
0
VERTEX
8
0
10
9.788271875000001
20
24.203940625
30
0
0
VERTEX
8
0
10
9.7818
20
24.1547875
30
0
0
VERTEX
8
0
10
9.7818
20
24.1052125
30
0
0
VERTEX
8
0
10
9.788271875000001
20
24.056059375
30
0
0
VERTEX
8
0
10
9.801103125000001
20
24.008171875000002
30
0
0
VERTEX
8
0
10
9.820075000000001
20
23.96236875
30
0
0
VERTEX
8
0
10
9.8448625
20
23.919431250000002
30
0
0
VERTEX
8
0
10
9.87504375
20
23.880100000000002
30
0
0
VERTEX
8
0
10
9.9101
20
23.845043750000002
30
0
0
VERTEX
8
0
10
9.94943125
20
23.8148625
30
0
0
VERTEX
8
0
10
9.99236875
20
23.790075
30
0
0
VERTEX
8
0
10
10.038171875
20
23.771103125
30
0
0
VERTEX
8
0
10
10.086059375
20
23.758271875000002
30
0
0
VERTEX
8
0
10
10.1352125
20
23.751800000000003
30
0
0
VERTEX
8
0
10
10.1847875
20
23.751800000000003
30
0
0
SEQEND
0
POLYLINE
66
1
8
16_copper
10
0.0
20
0.0
30
0.0
70
1
0
VERTEX
8
0
10
8.963940625000001
20
22.488271875000002
30
0
0
VERTEX
8
0
10
9.011828125000001
20
22.501103125
30
0
0
VERTEX
8
0
10
9.05763125
20
22.520075000000002
30
0
0
VERTEX
8
0
10
9.10056875
20
22.5448625
30
0
0
VERTEX
8
0
10
9.1399
20
22.575043750000003
30
0
0
VERTEX
8
0
10
9.174956250000001
20
22.610100000000003
30
0
0
VERTEX
8
0
10
9.205137500000001
20
22.649431250000003
30
0
0
VERTEX
8
0
10
9.229925
20
22.69236875
30
0
0
VERTEX
8
0
10
9.248896875
20
22.738171875000003
30
0
0
VERTEX
8
0
10
9.261728125000001
20
22.786059375
30
0
0
VERTEX
8
0
10
9.2682
20
22.8352125
30
0
0
VERTEX
8
0
10
9.2682
20
22.8847875
30
0
0
VERTEX
8
0
10
9.261728125000001
20
22.933940625
30
0
0
VERTEX
8
0
10
9.248896875
20
22.981828125
30
0
0
VERTEX
8
0
10
9.229925
20
23.027631250000002
30
0
0
VERTEX
8
0
10
9.205137500000001
20
23.07056875
30
0
0
VERTEX
8
0
10
9.174956250000001
20
23.1099
30
0
0
VERTEX
8
0
10
9.1399
20
23.14495625
30
0
0
VERTEX
8
0
10
9.10056875
20
23.1751375
30
0
0
VERTEX
8
0
10
9.05763125
20
23.199925
30
0
0
VERTEX
8
0
10
9.011828125000001
20
23.218896875000002
30
0
0
VERTEX
8
0
10
8.963940625000001
20
23.231728125
30
0
0
VERTEX
8
0
10
8.914787500000001
20
23.238200000000003
30
0
0
VERTEX
8
0
10
8.8652125
20
23.238200000000003
30
0
0
VERTEX
8
0
10
8.816059375
20
23.231728125
30
0
0
VERTEX
8
0
10
8.768171875
20
23.218896875000002
30
0
0
VERTEX
8
0
10
8.722368750000001
20
23.199925
30
0
0
VERTEX
8
0
10
8.67943125
20
23.1751375
30
0
0
VERTEX
8
0
10
8.6401
20
23.14495625
30
0
0
VERTEX
8
0
10
8.60504375
20
23.1099
30
0
0
VERTEX
8
0
10
8.5748625
20
23.07056875
30
0
0
VERTEX
8
0
10
8.550075
20
23.027631250000002
30
0
0
VERTEX
8
0
10
8.531103125
20
22.981828125
30
0
0
VERTEX
8
0
10
8.518271875
20
22.933940625
30
0
0
VERTEX
8
0
10
8.511800000000001
20
22.8847875
30
0
0
VERTEX
8
0
10
8.511800000000001
20
22.8352125
30
0
0
VERTEX
8
0
10
8.518271875
20
22.786059375
30
0
0
VERTEX
8
0
10
8.531103125
20
22.738171875000003
30
0
0
VERTEX
8
0
10
8.550075
20
22.69236875
30
0
0
VERTEX
8
0
10
8.5748625
20
22.649431250000003
30
0
0
VERTEX
8
0
10
8.60504375
20
22.610100000000003
30
0
0
VERTEX
8
0
10
8.6401
20
22.575043750000003
30
0
0
VERTEX
8
0
10
8.67943125
20
22.5448625
30
0
0
VERTEX
8
0
10
8.722368750000001
20
22.520075000000002
30
0
0
VERTEX
8
0
10
8.768171875
20
22.501103125
30
0
0
VERTEX
8
0
10
8.816059375
20
22.488271875000002
30
0
0
VERTEX
8
0
10
8.8652125
20
22.4818
30
0
0
VERTEX
8
0
10
8.914787500000001
20
22.4818
30
0
0
SEQEND
0
POLYLINE
66
1
8
1_copper
10
0.0
20
0.0
30
0.0
70
1
0
VERTEX
8
0
10
19.799184375
20
31.881415625000002
30
0
42
0.16997656369761122
0
VERTEX
8
0
10
19.8446375
20
31.902518750000002
30
0
0
VERTEX
8
0
10
20.022481250000002
20
32.0803625
30
0
42
0.3573986666421138
0
VERTEX
8
0
10
20.044800000000002
20
32.185
30
0
0
VERTEX
8
0
10
20.174875
20
32.185
30
0
0
VERTEX
8
0
10
20.19395
20
32.190112500000005
30
0
0
VERTEX
8
0
10
20.21105
20
32.199984375
30
0
0
VERTEX
8
0
10
20.225015625
20
32.213950000000004
30
0
0
VERTEX
8
0
10
20.2348875
20
32.23105
30
0
0
VERTEX
8
0
10
20.240000000000002
20
32.250125000000004
30
0
0
VERTEX
8
0
10
20.240000000000002
20
32.5772375
30
0
42
0.3159518709647982
0
VERTEX
8
0
10
20.2876
20
32.656400000000005
30
0
0
VERTEX
8
0
10
20.2876
20
33.31089375
30
0
0
VERTEX
8
0
10
21.495306250000002
20
34.5186
30
0
0
VERTEX
8
0
10
21.59
20
34.5186
30
0
42
0.23138828336978745
0
VERTEX
8
0
10
21.663121875
20
34.537903125
30
0
0
VERTEX
8
0
10
21.711009375
20
34.525071875
30
0
42
0.412410143086136
0
VERTEX
8
0
10
22.156071875000002
20
34.8206
30
0
0
VERTEX
8
0
10
23.079787500000002
20
34.8206
30
0
0
VERTEX
8
0
10
23.66426875
20
34.23611875
30
0
42
0.198912367379658
0
VERTEX
8
0
10
23.71815
20
34.2138
30
0
0
VERTEX
8
0
10
26.298878125
20
34.2138
30
0
42
0.9969241442347151
0
VERTEX
8
0
10
27.041728125000002
20
34.363940625000005
30
0
0
VERTEX
8
0
10
27.028896875
20
34.411828125
30
0
42
0.7648843201253167
0
VERTEX
8
0
10
26.298878125
20
34.3662
30
0
0
VERTEX
8
0
10
23.7497125
20
34.3662
30
0
0
VERTEX
8
0
10
23.16523125
20
34.95068125
30
0
42
0.198912367379658
0
VERTEX
8
0
10
23.11135
20
34.973
30
0
0
VERTEX
8
0
10
22.156071875000002
20
34.973
30
0
42
0.9969241442347151
0
VERTEX
8
0
10
21.413221875
20
34.822859375
30
0
0
VERTEX
8
0
10
21.426053125
20
34.774971875
30
0
42
0.05468849806558678
0
VERTEX
8
0
10
21.4616125
20
34.70043125
30
0
0
VERTEX
8
0
10
19.914718750000002
20
33.1535375
30
0
42
0.198912367379658
0
VERTEX
8
0
10
19.892400000000002
20
33.09965625
30
0
0
VERTEX
8
0
10
19.892400000000002
20
32.16580625
30
0
0
VERTEX
8
0
10
19.75919375
20
32.0326
30
0
0
VERTEX
8
0
10
18.920806250000002
20
32.0326
30
0
0
VERTEX
8
0
10
18.7876
20
32.16580625
30
0
0
VERTEX
8
0
10
18.7876
20
48.1886
30
0
42
0.32518381359193044
0
VERTEX
8
0
10
18.737762500000002
20
48.27
30
0
0
VERTEX
8
0
10
19.630000000000003
20
48.27
30
0
0
VERTEX
8
0
10
19.630000000000003
20
49.97
30
0
0
VERTEX
8
0
10
15.930000000000001
20
49.97
30
0
0
VERTEX
8
0
10
15.930000000000001
20
48.27
30
0
0
VERTEX
8
0
10
17.7038
20
48.27
30
0
0
VERTEX
8
0
10
17.7038
20
39.741121875000005
30
0
42
0.9969241442347151
0
VERTEX
8
0
10
17.853940625
20
38.998271875
30
0
0
VERTEX
8
0
10
17.901828125
20
39.011103125000005
30
0
42
0.7648843201253167
0
VERTEX
8
0
10
17.8562
20
39.741121875000005
30
0
0
VERTEX
8
0
10
17.8562
20
48.27
30
0
0
VERTEX
8
0
10
18.5222375
20
48.27
30
0
0
VERTEX
8
0
10
18.6352
20
48.1570375
30
0
0
VERTEX
8
0
10
18.6352
20
32.13424375
30
0
42
0.198912367379658
0
VERTEX
8
0
10
18.65751875
20
32.0803625
30
0
0
VERTEX
8
0
10
18.835362500000002
20
31.902518750000002
30
0
42
0.198912367379658
0
VERTEX
8
0
10
18.889243750000002
20
31.880200000000002
30
0
0
VERTEX
8
0
10
19.79075625
20
31.880200000000002
30
0
0
SEQEND
0
POLYLINE
66
1
8
1_copper
10
0.0
20
0.0
30
0.0
70
1
0
VERTEX
8
0
10
36.838428125
20
1.1950156250000001
30
0
42
0.16997656369761122
0
VERTEX
8
0
10
36.88388125
20
1.2161187500000001
30
0
0
VERTEX
8
0
10
43.23388125
20
7.56611875
30
0
42
0.198912367379658
0
VERTEX
8
0
10
43.2562
20
7.62
30
0
0
VERTEX
8
0
10
43.2562
20
20.32
30
0
42
0.198912367379658
0
VERTEX
8
0
10
43.23388125
20
20.37388125
30
0
0
VERTEX
8
0
10
42.373881250000004
20
21.23388125
30
0
42
0.198912367379658
0
VERTEX
8
0
10
42.32
20
21.2562
30
0
0
VERTEX
8
0
10
41.22
20
21.2562
30
0
0
VERTEX
8
0
10
41.22
20
22.03
30
0
0
VERTEX
8
0
10
39.446200000000005
20
22.03
30
0
0
VERTEX
8
0
10
39.446200000000005
20
22.86
30
0
42
0.198912367379658
0
VERTEX
8
0
10
39.42388125
20
22.913881250000003
30
0
0
VERTEX
8
0
10
37.3676
20
24.9701625
30
0
0
VERTEX
8
0
10
37.3676
20
27.993125000000003
30
0
0
VERTEX
8
0
10
38.289675
20
28.915200000000002
30
0
0
VERTEX
8
0
10
41.6914
20
28.915200000000002
30
0
42
0.198912367379658
0
VERTEX
8
0
10
41.745281250000005
20
28.937518750000002
30
0
0
VERTEX
8
0
10
41.96388125
20
29.15611875
30
0
42
0.198912367379658
0
VERTEX
8
0
10
41.986200000000004
20
29.21
30
0
0
VERTEX
8
0
10
41.986200000000004
20
31.75
30
0
42
0.198912367379658
0
VERTEX
8
0
10
41.96388125
20
31.80388125
30
0
0
VERTEX
8
0
10
41.35708125
20
32.41068125
30
0
42
0.198912367379658
0
VERTEX
8
0
10
41.303200000000004
20
32.433
30
0
0
VERTEX
8
0
10
29.9047625
20
32.433
30
0
0
VERTEX
8
0
10
28.25630625
20
34.08145625
30
0
42
0.9969257294187597
0
VERTEX
8
0
10
27.624862500000003
20
34.50056875
30
0
0
VERTEX
8
0
10
27.600075
20
34.45763125
30
0
42
0.76488331982605
0
VERTEX
8
0
10
28.14854375
20
33.97369375
30
0
0
VERTEX
8
0
10
29.81931875
20
32.30291875
30
0
42
0.198912367379658
0
VERTEX
8
0
10
29.8732
20
32.2806
30
0
0
VERTEX
8
0
10
41.271637500000004
20
32.2806
30
0
0
VERTEX
8
0
10
41.833800000000004
20
31.7184375
30
0
0
VERTEX
8
0
10
41.833800000000004
20
29.2415625
30
0
0
VERTEX
8
0
10
41.6598375
20
29.067600000000002
30
0
0
VERTEX
8
0
10
38.2581125
20
29.067600000000002
30
0
42
0.198912367379658
0
VERTEX
8
0
10
38.20423125
20
29.045281250000002
30
0
0
VERTEX
8
0
10
37.23751875
20
28.078568750000002
30
0
42
0.198912367379658
0
VERTEX
8
0
10
37.2152
20
28.024687500000002
30
0
0
VERTEX
8
0
10
37.2152
20
24.9386
30
0
42
0.198912367379658
0
VERTEX
8
0
10
37.23751875
20
24.88471875
30
0
0
VERTEX
8
0
10
39.293800000000005
20
22.8284375
30
0
0
VERTEX
8
0
10
39.293800000000005
20
22.03
30
0
0
VERTEX
8
0
10
37.52
20
22.03
30
0
0
VERTEX
8
0
10
37.52
20
20.330000000000002
30
0
0
VERTEX
8
0
10
41.22
20
20.330000000000002
30
0
0
VERTEX
8
0
10
41.22
20
21.1038
30
0
0
VERTEX
8
0
10
42.2884375
20
21.1038
30
0
0
VERTEX
8
0
10
43.1038
20
20.2884375
30
0
0
VERTEX
8
0
10
43.1038
20
7.651562500000001
30
0
0
VERTEX
8
0
10
36.7984375
20
1.3462
30
0
0
VERTEX
8
0
10
20.3515625
20
1.3462
30
0
0
VERTEX
8
0
10
19.147762500000002
20
2.5500000000000003
30
0
0
VERTEX
8
0
10
20.900000000000002
20
2.5500000000000003
30
0
0
VERTEX
8
0
10
20.900000000000002
20
4.25
30
0
0
VERTEX
8
0
10
17.2
20
4.25
30
0
0
VERTEX
8
0
10
17.2
20
2.5500000000000003
30
0
0
VERTEX
8
0
10
18.9738
20
2.5500000000000003
30
0
42
0.23305875606234966
0
VERTEX
8
0
10
18.99611875
20
2.48611875
30
0
0
VERTEX
8
0
10
20.26611875
20
1.2161187500000001
30
0
42
0.198912367379658
0
VERTEX
8
0
10
20.32
20
1.1938
30
0
0
VERTEX
8
0
10
36.83
20
1.1938
30
0
0
SEQEND
0
POLYLINE
66
1
8
1_copper
10
0.0
20
0.0
30
0.0
70
1
0
VERTEX
8
0
10
20.044800000000002
20
32.885000000000005
30
0
0
VERTEX
8
0
10
20.044800000000002
20
33.06809375
30
0
0
VERTEX
8
0
10
20.1352
20
33.15849375
30
0
0
VERTEX
8
0
10
20.1352
20
32.885000000000005
30
0
0
SEQEND
0
POLYLINE
66
1
8
1_copper
10
0.0
20
0.0
30
0.0
70
1
0
VERTEX
8
0
10
8.963940625000001
20
27.568271875
30
0
42
0.818105841543916
0
VERTEX
8
0
10
8.9662
20
28.311121875
30
0
0
VERTEX
8
0
10
8.9662
20
28.838878125
30
0
42
0.9969241442347151
0
VERTEX
8
0
10
8.816059375
20
29.581728125
30
0
0
VERTEX
8
0
10
8.768171875
20
29.568896875
30
0
42
0.0639984307401922
0
VERTEX
8
0
10
8.68145625
20
29.52630625
30
0
0
VERTEX
8
0
10
8.200000000000001
20
30.007762500000002
30
0
0
VERTEX
8
0
10
8.200000000000001
20
30.92
30
0
0
VERTEX
8
0
10
4.5
20
30.92
30
0
0
VERTEX
8
0
10
4.5
20
29.220000000000002
30
0
0
VERTEX
8
0
10
8.200000000000001
20
29.220000000000002
30
0
0
VERTEX
8
0
10
8.200000000000001
20
29.792237500000002
30
0
0
VERTEX
8
0
10
8.57369375
20
29.41854375
30
0
42
0.5305589329458261
0
VERTEX
8
0
10
8.8138
20
28.838878125
30
0
0
VERTEX
8
0
10
8.8138
20
28.311121875
30
0
0
VERTEX
8
0
10
8.768171875
20
28.298896875
30
0
0
VERTEX
8
0
10
8.722368750000001
20
28.279925000000002
30
0
0
VERTEX
8
0
10
8.67943125
20
28.2551375
30
0
0
VERTEX
8
0
10
8.6401
20
28.22495625
30
0
0
VERTEX
8
0
10
8.60504375
20
28.1899
30
0
0
VERTEX
8
0
10
8.5748625
20
28.15056875
30
0
0
VERTEX
8
0
10
8.550075
20
28.10763125
30
0
0
VERTEX
8
0
10
8.531103125
20
28.061828125
30
0
0
VERTEX
8
0
10
8.518271875
20
28.013940625
30
0
0
VERTEX
8
0
10
8.511800000000001
20
27.9647875
30
0
0
VERTEX
8
0
10
8.511800000000001
20
27.915212500000003
30
0
0
VERTEX
8
0
10
8.518271875
20
27.866059375000003
30
0
0
VERTEX
8
0
10
8.531103125
20
27.818171875
30
0
0
VERTEX
8
0
10
8.550075
20
27.772368750000002
30
0
0
VERTEX
8
0
10
8.5748625
20
27.72943125
30
0
0
VERTEX
8
0
10
8.60504375
20
27.6901
30
0
0
VERTEX
8
0
10
8.6401
20
27.65504375
30
0
0
VERTEX
8
0
10
8.67943125
20
27.624862500000003
30
0
0
VERTEX
8
0
10
8.722368750000001
20
27.600075
30
0
0
VERTEX
8
0
10
8.768171875
20
27.581103125000002
30
0
0
VERTEX
8
0
10
8.816059375
20
27.568271875
30
0
0
VERTEX
8
0
10
8.8652125
20
27.5618
30
0
0
VERTEX
8
0
10
8.914787500000001
20
27.5618
30
0
0
SEQEND
0
POLYLINE
66
1
8
16_copper
10
0.0
20
0.0
30
0.0
70
1
0
VERTEX
8
0
10
28.013940625
20
33.918271875
30
0
42
0.9999999999999999
0
VERTEX
8
0
10
27.866059375000003
20
34.661728125
30
0
0
VERTEX
8
0
10
27.818171875
20
34.648896875
30
0
42
0.0639984307401922
0
VERTEX
8
0
10
27.73145625
20
34.60630625
30
0
0
VERTEX
8
0
10
22.913881250000003
20
39.42388125
30
0
42
0.198912367379658
0
VERTEX
8
0
10
22.86
20
39.446200000000005
30
0
0
VERTEX
8
0
10
18.151121875
20
39.446200000000005
30
0
42
0.9969241442347151
0
VERTEX
8
0
10
17.408271875
20
39.296059375
30
0
0
VERTEX
8
0
10
17.421103125000002
20
39.248171875000004
30
0
42
0.7648843201253167
0
VERTEX
8
0
10
18.151121875
20
39.293800000000005
30
0
0
VERTEX
8
0
10
22.8284375
20
39.293800000000005
30
0
0
VERTEX
8
0
10
27.62369375
20
34.49854375
30
0
0
VERTEX
8
0
10
27.600075
20
34.45763125
30
0
0
VERTEX
8
0
10
27.581103125000002
20
34.411828125
30
0
0
VERTEX
8
0
10
27.568271875
20
34.363940625000005
30
0
0
VERTEX
8
0
10
27.5618
20
34.3147875
30
0
0
VERTEX
8
0
10
27.5618
20
34.265212500000004
30
0
0
VERTEX
8
0
10
27.568271875
20
34.216059375
30
0
0
VERTEX
8
0
10
27.581103125000002
20
34.168171875
30
0
0
VERTEX
8
0
10
27.600075
20
34.12236875
30
0
0
VERTEX
8
0
10
27.624862500000003
20
34.07943125
30
0
0
VERTEX
8
0
10
27.65504375
20
34.0401
30
0
0
VERTEX
8
0
10
27.6901
20
34.00504375
30
0
0
VERTEX
8
0
10
27.72943125
20
33.9748625
30
0
0
VERTEX
8
0
10
27.772368750000002
20
33.950075
30
0
0
VERTEX
8
0
10
27.818171875
20
33.931103125
30
0
0
VERTEX
8
0
10
27.866059375000003
20
33.918271875
30
0
0
VERTEX
8
0
10
27.915212500000003
20
33.9118
30
0
0
VERTEX
8
0
10
27.9647875
20
33.9118
30
0
0
SEQEND
0
POLYLINE
66
1
8
16_copper
10
0.0
20
0.0
30
0.0
70
1
0
VERTEX
8
0
10
21.858890625
20
34.525071875
30
0
0
VERTEX
8
0
10
21.906778125000002
20
34.537903125
30
0
0
VERTEX
8
0
10
21.95258125
20
34.556875000000005
30
0
0
VERTEX
8
0
10
21.995518750000002
20
34.5816625
30
0
0
VERTEX
8
0
10
22.034850000000002
20
34.61184375
30
0
0
VERTEX
8
0
10
22.069906250000003
20
34.6469
30
0
0
VERTEX
8
0
10
22.1000875
20
34.68623125
30
0
0
VERTEX
8
0
10
22.124875
20
34.72916875
30
0
0
VERTEX
8
0
10
22.143846875
20
34.774971875
30
0
0
VERTEX
8
0
10
22.156678125000003
20
34.822859375
30
0
0
VERTEX
8
0
10
22.16315
20
34.872012500000004
30
0
0
VERTEX
8
0
10
22.16315
20
34.9215875
30
0
0
VERTEX
8
0
10
22.156678125000003
20
34.970740625000005
30
0
0
VERTEX
8
0
10
22.143846875
20
35.018628125
30
0
0
VERTEX
8
0
10
22.124875
20
35.06443125
30
0
0
VERTEX
8
0
10
22.1000875
20
35.10736875
30
0
0
VERTEX
8
0
10
22.069906250000003
20
35.1467
30
0
0
VERTEX
8
0
10
22.034850000000002
20
35.18175625
30
0
0
VERTEX
8
0
10
21.995518750000002
20
35.211937500000005
30
0
0
VERTEX
8
0
10
21.95258125
20
35.236725
30
0
0
VERTEX
8
0
10
21.906778125000002
20
35.255696875
30
0
0
VERTEX
8
0
10
21.858890625
20
35.268528125
30
0
0
VERTEX
8
0
10
21.8097375
20
35.275
30
0
0
VERTEX
8
0
10
21.7601625
20
35.275
30
0
0
VERTEX
8
0
10
21.711009375
20
35.268528125
30
0
0
VERTEX
8
0
10
21.663121875
20
35.255696875
30
0
0
VERTEX
8
0
10
21.617318750000003
20
35.236725
30
0
0
VERTEX
8
0
10
21.574381250000002
20
35.211937500000005
30
0
0
VERTEX
8
0
10
21.535050000000002
20
35.18175625
30
0
0
VERTEX
8
0
10
21.49999375
20
35.1467
30
0
0
VERTEX
8
0
10
21.4698125
20
35.10736875
30
0
0
VERTEX
8
0
10
21.445025
20
35.06443125
30
0
0
VERTEX
8
0
10
21.426053125
20
35.018628125
30
0
0
VERTEX
8
0
10
21.413221875
20
34.970740625000005
30
0
0
VERTEX
8
0
10
21.406750000000002
20
34.9215875
30
0
0
VERTEX
8
0
10
21.406750000000002
20
34.872012500000004
30
0
0
VERTEX
8
0
10
21.413221875
20
34.822859375
30
0
0
VERTEX
8
0
10
21.426053125
20
34.774971875
30
0
0
VERTEX
8
0
10
21.445025
20
34.72916875
30
0
0
VERTEX
8
0
10
21.4698125
20
34.68623125
30
0
0
VERTEX
8
0
10
21.49999375
20
34.6469
30
0
0
VERTEX
8
0
10
21.535050000000002
20
34.61184375
30
0
0
VERTEX
8
0
10
21.574381250000002
20
34.5816625
30
0
0
VERTEX
8
0
10
21.617318750000003
20
34.556875000000005
30
0
0
VERTEX
8
0
10
21.663121875
20
34.537903125
30
0
0
VERTEX
8
0
10
21.711009375
20
34.525071875
30
0
0
VERTEX
8
0
10
21.7601625
20
34.5186
30
0
0
VERTEX
8
0
10
21.8097375
20
34.5186
30
0
0
SEQEND
0
POLYLINE
66
1
8
16_copper
10
0.0
20
0.0
30
0.0
70
1
0
VERTEX
8
0
10
22.868428125
20
12.625015625000001
30
0
42
0.16997656369761122
0
VERTEX
8
0
10
22.913881250000003
20
12.646118750000001
30
0
0
VERTEX
8
0
10
26.72388125
20
16.45611875
30
0
42
0.198912367379658
0
VERTEX
8
0
10
26.7462
20
16.51
30
0
0
VERTEX
8
0
10
26.7462
20
33.918878125
30
0
42
0.9969241442347151
0
VERTEX
8
0
10
26.596059375000003
20
34.661728125
30
0
0
VERTEX
8
0
10
26.548171875
20
34.648896875
30
0
42
0.7648843201253167
0
VERTEX
8
0
10
26.5938
20
33.918878125
30
0
0
VERTEX
8
0
10
26.5938
20
16.5415625
30
0
0
VERTEX
8
0
10
22.8284375
20
12.776200000000001
30
0
0
VERTEX
8
0
10
17.8115625
20
12.776200000000001
30
0
0
VERTEX
8
0
10
10.2362
20
20.3515625
30
0
0
VERTEX
8
0
10
10.2362
20
22.86
30
0
42
0.198912367379658
0
VERTEX
8
0
10
10.21388125
20
22.913881250000003
30
0
0
VERTEX
8
0
10
8.9662
20
24.161562500000002
30
0
0
VERTEX
8
0
10
8.9662
20
27.568878125
30
0
42
0.9969241442347151
0
VERTEX
8
0
10
8.816059375
20
28.311728125000002
30
0
0
VERTEX
8
0
10
8.768171875
20
28.298896875
30
0
42
0.7648843201253167
0
VERTEX
8
0
10
8.8138
20
27.568878125
30
0
0
VERTEX
8
0
10
8.8138
20
24.130000000000003
30
0
42
0.198912367379658
0
VERTEX
8
0
10
8.83611875
20
24.076118750000003
30
0
0
VERTEX
8
0
10
10.0838
20
22.8284375
30
0
0
VERTEX
8
0
10
10.0838
20
20.32
30
0
42
0.198912367379658
0
VERTEX
8
0
10
10.10611875
20
20.26611875
30
0
0
VERTEX
8
0
10
17.72611875
20
12.646118750000001
30
0
42
0.198912367379658
0
VERTEX
8
0
10
17.78
20
12.623800000000001
30
0
0
VERTEX
8
0
10
22.86
20
12.623800000000001
30
0
0
SEQEND
0
POLYLINE
66
1
8
16_copper
10
0.0
20
0.0
30
0.0
70
1
0
VERTEX
8
0
10
8.963940625000001
20
28.838271875
30
0
0
VERTEX
8
0
10
9.011828125000001
20
28.851103125
30
0
0
VERTEX
8
0
10
9.05763125
20
28.870075
30
0
0
VERTEX
8
0
10
9.10056875
20
28.894862500000002
30
0
0
VERTEX
8
0
10
9.1399
20
28.92504375
30
0
0
VERTEX
8
0
10
9.174956250000001
20
28.9601
30
0
0
VERTEX
8
0
10
9.205137500000001
20
28.99943125
30
0
0
VERTEX
8
0
10
9.229925
20
29.04236875
30
0
0
VERTEX
8
0
10
9.248896875
20
29.088171875
30
0
0
VERTEX
8
0
10
9.261728125000001
20
29.136059375000002
30
0
0
VERTEX
8
0
10
9.2682
20
29.185212500000002
30
0
0
VERTEX
8
0
10
9.2682
20
29.234787500000003
30
0
0
VERTEX
8
0
10
9.261728125000001
20
29.283940625000003
30
0
0
VERTEX
8
0
10
9.248896875
20
29.331828125
30
0
0
VERTEX
8
0
10
9.229925
20
29.37763125
30
0
0
VERTEX
8
0
10
9.205137500000001
20
29.42056875
30
0
0
VERTEX
8
0
10
9.174956250000001
20
29.4599
30
0
0
VERTEX
8
0
10
9.1399
20
29.49495625
30
0
0
VERTEX
8
0
10
9.10056875
20
29.525137500000003
30
0
0
VERTEX
8
0
10
9.05763125
20
29.549925
30
0
0
VERTEX
8
0
10
9.011828125000001
20
29.568896875
30
0
0
VERTEX
8
0
10
8.963940625000001
20
29.581728125
30
0
0
VERTEX
8
0
10
8.914787500000001
20
29.5882
30
0
0
VERTEX
8
0
10
8.8652125
20
29.5882
30
0
0
VERTEX
8
0
10
8.816059375
20
29.581728125
30
0
0
VERTEX
8
0
10
8.768171875
20
29.568896875
30
0
0
VERTEX
8
0
10
8.722368750000001
20
29.549925
30
0
0
VERTEX
8
0
10
8.67943125
20
29.525137500000003
30
0
0
VERTEX
8
0
10
8.6401
20
29.49495625
30
0
0
VERTEX
8
0
10
8.60504375
20
29.4599
30
0
0
VERTEX
8
0
10
8.5748625
20
29.42056875
30
0
0
VERTEX
8
0
10
8.550075
20
29.37763125
30
0
0
VERTEX
8
0
10
8.531103125
20
29.331828125
30
0
0
VERTEX
8
0
10
8.518271875
20
29.283940625000003
30
0
0
VERTEX
8
0
10
8.511800000000001
20
29.234787500000003
30
0
0
VERTEX
8
0
10
8.511800000000001
20
29.185212500000002
30
0
0
VERTEX
8
0
10
8.518271875
20
29.136059375000002
30
0
0
VERTEX
8
0
10
8.531103125
20
29.088171875
30
0
0
VERTEX
8
0
10
8.550075
20
29.04236875
30
0
0
VERTEX
8
0
10
8.5748625
20
28.99943125
30
0
0
VERTEX
8
0
10
8.60504375
20
28.9601
30
0
0
VERTEX
8
0
10
8.6401
20
28.92504375
30
0
0
VERTEX
8
0
10
8.67943125
20
28.894862500000002
30
0
0
VERTEX
8
0
10
8.722368750000001
20
28.870075
30
0
0
VERTEX
8
0
10
8.768171875
20
28.851103125
30
0
0
VERTEX
8
0
10
8.816059375
20
28.838271875
30
0
0
VERTEX
8
0
10
8.8652125
20
28.8318
30
0
0
VERTEX
8
0
10
8.914787500000001
20
28.8318
30
0
0
SEQEND
0
POLYLINE
66
1
8
1_copper
10
0.0
20
0.0
30
0.0
70
1
0
VERTEX
8
0
10
11.503940625
20
38.998271875
30
0
42
0.9999999999999999
0
VERTEX
8
0
10
11.356059375000001
20
39.741728125
30
0
0
VERTEX
8
0
10
11.308171875000001
20
39.728896875000004
30
0
42
0.0639984307401922
0
VERTEX
8
0
10
11.221456250000001
20
39.68630625
30
0
0
VERTEX
8
0
10
10.62388125
20
40.28388125
30
0
42
0.198912367379658
0
VERTEX
8
0
10
10.57
20
40.306200000000004
30
0
0
VERTEX
8
0
10
8.200000000000001
20
40.306200000000004
30
0
0
VERTEX
8
0
10
8.200000000000001
20
41.080000000000005
30
0
0
VERTEX
8
0
10
4.5
20
41.080000000000005
30
0
0
VERTEX
8
0
10
4.5
20
40.7162
30
0
0
VERTEX
8
0
10
3.8415625
20
40.7162
30
0
0
VERTEX
8
0
10
2.6162
20
41.9415625
30
0
0
VERTEX
8
0
10
2.6162
20
48.228437500000005
30
0
0
VERTEX
8
0
10
3.8415625
20
49.4538
30
0
0
VERTEX
8
0
10
8.31
20
49.4538
30
0
0
VERTEX
8
0
10
8.31
20
48.27
30
0
0
VERTEX
8
0
10
12.01
20
48.27
30
0
0
VERTEX
8
0
10
12.01
20
49.97
30
0
0
VERTEX
8
0
10
8.31
20
49.97
30
0
0
VERTEX
8
0
10
8.31
20
49.6062
30
0
0
VERTEX
8
0
10
3.81
20
49.6062
30
0
42
0.198912367379658
0
VERTEX
8
0
10
3.75611875
20
49.583881250000005
30
0
0
VERTEX
8
0
10
2.48611875
20
48.31388125
30
0
42
0.198912367379658
0
VERTEX
8
0
10
2.4638
20
48.260000000000005
30
0
0
VERTEX
8
0
10
2.4638
20
41.910000000000004
30
0
42
0.198912367379658
0
VERTEX
8
0
10
2.48611875
20
41.85611875
30
0
0
VERTEX
8
0
10
3.75611875
20
40.586118750000004
30
0
42
0.198912367379658
0
VERTEX
8
0
10
3.81
20
40.5638
30
0
0
VERTEX
8
0
10
4.5
20
40.5638
30
0
0
VERTEX
8
0
10
4.5
20
39.38
30
0
0
VERTEX
8
0
10
8.200000000000001
20
39.38
30
0
0
VERTEX
8
0
10
8.200000000000001
20
40.153800000000004
30
0
0
VERTEX
8
0
10
10.5384375
20
40.153800000000004
30
0
0
VERTEX
8
0
10
11.113693750000001
20
39.57854375
30
0
0
VERTEX
8
0
10
11.090075
20
39.537631250000004
30
0
0
VERTEX
8
0
10
11.071103125
20
39.491828125000005
30
0
0
VERTEX
8
0
10
11.058271875
20
39.443940625
30
0
0
VERTEX
8
0
10
11.0518
20
39.3947875
30
0
0
VERTEX
8
0
10
11.0518
20
39.3452125
30
0
0
VERTEX
8
0
10
11.058271875
20
39.296059375
30
0
0
VERTEX
8
0
10
11.071103125
20
39.248171875000004
30
0
0
VERTEX
8
0
10
11.090075
20
39.202368750000005
30
0
0
VERTEX
8
0
10
11.114862500000001
20
39.159431250000004
30
0
0
VERTEX
8
0
10
11.145043750000001
20
39.1201
30
0
0
VERTEX
8
0
10
11.180100000000001
20
39.085043750000004
30
0
0
VERTEX
8
0
10
11.219431250000001
20
39.0548625
30
0
0
VERTEX
8
0
10
11.26236875
20
39.030075000000004
30
0
0
VERTEX
8
0
10
11.308171875000001
20
39.011103125000005
30
0
0
VERTEX
8
0
10
11.356059375000001
20
38.998271875
30
0
0
VERTEX
8
0
10
11.405212500000001
20
38.991800000000005
30
0
0
VERTEX
8
0
10
11.4547875
20
38.991800000000005
30
0
0
SEQEND
0
POLYLINE
66
1
8
1_copper
10
0.0
20
0.0
30
0.0
70
1
0
VERTEX
8
0
10
35.633940625
20
14.868271875000001
30
0
42
0.818105841543916
0
VERTEX
8
0
10
35.6362
20
15.611121875
30
0
0
VERTEX
8
0
10
35.6362
20
30.48
30
0
42
0.198912367379658
0
VERTEX
8
0
10
35.61388125
20
30.53388125
30
0
0
VERTEX
8
0
10
34.34388125
20
31.80388125
30
0
42
0.198912367379658
0
VERTEX
8
0
10
34.29
20
31.8262
30
0
0
VERTEX
8
0
10
29.2415625
20
31.8262
30
0
0
VERTEX
8
0
10
27.99388125
20
33.07388125
30
0
42
0.198912367379658
0
VERTEX
8
0
10
27.94
20
33.0962
30
0
0
VERTEX
8
0
10
26.7015625
20
33.0962
30
0
0
VERTEX
8
0
10
26.630281250000003
20
33.16748125
30
0
42
0.198912367379658
0
VERTEX
8
0
10
26.5764
20
33.1898
30
0
0
VERTEX
8
0
10
24.0679625
20
33.1898
30
0
0
VERTEX
8
0
10
23.17630625
20
34.08145625
30
0
42
0.9969257294187597
0
VERTEX
8
0
10
22.5448625
20
34.50056875
30
0
0
VERTEX
8
0
10
22.520075000000002
20
34.45763125
30
0
42
0.06399643941626622
0
VERTEX
8
0
10
22.488878125
20
34.3662
30
0
0
VERTEX
8
0
10
21.59
20
34.3662
30
0
42
0.198912367379658
0
VERTEX
8
0
10
21.53611875
20
34.34388125
30
0
0
VERTEX
8
0
10
20.53611875
20
33.34388125
30
0
42
0.198912367379658
0
VERTEX
8
0
10
20.5138
20
33.29
30
0
0
VERTEX
8
0
10
20.5138
20
32.885000000000005
30
0
0
VERTEX
8
0
10
20.505125
20
32.885000000000005
30
0
0
VERTEX
8
0
10
20.486050000000002
20
32.8798875
30
0
0
VERTEX
8
0
10
20.46895
20
32.870015625
30
0
0
VERTEX
8
0
10
20.454984375000002
20
32.85605
30
0
0
VERTEX
8
0
10
20.4451125
20
32.838950000000004
30
0
0
VERTEX
8
0
10
20.44
20
32.819875
30
0
0
VERTEX
8
0
10
20.44
20
32.250125000000004
30
0
0
VERTEX
8
0
10
20.4451125
20
32.23105
30
0
0
VERTEX
8
0
10
20.454984375000002
20
32.213950000000004
30
0
0
VERTEX
8
0
10
20.46895
20
32.199984375
30
0
0
VERTEX
8
0
10
20.486050000000002
20
32.190112500000005
30
0
0
VERTEX
8
0
10
20.505125
20
32.185
30
0
0
VERTEX
8
0
10
20.674875
20
32.185
30
0
0
VERTEX
8
0
10
20.69395
20
32.190112500000005
30
0
0
VERTEX
8
0
10
20.71105
20
32.199984375
30
0
0
VERTEX
8
0
10
20.725015625
20
32.213950000000004
30
0
0
VERTEX
8
0
10
20.7348875
20
32.23105
30
0
0
VERTEX
8
0
10
20.740000000000002
20
32.250125000000004
30
0
0
VERTEX
8
0
10
20.740000000000002
20
32.819875
30
0
0
VERTEX
8
0
10
20.7348875
20
32.838950000000004
30
0
0
VERTEX
8
0
10
20.725015625
20
32.85605
30
0
0
VERTEX
8
0
10
20.71105
20
32.870015625
30
0
0
VERTEX
8
0
10
20.69395
20
32.8798875
30
0
0
VERTEX
8
0
10
20.674875
20
32.885000000000005
30
0
0
VERTEX
8
0
10
20.6662
20
32.885000000000005
30
0
0
VERTEX
8
0
10
20.6662
20
33.2584375
30
0
0
VERTEX
8
0
10
21.6215625
20
34.2138
30
0
0
VERTEX
8
0
10
22.488878125
20
34.2138
30
0
42
0.5305589329458261
0
VERTEX
8
0
10
23.06854375
20
33.97369375
30
0
0
VERTEX
8
0
10
23.98251875
20
33.05971875
30
0
42
0.198912367379658
0
VERTEX
8
0
10
24.0364
20
33.0374
30
0
0
VERTEX
8
0
10
26.5448375
20
33.0374
30
0
0
VERTEX
8
0
10
26.616118750000002
20
32.96611875
30
0
42
0.198912367379658
0
VERTEX
8
0
10
26.67
20
32.9438
30
0
0
VERTEX
8
0
10
27.9084375
20
32.9438
30
0
0
VERTEX
8
0
10
29.15611875
20
31.69611875
30
0
42
0.198912367379658
0
VERTEX
8
0
10
29.21
20
31.6738
30
0
0
VERTEX
8
0
10
34.2584375
20
31.6738
30
0
0
VERTEX
8
0
10
35.4838
20
30.4484375
30
0
0
VERTEX
8
0
10
35.4838
20
15.611121875
30
0
0
VERTEX
8
0
10
35.438171875
20
15.598896875000001
30
0
0
VERTEX
8
0
10
35.39236875
20
15.579925000000001
30
0
0
VERTEX
8
0
10
35.34943125
20
15.5551375
30
0
0
VERTEX
8
0
10
35.3101
20
15.52495625
30
0
0
VERTEX
8
0
10
35.27504375
20
15.4899
30
0
0
VERTEX
8
0
10
35.2448625
20
15.45056875
30
0
0
VERTEX
8
0
10
35.220075
20
15.407631250000001
30
0
0
VERTEX
8
0
10
35.201103125
20
15.361828125
30
0
0
VERTEX
8
0
10
35.188271875000005
20
15.313940625
30
0
0
VERTEX
8
0
10
35.1818
20
15.2647875
30
0
0
VERTEX
8
0
10
35.1818
20
15.215212500000002
30
0
0
VERTEX
8
0
10
35.188271875000005
20
15.166059375000001
30
0
0
VERTEX
8
0
10
35.201103125
20
15.118171875000002
30
0
0
VERTEX
8
0
10
35.220075
20
15.07236875
30
0
0
VERTEX
8
0
10
35.2448625
20
15.02943125
30
0
0
VERTEX
8
0
10
35.27504375
20
14.9901
30
0
0
VERTEX
8
0
10
35.3101
20
14.955043750000002
30
0
0
VERTEX
8
0
10
35.34943125
20
14.924862500000001
30
0
0
VERTEX
8
0
10
35.39236875
20
14.900075000000001
30
0
0
VERTEX
8
0
10
35.438171875
20
14.881103125000001
30
0
0
VERTEX
8
0
10
35.486059375
20
14.868271875000001
30
0
0
VERTEX
8
0
10
35.5352125
20
14.8618
30
0
0
VERTEX
8
0
10
35.584787500000004
20
14.8618
30
0
0
SEQEND
0
POLYLINE
66
1
8
1_copper
10
0.0
20
0.0
30
0.0
70
1
0
VERTEX
8
0
10
13.101571875000001
20
5.154984375000001
30
0
42
0.16997656369761122
0
VERTEX
8
0
10
13.056118750000001
20
5.13388125
30
0
0
VERTEX
8
0
10
12.172237500000001
20
4.25
30
0
0
VERTEX
8
0
10
9.58
20
4.25
30
0
0
VERTEX
8
0
10
9.58
20
2.5500000000000003
30
0
0
VERTEX
8
0
10
13.280000000000001
20
2.5500000000000003
30
0
0
VERTEX
8
0
10
13.280000000000001
20
4.25
30
0
0
VERTEX
8
0
10
12.387762500000001
20
4.25
30
0
0
VERTEX
8
0
10
13.141562500000001
20
5.0038
30
0
0
VERTEX
8
0
10
19.0184375
20
5.0038
30
0
0
VERTEX
8
0
10
19.597518750000003
20
4.42471875
30
0
42
0.198912367379658
0
VERTEX
8
0
10
19.651400000000002
20
4.4024
30
0
0
VERTEX
8
0
10
20.963125
20
4.4024
30
0
0
VERTEX
8
0
10
21.052400000000002
20
4.313125
30
0
0
VERTEX
8
0
10
21.052400000000002
20
2.0362
30
0
42
0.198912367379658
0
VERTEX
8
0
10
21.074718750000002
20
1.9823187500000001
30
0
0
VERTEX
8
0
10
21.53611875
20
1.52091875
30
0
42
0.198912367379658
0
VERTEX
8
0
10
21.59
20
1.4986000000000002
30
0
0
VERTEX
8
0
10
35.56
20
1.4986000000000002
30
0
42
0.198912367379658
0
VERTEX
8
0
10
35.61388125
20
1.52091875
30
0
0
VERTEX
8
0
10
42.446481250000005
20
8.353518750000001
30
0
42
0.198912367379658
0
VERTEX
8
0
10
42.4688
20
8.4074
30
0
0
VERTEX
8
0
10
42.4688
20
10.9474
30
0
42
0.198912367379658
0
VERTEX
8
0
10
42.446481250000005
20
11.00128125
30
0
0
VERTEX
8
0
10
41.96388125
20
11.483881250000001
30
0
42
0.198912367379658
0
VERTEX
8
0
10
41.910000000000004
20
11.5062
30
0
0
VERTEX
8
0
10
41.22
20
11.5062
30
0
0
VERTEX
8
0
10
41.22
20
11.870000000000001
30
0
0
VERTEX
8
0
10
39.446200000000005
20
11.870000000000001
30
0
0
VERTEX
8
0
10
39.446200000000005
20
12.668437500000001
30
0
0
VERTEX
8
0
10
40.431456250000004
20
13.65369375
30
0
42
0.9969257294187597
0
VERTEX
8
0
10
40.85056875
20
14.285137500000001
30
0
0
VERTEX
8
0
10
40.80763125
20
14.309925000000002
30
0
42
0.76488331982605
0
VERTEX
8
0
10
40.323693750000004
20
13.76145625
30
0
0
VERTEX
8
0
10
39.31611875
20
12.753881250000001
30
0
42
0.198912367379658
0
VERTEX
8
0
10
39.293800000000005
20
12.700000000000001
30
0
0
VERTEX
8
0
10
39.293800000000005
20
11.870000000000001
30
0
0
VERTEX
8
0
10
37.52
20
11.870000000000001
30
0
0
VERTEX
8
0
10
37.52
20
10.17
30
0
0
VERTEX
8
0
10
41.22
20
10.17
30
0
0
VERTEX
8
0
10
41.22
20
11.3538
30
0
0
VERTEX
8
0
10
41.878437500000004
20
11.3538
30
0
0
VERTEX
8
0
10
42.3164
20
10.9158375
30
0
0
VERTEX
8
0
10
42.3164
20
8.4389625
30
0
0
VERTEX
8
0
10
35.5284375
20
1.651
30
0
0
VERTEX
8
0
10
21.6215625
20
1.651
30
0
0
VERTEX
8
0
10
21.204800000000002
20
2.0677625
30
0
0
VERTEX
8
0
10
21.204800000000002
20
4.3446875
30
0
42
0.198912367379658
0
VERTEX
8
0
10
21.182481250000002
20
4.39856875
30
0
0
VERTEX
8
0
10
21.04856875
20
4.53248125
30
0
42
0.198912367379658
0
VERTEX
8
0
10
20.9946875
20
4.5548
30
0
0
VERTEX
8
0
10
19.682962500000002
20
4.5548
30
0
0
VERTEX
8
0
10
19.191328125000002
20
5.0464343750000005
30
0
42
0.5557811772962493
0
VERTEX
8
0
10
19.1232875
20
5.1562
30
0
0
VERTEX
8
0
10
13.110000000000001
20
5.1562
30
0
0
SEQEND
0
POLYLINE
66
1
8
16_copper
10
0.0
20
0.0
30
0.0
70
1
0
VERTEX
8
0
10
22.933940625
20
33.918271875
30
0
42
0.3016664185260731
0
VERTEX
8
0
10
23.231121875
20
34.2138
30
0
0
VERTEX
8
0
10
24.130000000000003
20
34.2138
30
0
42
0.198912367379658
0
VERTEX
8
0
10
24.183881250000002
20
34.23611875
30
0
0
VERTEX
8
0
10
25.453881250000002
20
35.50611875
30
0
42
0.41421356237309503
0
VERTEX
8
0
10
25.453881250000002
20
35.61388125
30
0
0
VERTEX
8
0
10
24.183881250000002
20
36.88388125
30
0
42
0.198912367379658
0
VERTEX
8
0
10
24.130000000000003
20
36.9062
30
0
0
VERTEX
8
0
10
16.5415625
20
36.9062
30
0
0
VERTEX
8
0
10
14.02388125
20
39.42388125
30
0
42
0.198912367379658
0
VERTEX
8
0
10
13.97
20
39.446200000000005
30
0
0
VERTEX
8
0
10
11.801121875
20
39.446200000000005
30
0
42
0.9969241442347151
0
VERTEX
8
0
10
11.058271875
20
39.296059375
30
0
0
VERTEX
8
0
10
11.071103125
20
39.248171875000004
30
0
42
0.7648843201253167
0
VERTEX
8
0
10
11.801121875
20
39.293800000000005
30
0
0
VERTEX
8
0
10
13.938437500000001
20
39.293800000000005
30
0
0
VERTEX
8
0
10
16.45611875
20
36.77611875
30
0
42
0.198912367379658
0
VERTEX
8
0
10
16.51
20
36.7538
30
0
0
VERTEX
8
0
10
24.098437500000003
20
36.7538
30
0
0
VERTEX
8
0
10
25.292237500000002
20
35.56
30
0
0
VERTEX
8
0
10
24.098437500000003
20
34.3662
30
0
0
VERTEX
8
0
10
23.231121875
20
34.3662
30
0
0
VERTEX
8
0
10
23.218896875000002
20
34.411828125
30
0
0
VERTEX
8
0
10
23.199925
20
34.45763125
30
0
0
VERTEX
8
0
10
23.1751375
20
34.50056875
30
0
0
VERTEX
8
0
10
23.14495625
20
34.5399
30
0
0
VERTEX
8
0
10
23.1099
20
34.57495625
30
0
0
VERTEX
8
0
10
23.07056875
20
34.605137500000005
30
0
0
VERTEX
8
0
10
23.027631250000002
20
34.629925
30
0
0
VERTEX
8
0
10
22.981828125
20
34.648896875
30
0
0
VERTEX
8
0
10
22.933940625
20
34.661728125
30
0
0
VERTEX
8
0
10
22.8847875
20
34.6682
30
0
0
VERTEX
8
0
10
22.8352125
20
34.6682
30
0
0
VERTEX
8
0
10
22.786059375
20
34.661728125
30
0
0
VERTEX
8
0
10
22.738171875000003
20
34.648896875
30
0
0
VERTEX
8
0
10
22.69236875
20
34.629925
30
0
0
VERTEX
8
0
10
22.649431250000003
20
34.605137500000005
30
0
0
VERTEX
8
0
10
22.610100000000003
20
34.57495625
30
0
0
VERTEX
8
0
10
22.575043750000003
20
34.5399
30
0
0
VERTEX
8
0
10
22.5448625
20
34.50056875
30
0
0
VERTEX
8
0
10
22.520075000000002
20
34.45763125
30
0
0
VERTEX
8
0
10
22.501103125
20
34.411828125
30
0
0
VERTEX
8
0
10
22.488271875000002
20
34.363940625000005
30
0
0
VERTEX
8
0
10
22.4818
20
34.3147875
30
0
0
VERTEX
8
0
10
22.4818
20
34.265212500000004
30
0
0
VERTEX
8
0
10
22.488271875000002
20
34.216059375
30
0
0
VERTEX
8
0
10
22.501103125
20
34.168171875
30
0
0
VERTEX
8
0
10
22.520075000000002
20
34.12236875
30
0
0
VERTEX
8
0
10
22.5448625
20
34.07943125
30
0
0
VERTEX
8
0
10
22.575043750000003
20
34.0401
30
0
0
VERTEX
8
0
10
22.610100000000003
20
34.00504375
30
0
0
VERTEX
8
0
10
22.649431250000003
20
33.9748625
30
0
0
VERTEX
8
0
10
22.69236875
20
33.950075
30
0
0
VERTEX
8
0
10
22.738171875000003
20
33.931103125
30
0
0
VERTEX
8
0
10
22.786059375
20
33.918271875
30
0
0
VERTEX
8
0
10
22.8352125
20
33.9118
30
0
0
VERTEX
8
0
10
22.8847875
20
33.9118
30
0
0
SEQEND
0
POLYLINE
66
1
8
16_copper
10
0.0
20
0.0
30
0.0
70
1
0
VERTEX
8
0
10
40.713940625
20
13.598271875
30
0
42
0.9999999999999999
0
VERTEX
8
0
10
40.566059375
20
14.341728125000001
30
0
0
VERTEX
8
0
10
40.518171875
20
14.328896875
30
0
42
0.0639984307401922
0
VERTEX
8
0
10
40.431456250000004
20
14.28630625
30
0
0
VERTEX
8
0
10
39.42388125
20
15.29388125
30
0
42
0.198912367379658
0
VERTEX
8
0
10
39.370000000000005
20
15.3162
30
0
0
VERTEX
8
0
10
35.931121875
20
15.3162
30
0
42
0.9969241442347151
0
VERTEX
8
0
10
35.188271875000005
20
15.166059375000001
30
0
0
VERTEX
8
0
10
35.201103125
20
15.118171875000002
30
0
42
0.7648843201253167
0
VERTEX
8
0
10
35.931121875
20
15.1638
30
0
0
VERTEX
8
0
10
39.338437500000005
20
15.1638
30
0
0
VERTEX
8
0
10
40.323693750000004
20
14.178543750000001
30
0
0
VERTEX
8
0
10
40.300075
20
14.13763125
30
0
0
VERTEX
8
0
10
40.281103125
20
14.091828125000001
30
0
0
VERTEX
8
0
10
40.268271875
20
14.043940625000001
30
0
0
VERTEX
8
0
10
40.2618
20
13.994787500000001
30
0
0
VERTEX
8
0
10
40.2618
20
13.9452125
30
0
0
VERTEX
8
0
10
40.268271875
20
13.896059375
30
0
0
VERTEX
8
0
10
40.281103125
20
13.848171875
30
0
0
VERTEX
8
0
10
40.300075
20
13.802368750000001
30
0
0
VERTEX
8
0
10
40.3248625
20
13.75943125
30
0
0
VERTEX
8
0
10
40.35504375
20
13.7201
30
0
0
VERTEX
8
0
10
40.390100000000004
20
13.68504375
30
0
0
VERTEX
8
0
10
40.42943125
20
13.6548625
30
0
0
VERTEX
8
0
10
40.47236875
20
13.630075000000001
30
0
0
VERTEX
8
0
10
40.518171875
20
13.611103125000001
30
0
0
VERTEX
8
0
10
40.566059375
20
13.598271875
30
0
0
VERTEX
8
0
10
40.615212500000005
20
13.591800000000001
30
0
0
VERTEX
8
0
10
40.6647875
20
13.591800000000001
30
0
0
SEQEND
0
POLYLINE
66
1
8
1_copper
10
0.0
20
0.0
30
0.0
70
1
0
VERTEX
8
0
10
14.043940625000001
20
31.378271875000003
30
0
42
0.818105841543916
0
VERTEX
8
0
10
14.0462
20
32.121121875
30
0
0
VERTEX
8
0
10
14.0462
20
34.2584375
30
0
0
VERTEX
8
0
10
15.29388125
20
35.50611875
30
0
42
0.198912367379658
0
VERTEX
8
0
10
15.3162
20
35.56
30
0
0
VERTEX
8
0
10
15.3162
20
52.448437500000004
30
0
0
VERTEX
8
0
10
17.0377625
20
54.17
30
0
0
VERTEX
8
0
10
19.630000000000003
20
54.17
30
0
0
VERTEX
8
0
10
19.630000000000003
20
54.9438
30
0
0
VERTEX
8
0
10
23.55
20
54.9438
30
0
0
VERTEX
8
0
10
23.55
20
54.17
30
0
0
VERTEX
8
0
10
27.25
20
54.17
30
0
0
VERTEX
8
0
10
27.25
20
54.9438
30
0
0
VERTEX
8
0
10
31.17
20
54.9438
30
0
0
VERTEX
8
0
10
31.17
20
54.17
30
0
0
VERTEX
8
0
10
34.870000000000005
20
54.17
30
0
0
VERTEX
8
0
10
34.870000000000005
20
55.870000000000005
30
0
0
VERTEX
8
0
10
31.17
20
55.870000000000005
30
0
0
VERTEX
8
0
10
31.17
20
55.0962
30
0
0
VERTEX
8
0
10
27.25
20
55.0962
30
0
0
VERTEX
8
0
10
27.25
20
55.870000000000005
30
0
0
VERTEX
8
0
10
23.55
20
55.870000000000005
30
0
0
VERTEX
8
0
10
23.55
20
55.0962
30
0
0
VERTEX
8
0
10
19.630000000000003
20
55.0962
30
0
0
VERTEX
8
0
10
19.630000000000003
20
55.870000000000005
30
0
0
VERTEX
8
0
10
15.930000000000001
20
55.870000000000005
30
0
0
VERTEX
8
0
10
15.930000000000001
20
55.0962
30
0
0
VERTEX
8
0
10
12.01
20
55.0962
30
0
0
VERTEX
8
0
10
12.01
20
55.870000000000005
30
0
0
VERTEX
8
0
10
8.31
20
55.870000000000005
30
0
0
VERTEX
8
0
10
8.31
20
54.17
30
0
0
VERTEX
8
0
10
12.01
20
54.17
30
0
0
VERTEX
8
0
10
12.01
20
54.9438
30
0
0
VERTEX
8
0
10
15.930000000000001
20
54.9438
30
0
0
VERTEX
8
0
10
15.930000000000001
20
54.17
30
0
0
VERTEX
8
0
10
16.8222375
20
54.17
30
0
0
VERTEX
8
0
10
15.18611875
20
52.53388125
30
0
42
0.198912367379658
0
VERTEX
8
0
10
15.1638
20
52.480000000000004
30
0
0
VERTEX
8
0
10
15.1638
20
35.5915625
30
0
0
VERTEX
8
0
10
13.91611875
20
34.34388125
30
0
42
0.198912367379658
0
VERTEX
8
0
10
13.8938
20
34.29
30
0
0
VERTEX
8
0
10
13.8938
20
32.121121875
30
0
0
VERTEX
8
0
10
13.848171875
20
32.108896875
30
0
0
VERTEX
8
0
10
13.802368750000001
20
32.089925
30
0
0
VERTEX
8
0
10
13.75943125
20
32.0651375
30
0
0
VERTEX
8
0
10
13.7201
20
32.03495625
30
0
0
VERTEX
8
0
10
13.68504375
20
31.9999
30
0
0
VERTEX
8
0
10
13.6548625
20
31.96056875
30
0
0
VERTEX
8
0
10
13.630075000000001
20
31.917631250000003
30
0
0
VERTEX
8
0
10
13.611103125000001
20
31.871828125
30
0
0
VERTEX
8
0
10
13.598271875
20
31.823940625000002
30
0
0
VERTEX
8
0
10
13.591800000000001
20
31.774787500000002
30
0
0
VERTEX
8
0
10
13.591800000000001
20
31.7252125
30
0
0
VERTEX
8
0
10
13.598271875
20
31.676059375
30
0
0
VERTEX
8
0
10
13.611103125000001
20
31.628171875000003
30
0
0
VERTEX
8
0
10
13.630075000000001
20
31.58236875
30
0
0
VERTEX
8
0
10
13.6548625
20
31.53943125
30
0
0
VERTEX
8
0
10
13.68504375
20
31.5001
30
0
0
VERTEX
8
0
10
13.7201
20
31.465043750000003
30
0
0
VERTEX
8
0
10
13.75943125
20
31.4348625
30
0
0
VERTEX
8
0
10
13.802368750000001
20
31.410075000000003
30
0
0
VERTEX
8
0
10
13.848171875
20
31.391103125
30
0
0
VERTEX
8
0
10
13.896059375
20
31.378271875000003
30
0
0
VERTEX
8
0
10
13.9452125
20
31.3718
30
0
0
VERTEX
8
0
10
13.994787500000001
20
31.3718
30
0
0
SEQEND
0
POLYLINE
66
1
8
1_copper
10
0.0
20
0.0
30
0.0
70
1
0
VERTEX
8
0
10
10.233940625
20
25.028271875
30
0
42
0.5325344265187388
0
VERTEX
8
0
10
10.47630625
20
25.608543750000003
30
0
0
VERTEX
8
0
10
15.5015625
20
30.6338
30
0
0
VERTEX
8
0
10
17.915
20
30.6338
30
0
0
VERTEX
8
0
10
17.915
20
30.625125
30
0
0
VERTEX
8
0
10
17.920112500000002
20
30.60605
30
0
0
VERTEX
8
0
10
17.929984375
20
30.58895
30
0
0
VERTEX
8
0
10
17.94395
20
30.574984375000003
30
0
0
VERTEX
8
0
10
17.96105
20
30.5651125
30
0
0
VERTEX
8
0
10
17.980125
20
30.560000000000002
30
0
0
VERTEX
8
0
10
18.549875
20
30.560000000000002
30
0
0
VERTEX
8
0
10
18.56895
20
30.5651125
30
0
0
VERTEX
8
0
10
18.58605
20
30.574984375000003
30
0
0
VERTEX
8
0
10
18.600015625
20
30.58895
30
0
0
VERTEX
8
0
10
18.6098875
20
30.60605
30
0
0
VERTEX
8
0
10
18.615000000000002
20
30.625125
30
0
0
VERTEX
8
0
10
18.615000000000002
20
30.794875
30
0
0
VERTEX
8
0
10
18.6098875
20
30.813950000000002
30
0
0
VERTEX
8
0
10
18.600015625
20
30.83105
30
0
0
VERTEX
8
0
10
18.58605
20
30.845015625000002
30
0
0
VERTEX
8
0
10
18.56895
20
30.8548875
30
0
0
VERTEX
8
0
10
18.549875
20
30.860000000000003
30
0
0
VERTEX
8
0
10
17.980125
20
30.860000000000003
30
0
0
VERTEX
8
0
10
17.96105
20
30.8548875
30
0
0
VERTEX
8
0
10
17.94395
20
30.845015625000002
30
0
0
VERTEX
8
0
10
17.929984375
20
30.83105
30
0
0
VERTEX
8
0
10
17.920112500000002
20
30.813950000000002
30
0
0
VERTEX
8
0
10
17.915
20
30.794875
30
0
0
VERTEX
8
0
10
17.915
20
30.7862
30
0
0
VERTEX
8
0
10
15.47
20
30.7862
30
0
42
0.198912367379658
0
VERTEX
8
0
10
15.41611875
20
30.76388125
30
0
0
VERTEX
8
0
10
10.36854375
20
25.716306250000002
30
0
0
VERTEX
8
0
10
10.327631250000001
20
25.739925
30
0
0
VERTEX
8
0
10
10.281828125
20
25.758896875
30
0
0
VERTEX
8
0
10
10.233940625
20
25.771728125000003
30
0
0
VERTEX
8
0
10
10.1847875
20
25.778200000000002
30
0
0
VERTEX
8
0
10
10.1352125
20
25.778200000000002
30
0
0
VERTEX
8
0
10
10.086059375
20
25.771728125000003
30
0
0
VERTEX
8
0
10
10.038171875
20
25.758896875
30
0
0
VERTEX
8
0
10
9.99236875
20
25.739925
30
0
0
VERTEX
8
0
10
9.94943125
20
25.7151375
30
0
0
VERTEX
8
0
10
9.9101
20
25.684956250000003
30
0
0
VERTEX
8
0
10
9.87504375
20
25.649900000000002
30
0
0
VERTEX
8
0
10
9.8448625
20
25.610568750000002
30
0
0
VERTEX
8
0
10
9.820075000000001
20
25.56763125
30
0
0
VERTEX
8
0
10
9.801103125000001
20
25.521828125000003
30
0
0
VERTEX
8
0
10
9.788271875000001
20
25.473940625
30
0
0
VERTEX
8
0
10
9.7818
20
25.4247875
30
0
0
VERTEX
8
0
10
9.7818
20
25.3752125
30
0
0
VERTEX
8
0
10
9.788271875000001
20
25.326059375
30
0
0
VERTEX
8
0
10
9.801103125000001
20
25.278171875
30
0
0
VERTEX
8
0
10
9.820075000000001
20
25.232368750000003
30
0
0
VERTEX
8
0
10
9.8448625
20
25.189431250000002
30
0
0
VERTEX
8
0
10
9.87504375
20
25.150100000000002
30
0
0
VERTEX
8
0
10
9.9101
20
25.11504375
30
0
0
VERTEX
8
0
10
9.94943125
20
25.0848625
30
0
0
VERTEX
8
0
10
9.99236875
20
25.060075
30
0
0
VERTEX
8
0
10
10.038171875
20
25.041103125000003
30
0
0
VERTEX
8
0
10
10.086059375
20
25.028271875
30
0
0
VERTEX
8
0
10
10.1352125
20
25.021800000000002
30
0
0
VERTEX
8
0
10
10.1847875
20
25.021800000000002
30
0
0
SEQEND
0
POLYLINE
66
1
8
16_copper
10
0.0
20
0.0
30
0.0
70
1
0
VERTEX
8
0
10
10.233940625
20
25.028271875
30
0
42
0.818105841543916
0
VERTEX
8
0
10
10.2362
20
25.771121875000002
30
0
0
VERTEX
8
0
10
10.2362
20
27.9084375
30
0
0
VERTEX
8
0
10
13.76145625
20
31.43369375
30
0
42
0.9969257294187597
0
VERTEX
8
0
10
14.18056875
20
32.0651375
30
0
0
VERTEX
8
0
10
14.13763125
20
32.089925
30
0
42
0.76488331982605
0
VERTEX
8
0
10
13.65369375
20
31.541456250000003
30
0
0
VERTEX
8
0
10
10.10611875
20
27.99388125
30
0
42
0.198912367379658
0
VERTEX
8
0
10
10.0838
20
27.94
30
0
0
VERTEX
8
0
10
10.0838
20
25.771121875000002
30
0
0
VERTEX
8
0
10
10.038171875
20
25.758896875
30
0
0
VERTEX
8
0
10
9.99236875
20
25.739925
30
0
0
VERTEX
8
0
10
9.94943125
20
25.7151375
30
0
0
VERTEX
8
0
10
9.9101
20
25.684956250000003
30
0
0
VERTEX
8
0
10
9.87504375
20
25.649900000000002
30
0
0
VERTEX
8
0
10
9.8448625
20
25.610568750000002
30
0
0
VERTEX
8
0
10
9.820075000000001
20
25.56763125
30
0
0
VERTEX
8
0
10
9.801103125000001
20
25.521828125000003
30
0
0
VERTEX
8
0
10
9.788271875000001
20
25.473940625
30
0
0
VERTEX
8
0
10
9.7818
20
25.4247875
30
0
0
VERTEX
8
0
10
9.7818
20
25.3752125
30
0
0
VERTEX
8
0
10
9.788271875000001
20
25.326059375
30
0
0
VERTEX
8
0
10
9.801103125000001
20
25.278171875
30
0
0
VERTEX
8
0
10
9.820075000000001
20
25.232368750000003
30
0
0
VERTEX
8
0
10
9.8448625
20
25.189431250000002
30
0
0
VERTEX
8
0
10
9.87504375
20
25.150100000000002
30
0
0
VERTEX
8
0
10
9.9101
20
25.11504375
30
0
0
VERTEX
8
0
10
9.94943125
20
25.0848625
30
0
0
VERTEX
8
0
10
9.99236875
20
25.060075
30
0
0
VERTEX
8
0
10
10.038171875
20
25.041103125000003
30
0
0
VERTEX
8
0
10
10.086059375
20
25.028271875
30
0
0
VERTEX
8
0
10
10.1352125
20
25.021800000000002
30
0
0
VERTEX
8
0
10
10.1847875
20
25.021800000000002
30
0
0
SEQEND
0
CIRCLE
8
drills_via_1_16
10
41.910000000000004
20
24.130000000000003
30
0
40
0.17500000000000002
0
CIRCLE
8
drills_via_1_16
10
41.910000000000004
20
19.05
30
0
40
0.17500000000000002
0
CIRCLE
8
drills_via_1_16
10
41.910000000000004
20
43.18
30
0
40
0.17500000000000002
0
CIRCLE
8
drills_via_1_16
10
41.910000000000004
20
38.1
30
0
40
0.17500000000000002
0
CIRCLE
8
drills_via_1_16
10
35.56
20
13.97
30
0
40
0.17500000000000002
0
CIRCLE
8
drills_via_1_16
10
38.1
20
13.97
30
0
40
0.17500000000000002
0
CIRCLE
8
drills_via_1_16
10
3.81
20
43.18
30
0
40
0.17500000000000002
0
CIRCLE
8
drills_via_1_16
10
2.54
20
40.64
30
0
40
0.17500000000000002
0
CIRCLE
8
drills_via_1_16
10
19.05
20
13.97
30
0
40
0.17500000000000002
0
CIRCLE
8
drills_via_1_16
10
16.51
20
33.02
30
0
40
0.17500000000000002
0
CIRCLE
8
drills_via_1_16
10
8.89
20
22.86
30
0
40
0.17500000000000002
0
CIRCLE
8
drills_via_1_16
10
22.86
20
35.56
30
0
40
0.17500000000000002
0
CIRCLE
8
drills_via_1_16
10
35.56
20
31.75
30
0
40
0.17500000000000002
0
CIRCLE
8
drills_via_1_16
10
25.400000000000002
20
38.1
30
0
40
0.17500000000000002
0
CIRCLE
8
drills_via_1_16
10
10.16
20
24.130000000000003
30
0
40
0.17500000000000002
0
CIRCLE
8
drills_via_1_16
10
21.784950000000002
20
34.8968
30
0
40
0.17500000000000002
0
CIRCLE
8
drills_via_1_16
10
8.89
20
29.21
30
0
40
0.17500000000000002
0
CIRCLE
8
drills_via_1_16
10
26.67
20
34.29
30
0
40
0.17500000000000002
0
CIRCLE
8
drills_via_1_16
10
17.78
20
39.370000000000005
30
0
40
0.17500000000000002
0
CIRCLE
8
drills_via_1_16
10
27.94
20
34.29
30
0
40
0.17500000000000002
0
CIRCLE
8
drills_via_1_16
10
8.89
20
27.94
30
0
40
0.17500000000000002
0
CIRCLE
8
drills_via_1_16
10
11.43
20
39.370000000000005
30
0
40
0.17500000000000002
0
CIRCLE
8
drills_via_1_16
10
22.86
20
34.29
30
0
40
0.17500000000000002
0
CIRCLE
8
drills_via_1_16
10
35.56
20
15.24
30
0
40
0.17500000000000002
0
CIRCLE
8
drills_via_1_16
10
40.64
20
13.97
30
0
40
0.17500000000000002
0
CIRCLE
8
drills_via_1_16
10
13.97
20
31.75
30
0
40
0.17500000000000002
0
CIRCLE
8
drills_via_1_16
10
10.16
20
25.400000000000002
30
0
40
0.17500000000000002
0
ENDSEC
0
EOF