0
SECTION
2
HEADER
9
$ANGDIR
70
1
9
$AUNITS
70
0
9
$PROJECTNAME
1
Task6PCB
9
$TDCREATE
40
2460514.21737281
9
$INSUNITS
70
4
0
ENDSEC
0
SECTION
2
ENTITIES
0
POLYLINE
66
1
8
outline
10
0.0
20
0.0
30
0.0
70
1
0
VERTEX
8
0
10
0
20
0
30
0
0
VERTEX
8
0
10
39.04
20
0
30
0
0
VERTEX
8
0
10
39.04
20
64.76
30
0
0
VERTEX
8
0
10
0
20
64.76
30
0
0
VERTEX
8
0
10
0
20
0
30
0
0
SEQEND
0
POLYLINE
66
1
8
1_copper
10
0.0
20
0.0
30
0.0
70
1
0
VERTEX
8
0
10
7.107418750000001
20
45.065959375000006
30
0
42
0.9063462356499619
0
VERTEX
8
0
10
7.04284375
20
46.3804
30
0
0
VERTEX
8
0
10
5.65715625
20
46.3804
30
0
42
0.9520786018124834
0
VERTEX
8
0
10
5.65715625
20
45.0596
30
0
0
VERTEX
8
0
10
7.04284375
20
45.0596
30
0
0
SEQEND
0
POLYLINE
66
1
8
1_copper
10
0.0
20
0.0
30
0.0
70
1
0
VERTEX
8
0
10
7.107418750000001
20
42.525959375
30
0
42
0.9063462356499619
0
VERTEX
8
0
10
7.04284375
20
43.8404
30
0
0
VERTEX
8
0
10
5.65715625
20
43.8404
30
0
42
0.9520786018124834
0
VERTEX
8
0
10
5.65715625
20
42.519600000000004
30
0
0
VERTEX
8
0
10
7.04284375
20
42.519600000000004
30
0
0
SEQEND
0
POLYLINE
66
1
8
1_copper
10
0.0
20
0.0
30
0.0
70
1
0
VERTEX
8
0
10
7.107418750000001
20
32.365959375
30
0
42
0.9063462356499619
0
VERTEX
8
0
10
7.04284375
20
33.6804
30
0
0
VERTEX
8
0
10
5.65715625
20
33.6804
30
0
42
0.9520786018124834
0
VERTEX
8
0
10
5.65715625
20
32.3596
30
0
0
VERTEX
8
0
10
7.04284375
20
32.3596
30
0
0
SEQEND
0
POLYLINE
66
1
8
1_copper
10
0.0
20
0.0
30
0.0
70
1
0
VERTEX
8
0
10
7.107418750000001
20
29.825959375
30
0
42
0.9063462356499619
0
VERTEX
8
0
10
7.04284375
20
31.140400000000003
30
0
0
VERTEX
8
0
10
5.65715625
20
31.140400000000003
30
0
42
0.9520786018124834
0
VERTEX
8
0
10
5.65715625
20
29.8196
30
0
0
VERTEX
8
0
10
7.04284375
20
29.8196
30
0
0
SEQEND
0
POLYLINE
66
1
8
1_copper
10
0.0
20
0.0
30
0.0
70
1
0
VERTEX
8
0
10
14.72741875
20
27.285959375
30
0
42
0.9063462356499619
0
VERTEX
8
0
10
14.66284375
20
28.6004
30
0
0
VERTEX
8
0
10
13.27715625
20
28.6004
30
0
42
0.9520786018124834
0
VERTEX
8
0
10
13.27715625
20
27.279600000000002
30
0
0
VERTEX
8
0
10
14.66284375
20
27.279600000000002
30
0
0
SEQEND
0
POLYLINE
66
1
8
1_copper
10
0.0
20
0.0
30
0.0
70
1
0
VERTEX
8
0
10
21.1582
20
22.51280625
30
0
0
VERTEX
8
0
10
21.1582
20
23.207193750000002
30
0
0
VERTEX
8
0
10
20.667193750000003
20
23.6982
30
0
0
VERTEX
8
0
10
19.97280625
20
23.6982
30
0
0
VERTEX
8
0
10
19.4818
20
23.207193750000002
30
0
0
VERTEX
8
0
10
19.4818
20
22.51280625
30
0
0
VERTEX
8
0
10
19.97280625
20
22.021800000000002
30
0
0
VERTEX
8
0
10
20.667193750000003
20
22.021800000000002
30
0
0
SEQEND
0
POLYLINE
66
1
8
1_copper
10
0.0
20
0.0
30
0.0
70
1
0
VERTEX
8
0
10
21.1582
20
19.97280625
30
0
0
VERTEX
8
0
10
21.1582
20
20.667193750000003
30
0
0
VERTEX
8
0
10
20.667193750000003
20
21.1582
30
0
0
VERTEX
8
0
10
19.97280625
20
21.1582
30
0
0
VERTEX
8
0
10
19.4818
20
20.667193750000003
30
0
0
VERTEX
8
0
10
19.4818
20
19.97280625
30
0
0
VERTEX
8
0
10
19.97280625
20
19.4818
30
0
0
VERTEX
8
0
10
20.667193750000003
20
19.4818
30
0
0
SEQEND
0
POLYLINE
66
1
8
1_copper
10
0.0
20
0.0
30
0.0
70
1
0
VERTEX
8
0
10
21.1582
20
17.432806250000002
30
0
0
VERTEX
8
0
10
21.1582
20
18.12719375
30
0
0
VERTEX
8
0
10
20.667193750000003
20
18.6182
30
0
0
VERTEX
8
0
10
19.97280625
20
18.6182
30
0
0
VERTEX
8
0
10
19.4818
20
18.12719375
30
0
0
VERTEX
8
0
10
19.4818
20
17.432806250000002
30
0
0
VERTEX
8
0
10
19.97280625
20
16.9418
30
0
0
VERTEX
8
0
10
20.667193750000003
20
16.9418
30
0
0
SEQEND
0
POLYLINE
66
1
8
1_copper
10
0.0
20
0.0
30
0.0
70
1
0
VERTEX
8
0
10
3.3782
20
14.892806250000001
30
0
0
VERTEX
8
0
10
3.3782
20
15.58719375
30
0
0
VERTEX
8
0
10
2.8871937500000002
20
16.078200000000002
30
0
0
VERTEX
8
0
10
2.1928062500000003
20
16.078200000000002
30
0
0
VERTEX
8
0
10
1.7018
20
15.58719375
30
0
0
VERTEX
8
0
10
1.7018
20
14.892806250000001
30
0
0
VERTEX
8
0
10
2.1928062500000003
20
14.401800000000001
30
0
0
VERTEX
8
0
10
2.8871937500000002
20
14.401800000000001
30
0
0
SEQEND
0
POLYLINE
66
1
8
1_copper
10
0.0
20
0.0
30
0.0
70
1
0
VERTEX
8
0
10
21.1582
20
14.892806250000001
30
0
0
VERTEX
8
0
10
21.1582
20
15.58719375
30
0
0
VERTEX
8
0
10
20.667193750000003
20
16.078200000000002
30
0
0
VERTEX
8
0
10
19.97280625
20
16.078200000000002
30
0
0
VERTEX
8
0
10
19.4818
20
15.58719375
30
0
0
VERTEX
8
0
10
19.4818
20
14.892806250000001
30
0
0
VERTEX
8
0
10
19.97280625
20
14.401800000000001
30
0
0
VERTEX
8
0
10
20.667193750000003
20
14.401800000000001
30
0
0
SEQEND
0
POLYLINE
66
1
8
1_copper
10
0.0
20
0.0
30
0.0
70
1
0
VERTEX
8
0
10
3.3782
20
12.35280625
30
0
0
VERTEX
8
0
10
3.3782
20
13.04719375
30
0
0
VERTEX
8
0
10
2.8871937500000002
20
13.5382
30
0
0
VERTEX
8
0
10
2.1928062500000003
20
13.5382
30
0
0
VERTEX
8
0
10
1.7018
20
13.04719375
30
0
0
VERTEX
8
0
10
1.7018
20
12.35280625
30
0
0
VERTEX
8
0
10
2.1928062500000003
20
11.8618
30
0
0
VERTEX
8
0
10
2.8871937500000002
20
11.8618
30
0
0
SEQEND
0
POLYLINE
66
1
8
1_copper
10
0.0
20
0.0
30
0.0
70
1
0
VERTEX
8
0
10
21.1582
20
12.35280625
30
0
0
VERTEX
8
0
10
21.1582
20
13.04719375
30
0
0
VERTEX
8
0
10
20.667193750000003
20
13.5382
30
0
0
VERTEX
8
0
10
19.97280625
20
13.5382
30
0
0
VERTEX
8
0
10
19.4818
20
13.04719375
30
0
0
VERTEX
8
0
10
19.4818
20
12.35280625
30
0
0
VERTEX
8
0
10
19.97280625
20
11.8618
30
0
0
VERTEX
8
0
10
20.667193750000003
20
11.8618
30
0
0
SEQEND
0
POLYLINE
66
1
8
1_copper
10
0.0
20
0.0
30
0.0
70
1
0
VERTEX
8
0
10
21.1582
20
9.812806250000001
30
0
0
VERTEX
8
0
10
21.1582
20
10.50719375
30
0
0
VERTEX
8
0
10
20.667193750000003
20
10.9982
30
0
0
VERTEX
8
0
10
19.97280625
20
10.9982
30
0
0
VERTEX
8
0
10
19.4818
20
10.50719375
30
0
0
VERTEX
8
0
10
19.4818
20
9.812806250000001
30
0
0
VERTEX
8
0
10
19.97280625
20
9.3218
30
0
0
VERTEX
8
0
10
20.667193750000003
20
9.3218
30
0
0
SEQEND
0
POLYLINE
66
1
8
1_copper
10
0.0
20
0.0
30
0.0
70
1
0
VERTEX
8
0
10
21.1582
20
7.27280625
30
0
0
VERTEX
8
0
10
21.1582
20
7.967193750000001
30
0
0
VERTEX
8
0
10
20.667193750000003
20
8.4582
30
0
0
VERTEX
8
0
10
19.97280625
20
8.4582
30
0
0
VERTEX
8
0
10
19.4818
20
7.967193750000001
30
0
0
VERTEX
8
0
10
19.4818
20
7.27280625
30
0
0
VERTEX
8
0
10
19.97280625
20
6.7818000000000005
30
0
0
VERTEX
8
0
10
20.667193750000003
20
6.7818000000000005
30
0
0
SEQEND
0
POLYLINE
66
1
8
1_copper
10
0.0
20
0.0
30
0.0
70
1
0
VERTEX
8
0
10
21.1582
20
4.73280625
30
0
0
VERTEX
8
0
10
21.1582
20
5.42719375
30
0
0
VERTEX
8
0
10
20.667193750000003
20
5.918200000000001
30
0
0
VERTEX
8
0
10
19.97280625
20
5.918200000000001
30
0
0
VERTEX
8
0
10
19.4818
20
5.42719375
30
0
0
VERTEX
8
0
10
19.4818
20
4.73280625
30
0
0
VERTEX
8
0
10
19.97280625
20
4.2418000000000005
30
0
0
VERTEX
8
0
10
20.667193750000003
20
4.2418000000000005
30
0
0
SEQEND
0
POLYLINE
66
1
8
16_copper
10
0.0
20
0.0
30
0.0
70
1
0
VERTEX
8
0
10
7.107418750000001
20
45.065959375000006
30
0
42
0.9063462356499619
0
VERTEX
8
0
10
7.04284375
20
46.3804
30
0
0
VERTEX
8
0
10
5.65715625
20
46.3804
30
0
42
0.9520786018124834
0
VERTEX
8
0
10
5.65715625
20
45.0596
30
0
0
VERTEX
8
0
10
7.04284375
20
45.0596
30
0
0
SEQEND
0
POLYLINE
66
1
8
16_copper
10
0.0
20
0.0
30
0.0
70
1
0
VERTEX
8
0
10
7.107418750000001
20
42.525959375
30
0
42
0.9063462356499619
0
VERTEX
8
0
10
7.04284375
20
43.8404
30
0
0
VERTEX
8
0
10
5.65715625
20
43.8404
30
0
42
0.9520786018124834
0
VERTEX
8
0
10
5.65715625
20
42.519600000000004
30
0
0
VERTEX
8
0
10
7.04284375
20
42.519600000000004
30
0
0
SEQEND
0
POLYLINE
66
1
8
16_copper
10
0.0
20
0.0
30
0.0
70
1
0
VERTEX
8
0
10
7.107418750000001
20
32.365959375
30
0
42
0.9063462356499619
0
VERTEX
8
0
10
7.04284375
20
33.6804
30
0
0
VERTEX
8
0
10
5.65715625
20
33.6804
30
0
42
0.9520786018124834
0
VERTEX
8
0
10
5.65715625
20
32.3596
30
0
0
VERTEX
8
0
10
7.04284375
20
32.3596
30
0
0
SEQEND
0
POLYLINE
66
1
8
16_copper
10
0.0
20
0.0
30
0.0
70
1
0
VERTEX
8
0
10
7.107418750000001
20
29.825959375
30
0
42
0.9063462356499619
0
VERTEX
8
0
10
7.04284375
20
31.140400000000003
30
0
0
VERTEX
8
0
10
5.65715625
20
31.140400000000003
30
0
42
0.9520786018124834
0
VERTEX
8
0
10
5.65715625
20
29.8196
30
0
0
VERTEX
8
0
10
7.04284375
20
29.8196
30
0
0
SEQEND
0
POLYLINE
66
1
8
16_copper
10
0.0
20
0.0
30
0.0
70
1
0
VERTEX
8
0
10
14.72741875
20
27.285959375
30
0
42
0.9063462356499619
0
VERTEX
8
0
10
14.66284375
20
28.6004
30
0
0
VERTEX
8
0
10
13.27715625
20
28.6004
30
0
42
0.9520786018124834
0
VERTEX
8
0
10
13.27715625
20
27.279600000000002
30
0
0
VERTEX
8
0
10
14.66284375
20
27.279600000000002
30
0
0
SEQEND
0
POLYLINE
66
1
8
16_copper
10
0.0
20
0.0
30
0.0
70
1
0
VERTEX
8
0
10
21.1582
20
22.51280625
30
0
0
VERTEX
8
0
10
21.1582
20
23.207193750000002
30
0
0
VERTEX
8
0
10
20.667193750000003
20
23.6982
30
0
0
VERTEX
8
0
10
19.97280625
20
23.6982
30
0
0
VERTEX
8
0
10
19.4818
20
23.207193750000002
30
0
0
VERTEX
8
0
10
19.4818
20
22.51280625
30
0
0
VERTEX
8
0
10
19.97280625
20
22.021800000000002
30
0
0
VERTEX
8
0
10
20.667193750000003
20
22.021800000000002
30
0
0
SEQEND
0
POLYLINE
66
1
8
16_copper
10
0.0
20
0.0
30
0.0
70
1
0
VERTEX
8
0
10
21.1582
20
19.97280625
30
0
0
VERTEX
8
0
10
21.1582
20
20.667193750000003
30
0
0
VERTEX
8
0
10
20.667193750000003
20
21.1582
30
0
0
VERTEX
8
0
10
19.97280625
20
21.1582
30
0
0
VERTEX
8
0
10
19.4818
20
20.667193750000003
30
0
0
VERTEX
8
0
10
19.4818
20
19.97280625
30
0
0
VERTEX
8
0
10
19.97280625
20
19.4818
30
0
0
VERTEX
8
0
10
20.667193750000003
20
19.4818
30
0
0
SEQEND
0
POLYLINE
66
1
8
16_copper
10
0.0
20
0.0
30
0.0
70
1
0
VERTEX
8
0
10
21.1582
20
17.432806250000002
30
0
0
VERTEX
8
0
10
21.1582
20
18.12719375
30
0
0
VERTEX
8
0
10
20.667193750000003
20
18.6182
30
0
0
VERTEX
8
0
10
19.97280625
20
18.6182
30
0
0
VERTEX
8
0
10
19.4818
20
18.12719375
30
0
0
VERTEX
8
0
10
19.4818
20
17.432806250000002
30
0
0
VERTEX
8
0
10
19.97280625
20
16.9418
30
0
0
VERTEX
8
0
10
20.667193750000003
20
16.9418
30
0
0
SEQEND
0
POLYLINE
66
1
8
16_copper
10
0.0
20
0.0
30
0.0
70
1
0
VERTEX
8
0
10
3.3782
20
14.892806250000001
30
0
0
VERTEX
8
0
10
3.3782
20
15.58719375
30
0
0
VERTEX
8
0
10
2.8871937500000002
20
16.078200000000002
30
0
0
VERTEX
8
0
10
2.1928062500000003
20
16.078200000000002
30
0
0
VERTEX
8
0
10
1.7018
20
15.58719375
30
0
0
VERTEX
8
0
10
1.7018
20
14.892806250000001
30
0
0
VERTEX
8
0
10
2.1928062500000003
20
14.401800000000001
30
0
0
VERTEX
8
0
10
2.8871937500000002
20
14.401800000000001
30
0
0
SEQEND
0
POLYLINE
66
1
8
16_copper
10
0.0
20
0.0
30
0.0
70
1
0
VERTEX
8
0
10
21.1582
20
14.892806250000001
30
0
0
VERTEX
8
0
10
21.1582
20
15.58719375
30
0
0
VERTEX
8
0
10
20.667193750000003
20
16.078200000000002
30
0
0
VERTEX
8
0
10
19.97280625
20
16.078200000000002
30
0
0
VERTEX
8
0
10
19.4818
20
15.58719375
30
0
0
VERTEX
8
0
10
19.4818
20
14.892806250000001
30
0
0
VERTEX
8
0
10
19.97280625
20
14.401800000000001
30
0
0
VERTEX
8
0
10
20.667193750000003
20
14.401800000000001
30
0
0
SEQEND
0
POLYLINE
66
1
8
16_copper
10
0.0
20
0.0
30
0.0
70
1
0
VERTEX
8
0
10
3.3782
20
12.35280625
30
0
0
VERTEX
8
0
10
3.3782
20
13.04719375
30
0
0
VERTEX
8
0
10
2.8871937500000002
20
13.5382
30
0
0
VERTEX
8
0
10
2.1928062500000003
20
13.5382
30
0
0
VERTEX
8
0
10
1.7018
20
13.04719375
30
0
0
VERTEX
8
0
10
1.7018
20
12.35280625
30
0
0
VERTEX
8
0
10
2.1928062500000003
20
11.8618
30
0
0
VERTEX
8
0
10
2.8871937500000002
20
11.8618
30
0
0
SEQEND
0
POLYLINE
66
1
8
16_copper
10
0.0
20
0.0
30
0.0
70
1
0
VERTEX
8
0
10
21.1582
20
12.35280625
30
0
0
VERTEX
8
0
10
21.1582
20
13.04719375
30
0
0
VERTEX
8
0
10
20.667193750000003
20
13.5382
30
0
0
VERTEX
8
0
10
19.97280625
20
13.5382
30
0
0
VERTEX
8
0
10
19.4818
20
13.04719375
30
0
0
VERTEX
8
0
10
19.4818
20
12.35280625
30
0
0
VERTEX
8
0
10
19.97280625
20
11.8618
30
0
0
VERTEX
8
0
10
20.667193750000003
20
11.8618
30
0
0
SEQEND
0
POLYLINE
66
1
8
16_copper
10
0.0
20
0.0
30
0.0
70
1
0
VERTEX
8
0
10
21.1582
20
9.812806250000001
30
0
0
VERTEX
8
0
10
21.1582
20
10.50719375
30
0
0
VERTEX
8
0
10
20.667193750000003
20
10.9982
30
0
0
VERTEX
8
0
10
19.97280625
20
10.9982
30
0
0
VERTEX
8
0
10
19.4818
20
10.50719375
30
0
0
VERTEX
8
0
10
19.4818
20
9.812806250000001
30
0
0
VERTEX
8
0
10
19.97280625
20
9.3218
30
0
0
VERTEX
8
0
10
20.667193750000003
20
9.3218
30
0
0
SEQEND
0
POLYLINE
66
1
8
16_copper
10
0.0
20
0.0
30
0.0
70
1
0
VERTEX
8
0
10
21.1582
20
7.27280625
30
0
0
VERTEX
8
0
10
21.1582
20
7.967193750000001
30
0
0
VERTEX
8
0
10
20.667193750000003
20
8.4582
30
0
0
VERTEX
8
0
10
19.97280625
20
8.4582
30
0
0
VERTEX
8
0
10
19.4818
20
7.967193750000001
30
0
0
VERTEX
8
0
10
19.4818
20
7.27280625
30
0
0
VERTEX
8
0
10
19.97280625
20
6.7818000000000005
30
0
0
VERTEX
8
0
10
20.667193750000003
20
6.7818000000000005
30
0
0
SEQEND
0
POLYLINE
66
1
8
16_copper
10
0.0
20
0.0
30
0.0
70
1
0
VERTEX
8
0
10
21.1582
20
4.73280625
30
0
0
VERTEX
8
0
10
21.1582
20
5.42719375
30
0
0
VERTEX
8
0
10
20.667193750000003
20
5.918200000000001
30
0
0
VERTEX
8
0
10
19.97280625
20
5.918200000000001
30
0
0
VERTEX
8
0
10
19.4818
20
5.42719375
30
0
0
VERTEX
8
0
10
19.4818
20
4.73280625
30
0
0
VERTEX
8
0
10
19.97280625
20
4.2418000000000005
30
0
0
VERTEX
8
0
10
20.667193750000003
20
4.2418000000000005
30
0
0
SEQEND
0
POLYLINE
66
1
8
1_copper
10
0.0
20
0.0
30
0.0
70
1
0
VERTEX
8
0
10
14.72741875
20
34.905959375
30
0
42
0.9063462356499619
0
VERTEX
8
0
10
14.66284375
20
36.220400000000005
30
0
0
VERTEX
8
0
10
13.27715625
20
36.220400000000005
30
0
42
0.9520786018124834
0
VERTEX
8
0
10
13.27715625
20
34.8996
30
0
0
VERTEX
8
0
10
14.66284375
20
34.8996
30
0
0
SEQEND
0
POLYLINE
66
1
8
16_copper
10
0.0
20
0.0
30
0.0
70
1
0
VERTEX
8
0
10
14.72741875
20
34.905959375
30
0
42
0.9063462356499619
0
VERTEX
8
0
10
14.66284375
20
36.220400000000005
30
0
0
VERTEX
8
0
10
13.27715625
20
36.220400000000005
30
0
42
0.9520786018124834
0
VERTEX
8
0
10
13.27715625
20
34.8996
30
0
0
VERTEX
8
0
10
14.66284375
20
34.8996
30
0
0
SEQEND
0
POLYLINE
66
1
8
1_copper
10
0.0
20
0.0
30
0.0
70
1
0
VERTEX
8
0
10
14.72741875
20
37.445959375
30
0
42
0.9063462356499619
0
VERTEX
8
0
10
14.66284375
20
38.760400000000004
30
0
0
VERTEX
8
0
10
13.27715625
20
38.760400000000004
30
0
42
0.9520786018124834
0
VERTEX
8
0
10
13.27715625
20
37.4396
30
0
0
VERTEX
8
0
10
14.66284375
20
37.4396
30
0
0
SEQEND
0
POLYLINE
66
1
8
16_copper
10
0.0
20
0.0
30
0.0
70
1
0
VERTEX
8
0
10
14.72741875
20
37.445959375
30
0
42
0.9063462356499619
0
VERTEX
8
0
10
14.66284375
20
38.760400000000004
30
0
0
VERTEX
8
0
10
13.27715625
20
38.760400000000004
30
0
42
0.9520786018124834
0
VERTEX
8
0
10
13.27715625
20
37.4396
30
0
0
VERTEX
8
0
10
14.66284375
20
37.4396
30
0
0
SEQEND
0
POLYLINE
66
1
8
1_copper
10
0.0
20
0.0
30
0.0
70
1
0
VERTEX
8
0
10
7.107418750000001
20
34.905959375
30
0
42
0.9063462356499619
0
VERTEX
8
0
10
7.04284375
20
36.220400000000005
30
0
0
VERTEX
8
0
10
5.65715625
20
36.220400000000005
30
0
42
0.9520786018124834
0
VERTEX
8
0
10
5.65715625
20
34.8996
30
0
0
VERTEX
8
0
10
7.04284375
20
34.8996
30
0
0
SEQEND
0
POLYLINE
66
1
8
16_copper
10
0.0
20
0.0
30
0.0
70
1
0
VERTEX
8
0
10
7.107418750000001
20
34.905959375
30
0
42
0.9063462356499619
0
VERTEX
8
0
10
7.04284375
20
36.220400000000005
30
0
0
VERTEX
8
0
10
5.65715625
20
36.220400000000005
30
0
42
0.9520786018124834
0
VERTEX
8
0
10
5.65715625
20
34.8996
30
0
0
VERTEX
8
0
10
7.04284375
20
34.8996
30
0
0
SEQEND
0
POLYLINE
66
1
8
1_copper
10
0.0
20
0.0
30
0.0
70
1
0
VERTEX
8
0
10
7.107418750000001
20
37.445959375
30
0
42
0.9063462356499619
0
VERTEX
8
0
10
7.04284375
20
38.760400000000004
30
0
0
VERTEX
8
0
10
5.65715625
20
38.760400000000004
30
0
42
0.9520786018124834
0
VERTEX
8
0
10
5.65715625
20
37.4396
30
0
0
VERTEX
8
0
10
7.04284375
20
37.4396
30
0
0
SEQEND
0
POLYLINE
66
1
8
16_copper
10
0.0
20
0.0
30
0.0
70
1
0
VERTEX
8
0
10
7.107418750000001
20
37.445959375
30
0
42
0.9063462356499619
0
VERTEX
8
0
10
7.04284375
20
38.760400000000004
30
0
0
VERTEX
8
0
10
5.65715625
20
38.760400000000004
30
0
42
0.9520786018124834
0
VERTEX
8
0
10
5.65715625
20
37.4396
30
0
0
VERTEX
8
0
10
7.04284375
20
37.4396
30
0
0
SEQEND
0
POLYLINE
66
1
8
1_copper
10
0.0
20
0.0
30
0.0
70
1
0
VERTEX
8
0
10
31.926646875000003
20
25.325640625000002
30
0
0
VERTEX
8
0
10
31.946228125
20
25.3329625
30
0
0
VERTEX
8
0
10
32.040228125
20
25.3837625
30
0
42
0.07261297362967929
0
VERTEX
8
0
10
32.05788125
20
25.39691875
30
0
0
VERTEX
8
0
10
35.248509375000005
20
28.587546875
30
0
0
VERTEX
8
0
10
35.28645625
20
28.5496
30
0
0
VERTEX
8
0
10
35.833543750000004
20
28.5496
30
0
0
VERTEX
8
0
10
36.220400000000005
20
28.936456250000003
30
0
0
VERTEX
8
0
10
36.220400000000005
20
29.483543750000003
30
0
0
VERTEX
8
0
10
35.833543750000004
20
29.8704
30
0
0
VERTEX
8
0
10
35.28645625
20
29.8704
30
0
0
VERTEX
8
0
10
34.8996
20
29.483543750000003
30
0
0
VERTEX
8
0
10
34.8996
20
28.936456250000003
30
0
0
VERTEX
8
0
10
35.140746875000005
20
28.695309375
30
0
0
VERTEX
8
0
10
31.9579875
20
25.51255
30
0
0
VERTEX
8
0
10
31.873771875000003
20
25.4670375
30
0
0
VERTEX
8
0
10
31.856296875
20
25.454059375
30
0
0
VERTEX
8
0
10
31.843203125000002
20
25.436668750000003
30
0
0
VERTEX
8
0
10
31.8355625
20
25.416287500000003
30
0
0
VERTEX
8
0
10
31.83399375
20
25.394578125000002
30
0
0
VERTEX
8
0
10
31.838628125000003
20
25.373309375
30
0
0
VERTEX
8
0
10
31.849084375
20
25.35421875
30
0
0
VERTEX
8
0
10
31.864515625000003
20
25.338865625
30
0
0
VERTEX
8
0
10
31.88365625
20
25.328500000000002
30
0
0
VERTEX
8
0
10
31.90494375
20
25.323968750000002
30
0
0
SEQEND
0
POLYLINE
66
1
8
16_copper
10
0.0
20
0.0
30
0.0
70
1
0
VERTEX
8
0
10
36.220400000000005
20
28.936456250000003
30
0
0
VERTEX
8
0
10
36.220400000000005
20
29.483543750000003
30
0
0
VERTEX
8
0
10
35.833543750000004
20
29.8704
30
0
0
VERTEX
8
0
10
35.28645625
20
29.8704
30
0
0
VERTEX
8
0
10
34.8996
20
29.483543750000003
30
0
0
VERTEX
8
0
10
34.8996
20
28.936456250000003
30
0
0
VERTEX
8
0
10
35.28645625
20
28.5496
30
0
0
VERTEX
8
0
10
35.833543750000004
20
28.5496
30
0
0
SEQEND
0
POLYLINE
66
1
8
1_copper
10
0.0
20
0.0
30
0.0
70
1
0
VERTEX
8
0
10
2.056753125
20
27.445765625
30
0
0
VERTEX
8
0
10
2.084053125
20
27.457071875
30
0
0
VERTEX
8
0
10
2.10861875
20
27.4734875
30
0
0
VERTEX
8
0
10
2.1295125
20
27.49438125
30
0
0
VERTEX
8
0
10
2.145928125
20
27.518946875
30
0
0
VERTEX
8
0
10
2.1572343750000003
20
27.546246875
30
0
0
VERTEX
8
0
10
2.1630000000000003
20
27.575225
30
0
0
VERTEX
8
0
10
2.1630000000000003
20
27.972103125
30
0
42
0.09659584450360474
0
VERTEX
8
0
10
2.1874812500000003
20
27.987718750000003
30
0
0
VERTEX
8
0
10
3.3843625
20
29.1846
30
0
0
VERTEX
8
0
10
17.119600000000002
20
29.1846
30
0
0
VERTEX
8
0
10
17.119600000000002
20
28.936456250000003
30
0
0
VERTEX
8
0
10
17.50645625
20
28.5496
30
0
0
VERTEX
8
0
10
18.05354375
20
28.5496
30
0
0
VERTEX
8
0
10
18.4404
20
28.936456250000003
30
0
0
VERTEX
8
0
10
18.4404
20
29.483543750000003
30
0
0
VERTEX
8
0
10
18.05354375
20
29.8704
30
0
0
VERTEX
8
0
10
17.50645625
20
29.8704
30
0
0
VERTEX
8
0
10
17.119600000000002
20
29.483543750000003
30
0
0
VERTEX
8
0
10
17.119600000000002
20
29.337
30
0
0
VERTEX
8
0
10
3.3528000000000002
20
29.337
30
0
42
0.198912367379658
0
VERTEX
8
0
10
3.2989187500000003
20
29.314681250000003
30
0
0
VERTEX
8
0
10
2.1630000000000003
20
28.1787625
30
0
0
VERTEX
8
0
10
2.1630000000000003
20
28.304775000000003
30
0
0
VERTEX
8
0
10
2.1572343750000003
20
28.333753125
30
0
0
VERTEX
8
0
10
2.145928125
20
28.361053125
30
0
0
VERTEX
8
0
10
2.1295125
20
28.385618750000003
30
0
0
VERTEX
8
0
10
2.10861875
20
28.4065125
30
0
0
VERTEX
8
0
10
2.084053125
20
28.422928125000002
30
0
0
VERTEX
8
0
10
2.056753125
20
28.434234375000003
30
0
0
VERTEX
8
0
10
2.027775
20
28.44
30
0
0
VERTEX
8
0
10
1.298225
20
28.44
30
0
0
VERTEX
8
0
10
1.269246875
20
28.434234375000003
30
0
0
VERTEX
8
0
10
1.241946875
20
28.422928125000002
30
0
0
VERTEX
8
0
10
1.21738125
20
28.4065125
30
0
0
VERTEX
8
0
10
1.1964875000000001
20
28.385618750000003
30
0
0
VERTEX
8
0
10
1.180071875
20
28.361053125
30
0
0
VERTEX
8
0
10
1.168765625
20
28.333753125
30
0
0
VERTEX
8
0
10
1.163
20
28.304775000000003
30
0
0
VERTEX
8
0
10
1.163
20
27.575225
30
0
0
VERTEX
8
0
10
1.168765625
20
27.546246875
30
0
0
VERTEX
8
0
10
1.180071875
20
27.518946875
30
0
0
VERTEX
8
0
10
1.1964875000000001
20
27.49438125
30
0
0
VERTEX
8
0
10
1.21738125
20
27.4734875
30
0
0
VERTEX
8
0
10
1.241946875
20
27.457071875
30
0
0
VERTEX
8
0
10
1.269246875
20
27.445765625
30
0
0
VERTEX
8
0
10
1.298225
20
27.44
30
0
0
VERTEX
8
0
10
2.027775
20
27.44
30
0
0
SEQEND
0
POLYLINE
66
1
8
16_copper
10
0.0
20
0.0
30
0.0
70
1
0
VERTEX
8
0
10
18.4404
20
28.936456250000003
30
0
0
VERTEX
8
0
10
18.4404
20
29.483543750000003
30
0
0
VERTEX
8
0
10
18.05354375
20
29.8704
30
0
0
VERTEX
8
0
10
17.50645625
20
29.8704
30
0
0
VERTEX
8
0
10
17.119600000000002
20
29.483543750000003
30
0
0
VERTEX
8
0
10
17.119600000000002
20
28.936456250000003
30
0
0
VERTEX
8
0
10
17.50645625
20
28.5496
30
0
0
VERTEX
8
0
10
18.05354375
20
28.5496
30
0
0
SEQEND
0
POLYLINE
66
1
8
1_copper
10
0.0
20
0.0
30
0.0
70
1
0
VERTEX
8
0
10
3.731540625
20
34.070671875
30
0
42
0.9999999999999999
0
VERTEX
8
0
10
3.5836593750000003
20
34.814128125
30
0
0
VERTEX
8
0
10
3.5814000000000004
20
34.813521875
30
0
0
VERTEX
8
0
10
3.5814000000000004
20
35.06
30
0
0
VERTEX
8
0
10
3.781775
20
35.06
30
0
0
VERTEX
8
0
10
3.810753125
20
35.065765625000004
30
0
0
VERTEX
8
0
10
3.838053125
20
35.077071875
30
0
0
VERTEX
8
0
10
3.86261875
20
35.0934875
30
0
0
VERTEX
8
0
10
3.8835125
20
35.11438125
30
0
0
VERTEX
8
0
10
3.899928125
20
35.138946875
30
0
0
VERTEX
8
0
10
3.9112343750000003
20
35.166246875
30
0
0
VERTEX
8
0
10
3.9170000000000003
20
35.195225
30
0
0
VERTEX
8
0
10
3.9170000000000003
20
35.924775000000004
30
0
0
VERTEX
8
0
10
3.9112343750000003
20
35.953753125
30
0
0
VERTEX
8
0
10
3.899928125
20
35.981053125
30
0
0
VERTEX
8
0
10
3.8835125
20
36.005618750000004
30
0
0
VERTEX
8
0
10
3.86261875
20
36.0265125
30
0
0
VERTEX
8
0
10
3.838053125
20
36.042928125
30
0
0
VERTEX
8
0
10
3.810753125
20
36.054234375
30
0
0
VERTEX
8
0
10
3.781775
20
36.06
30
0
0
VERTEX
8
0
10
3.4290000000000003
20
36.06
30
0
0
VERTEX
8
0
10
3.4290000000000003
20
36.576
30
0
42
0.198912367379658
0
VERTEX
8
0
10
3.40668125
20
36.629881250000004
30
0
0
VERTEX
8
0
10
1.6002
20
38.4363625
30
0
0
VERTEX
8
0
10
1.6002
20
41.1164375
30
0
0
VERTEX
8
0
10
2.0237625
20
41.54
30
0
0
VERTEX
8
0
10
3.24
20
41.54
30
0
0
VERTEX
8
0
10
3.24
20
42.74
30
0
0
VERTEX
8
0
10
3.2237625000000003
20
42.74
30
0
0
VERTEX
8
0
10
4.6035625
20
44.119800000000005
30
0
0
VERTEX
8
0
10
14.478000000000002
20
44.119800000000005
30
0
42
0.198912367379658
0
VERTEX
8
0
10
14.531881250000001
20
44.14211875
30
0
0
VERTEX
8
0
10
15.2715625
20
44.881800000000005
30
0
0
VERTEX
8
0
10
20.694837500000002
20
44.881800000000005
30
0
0
VERTEX
8
0
10
22.348918750000003
20
43.22771875
30
0
42
0.198912367379658
0
VERTEX
8
0
10
22.402800000000003
20
43.205400000000004
30
0
0
VERTEX
8
0
10
32.308800000000005
20
43.205400000000004
30
0
0
VERTEX
8
0
10
32.308800000000005
20
42.433862500000004
30
0
42
0.9520811731250587
0
VERTEX
8
0
10
33.7312
20
42.433862500000004
30
0
0
VERTEX
8
0
10
33.7312
20
43.9261375
30
0
42
0.9520811731250587
0
VERTEX
8
0
10
32.308800000000005
20
43.9261375
30
0
0
VERTEX
8
0
10
32.308800000000005
20
43.357800000000005
30
0
0
VERTEX
8
0
10
22.434362500000002
20
43.357800000000005
30
0
0
VERTEX
8
0
10
20.78028125
20
45.01188125
30
0
42
0.198912367379658
0
VERTEX
8
0
10
20.7264
20
45.034200000000006
30
0
0
VERTEX
8
0
10
15.24
20
45.034200000000006
30
0
42
0.198912367379658
0
VERTEX
8
0
10
15.18611875
20
45.01188125
30
0
0
VERTEX
8
0
10
14.4464375
20
44.272200000000005
30
0
0
VERTEX
8
0
10
4.572
20
44.272200000000005
30
0
42
0.198912367379658
0
VERTEX
8
0
10
4.51811875
20
44.24988125
30
0
0
VERTEX
8
0
10
3.0082375000000003
20
42.74
30
0
0
VERTEX
8
0
10
1.84
20
42.74
30
0
0
VERTEX
8
0
10
1.84
20
41.571762500000006
30
0
0
VERTEX
8
0
10
1.4701187500000001
20
41.20188125
30
0
42
0.198912367379658
0
VERTEX
8
0
10
1.4478
20
41.148
30
0
0
VERTEX
8
0
10
1.4478
20
38.4048
30
0
42
0.198912367379658
0
VERTEX
8
0
10
1.4701187500000001
20
38.350918750000005
30
0
0
VERTEX
8
0
10
3.2766
20
36.5444375
30
0
0
VERTEX
8
0
10
3.2766
20
36.06
30
0
0
VERTEX
8
0
10
3.052225
20
36.06
30
0
0
VERTEX
8
0
10
3.0232468750000003
20
36.054234375
30
0
0
VERTEX
8
0
10
2.995946875
20
36.042928125
30
0
0
VERTEX
8
0
10
2.9713812500000003
20
36.0265125
30
0
0
VERTEX
8
0
10
2.9504875
20
36.005618750000004
30
0
0
VERTEX
8
0
10
2.9340718750000003
20
35.981053125
30
0
0
VERTEX
8
0
10
2.9227656250000003
20
35.953753125
30
0
0
VERTEX
8
0
10
2.9170000000000003
20
35.924775000000004
30
0
0
VERTEX
8
0
10
2.9170000000000003
20
35.195225
30
0
0
VERTEX
8
0
10
2.9227656250000003
20
35.166246875
30
0
0
VERTEX
8
0
10
2.9340718750000003
20
35.138946875
30
0
0
VERTEX
8
0
10
2.9504875
20
35.11438125
30
0
0
VERTEX
8
0
10
2.9713812500000003
20
35.0934875
30
0
0
VERTEX
8
0
10
2.995946875
20
35.077071875
30
0
0
VERTEX
8
0
10
3.0232468750000003
20
35.065765625000004
30
0
0
VERTEX
8
0
10
3.052225
20
35.06
30
0
0
VERTEX
8
0
10
3.4290000000000003
20
35.06
30
0
0
VERTEX
8
0
10
3.4290000000000003
20
34.743700000000004
30
0
0
VERTEX
8
0
10
3.4077
20
34.72735625
30
0
0
VERTEX
8
0
10
3.37264375
20
34.6923
30
0
0
VERTEX
8
0
10
3.3424625000000003
20
34.65296875
30
0
0
VERTEX
8
0
10
3.3176750000000004
20
34.61003125
30
0
0
VERTEX
8
0
10
3.2987031250000003
20
34.564228125
30
0
0
VERTEX
8
0
10
3.285871875
20
34.516340625000005
30
0
0
VERTEX
8
0
10
3.2794000000000003
20
34.4671875
30
0
0
VERTEX
8
0
10
3.2794000000000003
20
34.417612500000004
30
0
0
VERTEX
8
0
10
3.285871875
20
34.368459375
30
0
0
VERTEX
8
0
10
3.2987031250000003
20
34.320571875
30
0
0
VERTEX
8
0
10
3.3176750000000004
20
34.27476875
30
0
0
VERTEX
8
0
10
3.3424625000000003
20
34.23183125
30
0
0
VERTEX
8
0
10
3.37264375
20
34.1925
30
0
0
VERTEX
8
0
10
3.4077
20
34.15744375
30
0
0
VERTEX
8
0
10
3.44703125
20
34.1272625
30
0
0
VERTEX
8
0
10
3.48996875
20
34.102475
30
0
0
VERTEX
8
0
10
3.535771875
20
34.083503125
30
0
0
VERTEX
8
0
10
3.5836593750000003
20
34.070671875
30
0
0
VERTEX
8
0
10
3.6328125
20
34.0642
30
0
0
VERTEX
8
0
10
3.6823875000000004
20
34.0642
30
0
0
SEQEND
0
POLYLINE
66
1
8
1_copper
10
0.0
20
0.0
30
0.0
70
1
0
VERTEX
8
0
10
23.99109375
20
2.4667781250000003
30
0
42
0.5446922912067678
0
VERTEX
8
0
10
24.02805
20
2.589365625
30
0
0
VERTEX
8
0
10
23.98485
20
2.6401656250000003
30
0
42
0.2199658794323761
0
VERTEX
8
0
10
23.9268
20
2.6670000000000003
30
0
0
VERTEX
8
0
10
19.3863625
20
2.6670000000000003
30
0
0
VERTEX
8
0
10
2.79708125
20
19.25628125
30
0
42
0.198912367379658
0
VERTEX
8
0
10
2.7432000000000003
20
19.2786
30
0
0
VERTEX
8
0
10
2.1651625
20
19.2786
30
0
0
VERTEX
8
0
10
1.4478
20
19.9959625
30
0
0
VERTEX
8
0
10
1.4478
20
25.8764375
30
0
0
VERTEX
8
0
10
3.01891875
20
27.44755625
30
0
0
VERTEX
8
0
10
3.0232468750000003
20
27.445765625
30
0
0
VERTEX
8
0
10
3.052225
20
27.44
30
0
0
VERTEX
8
0
10
3.781775
20
27.44
30
0
0
VERTEX
8
0
10
3.810753125
20
27.445765625
30
0
0
VERTEX
8
0
10
3.838053125
20
27.457071875
30
0
0
VERTEX
8
0
10
3.86261875
20
27.4734875
30
0
0
VERTEX
8
0
10
3.8835125
20
27.49438125
30
0
0
VERTEX
8
0
10
3.899928125
20
27.518946875
30
0
0
VERTEX
8
0
10
3.9112343750000003
20
27.546246875
30
0
0
VERTEX
8
0
10
3.9170000000000003
20
27.575225
30
0
0
VERTEX
8
0
10
3.9170000000000003
20
27.965400000000002
30
0
0
VERTEX
8
0
10
4.4196
20
27.965400000000002
30
0
42
0.198912367379658
0
VERTEX
8
0
10
4.47348125
20
27.987718750000003
30
0
0
VERTEX
8
0
10
5.3655625
20
28.879800000000003
30
0
0
VERTEX
8
0
10
16.7324375
20
28.879800000000003
30
0
0
VERTEX
8
0
10
17.47211875
20
28.140118750000003
30
0
42
0.198912367379658
0
VERTEX
8
0
10
17.526
20
28.117800000000003
30
0
0
VERTEX
8
0
10
18.1356
20
28.117800000000003
30
0
42
0.198912367379658
0
VERTEX
8
0
10
18.18948125
20
28.140118750000003
30
0
0
VERTEX
8
0
10
18.79908125
20
28.749718750000003
30
0
42
0.198912367379658
0
VERTEX
8
0
10
18.8214
20
28.803600000000003
30
0
0
VERTEX
8
0
10
18.8214
20
29.5656
30
0
42
0.198912367379658
0
VERTEX
8
0
10
18.79908125
20
29.61948125
30
0
0
VERTEX
8
0
10
16.97028125
20
31.44828125
30
0
42
0.198912367379658
0
VERTEX
8
0
10
16.9164
20
31.4706
30
0
0
VERTEX
8
0
10
3.9170000000000003
20
31.4706
30
0
0
VERTEX
8
0
10
3.9170000000000003
20
32.114775
30
0
0
VERTEX
8
0
10
3.9112343750000003
20
32.143753125
30
0
0
VERTEX
8
0
10
3.899928125
20
32.171053125
30
0
0
VERTEX
8
0
10
3.8835125
20
32.19561875
30
0
0
VERTEX
8
0
10
3.86261875
20
32.2165125
30
0
0
VERTEX
8
0
10
3.838053125
20
32.232928125
30
0
0
VERTEX
8
0
10
3.810753125
20
32.244234375000005
30
0
0
VERTEX
8
0
10
3.781775
20
32.25
30
0
0
VERTEX
8
0
10
3.4290000000000003
20
32.25
30
0
0
VERTEX
8
0
10
3.4290000000000003
20
32.547278125
30
0
42
0.9969241442347151
0
VERTEX
8
0
10
3.278859375
20
33.290128125
30
0
0
VERTEX
8
0
10
3.2309718750000003
20
33.277296875000005
30
0
42
0.7648843201253167
0
VERTEX
8
0
10
3.2766
20
32.547278125
30
0
0
VERTEX
8
0
10
3.2766
20
32.25
30
0
0
VERTEX
8
0
10
3.052225
20
32.25
30
0
0
VERTEX
8
0
10
3.0232468750000003
20
32.244234375000005
30
0
0
VERTEX
8
0
10
2.995946875
20
32.232928125
30
0
0
VERTEX
8
0
10
2.9713812500000003
20
32.2165125
30
0
0
VERTEX
8
0
10
2.9504875
20
32.19561875
30
0
0
VERTEX
8
0
10
2.9340718750000003
20
32.171053125
30
0
0
VERTEX
8
0
10
2.9227656250000003
20
32.143753125
30
0
0
VERTEX
8
0
10
2.9170000000000003
20
32.114775
30
0
0
VERTEX
8
0
10
2.9170000000000003
20
31.385225000000002
30
0
0
VERTEX
8
0
10
2.9227656250000003
20
31.356246875
30
0
0
VERTEX
8
0
10
2.9340718750000003
20
31.328946875
30
0
0
VERTEX
8
0
10
2.9504875
20
31.304381250000002
30
0
0
VERTEX
8
0
10
2.9713812500000003
20
31.283487500000003
30
0
0
VERTEX
8
0
10
2.995946875
20
31.267071875000003
30
0
0
VERTEX
8
0
10
3.0232468750000003
20
31.255765625000002
30
0
0
VERTEX
8
0
10
3.052225
20
31.25
30
0
0
VERTEX
8
0
10
3.781775
20
31.25
30
0
0
VERTEX
8
0
10
3.810753125
20
31.255765625000002
30
0
0
VERTEX
8
0
10
3.838053125
20
31.267071875000003
30
0
0
VERTEX
8
0
10
3.86261875
20
31.283487500000003
30
0
0
VERTEX
8
0
10
3.8835125
20
31.304381250000002
30
0
0
VERTEX
8
0
10
3.8927468750000003
20
31.3182
30
0
0
VERTEX
8
0
10
16.8848375
20
31.3182
30
0
0
VERTEX
8
0
10
18.669
20
29.5340375
30
0
0
VERTEX
8
0
10
18.669
20
28.835162500000003
30
0
0
VERTEX
8
0
10
18.1040375
20
28.270200000000003
30
0
0
VERTEX
8
0
10
17.5575625
20
28.270200000000003
30
0
0
VERTEX
8
0
10
16.81788125
20
29.009881250000003
30
0
42
0.198912367379658
0
VERTEX
8
0
10
16.764
20
29.032200000000003
30
0
0
VERTEX
8
0
10
5.3340000000000005
20
29.032200000000003
30
0
42
0.198912367379658
0
VERTEX
8
0
10
5.280118750000001
20
29.009881250000003
30
0
0
VERTEX
8
0
10
4.3880375
20
28.117800000000003
30
0
0
VERTEX
8
0
10
3.9170000000000003
20
28.117800000000003
30
0
0
VERTEX
8
0
10
3.9170000000000003
20
28.304775000000003
30
0
0
VERTEX
8
0
10
3.9112343750000003
20
28.333753125
30
0
0
VERTEX
8
0
10
3.899928125
20
28.361053125
30
0
0
VERTEX
8
0
10
3.8835125
20
28.385618750000003
30
0
0
VERTEX
8
0
10
3.86261875
20
28.4065125
30
0
0
VERTEX
8
0
10
3.838053125
20
28.422928125000002
30
0
0
VERTEX
8
0
10
3.810753125
20
28.434234375000003
30
0
0
VERTEX
8
0
10
3.781775
20
28.44
30
0
0
VERTEX
8
0
10
3.052225
20
28.44
30
0
0
VERTEX
8
0
10
3.0232468750000003
20
28.434234375000003
30
0
0
VERTEX
8
0
10
2.995946875
20
28.422928125000002
30
0
0
VERTEX
8
0
10
2.9713812500000003
20
28.4065125
30
0
0
VERTEX
8
0
10
2.9504875
20
28.385618750000003
30
0
0
VERTEX
8
0
10
2.9340718750000003
20
28.361053125
30
0
0
VERTEX
8
0
10
2.9227656250000003
20
28.333753125
30
0
0
VERTEX
8
0
10
2.9170000000000003
20
28.304775000000003
30
0
0
VERTEX
8
0
10
2.9170000000000003
20
27.575225
30
0
0
VERTEX
8
0
10
2.919334375
20
27.563496875000002
30
0
0
VERTEX
8
0
10
1.31771875
20
25.96188125
30
0
42
0.198912367379658
0
VERTEX
8
0
10
1.2954
20
25.908
30
0
0
VERTEX
8
0
10
1.2954
20
19.9644
30
0
42
0.198912367379658
0
VERTEX
8
0
10
1.31771875
20
19.91051875
30
0
0
VERTEX
8
0
10
2.07971875
20
19.14851875
30
0
42
0.198912367379658
0
VERTEX
8
0
10
2.1336
20
19.1262
30
0
0
VERTEX
8
0
10
2.7116375
20
19.1262
30
0
0
VERTEX
8
0
10
19.30091875
20
2.5369187500000003
30
0
42
0.198912367379658
0
VERTEX
8
0
10
19.3548
20
2.5146
30
0
0
VERTEX
8
0
10
23.89156875
20
2.5146
30
0
0
VERTEX
8
0
10
23.91195
20
2.490634375
30
0
0
VERTEX
8
0
10
23.928278125000002
20
2.4762375000000003
30
0
0
VERTEX
8
0
10
23.948006250000002
20
2.46704375
30
0
0
VERTEX
8
0
10
23.969531250000003
20
2.4638
30
0
0
SEQEND
0
POLYLINE
66
1
8
16_copper
10
0.0
20
0.0
30
0.0
70
1
0
VERTEX
8
0
10
33.12448125
20
41.764450000000004
30
0
42
0.35780600851811184
0
VERTEX
8
0
10
33.7312
20
42.433862500000004
30
0
0
VERTEX
8
0
10
33.7312
20
43.9261375
30
0
42
0.9520811731250587
0
VERTEX
8
0
10
32.308800000000005
20
43.9261375
30
0
0
VERTEX
8
0
10
32.308800000000005
20
42.433862500000004
30
0
0
VERTEX
8
0
10
32.315650000000005
20
42.36431875
30
0
0
VERTEX
8
0
10
32.32928125
20
42.295784375000004
30
0
0
VERTEX
8
0
10
32.349565625000004
20
42.228915625
30
0
0
VERTEX
8
0
10
32.37630625
20
42.164356250000004
30
0
0
VERTEX
8
0
10
32.409246875
20
42.102728125
30
0
0
VERTEX
8
0
10
32.448068750000004
20
42.044628125
30
0
0
VERTEX
8
0
10
32.4924
20
41.990612500000005
30
0
0
VERTEX
8
0
10
32.5418125
20
41.9412
30
0
0
VERTEX
8
0
10
32.595828125000004
20
41.89686875
30
0
0
VERTEX
8
0
10
32.653928125
20
41.858046875
30
0
0
VERTEX
8
0
10
32.71555625
20
41.825106250000005
30
0
0
VERTEX
8
0
10
32.780115625
20
41.798365625
30
0
0
VERTEX
8
0
10
32.846984375
20
41.77808125
30
0
0
VERTEX
8
0
10
32.915518750000004
20
41.764450000000004
30
0
0
VERTEX
8
0
10
32.985062500000005
20
41.757600000000004
30
0
0
VERTEX
8
0
10
33.0549375
20
41.757600000000004
30
0
0
SEQEND
0
POLYLINE
66
1
8
16_copper
10
0.0
20
0.0
30
0.0
70
1
0
VERTEX
8
0
10
3.4267406250000003
20
32.546671875
30
0
42
0.4931450969693818
0
VERTEX
8
0
10
3.6927250000000003
20
33.086031250000005
30
0
0
VERTEX
8
0
10
3.66910625
20
33.12694375
30
0
42
0.37978118681921286
0
VERTEX
8
0
10
3.7338
20
33.2232
30
0
0
VERTEX
8
0
10
3.7338
20
34.071278125
30
0
42
0.9969241442347151
0
VERTEX
8
0
10
3.5836593750000003
20
34.814128125
30
0
0
VERTEX
8
0
10
3.535771875
20
34.801296875
30
0
42
0.7648843201253167
0
VERTEX
8
0
10
3.5814000000000004
20
34.071278125
30
0
0
VERTEX
8
0
10
3.5814000000000004
20
33.2547625
30
0
0
VERTEX
8
0
10
3.5613437500000003
20
33.23470625
30
0
0
VERTEX
8
0
10
3.52043125
20
33.258325
30
0
0
VERTEX
8
0
10
3.474628125
20
33.277296875000005
30
0
0
VERTEX
8
0
10
3.4267406250000003
20
33.290128125
30
0
0
VERTEX
8
0
10
3.3775875
20
33.296600000000005
30
0
0
VERTEX
8
0
10
3.3280125000000003
20
33.296600000000005
30
0
0
VERTEX
8
0
10
3.278859375
20
33.290128125
30
0
0
VERTEX
8
0
10
3.2309718750000003
20
33.277296875000005
30
0
0
VERTEX
8
0
10
3.1851687500000003
20
33.258325
30
0
0
VERTEX
8
0
10
3.14223125
20
33.233537500000004
30
0
0
VERTEX
8
0
10
3.1029
20
33.20335625
30
0
0
VERTEX
8
0
10
3.06784375
20
33.1683
30
0
0
VERTEX
8
0
10
3.0376625
20
33.12896875
30
0
0
VERTEX
8
0
10
3.012875
20
33.086031250000005
30
0
0
VERTEX
8
0
10
2.993903125
20
33.040228125
30
0
0
VERTEX
8
0
10
2.981071875
20
32.992340625000004
30
0
0
VERTEX
8
0
10
2.9746
20
32.9431875
30
0
0
VERTEX
8
0
10
2.9746
20
32.8936125
30
0
0
VERTEX
8
0
10
2.981071875
20
32.844459375
30
0
0
VERTEX
8
0
10
2.993903125
20
32.796571875000005
30
0
0
VERTEX
8
0
10
3.012875
20
32.75076875
30
0
0
VERTEX
8
0
10
3.0376625
20
32.70783125
30
0
0
VERTEX
8
0
10
3.06784375
20
32.6685
30
0
0
VERTEX
8
0
10
3.1029
20
32.633443750000005
30
0
0
VERTEX
8
0
10
3.14223125
20
32.6032625
30
0
0
VERTEX
8
0
10
3.1851687500000003
20
32.578475000000005
30
0
0
VERTEX
8
0
10
3.2309718750000003
20
32.559503125
30
0
0
VERTEX
8
0
10
3.278859375
20
32.546671875
30
0
0
VERTEX
8
0
10
3.3280125000000003
20
32.5402
30
0
0
VERTEX
8
0
10
3.3775875
20
32.5402
30
0
0
SEQEND
0
POLYLINE
66
1
8
1_copper
10
0.0
20
0.0
30
0.0
70
1
0
VERTEX
8
0
10
31.931543750000003
20
22.786909375
30
0
42
0.7673614648586646
0
VERTEX
8
0
10
31.9278
20
22.933734375
30
0
0
VERTEX
8
0
10
31.9278
20
23.9268
30
0
42
0.198912367379658
0
VERTEX
8
0
10
31.90548125
20
23.98068125
30
0
0
VERTEX
8
0
10
26.4414
20
29.444762500000003
30
0
0
VERTEX
8
0
10
26.4414
20
32.004000000000005
30
0
42
0.198912367379658
0
VERTEX
8
0
10
26.41908125
20
32.05788125
30
0
0
VERTEX
8
0
10
25.895453125
20
32.581509375
30
0
0
VERTEX
8
0
10
26.0604
20
32.74645625
30
0
0
VERTEX
8
0
10
26.0604
20
33.293543750000005
30
0
0
VERTEX
8
0
10
25.67354375
20
33.6804
30
0
0
VERTEX
8
0
10
25.12645625
20
33.6804
30
0
0
VERTEX
8
0
10
24.739600000000003
20
33.293543750000005
30
0
0
VERTEX
8
0
10
24.739600000000003
20
32.74645625
30
0
0
VERTEX
8
0
10
25.12645625
20
32.3596
30
0
0
VERTEX
8
0
10
25.67354375
20
32.3596
30
0
0
VERTEX
8
0
10
25.787690625
20
32.473746875
30
0
0
VERTEX
8
0
10
26.289
20
31.9724375
30
0
0
VERTEX
8
0
10
26.289
20
29.4132
30
0
42
0.198912367379658
0
VERTEX
8
0
10
26.31131875
20
29.35931875
30
0
0
VERTEX
8
0
10
31.7754
20
23.8952375
30
0
0
VERTEX
8
0
10
31.7754
20
22.86
30
0
0
VERTEX
8
0
10
31.7762125
20
22.85438125
30
0
0
VERTEX
8
0
10
31.776243750000003
20
22.848684375
30
0
0
VERTEX
8
0
10
31.777759375000002
20
22.843646875
30
0
0
VERTEX
8
0
10
31.778509375000002
20
22.83845625
30
0
0
VERTEX
8
0
10
31.780878125
20
22.8332875
30
0
0
VERTEX
8
0
10
31.78251875
20
22.827840625
30
0
0
VERTEX
8
0
10
31.785390625
20
22.823446875000002
30
0
0
VERTEX
8
0
10
31.787581250000002
20
22.81866875
30
0
0
VERTEX
8
0
10
31.791318750000002
20
22.814378125
30
0
0
VERTEX
8
0
10
31.794428125000003
20
22.809621875
30
0
0
VERTEX
8
0
10
31.798428125
20
22.80621875
30
0
0
VERTEX
8
0
10
31.801878125
20
22.802256250000003
30
0
0
VERTEX
8
0
10
31.806665625
20
22.79920625
30
0
0
VERTEX
8
0
10
31.811003125000003
20
22.7955125
30
0
0
VERTEX
8
0
10
31.815815625000003
20
22.793371875000002
30
0
0
VERTEX
8
0
10
31.820234375000002
20
22.79055625
30
0
0
VERTEX
8
0
10
31.825696875000002
20
22.788978125
30
0
0
VERTEX
8
0
10
31.83089375
20
22.78666875
30
0
0
VERTEX
8
0
10
31.8362875
20
22.785921875
30
0
0
VERTEX
8
0
10
31.841146875000003
20
22.78451875
30
0
0
VERTEX
8
0
10
31.846203125000002
20
22.784546875
30
0
0
VERTEX
8
0
10
31.8516
20
22.7838
30
0
0
VERTEX
8
0
10
31.91
20
22.7838
30
0
0
SEQEND
0
POLYLINE
66
1
8
16_copper
10
0.0
20
0.0
30
0.0
70
1
0
VERTEX
8
0
10
26.0604
20
32.74645625
30
0
0
VERTEX
8
0
10
26.0604
20
33.293543750000005
30
0
0
VERTEX
8
0
10
25.67354375
20
33.6804
30
0
0
VERTEX
8
0
10
25.12645625
20
33.6804
30
0
0
VERTEX
8
0
10
24.739600000000003
20
33.293543750000005
30
0
0
VERTEX
8
0
10
24.739600000000003
20
32.74645625
30
0
0
VERTEX
8
0
10
25.12645625
20
32.3596
30
0
0
VERTEX
8
0
10
25.67354375
20
32.3596
30
0
0
SEQEND
0
POLYLINE
66
1
8
1_copper
10
0.0
20
0.0
30
0.0
70
1
0
VERTEX
8
0
10
36.220400000000005
20
32.74645625
30
0
0
VERTEX
8
0
10
36.220400000000005
20
33.293543750000005
30
0
0
VERTEX
8
0
10
35.833543750000004
20
33.6804
30
0
0
VERTEX
8
0
10
35.28645625
20
33.6804
30
0
0
VERTEX
8
0
10
34.8996
20
33.293543750000005
30
0
0
VERTEX
8
0
10
34.8996
20
32.74645625
30
0
0
VERTEX
8
0
10
35.28645625
20
32.3596
30
0
0
VERTEX
8
0
10
35.833543750000004
20
32.3596
30
0
0
SEQEND
0
POLYLINE
66
1
8
16_copper
10
0.0
20
0.0
30
0.0
70
1
0
VERTEX
8
0
10
31.929765625
20
20.246409375000002
30
0
42
0.14139112414832164
0
VERTEX
8
0
10
31.965934375
20
20.268250000000002
30
0
0
VERTEX
8
0
10
32.059934375000005
20
20.36985
30
0
42
0.18883778039161103
0
VERTEX
8
0
10
32.080200000000005
20
20.4216
30
0
0
VERTEX
8
0
10
32.080200000000005
20
21.609237500000003
30
0
0
VERTEX
8
0
10
33.12468125
20
22.65371875
30
0
42
0.198912367379658
0
VERTEX
8
0
10
33.147
20
22.7076
30
0
0
VERTEX
8
0
10
33.147
20
30.4484375
30
0
0
VERTEX
8
0
10
35.172309375000005
20
32.473746875
30
0
0
VERTEX
8
0
10
35.28645625
20
32.3596
30
0
0
VERTEX
8
0
10
35.833543750000004
20
32.3596
30
0
0
VERTEX
8
0
10
36.220400000000005
20
32.74645625
30
0
0
VERTEX
8
0
10
36.220400000000005
20
33.293543750000005
30
0
0
VERTEX
8
0
10
35.833543750000004
20
33.6804
30
0
0
VERTEX
8
0
10
35.28645625
20
33.6804
30
0
0
VERTEX
8
0
10
34.8996
20
33.293543750000005
30
0
0
VERTEX
8
0
10
34.8996
20
32.74645625
30
0
0
VERTEX
8
0
10
35.064546875000005
20
32.581509375
30
0
0
VERTEX
8
0
10
33.01691875
20
30.53388125
30
0
42
0.198912367379658
0
VERTEX
8
0
10
32.9946
20
30.48
30
0
0
VERTEX
8
0
10
32.9946
20
22.739162500000003
30
0
0
VERTEX
8
0
10
31.95011875
20
21.694681250000002
30
0
42
0.198912367379658
0
VERTEX
8
0
10
31.9278
20
21.640800000000002
30
0
0
VERTEX
8
0
10
31.9278
20
20.451446875000002
30
0
0
VERTEX
8
0
10
31.854065625
20
20.371750000000002
30
0
0
VERTEX
8
0
10
31.841718750000002
20
20.353825
30
0
0
VERTEX
8
0
10
31.834940625
20
20.3331375
30
0
0
VERTEX
8
0
10
31.834287500000002
20
20.31138125
30
0
0
VERTEX
8
0
10
31.839815625
20
20.290328125000002
30
0
0
VERTEX
8
0
10
31.851068750000003
20
20.27169375
30
0
0
VERTEX
8
0
10
31.86713125
20
20.257003125
30
0
0
VERTEX
8
0
10
31.886690625
20
20.247453125
30
0
0
VERTEX
8
0
10
31.908153125000002
20
20.243821875000002
30
0
0
SEQEND
0
POLYLINE
66
1
8
1_copper
10
0.0
20
0.0
30
0.0
70
1
0
VERTEX
8
0
10
15.400828125
20
31.929015625
30
0
42
0.16997656369761122
0
VERTEX
8
0
10
15.44628125
20
31.95011875
30
0
0
VERTEX
8
0
10
17.7099625
20
34.2138
30
0
0
VERTEX
8
0
10
26.638437500000002
20
34.2138
30
0
0
VERTEX
8
0
10
27.419146875000003
20
33.433090625
30
0
0
VERTEX
8
0
10
27.279600000000002
20
33.293543750000005
30
0
0
VERTEX
8
0
10
27.279600000000002
20
32.74645625
30
0
0
VERTEX
8
0
10
27.666456250000003
20
32.3596
30
0
0
VERTEX
8
0
10
28.213543750000003
20
32.3596
30
0
0
VERTEX
8
0
10
28.6004
20
32.74645625
30
0
0
VERTEX
8
0
10
28.6004
20
33.293543750000005
30
0
0
VERTEX
8
0
10
28.213543750000003
20
33.6804
30
0
0
VERTEX
8
0
10
27.666456250000003
20
33.6804
30
0
0
VERTEX
8
0
10
27.526909375000002
20
33.540853125
30
0
0
VERTEX
8
0
10
26.72388125
20
34.34388125
30
0
42
0.198912367379658
0
VERTEX
8
0
10
26.67
20
34.3662
30
0
0
VERTEX
8
0
10
17.6784
20
34.3662
30
0
42
0.198912367379658
0
VERTEX
8
0
10
17.62451875
20
34.34388125
30
0
0
VERTEX
8
0
10
15.3608375
20
32.080200000000005
30
0
0
VERTEX
8
0
10
12.9855625
20
32.080200000000005
30
0
0
VERTEX
8
0
10
8.43588125
20
36.629881250000004
30
0
42
0.198912367379658
0
VERTEX
8
0
10
8.382
20
36.6522
30
0
0
VERTEX
8
0
10
5.975162500000001
20
36.6522
30
0
0
VERTEX
8
0
10
3.55908125
20
39.068281250000005
30
0
42
0.198912367379658
0
VERTEX
8
0
10
3.5052000000000003
20
39.0906
30
0
0
VERTEX
8
0
10
3.24
20
39.0906
30
0
0
VERTEX
8
0
10
3.24
20
39.74
30
0
0
VERTEX
8
0
10
1.84
20
39.74
30
0
0
VERTEX
8
0
10
1.84
20
38.54
30
0
0
VERTEX
8
0
10
3.24
20
38.54
30
0
0
VERTEX
8
0
10
3.24
20
38.9382
30
0
0
VERTEX
8
0
10
3.4736375
20
38.9382
30
0
0
VERTEX
8
0
10
5.88971875
20
36.522118750000004
30
0
42
0.198912367379658
0
VERTEX
8
0
10
5.9436
20
36.4998
30
0
0
VERTEX
8
0
10
8.3504375
20
36.4998
30
0
0
VERTEX
8
0
10
12.90011875
20
31.95011875
30
0
42
0.198912367379658
0
VERTEX
8
0
10
12.954
20
31.9278
30
0
0
VERTEX
8
0
10
15.3924
20
31.9278
30
0
0
SEQEND
0
POLYLINE
66
1
8
16_copper
10
0.0
20
0.0
30
0.0
70
1
0
VERTEX
8
0
10
28.6004
20
32.74645625
30
0
0
VERTEX
8
0
10
28.6004
20
33.293543750000005
30
0
0
VERTEX
8
0
10
28.213543750000003
20
33.6804
30
0
0
VERTEX
8
0
10
27.666456250000003
20
33.6804
30
0
0
VERTEX
8
0
10
27.279600000000002
20
33.293543750000005
30
0
0
VERTEX
8
0
10
27.279600000000002
20
32.74645625
30
0
0
VERTEX
8
0
10
27.666456250000003
20
32.3596
30
0
0
VERTEX
8
0
10
28.213543750000003
20
32.3596
30
0
0
SEQEND
0
POLYLINE
66
1
8
1_copper
10
0.0
20
0.0
30
0.0
70
1
0
VERTEX
8
0
10
16.467628125
20
31.624215625
30
0
42
0.16997656369761122
0
VERTEX
8
0
10
16.51308125
20
31.64531875
30
0
0
VERTEX
8
0
10
17.366909375000002
20
32.499146875
30
0
0
VERTEX
8
0
10
17.50645625
20
32.3596
30
0
0
VERTEX
8
0
10
18.05354375
20
32.3596
30
0
0
VERTEX
8
0
10
18.4404
20
32.74645625
30
0
0
VERTEX
8
0
10
18.4404
20
33.293543750000005
30
0
0
VERTEX
8
0
10
18.05354375
20
33.6804
30
0
0
VERTEX
8
0
10
17.50645625
20
33.6804
30
0
0
VERTEX
8
0
10
17.119600000000002
20
33.293543750000005
30
0
0
VERTEX
8
0
10
17.119600000000002
20
32.74645625
30
0
0
VERTEX
8
0
10
17.259146875000003
20
32.606909375
30
0
0
VERTEX
8
0
10
16.4276375
20
31.7754
30
0
0
VERTEX
8
0
10
5.5179625
20
31.7754
30
0
0
VERTEX
8
0
10
2.1484125
20
35.14495
30
0
0
VERTEX
8
0
10
2.1572343750000003
20
35.166246875
30
0
0
VERTEX
8
0
10
2.1630000000000003
20
35.195225
30
0
0
VERTEX
8
0
10
2.1630000000000003
20
35.924775000000004
30
0
0
VERTEX
8
0
10
2.1572343750000003
20
35.953753125
30
0
0
VERTEX
8
0
10
2.145928125
20
35.981053125
30
0
0
VERTEX
8
0
10
2.1295125
20
36.005618750000004
30
0
0
VERTEX
8
0
10
2.10861875
20
36.0265125
30
0
0
VERTEX
8
0
10
2.084053125
20
36.042928125
30
0
0
VERTEX
8
0
10
2.056753125
20
36.054234375
30
0
0
VERTEX
8
0
10
2.027775
20
36.06
30
0
0
VERTEX
8
0
10
1.298225
20
36.06
30
0
0
VERTEX
8
0
10
1.269246875
20
36.054234375
30
0
0
VERTEX
8
0
10
1.241946875
20
36.042928125
30
0
0
VERTEX
8
0
10
1.21738125
20
36.0265125
30
0
0
VERTEX
8
0
10
1.1964875000000001
20
36.005618750000004
30
0
0
VERTEX
8
0
10
1.180071875
20
35.981053125
30
0
0
VERTEX
8
0
10
1.168765625
20
35.953753125
30
0
0
VERTEX
8
0
10
1.163
20
35.924775000000004
30
0
0
VERTEX
8
0
10
1.163
20
35.195225
30
0
0
VERTEX
8
0
10
1.168765625
20
35.166246875
30
0
0
VERTEX
8
0
10
1.180071875
20
35.138946875
30
0
0
VERTEX
8
0
10
1.1964875000000001
20
35.11438125
30
0
0
VERTEX
8
0
10
1.21738125
20
35.0934875
30
0
0
VERTEX
8
0
10
1.241946875
20
35.077071875
30
0
0
VERTEX
8
0
10
1.269246875
20
35.065765625000004
30
0
0
VERTEX
8
0
10
1.298225
20
35.06
30
0
0
VERTEX
8
0
10
2.0178375
20
35.06
30
0
0
VERTEX
8
0
10
5.43251875
20
31.64531875
30
0
42
0.198912367379658
0
VERTEX
8
0
10
5.486400000000001
20
31.623
30
0
0
VERTEX
8
0
10
16.4592
20
31.623
30
0
0
SEQEND
0
POLYLINE
66
1
8
16_copper
10
0.0
20
0.0
30
0.0
70
1
0
VERTEX
8
0
10
18.4404
20
32.74645625
30
0
0
VERTEX
8
0
10
18.4404
20
33.293543750000005
30
0
0
VERTEX
8
0
10
18.05354375
20
33.6804
30
0
0
VERTEX
8
0
10
17.50645625
20
33.6804
30
0
0
VERTEX
8
0
10
17.119600000000002
20
33.293543750000005
30
0
0
VERTEX
8
0
10
17.119600000000002
20
32.74645625
30
0
0
VERTEX
8
0
10
17.50645625
20
32.3596
30
0
0
VERTEX
8
0
10
18.05354375
20
32.3596
30
0
0
SEQEND
0
POLYLINE
66
1
8
1_copper
10
0.0
20
0.0
30
0.0
70
1
0
VERTEX
8
0
10
16.315228125
20
29.490615625
30
0
42
0.16997656369761122
0
VERTEX
8
0
10
16.360681250000003
20
29.51171875
30
0
0
VERTEX
8
0
10
16.707856250000003
20
29.85889375
30
0
42
0.9969257294187597
0
VERTEX
8
0
10
17.12696875
20
30.490337500000003
30
0
0
VERTEX
8
0
10
17.084031250000002
20
30.515125
30
0
42
0.76488331982605
0
VERTEX
8
0
10
16.60009375
20
29.96665625
30
0
0
VERTEX
8
0
10
16.2752375
20
29.6418
30
0
0
VERTEX
8
0
10
4.2987625000000005
20
29.6418
30
0
0
VERTEX
8
0
10
2.1874812500000003
20
31.75308125
30
0
42
0.09664061092556595
0
VERTEX
8
0
10
2.1630000000000003
20
31.768731250000002
30
0
0
VERTEX
8
0
10
2.1630000000000003
20
32.114775
30
0
0
VERTEX
8
0
10
2.1572343750000003
20
32.143753125
30
0
0
VERTEX
8
0
10
2.145928125
20
32.171053125
30
0
0
VERTEX
8
0
10
2.1295125
20
32.19561875
30
0
0
VERTEX
8
0
10
2.10861875
20
32.2165125
30
0
0
VERTEX
8
0
10
2.084053125
20
32.232928125
30
0
0
VERTEX
8
0
10
2.056753125
20
32.244234375000005
30
0
0
VERTEX
8
0
10
2.027775
20
32.25
30
0
0
VERTEX
8
0
10
1.298225
20
32.25
30
0
0
VERTEX
8
0
10
1.269246875
20
32.244234375000005
30
0
0
VERTEX
8
0
10
1.241946875
20
32.232928125
30
0
0
VERTEX
8
0
10
1.21738125
20
32.2165125
30
0
0
VERTEX
8
0
10
1.1964875000000001
20
32.19561875
30
0
0
VERTEX
8
0
10
1.180071875
20
32.171053125
30
0
0
VERTEX
8
0
10
1.168765625
20
32.143753125
30
0
0
VERTEX
8
0
10
1.163
20
32.114775
30
0
0
VERTEX
8
0
10
1.163
20
31.385225000000002
30
0
0
VERTEX
8
0
10
1.168765625
20
31.356246875
30
0
0
VERTEX
8
0
10
1.180071875
20
31.328946875
30
0
0
VERTEX
8
0
10
1.1964875000000001
20
31.304381250000002
30
0
0
VERTEX
8
0
10
1.21738125
20
31.283487500000003
30
0
0
VERTEX
8
0
10
1.241946875
20
31.267071875000003
30
0
0
VERTEX
8
0
10
1.269246875
20
31.255765625000002
30
0
0
VERTEX
8
0
10
1.298225
20
31.25
30
0
0
VERTEX
8
0
10
2.027775
20
31.25
30
0
0
VERTEX
8
0
10
2.056753125
20
31.255765625000002
30
0
0
VERTEX
8
0
10
2.084053125
20
31.267071875000003
30
0
0
VERTEX
8
0
10
2.10861875
20
31.283487500000003
30
0
0
VERTEX
8
0
10
2.1295125
20
31.304381250000002
30
0
0
VERTEX
8
0
10
2.145928125
20
31.328946875
30
0
0
VERTEX
8
0
10
2.1572343750000003
20
31.356246875
30
0
0
VERTEX
8
0
10
2.1630000000000003
20
31.385225000000002
30
0
0
VERTEX
8
0
10
2.1630000000000003
20
31.562037500000002
30
0
0
VERTEX
8
0
10
4.21331875
20
29.51171875
30
0
42
0.198912367379658
0
VERTEX
8
0
10
4.2672
20
29.4894
30
0
0
VERTEX
8
0
10
16.3068
20
29.4894
30
0
0
SEQEND
0
POLYLINE
66
1
8
1_copper
10
0.0
20
0.0
30
0.0
70
1
0
VERTEX
8
0
10
28.6004
20
28.936456250000003
30
0
0
VERTEX
8
0
10
28.6004
20
29.483543750000003
30
0
0
VERTEX
8
0
10
28.213543750000003
20
29.8704
30
0
0
VERTEX
8
0
10
27.666456250000003
20
29.8704
30
0
0
VERTEX
8
0
10
27.279600000000002
20
29.483543750000003
30
0
0
VERTEX
8
0
10
27.279600000000002
20
28.936456250000003
30
0
0
VERTEX
8
0
10
27.666456250000003
20
28.5496
30
0
0
VERTEX
8
0
10
28.213543750000003
20
28.5496
30
0
0
SEQEND
0
POLYLINE
66
1
8
16_copper
10
0.0
20
0.0
30
0.0
70
1
0
VERTEX
8
0
10
28.6004
20
28.936456250000003
30
0
0
VERTEX
8
0
10
28.6004
20
29.483543750000003
30
0
0
VERTEX
8
0
10
28.213543750000003
20
29.8704
30
0
0
VERTEX
8
0
10
27.666456250000003
20
29.8704
30
0
0
VERTEX
8
0
10
27.526909375000002
20
29.730853125000003
30
0
0
VERTEX
8
0
10
27.02868125
20
30.22908125
30
0
42
0.198912367379658
0
VERTEX
8
0
10
26.974800000000002
20
30.2514
30
0
0
VERTEX
8
0
10
17.287521875
20
30.2514
30
0
42
0.9969241442347151
0
VERTEX
8
0
10
16.544671875000002
20
30.101259375
30
0
0
VERTEX
8
0
10
16.557503125
20
30.053371875
30
0
42
0.7648843201253167
0
VERTEX
8
0
10
17.287521875
20
30.099
30
0
0
VERTEX
8
0
10
26.943237500000002
20
30.099
30
0
0
VERTEX
8
0
10
27.419146875000003
20
29.623090625
30
0
0
VERTEX
8
0
10
27.279600000000002
20
29.483543750000003
30
0
0
VERTEX
8
0
10
27.279600000000002
20
28.936456250000003
30
0
0
VERTEX
8
0
10
27.666456250000003
20
28.5496
30
0
0
VERTEX
8
0
10
28.213543750000003
20
28.5496
30
0
0
SEQEND
0
POLYLINE
66
1
8
1_copper
10
0.0
20
0.0
30
0.0
70
1
0
VERTEX
8
0
10
23.982156250000003
20
25.324775000000002
30
0
0
VERTEX
8
0
10
24.002140625000003
20
25.330909375
30
0
0
VERTEX
8
0
10
24.111340625
20
25.381709375
30
0
42
0.29172139773154815
0
VERTEX
8
0
10
24.1554
20
25.4508
30
0
0
VERTEX
8
0
10
24.1554
20
27.857637500000003
30
0
0
VERTEX
8
0
10
24.986909375
20
28.689146875000002
30
0
0
VERTEX
8
0
10
25.12645625
20
28.5496
30
0
0
VERTEX
8
0
10
25.67354375
20
28.5496
30
0
0
VERTEX
8
0
10
26.0604
20
28.936456250000003
30
0
0
VERTEX
8
0
10
26.0604
20
29.483543750000003
30
0
0
VERTEX
8
0
10
25.67354375
20
29.8704
30
0
0
VERTEX
8
0
10
25.12645625
20
29.8704
30
0
0
VERTEX
8
0
10
24.739600000000003
20
29.483543750000003
30
0
0
VERTEX
8
0
10
24.739600000000003
20
28.936456250000003
30
0
0
VERTEX
8
0
10
24.879146875
20
28.796909375000002
30
0
0
VERTEX
8
0
10
24.02531875
20
27.943081250000002
30
0
42
0.198912367379658
0
VERTEX
8
0
10
24.003
20
27.889200000000002
30
0
0
VERTEX
8
0
10
24.003
20
25.499393750000003
30
0
0
VERTEX
8
0
10
23.937859375000002
20
25.469090625
30
0
0
VERTEX
8
0
10
23.9196375
20
25.457184375
30
0
0
VERTEX
8
0
10
23.905525
20
25.4406125
30
0
0
VERTEX
8
0
10
23.896671875000003
20
25.420725
30
0
0
VERTEX
8
0
10
23.89380625
20
25.399146875
30
0
0
VERTEX
8
0
10
23.897153125000003
20
25.377640625
30
0
0
VERTEX
8
0
10
23.906446875
20
25.35795625
30
0
0
VERTEX
8
0
10
23.920928125
20
25.341703125000002
30
0
0
VERTEX
8
0
10
23.9394125
20
25.330209375000003
30
0
0
VERTEX
8
0
10
23.960390625000002
20
25.324409375000002
30
0
0
SEQEND
0
POLYLINE
66
1
8
16_copper
10
0.0
20
0.0
30
0.0
70
1
0
VERTEX
8
0
10
26.0604
20
28.936456250000003
30
0
0
VERTEX
8
0
10
26.0604
20
29.483543750000003
30
0
0
VERTEX
8
0
10
25.67354375
20
29.8704
30
0
0
VERTEX
8
0
10
25.12645625
20
29.8704
30
0
0
VERTEX
8
0
10
24.739600000000003
20
29.483543750000003
30
0
0
VERTEX
8
0
10
24.739600000000003
20
28.936456250000003
30
0
0
VERTEX
8
0
10
25.12645625
20
28.5496
30
0
0
VERTEX
8
0
10
25.67354375
20
28.5496
30
0
0
SEQEND
0
POLYLINE
66
1
8
1_copper
10
0.0
20
0.0
30
0.0
70
1
0
VERTEX
8
0
10
31.931543750000003
20
7.546909375
30
0
42
0.8660508493283852
0
VERTEX
8
0
10
31.91
20
7.6962
30
0
0
VERTEX
8
0
10
30.3591625
20
7.6962
30
0
0
VERTEX
8
0
10
21.389881250000002
20
16.66548125
30
0
42
0.198912367379658
0
VERTEX
8
0
10
21.336000000000002
20
16.6878
30
0
0
VERTEX
8
0
10
5.8227625000000005
20
16.6878
30
0
0
VERTEX
8
0
10
2.9579781250000003
20
19.552584375000002
30
0
0
VERTEX
8
0
10
3.3782
20
19.97280625
30
0
0
VERTEX
8
0
10
3.3782
20
20.667193750000003
30
0
0
VERTEX
8
0
10
2.8871937500000002
20
21.1582
30
0
0
VERTEX
8
0
10
2.1928062500000003
20
21.1582
30
0
0
VERTEX
8
0
10
1.7018
20
20.667193750000003
30
0
0
VERTEX
8
0
10
1.7018
20
19.97280625
30
0
0
VERTEX
8
0
10
2.1928062500000003
20
19.4818
30
0
0
VERTEX
8
0
10
2.8132375
20
19.4818
30
0
0
VERTEX
8
0
10
5.73731875
20
16.55771875
30
0
42
0.198912367379658
0
VERTEX
8
0
10
5.7912
20
16.5354
30
0
0
VERTEX
8
0
10
21.304437500000002
20
16.5354
30
0
0
VERTEX
8
0
10
30.27371875
20
7.56611875
30
0
42
0.198912367379658
0
VERTEX
8
0
10
30.3276
20
7.5438
30
0
0
VERTEX
8
0
10
31.91
20
7.5438
30
0
0
SEQEND
0
POLYLINE
66
1
8
16_copper
10
0.0
20
0.0
30
0.0
70
1
0
VERTEX
8
0
10
3.3782
20
19.97280625
30
0
0
VERTEX
8
0
10
3.3782
20
20.667193750000003
30
0
0
VERTEX
8
0
10
2.8871937500000002
20
21.1582
30
0
0
VERTEX
8
0
10
2.1928062500000003
20
21.1582
30
0
0
VERTEX
8
0
10
1.7018
20
20.667193750000003
30
0
0
VERTEX
8
0
10
1.7018
20
19.97280625
30
0
0
VERTEX
8
0
10
2.1928062500000003
20
19.4818
30
0
0
VERTEX
8
0
10
2.8871937500000002
20
19.4818
30
0
0
SEQEND
0
POLYLINE
66
1
8
1_copper
10
0.0
20
0.0
30
0.0
70
1
0
VERTEX
8
0
10
18.4404
20
36.556456250000004
30
0
0
VERTEX
8
0
10
18.4404
20
37.10354375
30
0
0
VERTEX
8
0
10
18.05354375
20
37.4904
30
0
0
VERTEX
8
0
10
17.50645625
20
37.4904
30
0
0
VERTEX
8
0
10
17.119600000000002
20
37.10354375
30
0
0
VERTEX
8
0
10
17.119600000000002
20
36.556456250000004
30
0
0
VERTEX
8
0
10
17.50645625
20
36.1696
30
0
0
VERTEX
8
0
10
18.05354375
20
36.1696
30
0
0
SEQEND
0
POLYLINE
66
1
8
16_copper
10
0.0
20
0.0
30
0.0
70
1
0
VERTEX
8
0
10
31.920934375
20
10.084587500000001
30
0
42
0.6415724386368595
0
VERTEX
8
0
10
31.960009375000002
20
10.217493750000001
30
0
0
VERTEX
8
0
10
31.9278
20
10.2455125
30
0
0
VERTEX
8
0
10
31.9278
20
11.43
30
0
42
0.198912367379658
0
VERTEX
8
0
10
31.90548125
20
11.483881250000001
30
0
0
VERTEX
8
0
10
31.0134
20
12.3759625
30
0
0
VERTEX
8
0
10
31.0134
20
15.5132375
30
0
0
VERTEX
8
0
10
32.81988125
20
17.31971875
30
0
42
0.198912367379658
0
VERTEX
8
0
10
32.8422
20
17.3736
30
0
0
VERTEX
8
0
10
32.8422
20
18.1356
30
0
42
0.198912367379658
0
VERTEX
8
0
10
32.81988125
20
18.18948125
30
0
0
VERTEX
8
0
10
29.032200000000003
20
21.977162500000002
30
0
0
VERTEX
8
0
10
29.032200000000003
20
37.1856
30
0
42
0.198912367379658
0
VERTEX
8
0
10
29.009881250000003
20
37.239481250000004
30
0
0
VERTEX
8
0
10
28.400281250000003
20
37.849081250000005
30
0
42
0.198912367379658
0
VERTEX
8
0
10
28.346400000000003
20
37.8714
30
0
0
VERTEX
8
0
10
18.7452
20
37.8714
30
0
42
0.198912367379658
0
VERTEX
8
0
10
18.69131875
20
37.849081250000005
30
0
0
VERTEX
8
0
10
18.193090625
20
37.350853125
30
0
0
VERTEX
8
0
10
18.05354375
20
37.4904
30
0
0
VERTEX
8
0
10
17.50645625
20
37.4904
30
0
0
VERTEX
8
0
10
17.119600000000002
20
37.10354375
30
0
0
VERTEX
8
0
10
17.119600000000002
20
36.556456250000004
30
0
0
VERTEX
8
0
10
17.50645625
20
36.1696
30
0
0
VERTEX
8
0
10
18.05354375
20
36.1696
30
0
0
VERTEX
8
0
10
18.4404
20
36.556456250000004
30
0
0
VERTEX
8
0
10
18.4404
20
37.10354375
30
0
0
VERTEX
8
0
10
18.300853125
20
37.243090625
30
0
0
VERTEX
8
0
10
18.7767625
20
37.719
30
0
0
VERTEX
8
0
10
28.314837500000003
20
37.719
30
0
0
VERTEX
8
0
10
28.879800000000003
20
37.1540375
30
0
0
VERTEX
8
0
10
28.879800000000003
20
21.945600000000002
30
0
42
0.198912367379658
0
VERTEX
8
0
10
28.90211875
20
21.891718750000003
30
0
0
VERTEX
8
0
10
32.6898
20
18.1040375
30
0
0
VERTEX
8
0
10
32.6898
20
17.4051625
30
0
0
VERTEX
8
0
10
30.88331875
20
15.59868125
30
0
42
0.198912367379658
0
VERTEX
8
0
10
30.861
20
15.5448
30
0
0
VERTEX
8
0
10
30.861
20
12.3444
30
0
42
0.198912367379658
0
VERTEX
8
0
10
30.88331875
20
12.29051875
30
0
0
VERTEX
8
0
10
31.7754
20
11.3984375
30
0
0
VERTEX
8
0
10
31.7754
20
10.2108
30
0
42
0.2170413731277424
0
VERTEX
8
0
10
31.801590625000003
20
10.15330625
30
0
0
VERTEX
8
0
10
31.859990625000002
20
10.102506250000001
30
0
0
VERTEX
8
0
10
31.878284375
20
10.0907125
30
0
0
VERTEX
8
0
10
31.89916875
20
10.084575000000001
30
0
0
SEQEND
0
POLYLINE
66
1
8
1_copper
10
0.0
20
0.0
30
0.0
70
1
0
VERTEX
8
0
10
26.0604
20
36.556456250000004
30
0
0
VERTEX
8
0
10
26.0604
20
37.10354375
30
0
0
VERTEX
8
0
10
25.67354375
20
37.4904
30
0
0
VERTEX
8
0
10
25.12645625
20
37.4904
30
0
0
VERTEX
8
0
10
24.739600000000003
20
37.10354375
30
0
0
VERTEX
8
0
10
24.739600000000003
20
36.556456250000004
30
0
0
VERTEX
8
0
10
25.12645625
20
36.1696
30
0
0
VERTEX
8
0
10
25.67354375
20
36.1696
30
0
0
SEQEND
0
POLYLINE
66
1
8
1_copper
10
0.0
20
0.0
30
0.0
70
1
0
VERTEX
8
0
10
3.3782
20
17.432806250000002
30
0
0
VERTEX
8
0
10
3.3782
20
18.12719375
30
0
0
VERTEX
8
0
10
2.8871937500000002
20
18.6182
30
0
0
VERTEX
8
0
10
2.1928062500000003
20
18.6182
30
0
0
VERTEX
8
0
10
1.7018
20
18.12719375
30
0
0
VERTEX
8
0
10
1.7018
20
17.432806250000002
30
0
0
VERTEX
8
0
10
2.1928062500000003
20
16.9418
30
0
0
VERTEX
8
0
10
2.8871937500000002
20
16.9418
30
0
0
SEQEND
0
POLYLINE
66
1
8
16_copper
10
0.0
20
0.0
30
0.0
70
1
0
VERTEX
8
0
10
3.3782
20
17.432806250000002
30
0
0
VERTEX
8
0
10
3.3782
20
18.12719375
30
0
0
VERTEX
8
0
10
3.262778125
20
18.242615625
30
0
0
VERTEX
8
0
10
4.62588125
20
19.60571875
30
0
42
0.198912367379658
0
VERTEX
8
0
10
4.6482
20
19.6596
30
0
0
VERTEX
8
0
10
4.6482
20
28.162437500000003
30
0
0
VERTEX
8
0
10
5.3655625
20
28.879800000000003
30
0
0
VERTEX
8
0
10
6.8580000000000005
20
28.879800000000003
30
0
42
0.198912367379658
0
VERTEX
8
0
10
6.91188125
20
28.90211875
30
0
0
VERTEX
8
0
10
12.5283625
20
34.5186
30
0
0
VERTEX
8
0
10
16.9164
20
34.5186
30
0
42
0.198912367379658
0
VERTEX
8
0
10
16.97028125
20
34.54091875
30
0
0
VERTEX
8
0
10
19.0815625
20
36.6522
30
0
0
VERTEX
8
0
10
24.739600000000003
20
36.6522
30
0
0
VERTEX
8
0
10
24.739600000000003
20
36.556456250000004
30
0
0
VERTEX
8
0
10
25.12645625
20
36.1696
30
0
0
VERTEX
8
0
10
25.67354375
20
36.1696
30
0
0
VERTEX
8
0
10
26.0604
20
36.556456250000004
30
0
0
VERTEX
8
0
10
26.0604
20
37.10354375
30
0
0
VERTEX
8
0
10
25.67354375
20
37.4904
30
0
0
VERTEX
8
0
10
25.12645625
20
37.4904
30
0
0
VERTEX
8
0
10
24.739600000000003
20
37.10354375
30
0
0
VERTEX
8
0
10
24.739600000000003
20
36.8046
30
0
0
VERTEX
8
0
10
19.05
20
36.8046
30
0
42
0.198912367379658
0
VERTEX
8
0
10
18.99611875
20
36.782281250000004
30
0
0
VERTEX
8
0
10
16.8848375
20
34.671
30
0
0
VERTEX
8
0
10
12.4968
20
34.671
30
0
42
0.198912367379658
0
VERTEX
8
0
10
12.44291875
20
34.64868125
30
0
0
VERTEX
8
0
10
6.8264375
20
29.032200000000003
30
0
0
VERTEX
8
0
10
5.3340000000000005
20
29.032200000000003
30
0
42
0.198912367379658
0
VERTEX
8
0
10
5.280118750000001
20
29.009881250000003
30
0
0
VERTEX
8
0
10
4.51811875
20
28.247881250000002
30
0
42
0.198912367379658
0
VERTEX
8
0
10
4.4958
20
28.194000000000003
30
0
0
VERTEX
8
0
10
4.4958
20
19.6911625
30
0
0
VERTEX
8
0
10
3.1550156250000003
20
18.350378125000002
30
0
0
VERTEX
8
0
10
2.8871937500000002
20
18.6182
30
0
0
VERTEX
8
0
10
2.1928062500000003
20
18.6182
30
0
0
VERTEX
8
0
10
1.7018
20
18.12719375
30
0
0
VERTEX
8
0
10
1.7018
20
17.432806250000002
30
0
0
VERTEX
8
0
10
2.1928062500000003
20
16.9418
30
0
0
VERTEX
8
0
10
2.8871937500000002
20
16.9418
30
0
0
SEQEND
0
POLYLINE
66
1
8
1_copper
10
0.0
20
0.0
30
0.0
70
1
0
VERTEX
8
0
10
27.288028125
20
1.601415625
30
0
42
0.16997656369761122
0
VERTEX
8
0
10
27.333481250000002
20
1.62251875
30
0
0
VERTEX
8
0
10
36.629881250000004
20
10.918918750000001
30
0
42
0.198912367379658
0
VERTEX
8
0
10
36.6522
20
10.972800000000001
30
0
0
VERTEX
8
0
10
36.6522
20
44.348400000000005
30
0
42
0.198912367379658
0
VERTEX
8
0
10
36.629881250000004
20
44.40228125
30
0
0
VERTEX
8
0
10
25.19988125
20
55.83228125
30
0
42
0.198912367379658
0
VERTEX
8
0
10
25.146
20
55.854600000000005
30
0
0
VERTEX
8
0
10
14.064003125000001
20
55.854600000000005
30
0
0
VERTEX
8
0
10
14.0253875
20
55.919128125
30
0
42
0.9999999999999999
0
VERTEX
8
0
10
13.894612500000001
20
55.840871875000005
30
0
0
VERTEX
8
0
10
13.955412500000001
20
55.739271875
30
0
42
0.26376117853275227
0
VERTEX
8
0
10
14.020800000000001
20
55.702200000000005
30
0
0
VERTEX
8
0
10
25.1144375
20
55.702200000000005
30
0
0
VERTEX
8
0
10
36.4998
20
44.316837500000005
30
0
0
VERTEX
8
0
10
36.4998
20
11.004362500000001
30
0
0
VERTEX
8
0
10
27.248037500000002
20
1.7526000000000002
30
0
0
VERTEX
8
0
10
11.004362500000001
20
1.7526000000000002
30
0
0
VERTEX
8
0
10
3.161178125
20
9.595784375000001
30
0
0
VERTEX
8
0
10
3.3782
20
9.812806250000001
30
0
0
VERTEX
8
0
10
3.3782
20
10.50719375
30
0
0
VERTEX
8
0
10
2.8871937500000002
20
10.9982
30
0
0
VERTEX
8
0
10
2.1928062500000003
20
10.9982
30
0
0
VERTEX
8
0
10
1.7018
20
10.50719375
30
0
0
VERTEX
8
0
10
1.7018
20
9.812806250000001
30
0
0
VERTEX
8
0
10
2.1928062500000003
20
9.3218
30
0
0
VERTEX
8
0
10
2.8871937500000002
20
9.3218
30
0
0
VERTEX
8
0
10
3.053415625
20
9.488021875000001
30
0
0
VERTEX
8
0
10
10.918918750000001
20
1.62251875
30
0
42
0.198912367379658
0
VERTEX
8
0
10
10.972800000000001
20
1.6002
30
0
0
VERTEX
8
0
10
27.279600000000002
20
1.6002
30
0
0
SEQEND
0
POLYLINE
66
1
8
16_copper
10
0.0
20
0.0
30
0.0
70
1
0
VERTEX
8
0
10
3.3782
20
9.812806250000001
30
0
0
VERTEX
8
0
10
3.3782
20
10.50719375
30
0
0
VERTEX
8
0
10
2.8871937500000002
20
10.9982
30
0
0
VERTEX
8
0
10
2.1928062500000003
20
10.9982
30
0
0
VERTEX
8
0
10
1.7018
20
10.50719375
30
0
0
VERTEX
8
0
10
1.7018
20
9.812806250000001
30
0
0
VERTEX
8
0
10
2.1928062500000003
20
9.3218
30
0
0
VERTEX
8
0
10
2.8871937500000002
20
9.3218
30
0
0
SEQEND
0
POLYLINE
66
1
8
1_copper
10
0.0
20
0.0
30
0.0
70
1
0
VERTEX
8
0
10
4.645940625000001
20
18.373471875
30
0
42
0.9999999999999999
0
VERTEX
8
0
10
4.498059375
20
19.116928125
30
0
0
VERTEX
8
0
10
4.4501718750000006
20
19.104096875
30
0
42
0.0639984307401922
0
VERTEX
8
0
10
4.3634562500000005
20
19.06150625
30
0
0
VERTEX
8
0
10
4.038600000000001
20
19.3863625
30
0
0
VERTEX
8
0
10
4.038600000000001
20
19.593278125
30
0
42
0.9969241442347151
0
VERTEX
8
0
10
3.888459375
20
20.336128125000002
30
0
0
VERTEX
8
0
10
3.840571875
20
20.323296875
30
0
42
0.7648843201253167
0
VERTEX
8
0
10
3.8862
20
19.593278125
30
0
0
VERTEX
8
0
10
3.8862
20
19.3548
30
0
42
0.198912367379658
0
VERTEX
8
0
10
3.9085187500000003
20
19.30091875
30
0
0
VERTEX
8
0
10
4.25569375
20
18.95374375
30
0
0
VERTEX
8
0
10
4.232075
20
18.91283125
30
0
0
VERTEX
8
0
10
4.213103125
20
18.867028125
30
0
0
VERTEX
8
0
10
4.200271875
20
18.819140625
30
0
0
VERTEX
8
0
10
4.1938
20
18.7699875
30
0
0
VERTEX
8
0
10
4.1938
20
18.720412500000002
30
0
0
VERTEX
8
0
10
4.200271875
20
18.671259375
30
0
0
VERTEX
8
0
10
4.213103125
20
18.623371875
30
0
0
VERTEX
8
0
10
4.232075
20
18.57756875
30
0
0
VERTEX
8
0
10
4.2568625
20
18.53463125
30
0
0
VERTEX
8
0
10
4.2870437500000005
20
18.4953
30
0
0
VERTEX
8
0
10
4.3221
20
18.46024375
30
0
0
VERTEX
8
0
10
4.36143125
20
18.430062500000002
30
0
0
VERTEX
8
0
10
4.404368750000001
20
18.405275
30
0
0
VERTEX
8
0
10
4.4501718750000006
20
18.386303125
30
0
0
VERTEX
8
0
10
4.498059375
20
18.373471875
30
0
0
VERTEX
8
0
10
4.5472125000000005
20
18.367
30
0
0
VERTEX
8
0
10
4.5967875000000005
20
18.367
30
0
0
SEQEND
0
POLYLINE
66
1
8
1_copper
10
0.0
20
0.0
30
0.0
70
1
0
VERTEX
8
0
10
3.3782
20
4.73280625
30
0
0
VERTEX
8
0
10
3.3782
20
5.42719375
30
0
0
VERTEX
8
0
10
2.8871937500000002
20
5.918200000000001
30
0
0
VERTEX
8
0
10
2.1928062500000003
20
5.918200000000001
30
0
0
VERTEX
8
0
10
1.7018
20
5.42719375
30
0
0
VERTEX
8
0
10
1.7018
20
4.73280625
30
0
0
VERTEX
8
0
10
2.1928062500000003
20
4.2418000000000005
30
0
0
VERTEX
8
0
10
2.8871937500000002
20
4.2418000000000005
30
0
0
SEQEND
0
POLYLINE
66
1
8
16_copper
10
0.0
20
0.0
30
0.0
70
1
0
VERTEX
8
0
10
4.036340625
20
19.592671875
30
0
42
0.818105841543916
0
VERTEX
8
0
10
4.038600000000001
20
20.335521875
30
0
0
VERTEX
8
0
10
4.038600000000001
20
29.9912375
30
0
0
VERTEX
8
0
10
5.3655625
20
31.3182
30
0
0
VERTEX
8
0
10
6.7056000000000004
20
31.3182
30
0
42
0.198912367379658
0
VERTEX
8
0
10
6.75948125
20
31.34051875
30
0
0
VERTEX
8
0
10
7.97868125
20
32.55971875
30
0
42
0.198912367379658
0
VERTEX
8
0
10
8.001000000000001
20
32.6136
30
0
0
VERTEX
8
0
10
8.001000000000001
20
46.1772
30
0
42
0.198912367379658
0
VERTEX
8
0
10
7.97868125
20
46.23108125
30
0
0
VERTEX
8
0
10
6.477
20
47.7327625
30
0
0
VERTEX
8
0
10
6.477
20
55.778400000000005
30
0
42
0.09575847208679973
0
VERTEX
8
0
10
6.4715125
20
55.806796875
30
0
0
VERTEX
8
0
10
6.4307125
20
55.908396875
30
0
42
0.9999999999999999
0
VERTEX
8
0
10
6.2892875
20
55.851603125000004
30
0
0
VERTEX
8
0
10
6.3246
20
55.76366875
30
0
0
VERTEX
8
0
10
6.3246
20
47.7012
30
0
42
0.198912367379658
0
VERTEX
8
0
10
6.34691875
20
47.647318750000004
30
0
0
VERTEX
8
0
10
7.8486
20
46.1456375
30
0
0
VERTEX
8
0
10
7.8486
20
32.645162500000005
30
0
0
VERTEX
8
0
10
6.674037500000001
20
31.4706
30
0
0
VERTEX
8
0
10
5.3340000000000005
20
31.4706
30
0
42
0.198912367379658
0
VERTEX
8
0
10
5.280118750000001
20
31.44828125
30
0
0
VERTEX
8
0
10
3.9085187500000003
20
30.07668125
30
0
42
0.198912367379658
0
VERTEX
8
0
10
3.8862
20
30.0228
30
0
0
VERTEX
8
0
10
3.8862
20
20.335521875
30
0
0
VERTEX
8
0
10
3.840571875
20
20.323296875
30
0
0
VERTEX
8
0
10
3.7947687500000002
20
20.304325000000002
30
0
0
VERTEX
8
0
10
3.7518312500000004
20
20.2795375
30
0
0
VERTEX
8
0
10
3.7125000000000004
20
20.24935625
30
0
0
VERTEX
8
0
10
3.67744375
20
20.2143
30
0
0
VERTEX
8
0
10
3.6472625
20
20.17496875
30
0
0
VERTEX
8
0
10
3.622475
20
20.13203125
30
0
0
VERTEX
8
0
10
3.603503125
20
20.086228125
30
0
0
VERTEX
8
0
10
3.590671875
20
20.038340625
30
0
0
VERTEX
8
0
10
3.5842
20
19.9891875
30
0
0
VERTEX
8
0
10
3.5842
20
19.939612500000003
30
0
0
VERTEX
8
0
10
3.590671875
20
19.890459375000002
30
0
0
VERTEX
8
0
10
3.603503125
20
19.842571875
30
0
0
VERTEX
8
0
10
3.622475
20
19.796768750000002
30
0
0
VERTEX
8
0
10
3.6472625
20
19.75383125
30
0
0
VERTEX
8
0
10
3.67744375
20
19.7145
30
0
0
VERTEX
8
0
10
3.7125000000000004
20
19.67944375
30
0
0
VERTEX
8
0
10
3.7518312500000004
20
19.649262500000003
30
0
0
VERTEX
8
0
10
3.7947687500000002
20
19.624475
30
0
0
VERTEX
8
0
10
3.840571875
20
19.605503125000002
30
0
0
VERTEX
8
0
10
3.888459375
20
19.592671875
30
0
0
VERTEX
8
0
10
3.9376125
20
19.5862
30
0
0
VERTEX
8
0
10
3.9871875
20
19.5862
30
0
0
SEQEND
0
POLYLINE
66
1
8
16_copper
10
0.0
20
0.0
30
0.0
70
1
0
VERTEX
8
0
10
3.3782
20
4.73280625
30
0
0
VERTEX
8
0
10
3.3782
20
5.42719375
30
0
0
VERTEX
8
0
10
3.161178125
20
5.644215625
30
0
0
VERTEX
8
0
10
4.62588125
20
7.10891875
30
0
42
0.198912367379658
0
VERTEX
8
0
10
4.6482
20
7.162800000000001
30
0
0
VERTEX
8
0
10
4.6482
20
18.374078125
30
0
42
0.9969241442347151
0
VERTEX
8
0
10
4.498059375
20
19.116928125
30
0
0
VERTEX
8
0
10
4.4501718750000006
20
19.104096875
30
0
42
0.7648843201253167
0
VERTEX
8
0
10
4.4958
20
18.374078125
30
0
0
VERTEX
8
0
10
4.4958
20
7.1943625
30
0
0
VERTEX
8
0
10
3.053415625
20
5.751978125
30
0
0
VERTEX
8
0
10
2.8871937500000002
20
5.918200000000001
30
0
0
VERTEX
8
0
10
2.1928062500000003
20
5.918200000000001
30
0
0
VERTEX
8
0
10
1.7018
20
5.42719375
30
0
0
VERTEX
8
0
10
1.7018
20
4.73280625
30
0
0
VERTEX
8
0
10
2.1928062500000003
20
4.2418000000000005
30
0
0
VERTEX
8
0
10
2.8871937500000002
20
4.2418000000000005
30
0
0
SEQEND
0
POLYLINE
66
1
8
1_copper
10
0.0
20
0.0
30
0.0
70
1
0
VERTEX
8
0
10
28.6004
20
36.556456250000004
30
0
0
VERTEX
8
0
10
28.6004
20
37.10354375
30
0
0
VERTEX
8
0
10
28.213543750000003
20
37.4904
30
0
0
VERTEX
8
0
10
27.666456250000003
20
37.4904
30
0
0
VERTEX
8
0
10
27.279600000000002
20
37.10354375
30
0
0
VERTEX
8
0
10
27.279600000000002
20
36.556456250000004
30
0
0
VERTEX
8
0
10
27.666456250000003
20
36.1696
30
0
0
VERTEX
8
0
10
28.213543750000003
20
36.1696
30
0
0
SEQEND
0
POLYLINE
66
1
8
1_copper
10
0.0
20
0.0
30
0.0
70
1
0
VERTEX
8
0
10
7.107418750000001
20
27.285959375
30
0
42
0.9063462356499619
0
VERTEX
8
0
10
7.04284375
20
28.6004
30
0
0
VERTEX
8
0
10
5.65715625
20
28.6004
30
0
42
0.9520786018124834
0
VERTEX
8
0
10
5.65715625
20
27.279600000000002
30
0
0
VERTEX
8
0
10
7.04284375
20
27.279600000000002
30
0
0
SEQEND
0
POLYLINE
66
1
8
16_copper
10
0.0
20
0.0
30
0.0
70
1
0
VERTEX
8
0
10
7.107418750000001
20
27.285959375
30
0
42
0.6139078667175387
0
VERTEX
8
0
10
7.4804562500000005
20
28.40389375
30
0
0
VERTEX
8
0
10
13.2903625
20
34.2138
30
0
0
VERTEX
8
0
10
25.4508
20
34.2138
30
0
42
0.198912367379658
0
VERTEX
8
0
10
25.50468125
20
34.23611875
30
0
0
VERTEX
8
0
10
27.552309375
20
36.283746875
30
0
0
VERTEX
8
0
10
27.666456250000003
20
36.1696
30
0
0
VERTEX
8
0
10
28.213543750000003
20
36.1696
30
0
0
VERTEX
8
0
10
28.6004
20
36.556456250000004
30
0
0
VERTEX
8
0
10
28.6004
20
37.10354375
30
0
0
VERTEX
8
0
10
28.213543750000003
20
37.4904
30
0
0
VERTEX
8
0
10
27.666456250000003
20
37.4904
30
0
0
VERTEX
8
0
10
27.279600000000002
20
37.10354375
30
0
0
VERTEX
8
0
10
27.279600000000002
20
36.556456250000004
30
0
0
VERTEX
8
0
10
27.444546875
20
36.391509375
30
0
0
VERTEX
8
0
10
25.4192375
20
34.3662
30
0
0
VERTEX
8
0
10
13.2588
20
34.3662
30
0
42
0.198912367379658
0
VERTEX
8
0
10
13.204918750000001
20
34.34388125
30
0
0
VERTEX
8
0
10
7.36101875
20
28.49998125
30
0
42
0.12827687245275735
0
VERTEX
8
0
10
7.04284375
20
28.6004
30
0
0
VERTEX
8
0
10
5.65715625
20
28.6004
30
0
42
0.9520786018124834
0
VERTEX
8
0
10
5.65715625
20
27.279600000000002
30
0
0
VERTEX
8
0
10
7.04284375
20
27.279600000000002
30
0
0
SEQEND
0
POLYLINE
66
1
8
1_copper
10
0.0
20
0.0
30
0.0
70
1
0
VERTEX
8
0
10
36.220400000000005
20
36.556456250000004
30
0
0
VERTEX
8
0
10
36.220400000000005
20
37.10354375
30
0
0
VERTEX
8
0
10
35.833543750000004
20
37.4904
30
0
0
VERTEX
8
0
10
35.28645625
20
37.4904
30
0
0
VERTEX
8
0
10
34.8996
20
37.10354375
30
0
0
VERTEX
8
0
10
34.8996
20
36.556456250000004
30
0
0
VERTEX
8
0
10
35.28645625
20
36.1696
30
0
0
VERTEX
8
0
10
35.833543750000004
20
36.1696
30
0
0
SEQEND
0
POLYLINE
66
1
8
16_copper
10
0.0
20
0.0
30
0.0
70
1
0
VERTEX
8
0
10
36.220400000000005
20
36.556456250000004
30
0
0
VERTEX
8
0
10
36.220400000000005
20
37.10354375
30
0
0
VERTEX
8
0
10
35.833543750000004
20
37.4904
30
0
0
VERTEX
8
0
10
35.28645625
20
37.4904
30
0
0
VERTEX
8
0
10
34.8996
20
37.10354375
30
0
0
VERTEX
8
0
10
34.8996
20
36.556456250000004
30
0
0
VERTEX
8
0
10
35.28645625
20
36.1696
30
0
0
VERTEX
8
0
10
35.833543750000004
20
36.1696
30
0
0
SEQEND
0
POLYLINE
66
1
8
1_copper
10
0.0
20
0.0
30
0.0
70
1
0
VERTEX
8
0
10
7.107418750000001
20
39.985959375
30
0
42
0.9063462356499619
0
VERTEX
8
0
10
7.04284375
20
41.3004
30
0
0
VERTEX
8
0
10
5.65715625
20
41.3004
30
0
42
0.9520786018124834
0
VERTEX
8
0
10
5.65715625
20
39.979600000000005
30
0
0
VERTEX
8
0
10
7.04284375
20
39.979600000000005
30
0
0
SEQEND
0
POLYLINE
66
1
8
1_copper
10
0.0
20
0.0
30
0.0
70
1
0
VERTEX
8
0
10
3.3782
20
7.27280625
30
0
0
VERTEX
8
0
10
3.3782
20
7.967193750000001
30
0
0
VERTEX
8
0
10
2.8871937500000002
20
8.4582
30
0
0
VERTEX
8
0
10
2.1928062500000003
20
8.4582
30
0
0
VERTEX
8
0
10
1.7018
20
7.967193750000001
30
0
0
VERTEX
8
0
10
1.7018
20
7.27280625
30
0
0
VERTEX
8
0
10
2.1928062500000003
20
6.7818000000000005
30
0
0
VERTEX
8
0
10
2.8871937500000002
20
6.7818000000000005
30
0
0
SEQEND
0
POLYLINE
66
1
8
16_copper
10
0.0
20
0.0
30
0.0
70
1
0
VERTEX
8
0
10
3.3782
20
7.27280625
30
0
0
VERTEX
8
0
10
3.3782
20
7.967193750000001
30
0
0
VERTEX
8
0
10
2.8871937500000002
20
8.4582
30
0
0
VERTEX
8
0
10
2.1928062500000003
20
8.4582
30
0
0
VERTEX
8
0
10
1.950384375
20
8.215778125
30
0
0
VERTEX
8
0
10
1.4478
20
8.7183625
30
0
0
VERTEX
8
0
10
1.4478
20
35.0204375
30
0
0
VERTEX
8
0
10
6.30228125
20
39.87491875
30
0
42
0.3575107650276803
0
VERTEX
8
0
10
6.3246
20
39.979600000000005
30
0
0
VERTEX
8
0
10
7.04284375
20
39.979600000000005
30
0
42
0.9520786018124834
0
VERTEX
8
0
10
7.04284375
20
41.3004
30
0
0
VERTEX
8
0
10
5.65715625
20
41.3004
30
0
42
0.9520786018124834
0
VERTEX
8
0
10
5.65715625
20
39.979600000000005
30
0
0
VERTEX
8
0
10
6.1722
20
39.979600000000005
30
0
0
VERTEX
8
0
10
6.1722
20
39.9603625
30
0
0
VERTEX
8
0
10
1.31771875
20
35.10588125
30
0
42
0.198912367379658
0
VERTEX
8
0
10
1.2954
20
35.052
30
0
0
VERTEX
8
0
10
1.2954
20
8.6868
30
0
42
0.198912367379658
0
VERTEX
8
0
10
1.31771875
20
8.63291875
30
0
0
VERTEX
8
0
10
1.842621875
20
8.108015625
30
0
0
VERTEX
8
0
10
1.7018
20
7.967193750000001
30
0
0
VERTEX
8
0
10
1.7018
20
7.27280625
30
0
0
VERTEX
8
0
10
2.1928062500000003
20
6.7818000000000005
30
0
0
VERTEX
8
0
10
2.8871937500000002
20
6.7818000000000005
30
0
0
SEQEND
0
POLYLINE
66
1
8
1_copper
10
0.0
20
0.0
30
0.0
70
1
0
VERTEX
8
0
10
14.72741875
20
45.065959375000006
30
0
42
0.9063462356499619
0
VERTEX
8
0
10
14.66284375
20
46.3804
30
0
0
VERTEX
8
0
10
13.27715625
20
46.3804
30
0
42
0.9520786018124834
0
VERTEX
8
0
10
13.27715625
20
45.0596
30
0
0
VERTEX
8
0
10
14.66284375
20
45.0596
30
0
0
SEQEND
0
POLYLINE
66
1
8
1_copper
10
0.0
20
0.0
30
0.0
70
1
0
VERTEX
8
0
10
31.140400000000003
20
40.36645625
30
0
0
VERTEX
8
0
10
31.140400000000003
20
40.91354375
30
0
0
VERTEX
8
0
10
30.753543750000002
20
41.3004
30
0
0
VERTEX
8
0
10
30.206456250000002
20
41.3004
30
0
0
VERTEX
8
0
10
29.8196
20
40.91354375
30
0
0
VERTEX
8
0
10
29.8196
20
40.36645625
30
0
0
VERTEX
8
0
10
30.206456250000002
20
39.979600000000005
30
0
0
VERTEX
8
0
10
30.753543750000002
20
39.979600000000005
30
0
0
SEQEND
0
POLYLINE
66
1
8
16_copper
10
0.0
20
0.0
30
0.0
70
1
0
VERTEX
8
0
10
31.140400000000003
20
40.36645625
30
0
0
VERTEX
8
0
10
31.140400000000003
20
40.91354375
30
0
0
VERTEX
8
0
10
30.753543750000002
20
41.3004
30
0
0
VERTEX
8
0
10
30.206456250000002
20
41.3004
30
0
0
VERTEX
8
0
10
29.8196
20
40.91354375
30
0
0
VERTEX
8
0
10
29.8196
20
40.767
30
0
0
VERTEX
8
0
10
25.0251625
20
40.767
30
0
0
VERTEX
8
0
10
20.01828125
20
45.77388125
30
0
42
0.198912367379658
0
VERTEX
8
0
10
19.9644
20
45.7962
30
0
0
VERTEX
8
0
10
15.286490625
20
45.7962
30
0
42
0.36675309512609283
0
VERTEX
8
0
10
14.66284375
20
46.3804
30
0
0
VERTEX
8
0
10
13.27715625
20
46.3804
30
0
42
0.9520786018124834
0
VERTEX
8
0
10
13.27715625
20
45.0596
30
0
0
VERTEX
8
0
10
14.66284375
20
45.0596
30
0
42
0.36675309512609283
0
VERTEX
8
0
10
15.286490625
20
45.6438
30
0
0
VERTEX
8
0
10
19.9328375
20
45.6438
30
0
0
VERTEX
8
0
10
24.93971875
20
40.63691875
30
0
42
0.198912367379658
0
VERTEX
8
0
10
24.9936
20
40.6146
30
0
0
VERTEX
8
0
10
29.8196
20
40.6146
30
0
0
VERTEX
8
0
10
29.8196
20
40.36645625
30
0
0
VERTEX
8
0
10
30.206456250000002
20
39.979600000000005
30
0
0
VERTEX
8
0
10
30.753543750000002
20
39.979600000000005
30
0
0
SEQEND
0
POLYLINE
66
1
8
1_copper
10
0.0
20
0.0
30
0.0
70
1
0
VERTEX
8
0
10
23.520400000000002
20
40.36645625
30
0
0
VERTEX
8
0
10
23.520400000000002
20
40.91354375
30
0
0
VERTEX
8
0
10
23.13354375
20
41.3004
30
0
0
VERTEX
8
0
10
22.58645625
20
41.3004
30
0
0
VERTEX
8
0
10
22.1996
20
40.91354375
30
0
0
VERTEX
8
0
10
22.1996
20
40.36645625
30
0
0
VERTEX
8
0
10
22.58645625
20
39.979600000000005
30
0
0
VERTEX
8
0
10
23.13354375
20
39.979600000000005
30
0
0
SEQEND
0
POLYLINE
66
1
8
16_copper
10
0.0
20
0.0
30
0.0
70
1
0
VERTEX
8
0
10
23.520400000000002
20
40.36645625
30
0
0
VERTEX
8
0
10
23.520400000000002
20
40.91354375
30
0
0
VERTEX
8
0
10
23.13354375
20
41.3004
30
0
0
VERTEX
8
0
10
22.58645625
20
41.3004
30
0
0
VERTEX
8
0
10
22.1996
20
40.91354375
30
0
0
VERTEX
8
0
10
22.1996
20
40.36645625
30
0
0
VERTEX
8
0
10
22.58645625
20
39.979600000000005
30
0
0
VERTEX
8
0
10
23.13354375
20
39.979600000000005
30
0
0
SEQEND
0
POLYLINE
66
1
8
1_copper
10
0.0
20
0.0
30
0.0
70
1
0
VERTEX
8
0
10
13.212581250000001
20
33.674040625
30
0
42
0.9063462356499619
0
VERTEX
8
0
10
13.27715625
20
32.3596
30
0
0
VERTEX
8
0
10
14.66284375
20
32.3596
30
0
42
0.9520786018124834
0
VERTEX
8
0
10
14.66284375
20
33.6804
30
0
0
VERTEX
8
0
10
14.128562500000001
20
33.6804
30
0
0
VERTEX
8
0
10
16.81788125
20
36.369718750000004
30
0
42
0.198912367379658
0
VERTEX
8
0
10
16.8402
20
36.4236
30
0
0
VERTEX
8
0
10
16.8402
20
39.5924375
30
0
0
VERTEX
8
0
10
19.61533125
20
42.367568750000004
30
0
42
0.9084360773702358
0
VERTEX
8
0
10
21.031200000000002
20
42.433862500000004
30
0
0
VERTEX
8
0
10
21.031200000000002
20
43.9261375
30
0
42
0.9520811731250587
0
VERTEX
8
0
10
19.608800000000002
20
43.9261375
30
0
0
VERTEX
8
0
10
19.608800000000002
20
42.5765625
30
0
0
VERTEX
8
0
10
16.71011875
20
39.67788125
30
0
42
0.198912367379658
0
VERTEX
8
0
10
16.6878
20
39.624
30
0
0
VERTEX
8
0
10
16.6878
20
36.4551625
30
0
0
VERTEX
8
0
10
13.966918750000001
20
33.73428125
30
0
42
0.198912367379658
0
VERTEX
8
0
10
13.944600000000001
20
33.6804
30
0
0
VERTEX
8
0
10
13.27715625
20
33.6804
30
0
0
SEQEND
0
POLYLINE
66
1
8
16_copper
10
0.0
20
0.0
30
0.0
70
1
0
VERTEX
8
0
10
20.42448125
20
41.764450000000004
30
0
42
0.35780600851811184
0
VERTEX
8
0
10
21.031200000000002
20
42.433862500000004
30
0
0
VERTEX
8
0
10
21.031200000000002
20
43.9261375
30
0
42
0.9520811731250587
0
VERTEX
8
0
10
19.608800000000002
20
43.9261375
30
0
0
VERTEX
8
0
10
19.608800000000002
20
42.433862500000004
30
0
0
VERTEX
8
0
10
19.615650000000002
20
42.36431875
30
0
0
VERTEX
8
0
10
19.629281250000002
20
42.295784375000004
30
0
0
VERTEX
8
0
10
19.649565625
20
42.228915625
30
0
0
VERTEX
8
0
10
19.67630625
20
42.164356250000004
30
0
0
VERTEX
8
0
10
19.709246875
20
42.102728125
30
0
0
VERTEX
8
0
10
19.74806875
20
42.044628125
30
0
0
VERTEX
8
0
10
19.7924
20
41.990612500000005
30
0
0
VERTEX
8
0
10
19.8418125
20
41.9412
30
0
0
VERTEX
8
0
10
19.895828125
20
41.89686875
30
0
0
VERTEX
8
0
10
19.953928125
20
41.858046875
30
0
0
VERTEX
8
0
10
20.01555625
20
41.825106250000005
30
0
0
VERTEX
8
0
10
20.080115625
20
41.798365625
30
0
0
VERTEX
8
0
10
20.146984375000002
20
41.77808125
30
0
0
VERTEX
8
0
10
20.21551875
20
41.764450000000004
30
0
0
VERTEX
8
0
10
20.285062500000002
20
41.757600000000004
30
0
0
VERTEX
8
0
10
20.354937500000002
20
41.757600000000004
30
0
0
SEQEND
0
POLYLINE
66
1
8
16_copper
10
0.0
20
0.0
30
0.0
70
1
0
VERTEX
8
0
10
14.72741875
20
32.365959375
30
0
42
0.9063462356499619
0
VERTEX
8
0
10
14.66284375
20
33.6804
30
0
0
VERTEX
8
0
10
13.27715625
20
33.6804
30
0
42
0.9520786018124834
0
VERTEX
8
0
10
13.27715625
20
32.3596
30
0
0
VERTEX
8
0
10
14.66284375
20
32.3596
30
0
0
SEQEND
0
POLYLINE
66
1
8
1_copper
10
0.0
20
0.0
30
0.0
70
1
0
VERTEX
8
0
10
14.72741875
20
39.985959375
30
0
42
0.3303545576459427
0
VERTEX
8
0
10
15.284440625
20
40.542981250000004
30
0
0
VERTEX
8
0
10
15.2908
20
40.60755625
30
0
42
0.05943774108459534
0
VERTEX
8
0
10
15.29388125
20
40.63691875
30
0
0
VERTEX
8
0
10
17.070775
20
42.4138125
30
0
42
0.9386868806479789
0
VERTEX
8
0
10
18.4912
20
42.433862500000004
30
0
0
VERTEX
8
0
10
18.4912
20
43.9261375
30
0
42
0.9520811731250587
0
VERTEX
8
0
10
17.0688
20
43.9261375
30
0
0
VERTEX
8
0
10
17.0688
20
42.627362500000004
30
0
0
VERTEX
8
0
10
15.264871875
20
40.823434375000005
30
0
42
0.3204016253307378
0
VERTEX
8
0
10
14.66284375
20
41.3004
30
0
0
VERTEX
8
0
10
13.27715625
20
41.3004
30
0
42
0.9520786018124834
0
VERTEX
8
0
10
13.27715625
20
39.979600000000005
30
0
0
VERTEX
8
0
10
14.66284375
20
39.979600000000005
30
0
0
SEQEND
0
POLYLINE
66
1
8
16_copper
10
0.0
20
0.0
30
0.0
70
1
0
VERTEX
8
0
10
17.88448125
20
41.764450000000004
30
0
42
0.35780600851811184
0
VERTEX
8
0
10
18.4912
20
42.433862500000004
30
0
0
VERTEX
8
0
10
18.4912
20
43.9261375
30
0
42
0.9520811731250587
0
VERTEX
8
0
10
17.0688
20
43.9261375
30
0
0
VERTEX
8
0
10
17.0688
20
42.433862500000004
30
0
0
VERTEX
8
0
10
17.07565
20
42.36431875
30
0
0
VERTEX
8
0
10
17.08928125
20
42.295784375000004
30
0
0
VERTEX
8
0
10
17.109565625000002
20
42.228915625
30
0
0
VERTEX
8
0
10
17.13630625
20
42.164356250000004
30
0
0
VERTEX
8
0
10
17.169246875000002
20
42.102728125
30
0
0
VERTEX
8
0
10
17.208068750000002
20
42.044628125
30
0
0
VERTEX
8
0
10
17.2524
20
41.990612500000005
30
0
0
VERTEX
8
0
10
17.3018125
20
41.9412
30
0
0
VERTEX
8
0
10
17.355828125000002
20
41.89686875
30
0
0
VERTEX
8
0
10
17.413928125
20
41.858046875
30
0
0
VERTEX
8
0
10
17.47555625
20
41.825106250000005
30
0
0
VERTEX
8
0
10
17.540115625000002
20
41.798365625
30
0
0
VERTEX
8
0
10
17.606984375
20
41.77808125
30
0
0
VERTEX
8
0
10
17.675518750000002
20
41.764450000000004
30
0
0
VERTEX
8
0
10
17.7450625
20
41.757600000000004
30
0
0
VERTEX
8
0
10
17.8149375
20
41.757600000000004
30
0
0
SEQEND
0
POLYLINE
66
1
8
16_copper
10
0.0
20
0.0
30
0.0
70
1
0
VERTEX
8
0
10
14.72741875
20
39.985959375
30
0
42
0.9063462356499619
0
VERTEX
8
0
10
14.66284375
20
41.3004
30
0
0
VERTEX
8
0
10
13.27715625
20
41.3004
30
0
42
0.9520786018124834
0
VERTEX
8
0
10
13.27715625
20
39.979600000000005
30
0
0
VERTEX
8
0
10
14.66284375
20
39.979600000000005
30
0
0
SEQEND
0
POLYLINE
66
1
8
1_copper
10
0.0
20
0.0
30
0.0
70
1
0
VERTEX
8
0
10
32.534
20
3.164
30
0
0
VERTEX
8
0
10
31.286
20
3.164
30
0
0
VERTEX
8
0
10
31.286
20
1.9160000000000001
30
0
0
VERTEX
8
0
10
32.534
20
1.9160000000000001
30
0
0
SEQEND
0
POLYLINE
66
1
8
16_copper
10
0.0
20
0.0
30
0.0
70
1
0
VERTEX
8
0
10
32.534
20
3.164
30
0
0
VERTEX
8
0
10
32.080200000000005
20
3.164
30
0
0
VERTEX
8
0
10
32.080200000000005
20
3.9308375
30
0
0
VERTEX
8
0
10
36.934681250000004
20
8.78531875
30
0
42
0.198912367379658
0
VERTEX
8
0
10
36.957
20
8.8392
30
0
0
VERTEX
8
0
10
36.957
20
37.1856
30
0
42
0.198912367379658
0
VERTEX
8
0
10
36.934681250000004
20
37.239481250000004
30
0
0
VERTEX
8
0
10
31.1658
20
43.008362500000004
30
0
0
VERTEX
8
0
10
31.1658
20
48.1584
30
0
42
0.198912367379658
0
VERTEX
8
0
10
31.14348125
20
48.212281250000004
30
0
0
VERTEX
8
0
10
30.07668125
20
49.279081250000004
30
0
42
0.13593295954572596
0
VERTEX
8
0
10
30.04128125
20
49.299125000000004
30
0
0
VERTEX
8
0
10
29.939681250000003
20
49.324525
30
0
42
0.9999999999999999
0
VERTEX
8
0
10
29.902718750000002
20
49.176675
30
0
0
VERTEX
8
0
10
29.983843750000002
20
49.15639375
30
0
0
VERTEX
8
0
10
31.0134
20
48.1268375
30
0
0
VERTEX
8
0
10
31.0134
20
42.976800000000004
30
0
42
0.198912367379658
0
VERTEX
8
0
10
31.03571875
20
42.92291875
30
0
0
VERTEX
8
0
10
36.8046
20
37.1540375
30
0
0
VERTEX
8
0
10
36.8046
20
8.8707625
30
0
0
VERTEX
8
0
10
31.95011875
20
4.0162812500000005
30
0
42
0.198912367379658
0
VERTEX
8
0
10
31.9278
20
3.9624
30
0
0
VERTEX
8
0
10
31.9278
20
3.164
30
0
0
VERTEX
8
0
10
31.286
20
3.164
30
0
0
VERTEX
8
0
10
31.286
20
1.9160000000000001
30
0
0
VERTEX
8
0
10
32.534
20
1.9160000000000001
30
0
0
SEQEND
0
POLYLINE
66
1
8
1_copper
10
0.0
20
0.0
30
0.0
70
1
0
VERTEX
8
0
10
3.3782
20
22.51280625
30
0
0
VERTEX
8
0
10
3.3782
20
22.7838
30
0
0
VERTEX
8
0
10
13.868400000000001
20
22.7838
30
0
42
0.198912367379658
0
VERTEX
8
0
10
13.922281250000001
20
22.80611875
30
0
0
VERTEX
8
0
10
25.0251625
20
33.909
30
0
0
VERTEX
8
0
10
25.7240375
20
33.909
30
0
0
VERTEX
8
0
10
26.898600000000002
20
32.7344375
30
0
0
VERTEX
8
0
10
26.898600000000002
20
32.6136
30
0
42
0.198912367379658
0
VERTEX
8
0
10
26.920918750000002
20
32.55971875
30
0
0
VERTEX
8
0
10
27.530518750000002
20
31.95011875
30
0
42
0.198912367379658
0
VERTEX
8
0
10
27.584400000000002
20
31.9278
30
0
0
VERTEX
8
0
10
28.194000000000003
20
31.9278
30
0
42
0.198912367379658
0
VERTEX
8
0
10
28.247881250000002
20
31.95011875
30
0
0
VERTEX
8
0
10
35.10588125
20
38.80811875
30
0
42
0.198912367379658
0
VERTEX
8
0
10
35.1282
20
38.862
30
0
0
VERTEX
8
0
10
35.1282
20
41.903128125
30
0
42
0.6040932680757266
0
VERTEX
8
0
10
36.2712
20
42.433862500000004
30
0
0
VERTEX
8
0
10
36.2712
20
43.9261375
30
0
42
0.9520811731250587
0
VERTEX
8
0
10
34.848800000000004
20
43.9261375
30
0
0
VERTEX
8
0
10
34.848800000000004
20
43.5925625
30
0
0
VERTEX
8
0
10
33.42948125
20
45.01188125
30
0
42
0.198912367379658
0
VERTEX
8
0
10
33.3756
20
45.034200000000006
30
0
0
VERTEX
8
0
10
30.1752
20
45.034200000000006
30
0
42
0.198912367379658
0
VERTEX
8
0
10
30.12131875
20
45.01188125
30
0
0
VERTEX
8
0
10
29.972743750000003
20
44.86330625
30
0
0
VERTEX
8
0
10
29.87548125
20
44.790359375
30
0
42
0.9999999999999999
0
VERTEX
8
0
10
29.96691875
20
44.668440625
30
0
0
VERTEX
8
0
10
30.068518750000003
20
44.744640625
30
0
42
0.035491204834236324
0
VERTEX
8
0
10
30.07668125
20
44.75171875
30
0
0
VERTEX
8
0
10
30.2067625
20
44.881800000000005
30
0
0
VERTEX
8
0
10
33.3440375
20
44.881800000000005
30
0
0
VERTEX
8
0
10
34.848800000000004
20
43.3770375
30
0
0
VERTEX
8
0
10
34.848800000000004
20
42.433862500000004
30
0
42
0.14042095376897307
0
VERTEX
8
0
10
34.9758
20
42.062990625000005
30
0
0
VERTEX
8
0
10
34.9758
20
38.8935625
30
0
0
VERTEX
8
0
10
28.162437500000003
20
32.080200000000005
30
0
0
VERTEX
8
0
10
27.615962500000002
20
32.080200000000005
30
0
0
VERTEX
8
0
10
27.051000000000002
20
32.645162500000005
30
0
0
VERTEX
8
0
10
27.051000000000002
20
32.766
30
0
42
0.198912367379658
0
VERTEX
8
0
10
27.02868125
20
32.81988125
30
0
0
VERTEX
8
0
10
25.80948125
20
34.03908125
30
0
42
0.198912367379658
0
VERTEX
8
0
10
25.7556
20
34.0614
30
0
0
VERTEX
8
0
10
24.9936
20
34.0614
30
0
42
0.198912367379658
0
VERTEX
8
0
10
24.93971875
20
34.03908125
30
0
0
VERTEX
8
0
10
13.836837500000001
20
22.9362
30
0
0
VERTEX
8
0
10
3.3782
20
22.9362
30
0
0
VERTEX
8
0
10
3.3782
20
23.207193750000002
30
0
0
VERTEX
8
0
10
2.8871937500000002
20
23.6982
30
0
0
VERTEX
8
0
10
2.1928062500000003
20
23.6982
30
0
0
VERTEX
8
0
10
1.7018
20
23.207193750000002
30
0
0
VERTEX
8
0
10
1.7018
20
22.51280625
30
0
0
VERTEX
8
0
10
2.1928062500000003
20
22.021800000000002
30
0
0
VERTEX
8
0
10
2.8871937500000002
20
22.021800000000002
30
0
0
SEQEND
0
POLYLINE
66
1
8
16_copper
10
0.0
20
0.0
30
0.0
70
1
0
VERTEX
8
0
10
35.66448125
20
41.764450000000004
30
0
42
0.35780600851811184
0
VERTEX
8
0
10
36.2712
20
42.433862500000004
30
0
0
VERTEX
8
0
10
36.2712
20
43.9261375
30
0
42
0.9520811731250587
0
VERTEX
8
0
10
34.848800000000004
20
43.9261375
30
0
0
VERTEX
8
0
10
34.848800000000004
20
42.433862500000004
30
0
0
VERTEX
8
0
10
34.855650000000004
20
42.36431875
30
0
0
VERTEX
8
0
10
34.86928125
20
42.295784375000004
30
0
0
VERTEX
8
0
10
34.889565625
20
42.228915625
30
0
0
VERTEX
8
0
10
34.916306250000005
20
42.164356250000004
30
0
0
VERTEX
8
0
10
34.949246875
20
42.102728125
30
0
0
VERTEX
8
0
10
34.988068750000004
20
42.044628125
30
0
0
VERTEX
8
0
10
35.0324
20
41.990612500000005
30
0
0
VERTEX
8
0
10
35.081812500000005
20
41.9412
30
0
0
VERTEX
8
0
10
35.135828125
20
41.89686875
30
0
0
VERTEX
8
0
10
35.193928125
20
41.858046875
30
0
0
VERTEX
8
0
10
35.255556250000005
20
41.825106250000005
30
0
0
VERTEX
8
0
10
35.320115625
20
41.798365625
30
0
0
VERTEX
8
0
10
35.386984375000004
20
41.77808125
30
0
0
VERTEX
8
0
10
35.45551875
20
41.764450000000004
30
0
0
VERTEX
8
0
10
35.525062500000004
20
41.757600000000004
30
0
0
VERTEX
8
0
10
35.5949375
20
41.757600000000004
30
0
0
SEQEND
0
POLYLINE
66
1
8
16_copper
10
0.0
20
0.0
30
0.0
70
1
0
VERTEX
8
0
10
3.3782
20
22.51280625
30
0
0
VERTEX
8
0
10
3.3782
20
23.207193750000002
30
0
0
VERTEX
8
0
10
2.8871937500000002
20
23.6982
30
0
0
VERTEX
8
0
10
2.1928062500000003
20
23.6982
30
0
0
VERTEX
8
0
10
1.7018
20
23.207193750000002
30
0
0
VERTEX
8
0
10
1.7018
20
22.51280625
30
0
0
VERTEX
8
0
10
2.1928062500000003
20
22.021800000000002
30
0
0
VERTEX
8
0
10
2.8871937500000002
20
22.021800000000002
30
0
0
SEQEND
0
POLYLINE
66
1
8
1_copper
10
0.0
20
0.0
30
0.0
70
1
0
VERTEX
8
0
10
14.72741875
20
42.525959375
30
0
42
0.9063462356499619
0
VERTEX
8
0
10
14.66284375
20
43.8404
30
0
0
VERTEX
8
0
10
13.27715625
20
43.8404
30
0
42
0.9520786018124834
0
VERTEX
8
0
10
13.27715625
20
42.519600000000004
30
0
0
VERTEX
8
0
10
14.66284375
20
42.519600000000004
30
0
0
SEQEND
0
POLYLINE
66
1
8
16_copper
10
0.0
20
0.0
30
0.0
70
1
0
VERTEX
8
0
10
32.00961875
20
15.1646125
30
0
42
0.39258815634569955
0
VERTEX
8
0
10
32.080200000000005
20
15.24
30
0
0
VERTEX
8
0
10
32.080200000000005
20
16.1228375
30
0
0
VERTEX
8
0
10
33.12468125
20
17.16731875
30
0
42
0.198912367379658
0
VERTEX
8
0
10
33.147
20
17.2212
30
0
0
VERTEX
8
0
10
33.147
20
22.2188375
30
0
0
VERTEX
8
0
10
33.42948125
20
22.50131875
30
0
42
0.198912367379658
0
VERTEX
8
0
10
33.4518
20
22.555200000000003
30
0
0
VERTEX
8
0
10
33.4518
20
29.8388375
30
0
0
VERTEX
8
0
10
35.5407625
20
31.9278
30
0
0
VERTEX
8
0
10
35.814
20
31.9278
30
0
42
0.198912367379658
0
VERTEX
8
0
10
35.86788125
20
31.95011875
30
0
0
VERTEX
8
0
10
36.629881250000004
20
32.71211875
30
0
42
0.198912367379658
0
VERTEX
8
0
10
36.6522
20
32.766
30
0
0
VERTEX
8
0
10
36.6522
20
33.3756
30
0
42
0.198912367379658
0
VERTEX
8
0
10
36.629881250000004
20
33.42948125
30
0
0
VERTEX
8
0
10
35.25828125
20
34.80108125
30
0
42
0.198912367379658
0
VERTEX
8
0
10
35.2044
20
34.8234
30
0
0
VERTEX
8
0
10
31.8831625
20
34.8234
30
0
0
VERTEX
8
0
10
27.02868125
20
39.67788125
30
0
42
0.198912367379658
0
VERTEX
8
0
10
26.974800000000002
20
39.7002
30
0
0
VERTEX
8
0
10
17.5575625
20
39.7002
30
0
0
VERTEX
8
0
10
14.731075
20
42.5266875
30
0
42
0.9037844368990166
0
VERTEX
8
0
10
14.66284375
20
43.8404
30
0
0
VERTEX
8
0
10
13.27715625
20
43.8404
30
0
42
0.9520786018124834
0
VERTEX
8
0
10
13.27715625
20
42.519600000000004
30
0
0
VERTEX
8
0
10
14.5226375
20
42.519600000000004
30
0
0
VERTEX
8
0
10
17.47211875
20
39.57011875
30
0
42
0.198912367379658
0
VERTEX
8
0
10
17.526
20
39.5478
30
0
0
VERTEX
8
0
10
26.943237500000002
20
39.5478
30
0
0
VERTEX
8
0
10
31.79771875
20
34.69331875
30
0
42
0.198912367379658
0
VERTEX
8
0
10
31.8516
20
34.671
30
0
0
VERTEX
8
0
10
35.1728375
20
34.671
30
0
0
VERTEX
8
0
10
36.4998
20
33.3440375
30
0
0
VERTEX
8
0
10
36.4998
20
32.797562500000005
30
0
0
VERTEX
8
0
10
35.7824375
20
32.080200000000005
30
0
0
VERTEX
8
0
10
35.5092
20
32.080200000000005
30
0
42
0.198912367379658
0
VERTEX
8
0
10
35.45531875
20
32.05788125
30
0
0
VERTEX
8
0
10
33.32171875
20
29.92428125
30
0
42
0.198912367379658
0
VERTEX
8
0
10
33.2994
20
29.8704
30
0
0
VERTEX
8
0
10
33.2994
20
22.586762500000003
30
0
0
VERTEX
8
0
10
33.01691875
20
22.304281250000003
30
0
42
0.198912367379658
0
VERTEX
8
0
10
32.9946
20
22.250400000000003
30
0
0
VERTEX
8
0
10
32.9946
20
17.2527625
30
0
0
VERTEX
8
0
10
31.95011875
20
16.208281250000002
30
0
42
0.198912367379658
0
VERTEX
8
0
10
31.9278
20
16.154400000000003
30
0
0
VERTEX
8
0
10
31.9278
20
15.3162
30
0
42
0.9773971253737723
0
VERTEX
8
0
10
31.88929375
20
15.166668750000001
30
0
0
VERTEX
8
0
10
31.91
20
15.1638
30
0
0
VERTEX
8
0
10
32.004000000000005
20
15.1638
30
0
0
SEQEND
0
POLYLINE
66
1
8
1_copper
10
0.0
20
0.0
30
0.0
70
1
0
VERTEX
8
0
10
14.72741875
20
29.825959375
30
0
42
0.9063462356499619
0
VERTEX
8
0
10
14.66284375
20
31.140400000000003
30
0
0
VERTEX
8
0
10
13.27715625
20
31.140400000000003
30
0
42
0.9520786018124834
0
VERTEX
8
0
10
13.27715625
20
29.8196
30
0
0
VERTEX
8
0
10
14.66284375
20
29.8196
30
0
0
SEQEND
0
POLYLINE
66
1
8
16_copper
10
0.0
20
0.0
30
0.0
70
1
0
VERTEX
8
0
10
31.920934375
20
17.704587500000002
30
0
42
0.6415724386368595
0
VERTEX
8
0
10
31.960009375000002
20
17.83749375
30
0
0
VERTEX
8
0
10
31.901609375000003
20
17.888293750000003
30
0
42
0.18090826813340274
0
VERTEX
8
0
10
31.8516
20
17.907
30
0
0
VERTEX
8
0
10
27.768362500000002
20
17.907
30
0
0
VERTEX
8
0
10
15.285153125
20
30.390209375
30
0
42
0.4399902635619601
0
VERTEX
8
0
10
14.66284375
20
31.140400000000003
30
0
0
VERTEX
8
0
10
13.27715625
20
31.140400000000003
30
0
42
0.9520786018124834
0
VERTEX
8
0
10
13.27715625
20
29.8196
30
0
0
VERTEX
8
0
10
14.66284375
20
29.8196
30
0
42
0.28749316399326946
0
VERTEX
8
0
10
15.238196875
20
30.221640625000003
30
0
0
VERTEX
8
0
10
27.682918750000002
20
17.77691875
30
0
42
0.198912367379658
0
VERTEX
8
0
10
27.736800000000002
20
17.7546
30
0
0
VERTEX
8
0
10
31.823096875
20
17.7546
30
0
0
VERTEX
8
0
10
31.859990625000002
20
17.722506250000002
30
0
0
VERTEX
8
0
10
31.878284375
20
17.7107125
30
0
0
VERTEX
8
0
10
31.89916875
20
17.704575000000002
30
0
0
SEQEND
0
CIRCLE
8
drills_PTH
10
29.921200000000002
20
44.729400000000005
30
0
40
0.508
0
CIRCLE
8
drills_PTH
10
23.4188
20
44.729400000000005
30
0
40
0.508
0
CIRCLE
8
drills_PTH
10
29.921200000000002
20
49.250600000000006
30
0
40
0.508
0
CIRCLE
8
drills_PTH
10
23.4188
20
49.250600000000006
30
0
40
0.508
0
CIRCLE
8
drills_PTH
10
6.36
20
55.88
30
0
40
0.5
0
CIRCLE
8
drills_PTH
10
13.96
20
55.88
30
0
40
0.5
0
CIRCLE
8
drills_PTH
10
20.32
20
43.18
30
0
40
0.4572
0
CIRCLE
8
drills_PTH
10
33.02
20
43.18
30
0
40
0.4572
0
CIRCLE
8
drills_PTH
10
35.56
20
43.18
30
0
40
0.4572
0
CIRCLE
8
drills_PTH
10
17.78
20
43.18
30
0
40
0.4572
0
CIRCLE
8
drills_PTH
10
6.3500000000000005
20
45.72
30
0
40
0.40640000000000004
0
CIRCLE
8
drills_PTH
10
6.3500000000000005
20
43.18
30
0
40
0.40640000000000004
0
CIRCLE
8
drills_PTH
10
6.3500000000000005
20
40.64
30
0
40
0.40640000000000004
0
CIRCLE
8
drills_PTH
10
6.3500000000000005
20
38.1
30
0
40
0.40640000000000004
0
CIRCLE
8
drills_PTH
10
6.3500000000000005
20
35.56
30
0
40
0.40640000000000004
0
CIRCLE
8
drills_PTH
10
6.3500000000000005
20
33.02
30
0
40
0.40640000000000004
0
CIRCLE
8
drills_PTH
10
6.3500000000000005
20
30.48
30
0
40
0.40640000000000004
0
CIRCLE
8
drills_PTH
10
6.3500000000000005
20
27.94
30
0
40
0.40640000000000004
0
CIRCLE
8
drills_PTH
10
17.78
20
29.21
30
0
40
0.40640000000000004
0
CIRCLE
8
drills_PTH
10
25.400000000000002
20
29.21
30
0
40
0.40640000000000004
0
CIRCLE
8
drills_PTH
10
13.97
20
27.94
30
0
40
0.40640000000000004
0
CIRCLE
8
drills_PTH
10
35.56
20
29.21
30
0
40
0.40640000000000004
0
CIRCLE
8
drills_PTH
10
17.78
20
33.02
30
0
40
0.40640000000000004
0
CIRCLE
8
drills_PTH
10
25.400000000000002
20
33.02
30
0
40
0.40640000000000004
0
CIRCLE
8
drills_PTH
10
27.94
20
33.02
30
0
40
0.40640000000000004
0
CIRCLE
8
drills_PTH
10
35.56
20
33.02
30
0
40
0.40640000000000004
0
CIRCLE
8
drills_PTH
10
17.78
20
36.83
30
0
40
0.40640000000000004
0
CIRCLE
8
drills_PTH
10
25.400000000000002
20
36.83
30
0
40
0.40640000000000004
0
CIRCLE
8
drills_PTH
10
27.94
20
36.83
30
0
40
0.40640000000000004
0
CIRCLE
8
drills_PTH
10
35.56
20
36.83
30
0
40
0.40640000000000004
0
CIRCLE
8
drills_PTH
10
22.86
20
40.64
30
0
40
0.40640000000000004
0
CIRCLE
8
drills_PTH
10
30.48
20
40.64
30
0
40
0.40640000000000004
0
CIRCLE
8
drills_PTH
10
13.97
20
30.48
30
0
40
0.40640000000000004
0
CIRCLE
8
drills_PTH
10
13.97
20
43.18
30
0
40
0.40640000000000004
0
CIRCLE
8
drills_PTH
10
13.97
20
45.72
30
0
40
0.40640000000000004
0
CIRCLE
8
drills_PTH
10
13.97
20
33.02
30
0
40
0.40640000000000004
0
CIRCLE
8
drills_PTH
10
13.97
20
35.56
30
0
40
0.40640000000000004
0
CIRCLE
8
drills_PTH
10
13.97
20
40.64
30
0
40
0.40640000000000004
0
CIRCLE
8
drills_PTH
10
13.97
20
38.1
30
0
40
0.40640000000000004
0
CIRCLE
8
drills_PTH
10
27.94
20
29.21
30
0
40
0.40640000000000004
0
CIRCLE
8
drills_PTH
10
2.54
20
15.24
30
0
40
0.4
0
CIRCLE
8
drills_PTH
10
2.54
20
12.700000000000001
30
0
40
0.4
0
CIRCLE
8
drills_PTH
10
20.32
20
15.24
30
0
40
0.4
0
CIRCLE
8
drills_PTH
10
20.32
20
12.700000000000001
30
0
40
0.4
0
CIRCLE
8
drills_PTH
10
2.54
20
10.16
30
0
40
0.4
0
CIRCLE
8
drills_PTH
10
2.54
20
17.78
30
0
40
0.4
0
CIRCLE
8
drills_PTH
10
20.32
20
17.78
30
0
40
0.4
0
CIRCLE
8
drills_PTH
10
20.32
20
10.16
30
0
40
0.4
0
CIRCLE
8
drills_PTH
10
2.54
20
20.32
30
0
40
0.4
0
CIRCLE
8
drills_PTH
10
20.32
20
20.32
30
0
40
0.4
0
CIRCLE
8
drills_PTH
10
2.54
20
7.62
30
0
40
0.4
0
CIRCLE
8
drills_PTH
10
20.32
20
7.62
30
0
40
0.4
0
CIRCLE
8
drills_PTH
10
2.54
20
22.86
30
0
40
0.4
0
CIRCLE
8
drills_PTH
10
20.32
20
22.86
30
0
40
0.4
0
CIRCLE
8
drills_PTH
10
2.54
20
5.08
30
0
40
0.4
0
CIRCLE
8
drills_PTH
10
20.32
20
5.08
30
0
40
0.4
0
CIRCLE
8
drills_PTH
10
31.91
20
2.54
30
0
40
0.37
0
CIRCLE
8
drills_PTH
10
31.91
20
5.08
30
0
40
0.37
0
CIRCLE
8
drills_PTH
10
31.91
20
12.700000000000001
30
0
40
0.37
0
CIRCLE
8
drills_PTH
10
31.91
20
10.16
30
0
40
0.37
0
CIRCLE
8
drills_PTH
10
31.91
20
20.32
30
0
40
0.37
0
CIRCLE
8
drills_PTH
10
31.91
20
15.24
30
0
40
0.37
0
CIRCLE
8
drills_PTH
10
31.91
20
22.86
30
0
40
0.37
0
CIRCLE
8
drills_PTH
10
31.91
20
17.78
30
0
40
0.37
0
CIRCLE
8
drills_PTH
10
31.91
20
25.400000000000002
30
0
40
0.37
0
CIRCLE
8
drills_PTH
10
31.91
20
7.62
30
0
40
0.37
0
CIRCLE
8
drills_PTH
10
23.970000000000002
20
5.08
30
0
40
0.37
0
CIRCLE
8
drills_PTH
10
23.970000000000002
20
22.86
30
0
40
0.37
0
CIRCLE
8
drills_PTH
10
23.970000000000002
20
17.78
30
0
40
0.37
0
CIRCLE
8
drills_PTH
10
23.970000000000002
20
25.400000000000002
30
0
40
0.37
0
CIRCLE
8
drills_PTH
10
23.970000000000002
20
15.24
30
0
40
0.37
0
CIRCLE
8
drills_PTH
10
23.970000000000002
20
20.32
30
0
40
0.37
0
CIRCLE
8
drills_PTH
10
23.970000000000002
20
7.62
30
0
40
0.37
0
CIRCLE
8
drills_PTH
10
23.970000000000002
20
12.700000000000001
30
0
40
0.37
0
CIRCLE
8
drills_PTH
10
23.970000000000002
20
10.16
30
0
40
0.37
0
CIRCLE
8
drills_PTH
10
23.970000000000002
20
2.54
30
0
40
0.37
0
CIRCLE
8
drills_via_1_16
10
3.6576
20
34.4424
30
0
40
0.17500000000000002
0
CIRCLE
8
drills_via_1_16
10
3.3528000000000002
20
32.9184
30
0
40
0.17500000000000002
0
CIRCLE
8
drills_via_1_16
10
16.9164
20
30.1752
30
0
40
0.17500000000000002
0
CIRCLE
8
drills_via_1_16
10
3.9624
20
19.9644
30
0
40
0.17500000000000002
0
CIRCLE
8
drills_via_1_16
10
4.572
20
18.7452
30
0
40
0.17500000000000002
0
ENDSEC
0
EOF