0
SECTION
2
HEADER
9
$ANGDIR
70
1
9
$AUNITS
70
0
9
$PROJECTNAME
1
BasicLED
9
$TDCREATE
40
2460506.90466642
9
$INSUNITS
70
4
0
ENDSEC
0
SECTION
2
ENTITIES
0
POLYLINE
66
1
8
outline
10
0.0
20
0.0
30
0.0
70
1
0
VERTEX
8
0
10
0
20
0
30
0
0
VERTEX
8
0
10
11.43
20
0.005
30
0
0
VERTEX
8
0
10
11.43
20
15.235000000000001
30
0
0
VERTEX
8
0
10
0
20
15.23
30
0
0
VERTEX
8
0
10
0
20
0
30
0
0
SEQEND
0
POLYLINE
66
1
8
1_copper
10
0.0
20
0.0
30
0.0
70
1
0
VERTEX
8
0
10
8.99448125
20
2.39445
30
0
42
0.35780600851811184
0
VERTEX
8
0
10
9.6012
20
3.0638625
30
0
0
VERTEX
8
0
10
9.6012
20
4.413437500000001
30
0
0
VERTEX
8
0
10
10.21388125
20
5.02611875
30
0
42
0.198912367379658
0
VERTEX
8
0
10
10.2362
20
5.08
30
0
0
VERTEX
8
0
10
10.2362
20
9.365
30
0
42
0.2882176193727823
0
VERTEX
8
0
10
10.195
20
9.4377625
30
0
0
VERTEX
8
0
10
10.195
20
10.23
30
0
0
VERTEX
8
0
10
9.495000000000001
20
10.23
30
0
0
VERTEX
8
0
10
9.495000000000001
20
9.7562
30
0
0
VERTEX
8
0
10
5.745
20
9.7562
30
0
0
VERTEX
8
0
10
5.745
20
10.23
30
0
0
VERTEX
8
0
10
5.045
20
10.23
30
0
0
VERTEX
8
0
10
5.045
20
9.13
30
0
0
VERTEX
8
0
10
5.745
20
9.13
30
0
0
VERTEX
8
0
10
5.745
20
9.6038
30
0
0
VERTEX
8
0
10
9.495000000000001
20
9.6038
30
0
0
VERTEX
8
0
10
9.495000000000001
20
9.13
30
0
0
VERTEX
8
0
10
10.0838
20
9.13
30
0
0
VERTEX
8
0
10
10.0838
20
5.111562500000001
30
0
0
VERTEX
8
0
10
9.59466875
20
4.62243125
30
0
42
0.9084360773702358
0
VERTEX
8
0
10
8.1788
20
4.5561375
30
0
0
VERTEX
8
0
10
8.1788
20
3.0638625
30
0
0
VERTEX
8
0
10
8.18565
20
2.99431875
30
0
0
VERTEX
8
0
10
8.19928125
20
2.925784375
30
0
0
VERTEX
8
0
10
8.219565625
20
2.8589156250000003
30
0
0
VERTEX
8
0
10
8.24630625
20
2.7943562500000003
30
0
0
VERTEX
8
0
10
8.279246875
20
2.732728125
30
0
0
VERTEX
8
0
10
8.31806875
20
2.674628125
30
0
0
VERTEX
8
0
10
8.362400000000001
20
2.6206125
30
0
0
VERTEX
8
0
10
8.4118125
20
2.5712
30
0
0
VERTEX
8
0
10
8.465828125
20
2.52686875
30
0
0
VERTEX
8
0
10
8.523928125000001
20
2.488046875
30
0
0
VERTEX
8
0
10
8.58555625
20
2.45510625
30
0
0
VERTEX
8
0
10
8.650115625
20
2.428365625
30
0
0
VERTEX
8
0
10
8.716984375000001
20
2.40808125
30
0
0
VERTEX
8
0
10
8.78551875
20
2.39445
30
0
0
VERTEX
8
0
10
8.8550625
20
2.3876
30
0
0
VERTEX
8
0
10
8.9249375
20
2.3876
30
0
0
SEQEND
0
POLYLINE
66
1
8
16_copper
10
0.0
20
0.0
30
0.0
70
1
0
VERTEX
8
0
10
8.99448125
20
2.39445
30
0
42
0.35780600851811184
0
VERTEX
8
0
10
9.6012
20
3.0638625
30
0
0
VERTEX
8
0
10
9.6012
20
4.5561375
30
0
42
0.9520811731250587
0
VERTEX
8
0
10
8.1788
20
4.5561375
30
0
0
VERTEX
8
0
10
8.1788
20
3.0638625
30
0
0
VERTEX
8
0
10
8.18565
20
2.99431875
30
0
0
VERTEX
8
0
10
8.19928125
20
2.925784375
30
0
0
VERTEX
8
0
10
8.219565625
20
2.8589156250000003
30
0
0
VERTEX
8
0
10
8.24630625
20
2.7943562500000003
30
0
0
VERTEX
8
0
10
8.279246875
20
2.732728125
30
0
0
VERTEX
8
0
10
8.31806875
20
2.674628125
30
0
0
VERTEX
8
0
10
8.362400000000001
20
2.6206125
30
0
0
VERTEX
8
0
10
8.4118125
20
2.5712
30
0
0
VERTEX
8
0
10
8.465828125
20
2.52686875
30
0
0
VERTEX
8
0
10
8.523928125000001
20
2.488046875
30
0
0
VERTEX
8
0
10
8.58555625
20
2.45510625
30
0
0
VERTEX
8
0
10
8.650115625
20
2.428365625
30
0
0
VERTEX
8
0
10
8.716984375000001
20
2.40808125
30
0
0
VERTEX
8
0
10
8.78551875
20
2.39445
30
0
0
VERTEX
8
0
10
8.8550625
20
2.3876
30
0
0
VERTEX
8
0
10
8.9249375
20
2.3876
30
0
0
SEQEND
0
POLYLINE
66
1
8
1_copper
10
0.0
20
0.0
30
0.0
70
1
0
VERTEX
8
0
10
4.5600000000000005
20
11.13
30
0
0
VERTEX
8
0
10
4.39105
20
11.13
30
0
0
VERTEX
8
0
10
4.8424812500000005
20
11.581431250000001
30
0
42
0.198912367379658
0
VERTEX
8
0
10
4.8648
20
11.635312500000001
30
0
0
VERTEX
8
0
10
4.8648
20
12.542037500000001
30
0
0
VERTEX
8
0
10
5.045
20
12.7222375
30
0
0
VERTEX
8
0
10
5.045
20
12.63
30
0
0
VERTEX
8
0
10
5.745
20
12.63
30
0
0
VERTEX
8
0
10
5.745
20
13.103800000000001
30
0
0
VERTEX
8
0
10
9.495000000000001
20
13.103800000000001
30
0
0
VERTEX
8
0
10
9.495000000000001
20
12.63
30
0
0
VERTEX
8
0
10
10.195
20
12.63
30
0
0
VERTEX
8
0
10
10.195
20
13.73
30
0
0
VERTEX
8
0
10
9.495000000000001
20
13.73
30
0
0
VERTEX
8
0
10
9.495000000000001
20
13.2562
30
0
0
VERTEX
8
0
10
5.745
20
13.2562
30
0
0
VERTEX
8
0
10
5.745
20
13.73
30
0
0
VERTEX
8
0
10
5.045
20
13.73
30
0
0
VERTEX
8
0
10
5.045
20
12.9377625
30
0
0
VERTEX
8
0
10
4.73471875
20
12.62748125
30
0
42
0.198912367379658
0
VERTEX
8
0
10
4.712400000000001
20
12.5736
30
0
0
VERTEX
8
0
10
4.712400000000001
20
11.666875000000001
30
0
0
VERTEX
8
0
10
4.175525
20
11.13
30
0
0
VERTEX
8
0
10
3.06
20
11.13
30
0
0
VERTEX
8
0
10
3.06
20
9.83
30
0
0
VERTEX
8
0
10
4.5600000000000005
20
9.83
30
0
0
SEQEND
0
POLYLINE
66
1
8
1_copper
10
0.0
20
0.0
30
0.0
70
1
0
VERTEX
8
0
10
4.41
20
3.3600000000000003
30
0
0
VERTEX
8
0
10
3.21
20
3.3600000000000003
30
0
0
VERTEX
8
0
10
3.21
20
3.2477625000000003
30
0
0
VERTEX
8
0
10
2.6162
20
3.8415625
30
0
0
VERTEX
8
0
10
2.6162
20
11.3984375
30
0
0
VERTEX
8
0
10
3.06
20
11.842237500000001
30
0
0
VERTEX
8
0
10
3.06
20
11.73
30
0
0
VERTEX
8
0
10
4.5600000000000005
20
11.73
30
0
0
VERTEX
8
0
10
4.5600000000000005
20
13.030000000000001
30
0
0
VERTEX
8
0
10
3.06
20
13.030000000000001
30
0
0
VERTEX
8
0
10
3.06
20
12.0577625
30
0
0
VERTEX
8
0
10
2.48611875
20
11.483881250000001
30
0
42
0.198912367379658
0
VERTEX
8
0
10
2.4638
20
11.43
30
0
0
VERTEX
8
0
10
2.4638
20
3.81
30
0
42
0.198912367379658
0
VERTEX
8
0
10
2.48611875
20
3.75611875
30
0
0
VERTEX
8
0
10
3.21
20
3.0322375000000004
30
0
0
VERTEX
8
0
10
3.21
20
2.16
30
0
0
VERTEX
8
0
10
4.41
20
2.16
30
0
0
SEQEND
0
POLYLINE
66
1
8
1_copper
10
0.0
20
0.0
30
0.0
70
1
0
VERTEX
8
0
10
6.454481250000001
20
2.39445
30
0
42
0.35780600851811184
0
VERTEX
8
0
10
7.0612
20
3.0638625
30
0
0
VERTEX
8
0
10
7.0612
20
4.5561375
30
0
42
0.9520811731250587
0
VERTEX
8
0
10
5.638800000000001
20
4.5561375
30
0
0
VERTEX
8
0
10
5.638800000000001
20
3.8862
30
0
0
VERTEX
8
0
10
4.8915625
20
3.8862
30
0
0
VERTEX
8
0
10
4.41
20
4.3677625
30
0
0
VERTEX
8
0
10
4.41
20
5.46
30
0
0
VERTEX
8
0
10
3.21
20
5.46
30
0
0
VERTEX
8
0
10
3.21
20
4.26
30
0
0
VERTEX
8
0
10
4.3022375
20
4.26
30
0
0
VERTEX
8
0
10
4.80611875
20
3.75611875
30
0
42
0.198912367379658
0
VERTEX
8
0
10
4.86
20
3.7338
30
0
0
VERTEX
8
0
10
5.638800000000001
20
3.7338
30
0
0
VERTEX
8
0
10
5.638800000000001
20
3.0638625
30
0
0
VERTEX
8
0
10
5.64565
20
2.99431875
30
0
0
VERTEX
8
0
10
5.65928125
20
2.925784375
30
0
0
VERTEX
8
0
10
5.679565625
20
2.8589156250000003
30
0
0
VERTEX
8
0
10
5.70630625
20
2.7943562500000003
30
0
0
VERTEX
8
0
10
5.739246875
20
2.732728125
30
0
0
VERTEX
8
0
10
5.77806875
20
2.674628125
30
0
0
VERTEX
8
0
10
5.8224
20
2.6206125
30
0
0
VERTEX
8
0
10
5.8718125
20
2.5712
30
0
0
VERTEX
8
0
10
5.925828125000001
20
2.52686875
30
0
0
VERTEX
8
0
10
5.983928125
20
2.488046875
30
0
0
VERTEX
8
0
10
6.045556250000001
20
2.45510625
30
0
0
VERTEX
8
0
10
6.110115625000001
20
2.428365625
30
0
0
VERTEX
8
0
10
6.176984375
20
2.40808125
30
0
0
VERTEX
8
0
10
6.2455187500000005
20
2.39445
30
0
0
VERTEX
8
0
10
6.315062500000001
20
2.3876
30
0
0
VERTEX
8
0
10
6.3849375
20
2.3876
30
0
0
SEQEND
0
POLYLINE
66
1
8
16_copper
10
0.0
20
0.0
30
0.0
70
1
0
VERTEX
8
0
10
6.454481250000001
20
2.39445
30
0
42
0.35780600851811184
0
VERTEX
8
0
10
7.0612
20
3.0638625
30
0
0
VERTEX
8
0
10
7.0612
20
4.5561375
30
0
42
0.9520811731250587
0
VERTEX
8
0
10
5.638800000000001
20
4.5561375
30
0
0
VERTEX
8
0
10
5.638800000000001
20
3.0638625
30
0
0
VERTEX
8
0
10
5.64565
20
2.99431875
30
0
0
VERTEX
8
0
10
5.65928125
20
2.925784375
30
0
0
VERTEX
8
0
10
5.679565625
20
2.8589156250000003
30
0
0
VERTEX
8
0
10
5.70630625
20
2.7943562500000003
30
0
0
VERTEX
8
0
10
5.739246875
20
2.732728125
30
0
0
VERTEX
8
0
10
5.77806875
20
2.674628125
30
0
0
VERTEX
8
0
10
5.8224
20
2.6206125
30
0
0
VERTEX
8
0
10
5.8718125
20
2.5712
30
0
0
VERTEX
8
0
10
5.925828125000001
20
2.52686875
30
0
0
VERTEX
8
0
10
5.983928125
20
2.488046875
30
0
0
VERTEX
8
0
10
6.045556250000001
20
2.45510625
30
0
0
VERTEX
8
0
10
6.110115625000001
20
2.428365625
30
0
0
VERTEX
8
0
10
6.176984375
20
2.40808125
30
0
0
VERTEX
8
0
10
6.2455187500000005
20
2.39445
30
0
0
VERTEX
8
0
10
6.315062500000001
20
2.3876
30
0
0
VERTEX
8
0
10
6.3849375
20
2.3876
30
0
0
SEQEND
0
CIRCLE
8
drills_PTH
10
6.3500000000000005
20
3.81
30
0
40
0.4572
0
CIRCLE
8
drills_PTH
10
8.89
20
3.81
30
0
40
0.4572
0
ENDSEC
0
EOF