0
SECTION
2
HEADER
9
$ANGDIR
70
1
9
$AUNITS
70
0
9
$PROJECTNAME
1
MAX232 to ATMega32
9
$TDCREATE
40
2460512.95132466
9
$INSUNITS
70
4
0
ENDSEC
0
SECTION
2
ENTITIES
0
POLYLINE
66
1
8
outline
10
0.0
20
0.0
30
0.0
70
1
0
VERTEX
8
0
10
0
20
0
30
0
0
VERTEX
8
0
10
51.74
20
0
30
0
0
VERTEX
8
0
10
51.74
20
35.550000000000004
30
0
0
VERTEX
8
0
10
0
20
35.550000000000004
30
0
0
VERTEX
8
0
10
0
20
0
30
0
0
SEQEND
0
POLYLINE
66
1
8
1_copper
10
0.0
20
0.0
30
0.0
70
1
0
VERTEX
8
0
10
43.05395
20
23.3001125
30
0
0
VERTEX
8
0
10
43.07105
20
23.309984375000003
30
0
0
VERTEX
8
0
10
43.085015625000004
20
23.32395
30
0
0
VERTEX
8
0
10
43.0948875
20
23.341050000000003
30
0
0
VERTEX
8
0
10
43.1
20
23.360125
30
0
0
VERTEX
8
0
10
43.1
20
23.929875000000003
30
0
0
VERTEX
8
0
10
43.0948875
20
23.94895
30
0
0
VERTEX
8
0
10
43.085015625000004
20
23.966050000000003
30
0
0
VERTEX
8
0
10
43.07105
20
23.980015625
30
0
0
VERTEX
8
0
10
43.05395
20
23.989887500000002
30
0
0
VERTEX
8
0
10
43.034875
20
23.995
30
0
0
VERTEX
8
0
10
42.865125
20
23.995
30
0
0
VERTEX
8
0
10
42.846050000000005
20
23.989887500000002
30
0
0
VERTEX
8
0
10
42.82895
20
23.980015625
30
0
0
VERTEX
8
0
10
42.814984375
20
23.966050000000003
30
0
0
VERTEX
8
0
10
42.8051125
20
23.94895
30
0
0
VERTEX
8
0
10
42.800000000000004
20
23.929875000000003
30
0
0
VERTEX
8
0
10
42.800000000000004
20
23.360125
30
0
0
VERTEX
8
0
10
42.8051125
20
23.341050000000003
30
0
0
VERTEX
8
0
10
42.814984375
20
23.32395
30
0
0
VERTEX
8
0
10
42.82895
20
23.309984375000003
30
0
0
VERTEX
8
0
10
42.846050000000005
20
23.3001125
30
0
0
VERTEX
8
0
10
42.865125
20
23.295
30
0
0
VERTEX
8
0
10
43.034875
20
23.295
30
0
0
SEQEND
0
POLYLINE
66
1
8
1_copper
10
0.0
20
0.0
30
0.0
70
1
0
VERTEX
8
0
10
43.55395
20
23.3001125
30
0
0
VERTEX
8
0
10
43.57105
20
23.309984375000003
30
0
0
VERTEX
8
0
10
43.585015625000004
20
23.32395
30
0
0
VERTEX
8
0
10
43.5948875
20
23.341050000000003
30
0
0
VERTEX
8
0
10
43.6
20
23.360125
30
0
0
VERTEX
8
0
10
43.6
20
23.929875000000003
30
0
0
VERTEX
8
0
10
43.5948875
20
23.94895
30
0
0
VERTEX
8
0
10
43.585015625000004
20
23.966050000000003
30
0
0
VERTEX
8
0
10
43.57105
20
23.980015625
30
0
0
VERTEX
8
0
10
43.55395
20
23.989887500000002
30
0
0
VERTEX
8
0
10
43.534875
20
23.995
30
0
0
VERTEX
8
0
10
43.365125
20
23.995
30
0
0
VERTEX
8
0
10
43.346050000000005
20
23.989887500000002
30
0
0
VERTEX
8
0
10
43.32895
20
23.980015625
30
0
0
VERTEX
8
0
10
43.314984375
20
23.966050000000003
30
0
0
VERTEX
8
0
10
43.3051125
20
23.94895
30
0
0
VERTEX
8
0
10
43.300000000000004
20
23.929875000000003
30
0
0
VERTEX
8
0
10
43.300000000000004
20
23.360125
30
0
0
VERTEX
8
0
10
43.3051125
20
23.341050000000003
30
0
0
VERTEX
8
0
10
43.314984375
20
23.32395
30
0
0
VERTEX
8
0
10
43.32895
20
23.309984375000003
30
0
0
VERTEX
8
0
10
43.346050000000005
20
23.3001125
30
0
0
VERTEX
8
0
10
43.365125
20
23.295
30
0
0
VERTEX
8
0
10
43.534875
20
23.295
30
0
0
SEQEND
0
POLYLINE
66
1
8
1_copper
10
0.0
20
0.0
30
0.0
70
1
0
VERTEX
8
0
10
44.05395
20
23.3001125
30
0
0
VERTEX
8
0
10
44.07105
20
23.309984375000003
30
0
0
VERTEX
8
0
10
44.085015625000004
20
23.32395
30
0
0
VERTEX
8
0
10
44.0948875
20
23.341050000000003
30
0
0
VERTEX
8
0
10
44.1
20
23.360125
30
0
0
VERTEX
8
0
10
44.1
20
23.929875000000003
30
0
0
VERTEX
8
0
10
44.0948875
20
23.94895
30
0
0
VERTEX
8
0
10
44.085015625000004
20
23.966050000000003
30
0
0
VERTEX
8
0
10
44.07105
20
23.980015625
30
0
0
VERTEX
8
0
10
44.05395
20
23.989887500000002
30
0
0
VERTEX
8
0
10
44.034875
20
23.995
30
0
0
VERTEX
8
0
10
43.865125
20
23.995
30
0
0
VERTEX
8
0
10
43.846050000000005
20
23.989887500000002
30
0
0
VERTEX
8
0
10
43.82895
20
23.980015625
30
0
0
VERTEX
8
0
10
43.814984375
20
23.966050000000003
30
0
0
VERTEX
8
0
10
43.8051125
20
23.94895
30
0
0
VERTEX
8
0
10
43.800000000000004
20
23.929875000000003
30
0
0
VERTEX
8
0
10
43.800000000000004
20
23.360125
30
0
0
VERTEX
8
0
10
43.8051125
20
23.341050000000003
30
0
0
VERTEX
8
0
10
43.814984375
20
23.32395
30
0
0
VERTEX
8
0
10
43.82895
20
23.309984375000003
30
0
0
VERTEX
8
0
10
43.846050000000005
20
23.3001125
30
0
0
VERTEX
8
0
10
43.865125
20
23.295
30
0
0
VERTEX
8
0
10
44.034875
20
23.295
30
0
0
SEQEND
0
POLYLINE
66
1
8
1_copper
10
0.0
20
0.0
30
0.0
70
1
0
VERTEX
8
0
10
45.55395
20
23.3001125
30
0
0
VERTEX
8
0
10
45.57105
20
23.309984375000003
30
0
0
VERTEX
8
0
10
45.585015625000004
20
23.32395
30
0
0
VERTEX
8
0
10
45.5948875
20
23.341050000000003
30
0
0
VERTEX
8
0
10
45.6
20
23.360125
30
0
0
VERTEX
8
0
10
45.6
20
23.929875000000003
30
0
0
VERTEX
8
0
10
45.5948875
20
23.94895
30
0
0
VERTEX
8
0
10
45.585015625000004
20
23.966050000000003
30
0
0
VERTEX
8
0
10
45.57105
20
23.980015625
30
0
0
VERTEX
8
0
10
45.55395
20
23.989887500000002
30
0
0
VERTEX
8
0
10
45.534875
20
23.995
30
0
0
VERTEX
8
0
10
45.365125
20
23.995
30
0
0
VERTEX
8
0
10
45.346050000000005
20
23.989887500000002
30
0
0
VERTEX
8
0
10
45.32895
20
23.980015625
30
0
0
VERTEX
8
0
10
45.314984375
20
23.966050000000003
30
0
0
VERTEX
8
0
10
45.3051125
20
23.94895
30
0
0
VERTEX
8
0
10
45.300000000000004
20
23.929875000000003
30
0
0
VERTEX
8
0
10
45.300000000000004
20
23.360125
30
0
0
VERTEX
8
0
10
45.3051125
20
23.341050000000003
30
0
0
VERTEX
8
0
10
45.314984375
20
23.32395
30
0
0
VERTEX
8
0
10
45.32895
20
23.309984375000003
30
0
0
VERTEX
8
0
10
45.346050000000005
20
23.3001125
30
0
0
VERTEX
8
0
10
45.365125
20
23.295
30
0
0
VERTEX
8
0
10
45.534875
20
23.295
30
0
0
SEQEND
0
POLYLINE
66
1
8
1_copper
10
0.0
20
0.0
30
0.0
70
1
0
VERTEX
8
0
10
46.05395
20
23.3001125
30
0
0
VERTEX
8
0
10
46.07105
20
23.309984375000003
30
0
0
VERTEX
8
0
10
46.085015625000004
20
23.32395
30
0
0
VERTEX
8
0
10
46.0948875
20
23.341050000000003
30
0
0
VERTEX
8
0
10
46.1
20
23.360125
30
0
0
VERTEX
8
0
10
46.1
20
23.929875000000003
30
0
0
VERTEX
8
0
10
46.0948875
20
23.94895
30
0
0
VERTEX
8
0
10
46.085015625000004
20
23.966050000000003
30
0
0
VERTEX
8
0
10
46.07105
20
23.980015625
30
0
0
VERTEX
8
0
10
46.05395
20
23.989887500000002
30
0
0
VERTEX
8
0
10
46.034875
20
23.995
30
0
0
VERTEX
8
0
10
45.865125
20
23.995
30
0
0
VERTEX
8
0
10
45.846050000000005
20
23.989887500000002
30
0
0
VERTEX
8
0
10
45.82895
20
23.980015625
30
0
0
VERTEX
8
0
10
45.814984375
20
23.966050000000003
30
0
0
VERTEX
8
0
10
45.8051125
20
23.94895
30
0
0
VERTEX
8
0
10
45.800000000000004
20
23.929875000000003
30
0
0
VERTEX
8
0
10
45.800000000000004
20
23.360125
30
0
0
VERTEX
8
0
10
45.8051125
20
23.341050000000003
30
0
0
VERTEX
8
0
10
45.814984375
20
23.32395
30
0
0
VERTEX
8
0
10
45.82895
20
23.309984375000003
30
0
0
VERTEX
8
0
10
45.846050000000005
20
23.3001125
30
0
0
VERTEX
8
0
10
45.865125
20
23.295
30
0
0
VERTEX
8
0
10
46.034875
20
23.295
30
0
0
SEQEND
0
POLYLINE
66
1
8
1_copper
10
0.0
20
0.0
30
0.0
70
1
0
VERTEX
8
0
10
46.55395
20
23.3001125
30
0
0
VERTEX
8
0
10
46.57105
20
23.309984375000003
30
0
0
VERTEX
8
0
10
46.585015625000004
20
23.32395
30
0
0
VERTEX
8
0
10
46.5948875
20
23.341050000000003
30
0
0
VERTEX
8
0
10
46.6
20
23.360125
30
0
0
VERTEX
8
0
10
46.6
20
23.929875000000003
30
0
0
VERTEX
8
0
10
46.5948875
20
23.94895
30
0
0
VERTEX
8
0
10
46.585015625000004
20
23.966050000000003
30
0
0
VERTEX
8
0
10
46.57105
20
23.980015625
30
0
0
VERTEX
8
0
10
46.55395
20
23.989887500000002
30
0
0
VERTEX
8
0
10
46.534875
20
23.995
30
0
0
VERTEX
8
0
10
46.365125
20
23.995
30
0
0
VERTEX
8
0
10
46.346050000000005
20
23.989887500000002
30
0
0
VERTEX
8
0
10
46.32895
20
23.980015625
30
0
0
VERTEX
8
0
10
46.314984375
20
23.966050000000003
30
0
0
VERTEX
8
0
10
46.3051125
20
23.94895
30
0
0
VERTEX
8
0
10
46.300000000000004
20
23.929875000000003
30
0
0
VERTEX
8
0
10
46.300000000000004
20
23.360125
30
0
0
VERTEX
8
0
10
46.3051125
20
23.341050000000003
30
0
0
VERTEX
8
0
10
46.314984375
20
23.32395
30
0
0
VERTEX
8
0
10
46.32895
20
23.309984375000003
30
0
0
VERTEX
8
0
10
46.346050000000005
20
23.3001125
30
0
0
VERTEX
8
0
10
46.365125
20
23.295
30
0
0
VERTEX
8
0
10
46.534875
20
23.295
30
0
0
SEQEND
0
POLYLINE
66
1
8
1_copper
10
0.0
20
0.0
30
0.0
70
1
0
VERTEX
8
0
10
47.05395
20
23.3001125
30
0
0
VERTEX
8
0
10
47.07105
20
23.309984375000003
30
0
0
VERTEX
8
0
10
47.085015625000004
20
23.32395
30
0
0
VERTEX
8
0
10
47.094887500000006
20
23.341050000000003
30
0
0
VERTEX
8
0
10
47.1
20
23.360125
30
0
0
VERTEX
8
0
10
47.1
20
23.929875000000003
30
0
0
VERTEX
8
0
10
47.094887500000006
20
23.94895
30
0
0
VERTEX
8
0
10
47.085015625000004
20
23.966050000000003
30
0
0
VERTEX
8
0
10
47.07105
20
23.980015625
30
0
0
VERTEX
8
0
10
47.05395
20
23.989887500000002
30
0
0
VERTEX
8
0
10
47.034875
20
23.995
30
0
0
VERTEX
8
0
10
46.865125
20
23.995
30
0
0
VERTEX
8
0
10
46.846050000000005
20
23.989887500000002
30
0
0
VERTEX
8
0
10
46.82895
20
23.980015625
30
0
0
VERTEX
8
0
10
46.814984375
20
23.966050000000003
30
0
0
VERTEX
8
0
10
46.8051125
20
23.94895
30
0
0
VERTEX
8
0
10
46.800000000000004
20
23.929875000000003
30
0
0
VERTEX
8
0
10
46.800000000000004
20
23.360125
30
0
0
VERTEX
8
0
10
46.8051125
20
23.341050000000003
30
0
0
VERTEX
8
0
10
46.814984375
20
23.32395
30
0
0
VERTEX
8
0
10
46.82895
20
23.309984375000003
30
0
0
VERTEX
8
0
10
46.846050000000005
20
23.3001125
30
0
0
VERTEX
8
0
10
46.865125
20
23.295
30
0
0
VERTEX
8
0
10
47.034875
20
23.295
30
0
0
SEQEND
0
POLYLINE
66
1
8
1_copper
10
0.0
20
0.0
30
0.0
70
1
0
VERTEX
8
0
10
42.55395
20
23.3001125
30
0
0
VERTEX
8
0
10
42.57105
20
23.309984375000003
30
0
0
VERTEX
8
0
10
42.585015625000004
20
23.32395
30
0
0
VERTEX
8
0
10
42.5948875
20
23.341050000000003
30
0
0
VERTEX
8
0
10
42.6
20
23.360125
30
0
0
VERTEX
8
0
10
42.6
20
23.929875000000003
30
0
0
VERTEX
8
0
10
42.5948875
20
23.94895
30
0
0
VERTEX
8
0
10
42.585015625000004
20
23.966050000000003
30
0
0
VERTEX
8
0
10
42.57105
20
23.980015625
30
0
0
VERTEX
8
0
10
42.55395
20
23.989887500000002
30
0
0
VERTEX
8
0
10
42.534875
20
23.995
30
0
0
VERTEX
8
0
10
42.365125
20
23.995
30
0
0
VERTEX
8
0
10
42.346050000000005
20
23.989887500000002
30
0
0
VERTEX
8
0
10
42.32895
20
23.980015625
30
0
0
VERTEX
8
0
10
42.314984375
20
23.966050000000003
30
0
0
VERTEX
8
0
10
42.3051125
20
23.94895
30
0
0
VERTEX
8
0
10
42.300000000000004
20
23.929875000000003
30
0
0
VERTEX
8
0
10
42.300000000000004
20
23.360125
30
0
0
VERTEX
8
0
10
42.3051125
20
23.341050000000003
30
0
0
VERTEX
8
0
10
42.314984375
20
23.32395
30
0
0
VERTEX
8
0
10
42.32895
20
23.309984375000003
30
0
0
VERTEX
8
0
10
42.346050000000005
20
23.3001125
30
0
0
VERTEX
8
0
10
42.365125
20
23.295
30
0
0
VERTEX
8
0
10
42.534875
20
23.295
30
0
0
SEQEND
0
POLYLINE
66
1
8
1_copper
10
0.0
20
0.0
30
0.0
70
1
0
VERTEX
8
0
10
42.05395
20
23.3001125
30
0
0
VERTEX
8
0
10
42.07105
20
23.309984375000003
30
0
0
VERTEX
8
0
10
42.085015625000004
20
23.32395
30
0
0
VERTEX
8
0
10
42.0948875
20
23.341050000000003
30
0
0
VERTEX
8
0
10
42.1
20
23.360125
30
0
0
VERTEX
8
0
10
42.1
20
23.929875000000003
30
0
0
VERTEX
8
0
10
42.0948875
20
23.94895
30
0
0
VERTEX
8
0
10
42.085015625000004
20
23.966050000000003
30
0
0
VERTEX
8
0
10
42.07105
20
23.980015625
30
0
0
VERTEX
8
0
10
42.05395
20
23.989887500000002
30
0
0
VERTEX
8
0
10
42.034875
20
23.995
30
0
0
VERTEX
8
0
10
41.865125
20
23.995
30
0
0
VERTEX
8
0
10
41.846050000000005
20
23.989887500000002
30
0
0
VERTEX
8
0
10
41.82895
20
23.980015625
30
0
0
VERTEX
8
0
10
41.814984375
20
23.966050000000003
30
0
0
VERTEX
8
0
10
41.8051125
20
23.94895
30
0
0
VERTEX
8
0
10
41.800000000000004
20
23.929875000000003
30
0
0
VERTEX
8
0
10
41.800000000000004
20
23.360125
30
0
0
VERTEX
8
0
10
41.8051125
20
23.341050000000003
30
0
0
VERTEX
8
0
10
41.814984375
20
23.32395
30
0
0
VERTEX
8
0
10
41.82895
20
23.309984375000003
30
0
0
VERTEX
8
0
10
41.846050000000005
20
23.3001125
30
0
0
VERTEX
8
0
10
41.865125
20
23.295
30
0
0
VERTEX
8
0
10
42.034875
20
23.295
30
0
0
SEQEND
0
POLYLINE
66
1
8
1_copper
10
0.0
20
0.0
30
0.0
70
1
0
VERTEX
8
0
10
41.42895
20
22.6751125
30
0
0
VERTEX
8
0
10
41.44605
20
22.684984375000003
30
0
0
VERTEX
8
0
10
41.460015625000004
20
22.69895
30
0
0
VERTEX
8
0
10
41.4698875
20
22.716050000000003
30
0
0
VERTEX
8
0
10
41.475
20
22.735125
30
0
0
VERTEX
8
0
10
41.475
20
22.904875
30
0
0
VERTEX
8
0
10
41.4698875
20
22.92395
30
0
0
VERTEX
8
0
10
41.460015625000004
20
22.94105
30
0
0
VERTEX
8
0
10
41.44605
20
22.955015625
30
0
0
VERTEX
8
0
10
41.42895
20
22.9648875
30
0
0
VERTEX
8
0
10
41.409875
20
22.970000000000002
30
0
0
VERTEX
8
0
10
40.840125
20
22.970000000000002
30
0
0
VERTEX
8
0
10
40.82105
20
22.9648875
30
0
0
VERTEX
8
0
10
40.80395
20
22.955015625
30
0
0
VERTEX
8
0
10
40.789984375
20
22.94105
30
0
0
VERTEX
8
0
10
40.7801125
20
22.92395
30
0
0
VERTEX
8
0
10
40.775
20
22.904875
30
0
0
VERTEX
8
0
10
40.775
20
22.735125
30
0
0
VERTEX
8
0
10
40.7801125
20
22.716050000000003
30
0
0
VERTEX
8
0
10
40.789984375
20
22.69895
30
0
0
VERTEX
8
0
10
40.80395
20
22.684984375000003
30
0
0
VERTEX
8
0
10
40.82105
20
22.6751125
30
0
0
VERTEX
8
0
10
40.840125
20
22.67
30
0
0
VERTEX
8
0
10
41.409875
20
22.67
30
0
0
SEQEND
0
POLYLINE
66
1
8
1_copper
10
0.0
20
0.0
30
0.0
70
1
0
VERTEX
8
0
10
48.07895
20
22.6751125
30
0
0
VERTEX
8
0
10
48.096050000000005
20
22.684984375000003
30
0
0
VERTEX
8
0
10
48.110015625
20
22.69895
30
0
0
VERTEX
8
0
10
48.119887500000004
20
22.716050000000003
30
0
0
VERTEX
8
0
10
48.125
20
22.735125
30
0
0
VERTEX
8
0
10
48.125
20
22.904875
30
0
0
VERTEX
8
0
10
48.119887500000004
20
22.92395
30
0
0
VERTEX
8
0
10
48.110015625
20
22.94105
30
0
0
VERTEX
8
0
10
48.096050000000005
20
22.955015625
30
0
0
VERTEX
8
0
10
48.07895
20
22.9648875
30
0
0
VERTEX
8
0
10
48.059875000000005
20
22.970000000000002
30
0
0
VERTEX
8
0
10
47.490125
20
22.970000000000002
30
0
0
VERTEX
8
0
10
47.471050000000005
20
22.9648875
30
0
0
VERTEX
8
0
10
47.45395
20
22.955015625
30
0
0
VERTEX
8
0
10
47.439984375
20
22.94105
30
0
0
VERTEX
8
0
10
47.4301125
20
22.92395
30
0
0
VERTEX
8
0
10
47.425000000000004
20
22.904875
30
0
0
VERTEX
8
0
10
47.425000000000004
20
22.735125
30
0
0
VERTEX
8
0
10
47.4301125
20
22.716050000000003
30
0
0
VERTEX
8
0
10
47.439984375
20
22.69895
30
0
0
VERTEX
8
0
10
47.45395
20
22.684984375000003
30
0
0
VERTEX
8
0
10
47.471050000000005
20
22.6751125
30
0
0
VERTEX
8
0
10
47.490125
20
22.67
30
0
0
VERTEX
8
0
10
48.059875000000005
20
22.67
30
0
0
SEQEND
0
POLYLINE
66
1
8
1_copper
10
0.0
20
0.0
30
0.0
70
1
0
VERTEX
8
0
10
46.758540625
20
17.82615625
30
0
0
VERTEX
8
0
10
46.795965625
20
17.838315625
30
0
0
VERTEX
8
0
10
46.831028125
20
17.856181250000002
30
0
0
VERTEX
8
0
10
46.862865625000005
20
17.879309375000002
30
0
0
VERTEX
8
0
10
46.890690625000005
20
17.907134375000002
30
0
0
VERTEX
8
0
10
46.913818750000004
20
17.938971875
30
0
0
VERTEX
8
0
10
46.931684375
20
17.974034375000002
30
0
0
VERTEX
8
0
10
46.94384375
20
18.011459375
30
0
0
VERTEX
8
0
10
46.95
20
18.050325
30
0
0
VERTEX
8
0
10
46.95
20
22.589675
30
0
0
VERTEX
8
0
10
46.94384375
20
22.628540625
30
0
0
VERTEX
8
0
10
46.931684375
20
22.665965625000002
30
0
0
VERTEX
8
0
10
46.913818750000004
20
22.701028125
30
0
0
VERTEX
8
0
10
46.890690625000005
20
22.732865625000002
30
0
0
VERTEX
8
0
10
46.862865625000005
20
22.760690625000002
30
0
0
VERTEX
8
0
10
46.831028125
20
22.783818750000002
30
0
0
VERTEX
8
0
10
46.795965625
20
22.801684375
30
0
0
VERTEX
8
0
10
46.758540625
20
22.81384375
30
0
0
VERTEX
8
0
10
46.719675
20
22.82
30
0
0
VERTEX
8
0
10
42.180325
20
22.82
30
0
0
VERTEX
8
0
10
42.141459375000004
20
22.81384375
30
0
0
VERTEX
8
0
10
42.104034375000005
20
22.801684375
30
0
0
VERTEX
8
0
10
42.068971875
20
22.783818750000002
30
0
0
VERTEX
8
0
10
42.037134375
20
22.760690625000002
30
0
0
VERTEX
8
0
10
42.009309375
20
22.732865625000002
30
0
0
VERTEX
8
0
10
41.98618125
20
22.701028125
30
0
0
VERTEX
8
0
10
41.968315625
20
22.665965625000002
30
0
0
VERTEX
8
0
10
41.95615625
20
22.628540625
30
0
0
VERTEX
8
0
10
41.95
20
22.589675
30
0
0
VERTEX
8
0
10
41.95
20
18.050325
30
0
0
VERTEX
8
0
10
41.95615625
20
18.011459375
30
0
0
VERTEX
8
0
10
41.968315625
20
17.974034375000002
30
0
0
VERTEX
8
0
10
41.98618125
20
17.938971875
30
0
0
VERTEX
8
0
10
42.009309375
20
17.907134375000002
30
0
0
VERTEX
8
0
10
42.037134375
20
17.879309375000002
30
0
0
VERTEX
8
0
10
42.068971875
20
17.856181250000002
30
0
0
VERTEX
8
0
10
42.104034375000005
20
17.838315625
30
0
0
VERTEX
8
0
10
42.141459375000004
20
17.82615625
30
0
0
VERTEX
8
0
10
42.180325
20
17.82
30
0
0
VERTEX
8
0
10
46.719675
20
17.82
30
0
0
SEQEND
0
POLYLINE
66
1
8
1_copper
10
0.0
20
0.0
30
0.0
70
1
0
VERTEX
8
0
10
41.42895
20
22.1751125
30
0
0
VERTEX
8
0
10
41.44605
20
22.184984375000003
30
0
0
VERTEX
8
0
10
41.460015625000004
20
22.19895
30
0
0
VERTEX
8
0
10
41.4698875
20
22.216050000000003
30
0
0
VERTEX
8
0
10
41.475
20
22.235125
30
0
0
VERTEX
8
0
10
41.475
20
22.404875
30
0
0
VERTEX
8
0
10
41.4698875
20
22.42395
30
0
0
VERTEX
8
0
10
41.460015625000004
20
22.44105
30
0
0
VERTEX
8
0
10
41.44605
20
22.455015625
30
0
0
VERTEX
8
0
10
41.42895
20
22.4648875
30
0
0
VERTEX
8
0
10
41.409875
20
22.470000000000002
30
0
0
VERTEX
8
0
10
40.840125
20
22.470000000000002
30
0
0
VERTEX
8
0
10
40.82105
20
22.4648875
30
0
0
VERTEX
8
0
10
40.80395
20
22.455015625
30
0
0
VERTEX
8
0
10
40.789984375
20
22.44105
30
0
0
VERTEX
8
0
10
40.7801125
20
22.42395
30
0
0
VERTEX
8
0
10
40.775
20
22.404875
30
0
0
VERTEX
8
0
10
40.775
20
22.235125
30
0
0
VERTEX
8
0
10
40.7801125
20
22.216050000000003
30
0
0
VERTEX
8
0
10
40.789984375
20
22.19895
30
0
0
VERTEX
8
0
10
40.80395
20
22.184984375000003
30
0
0
VERTEX
8
0
10
40.82105
20
22.1751125
30
0
0
VERTEX
8
0
10
40.840125
20
22.17
30
0
0
VERTEX
8
0
10
41.409875
20
22.17
30
0
0
SEQEND
0
POLYLINE
66
1
8
1_copper
10
0.0
20
0.0
30
0.0
70
1
0
VERTEX
8
0
10
48.07895
20
22.1751125
30
0
0
VERTEX
8
0
10
48.096050000000005
20
22.184984375000003
30
0
0
VERTEX
8
0
10
48.110015625
20
22.19895
30
0
0
VERTEX
8
0
10
48.119887500000004
20
22.216050000000003
30
0
0
VERTEX
8
0
10
48.125
20
22.235125
30
0
0
VERTEX
8
0
10
48.125
20
22.404875
30
0
0
VERTEX
8
0
10
48.119887500000004
20
22.42395
30
0
0
VERTEX
8
0
10
48.110015625
20
22.44105
30
0
0
VERTEX
8
0
10
48.096050000000005
20
22.455015625
30
0
0
VERTEX
8
0
10
48.07895
20
22.4648875
30
0
0
VERTEX
8
0
10
48.059875000000005
20
22.470000000000002
30
0
0
VERTEX
8
0
10
47.490125
20
22.470000000000002
30
0
0
VERTEX
8
0
10
47.471050000000005
20
22.4648875
30
0
0
VERTEX
8
0
10
47.45395
20
22.455015625
30
0
0
VERTEX
8
0
10
47.439984375
20
22.44105
30
0
0
VERTEX
8
0
10
47.4301125
20
22.42395
30
0
0
VERTEX
8
0
10
47.425000000000004
20
22.404875
30
0
0
VERTEX
8
0
10
47.425000000000004
20
22.235125
30
0
0
VERTEX
8
0
10
47.4301125
20
22.216050000000003
30
0
0
VERTEX
8
0
10
47.439984375
20
22.19895
30
0
0
VERTEX
8
0
10
47.45395
20
22.184984375000003
30
0
0
VERTEX
8
0
10
47.471050000000005
20
22.1751125
30
0
0
VERTEX
8
0
10
47.490125
20
22.17
30
0
0
VERTEX
8
0
10
48.059875000000005
20
22.17
30
0
0
SEQEND
0
POLYLINE
66
1
8
1_copper
10
0.0
20
0.0
30
0.0
70
1
0
VERTEX
8
0
10
41.42895
20
21.6751125
30
0
0
VERTEX
8
0
10
41.44605
20
21.684984375000003
30
0
0
VERTEX
8
0
10
41.460015625000004
20
21.69895
30
0
0
VERTEX
8
0
10
41.4698875
20
21.716050000000003
30
0
0
VERTEX
8
0
10
41.475
20
21.735125
30
0
0
VERTEX
8
0
10
41.475
20
21.904875
30
0
0
VERTEX
8
0
10
41.4698875
20
21.92395
30
0
0
VERTEX
8
0
10
41.460015625000004
20
21.94105
30
0
0
VERTEX
8
0
10
41.44605
20
21.955015625
30
0
0
VERTEX
8
0
10
41.42895
20
21.9648875
30
0
0
VERTEX
8
0
10
41.409875
20
21.970000000000002
30
0
0
VERTEX
8
0
10
40.840125
20
21.970000000000002
30
0
0
VERTEX
8
0
10
40.82105
20
21.9648875
30
0
0
VERTEX
8
0
10
40.80395
20
21.955015625
30
0
0
VERTEX
8
0
10
40.789984375
20
21.94105
30
0
0
VERTEX
8
0
10
40.7801125
20
21.92395
30
0
0
VERTEX
8
0
10
40.775
20
21.904875
30
0
0
VERTEX
8
0
10
40.775
20
21.735125
30
0
0
VERTEX
8
0
10
40.7801125
20
21.716050000000003
30
0
0
VERTEX
8
0
10
40.789984375
20
21.69895
30
0
0
VERTEX
8
0
10
40.80395
20
21.684984375000003
30
0
0
VERTEX
8
0
10
40.82105
20
21.6751125
30
0
0
VERTEX
8
0
10
40.840125
20
21.67
30
0
0
VERTEX
8
0
10
41.409875
20
21.67
30
0
0
SEQEND
0
POLYLINE
66
1
8
1_copper
10
0.0
20
0.0
30
0.0
70
1
0
VERTEX
8
0
10
48.07895
20
21.6751125
30
0
0
VERTEX
8
0
10
48.096050000000005
20
21.684984375000003
30
0
0
VERTEX
8
0
10
48.110015625
20
21.69895
30
0
0
VERTEX
8
0
10
48.119887500000004
20
21.716050000000003
30
0
0
VERTEX
8
0
10
48.125
20
21.735125
30
0
0
VERTEX
8
0
10
48.125
20
21.904875
30
0
0
VERTEX
8
0
10
48.119887500000004
20
21.92395
30
0
0
VERTEX
8
0
10
48.110015625
20
21.94105
30
0
0
VERTEX
8
0
10
48.096050000000005
20
21.955015625
30
0
0
VERTEX
8
0
10
48.07895
20
21.9648875
30
0
0
VERTEX
8
0
10
48.059875000000005
20
21.970000000000002
30
0
0
VERTEX
8
0
10
47.490125
20
21.970000000000002
30
0
0
VERTEX
8
0
10
47.471050000000005
20
21.9648875
30
0
0
VERTEX
8
0
10
47.45395
20
21.955015625
30
0
0
VERTEX
8
0
10
47.439984375
20
21.94105
30
0
0
VERTEX
8
0
10
47.4301125
20
21.92395
30
0
0
VERTEX
8
0
10
47.425000000000004
20
21.904875
30
0
0
VERTEX
8
0
10
47.425000000000004
20
21.735125
30
0
0
VERTEX
8
0
10
47.4301125
20
21.716050000000003
30
0
0
VERTEX
8
0
10
47.439984375
20
21.69895
30
0
0
VERTEX
8
0
10
47.45395
20
21.684984375000003
30
0
0
VERTEX
8
0
10
47.471050000000005
20
21.6751125
30
0
0
VERTEX
8
0
10
47.490125
20
21.67
30
0
0
VERTEX
8
0
10
48.059875000000005
20
21.67
30
0
0
SEQEND
0
POLYLINE
66
1
8
1_copper
10
0.0
20
0.0
30
0.0
70
1
0
VERTEX
8
0
10
41.42895
20
21.1751125
30
0
0
VERTEX
8
0
10
41.44605
20
21.184984375000003
30
0
0
VERTEX
8
0
10
41.460015625000004
20
21.19895
30
0
0
VERTEX
8
0
10
41.4698875
20
21.216050000000003
30
0
0
VERTEX
8
0
10
41.475
20
21.235125
30
0
0
VERTEX
8
0
10
41.475
20
21.404875
30
0
0
VERTEX
8
0
10
41.4698875
20
21.42395
30
0
0
VERTEX
8
0
10
41.460015625000004
20
21.44105
30
0
0
VERTEX
8
0
10
41.44605
20
21.455015625
30
0
0
VERTEX
8
0
10
41.42895
20
21.4648875
30
0
0
VERTEX
8
0
10
41.409875
20
21.470000000000002
30
0
0
VERTEX
8
0
10
40.840125
20
21.470000000000002
30
0
0
VERTEX
8
0
10
40.82105
20
21.4648875
30
0
0
VERTEX
8
0
10
40.80395
20
21.455015625
30
0
0
VERTEX
8
0
10
40.789984375
20
21.44105
30
0
0
VERTEX
8
0
10
40.7801125
20
21.42395
30
0
0
VERTEX
8
0
10
40.775
20
21.404875
30
0
0
VERTEX
8
0
10
40.775
20
21.235125
30
0
0
VERTEX
8
0
10
40.7801125
20
21.216050000000003
30
0
0
VERTEX
8
0
10
40.789984375
20
21.19895
30
0
0
VERTEX
8
0
10
40.80395
20
21.184984375000003
30
0
0
VERTEX
8
0
10
40.82105
20
21.1751125
30
0
0
VERTEX
8
0
10
40.840125
20
21.17
30
0
0
VERTEX
8
0
10
41.409875
20
21.17
30
0
0
SEQEND
0
POLYLINE
66
1
8
1_copper
10
0.0
20
0.0
30
0.0
70
1
0
VERTEX
8
0
10
48.07895
20
21.1751125
30
0
0
VERTEX
8
0
10
48.096050000000005
20
21.184984375000003
30
0
0
VERTEX
8
0
10
48.110015625
20
21.19895
30
0
0
VERTEX
8
0
10
48.119887500000004
20
21.216050000000003
30
0
0
VERTEX
8
0
10
48.125
20
21.235125
30
0
0
VERTEX
8
0
10
48.125
20
21.404875
30
0
0
VERTEX
8
0
10
48.119887500000004
20
21.42395
30
0
0
VERTEX
8
0
10
48.110015625
20
21.44105
30
0
0
VERTEX
8
0
10
48.096050000000005
20
21.455015625
30
0
0
VERTEX
8
0
10
48.07895
20
21.4648875
30
0
0
VERTEX
8
0
10
48.059875000000005
20
21.470000000000002
30
0
0
VERTEX
8
0
10
47.490125
20
21.470000000000002
30
0
0
VERTEX
8
0
10
47.471050000000005
20
21.4648875
30
0
0
VERTEX
8
0
10
47.45395
20
21.455015625
30
0
0
VERTEX
8
0
10
47.439984375
20
21.44105
30
0
0
VERTEX
8
0
10
47.4301125
20
21.42395
30
0
0
VERTEX
8
0
10
47.425000000000004
20
21.404875
30
0
0
VERTEX
8
0
10
47.425000000000004
20
21.235125
30
0
0
VERTEX
8
0
10
47.4301125
20
21.216050000000003
30
0
0
VERTEX
8
0
10
47.439984375
20
21.19895
30
0
0
VERTEX
8
0
10
47.45395
20
21.184984375000003
30
0
0
VERTEX
8
0
10
47.471050000000005
20
21.1751125
30
0
0
VERTEX
8
0
10
47.490125
20
21.17
30
0
0
VERTEX
8
0
10
48.059875000000005
20
21.17
30
0
0
SEQEND
0
POLYLINE
66
1
8
1_copper
10
0.0
20
0.0
30
0.0
70
1
0
VERTEX
8
0
10
48.07895
20
20.6751125
30
0
0
VERTEX
8
0
10
48.096050000000005
20
20.684984375000003
30
0
0
VERTEX
8
0
10
48.110015625
20
20.69895
30
0
0
VERTEX
8
0
10
48.119887500000004
20
20.716050000000003
30
0
0
VERTEX
8
0
10
48.125
20
20.735125
30
0
0
VERTEX
8
0
10
48.125
20
20.904875
30
0
0
VERTEX
8
0
10
48.119887500000004
20
20.92395
30
0
0
VERTEX
8
0
10
48.110015625
20
20.94105
30
0
0
VERTEX
8
0
10
48.096050000000005
20
20.955015625
30
0
0
VERTEX
8
0
10
48.07895
20
20.9648875
30
0
0
VERTEX
8
0
10
48.059875000000005
20
20.970000000000002
30
0
0
VERTEX
8
0
10
47.490125
20
20.970000000000002
30
0
0
VERTEX
8
0
10
47.471050000000005
20
20.9648875
30
0
0
VERTEX
8
0
10
47.45395
20
20.955015625
30
0
0
VERTEX
8
0
10
47.439984375
20
20.94105
30
0
0
VERTEX
8
0
10
47.4301125
20
20.92395
30
0
0
VERTEX
8
0
10
47.425000000000004
20
20.904875
30
0
0
VERTEX
8
0
10
47.425000000000004
20
20.735125
30
0
0
VERTEX
8
0
10
47.4301125
20
20.716050000000003
30
0
0
VERTEX
8
0
10
47.439984375
20
20.69895
30
0
0
VERTEX
8
0
10
47.45395
20
20.684984375000003
30
0
0
VERTEX
8
0
10
47.471050000000005
20
20.6751125
30
0
0
VERTEX
8
0
10
47.490125
20
20.67
30
0
0
VERTEX
8
0
10
48.059875000000005
20
20.67
30
0
0
SEQEND
0
POLYLINE
66
1
8
1_copper
10
0.0
20
0.0
30
0.0
70
1
0
VERTEX
8
0
10
41.42895
20
19.6751125
30
0
0
VERTEX
8
0
10
41.44605
20
19.684984375000003
30
0
0
VERTEX
8
0
10
41.460015625000004
20
19.69895
30
0
0
VERTEX
8
0
10
41.4698875
20
19.71605
30
0
0
VERTEX
8
0
10
41.475
20
19.735125
30
0
0
VERTEX
8
0
10
41.475
20
19.904875
30
0
0
VERTEX
8
0
10
41.4698875
20
19.92395
30
0
0
VERTEX
8
0
10
41.460015625000004
20
19.94105
30
0
0
VERTEX
8
0
10
41.44605
20
19.955015625
30
0
0
VERTEX
8
0
10
41.42895
20
19.9648875
30
0
0
VERTEX
8
0
10
41.409875
20
19.970000000000002
30
0
0
VERTEX
8
0
10
40.840125
20
19.970000000000002
30
0
0
VERTEX
8
0
10
40.82105
20
19.9648875
30
0
0
VERTEX
8
0
10
40.80395
20
19.955015625
30
0
0
VERTEX
8
0
10
40.789984375
20
19.94105
30
0
0
VERTEX
8
0
10
40.7801125
20
19.92395
30
0
0
VERTEX
8
0
10
40.775
20
19.904875
30
0
0
VERTEX
8
0
10
40.775
20
19.735125
30
0
0
VERTEX
8
0
10
40.7801125
20
19.71605
30
0
0
VERTEX
8
0
10
40.789984375
20
19.69895
30
0
0
VERTEX
8
0
10
40.80395
20
19.684984375000003
30
0
0
VERTEX
8
0
10
40.82105
20
19.6751125
30
0
0
VERTEX
8
0
10
40.840125
20
19.67
30
0
0
VERTEX
8
0
10
41.409875
20
19.67
30
0
0
SEQEND
0
POLYLINE
66
1
8
1_copper
10
0.0
20
0.0
30
0.0
70
1
0
VERTEX
8
0
10
41.42895
20
19.1751125
30
0
0
VERTEX
8
0
10
41.44605
20
19.184984375000003
30
0
0
VERTEX
8
0
10
41.460015625000004
20
19.19895
30
0
0
VERTEX
8
0
10
41.4698875
20
19.21605
30
0
0
VERTEX
8
0
10
41.475
20
19.235125
30
0
0
VERTEX
8
0
10
41.475
20
19.404875
30
0
0
VERTEX
8
0
10
41.4698875
20
19.42395
30
0
0
VERTEX
8
0
10
41.460015625000004
20
19.44105
30
0
0
VERTEX
8
0
10
41.44605
20
19.455015625
30
0
0
VERTEX
8
0
10
41.42895
20
19.4648875
30
0
0
VERTEX
8
0
10
41.409875
20
19.470000000000002
30
0
0
VERTEX
8
0
10
40.840125
20
19.470000000000002
30
0
0
VERTEX
8
0
10
40.82105
20
19.4648875
30
0
0
VERTEX
8
0
10
40.80395
20
19.455015625
30
0
0
VERTEX
8
0
10
40.789984375
20
19.44105
30
0
0
VERTEX
8
0
10
40.7801125
20
19.42395
30
0
0
VERTEX
8
0
10
40.775
20
19.404875
30
0
0
VERTEX
8
0
10
40.775
20
19.235125
30
0
0
VERTEX
8
0
10
40.7801125
20
19.21605
30
0
0
VERTEX
8
0
10
40.789984375
20
19.19895
30
0
0
VERTEX
8
0
10
40.80395
20
19.184984375000003
30
0
0
VERTEX
8
0
10
40.82105
20
19.1751125
30
0
0
VERTEX
8
0
10
40.840125
20
19.17
30
0
0
VERTEX
8
0
10
41.409875
20
19.17
30
0
0
SEQEND
0
POLYLINE
66
1
8
1_copper
10
0.0
20
0.0
30
0.0
70
1
0
VERTEX
8
0
10
48.07895
20
19.1751125
30
0
0
VERTEX
8
0
10
48.096050000000005
20
19.184984375000003
30
0
0
VERTEX
8
0
10
48.110015625
20
19.19895
30
0
0
VERTEX
8
0
10
48.119887500000004
20
19.21605
30
0
0
VERTEX
8
0
10
48.125
20
19.235125
30
0
0
VERTEX
8
0
10
48.125
20
19.404875
30
0
0
VERTEX
8
0
10
48.119887500000004
20
19.42395
30
0
0
VERTEX
8
0
10
48.110015625
20
19.44105
30
0
0
VERTEX
8
0
10
48.096050000000005
20
19.455015625
30
0
0
VERTEX
8
0
10
48.07895
20
19.4648875
30
0
0
VERTEX
8
0
10
48.059875000000005
20
19.470000000000002
30
0
0
VERTEX
8
0
10
47.490125
20
19.470000000000002
30
0
0
VERTEX
8
0
10
47.471050000000005
20
19.4648875
30
0
0
VERTEX
8
0
10
47.45395
20
19.455015625
30
0
0
VERTEX
8
0
10
47.439984375
20
19.44105
30
0
0
VERTEX
8
0
10
47.4301125
20
19.42395
30
0
0
VERTEX
8
0
10
47.425000000000004
20
19.404875
30
0
0
VERTEX
8
0
10
47.425000000000004
20
19.235125
30
0
0
VERTEX
8
0
10
47.4301125
20
19.21605
30
0
0
VERTEX
8
0
10
47.439984375
20
19.19895
30
0
0
VERTEX
8
0
10
47.45395
20
19.184984375000003
30
0
0
VERTEX
8
0
10
47.471050000000005
20
19.1751125
30
0
0
VERTEX
8
0
10
47.490125
20
19.17
30
0
0
VERTEX
8
0
10
48.059875000000005
20
19.17
30
0
0
SEQEND
0
POLYLINE
66
1
8
1_copper
10
0.0
20
0.0
30
0.0
70
1
0
VERTEX
8
0
10
48.07895
20
18.6751125
30
0
0
VERTEX
8
0
10
48.096050000000005
20
18.684984375000003
30
0
0
VERTEX
8
0
10
48.110015625
20
18.69895
30
0
0
VERTEX
8
0
10
48.119887500000004
20
18.71605
30
0
0
VERTEX
8
0
10
48.125
20
18.735125
30
0
0
VERTEX
8
0
10
48.125
20
18.904875
30
0
0
VERTEX
8
0
10
48.119887500000004
20
18.92395
30
0
0
VERTEX
8
0
10
48.110015625
20
18.94105
30
0
0
VERTEX
8
0
10
48.096050000000005
20
18.955015625
30
0
0
VERTEX
8
0
10
48.07895
20
18.9648875
30
0
0
VERTEX
8
0
10
48.059875000000005
20
18.970000000000002
30
0
0
VERTEX
8
0
10
47.490125
20
18.970000000000002
30
0
0
VERTEX
8
0
10
47.471050000000005
20
18.9648875
30
0
0
VERTEX
8
0
10
47.45395
20
18.955015625
30
0
0
VERTEX
8
0
10
47.439984375
20
18.94105
30
0
0
VERTEX
8
0
10
47.4301125
20
18.92395
30
0
0
VERTEX
8
0
10
47.425000000000004
20
18.904875
30
0
0
VERTEX
8
0
10
47.425000000000004
20
18.735125
30
0
0
VERTEX
8
0
10
47.4301125
20
18.71605
30
0
0
VERTEX
8
0
10
47.439984375
20
18.69895
30
0
0
VERTEX
8
0
10
47.45395
20
18.684984375000003
30
0
0
VERTEX
8
0
10
47.471050000000005
20
18.6751125
30
0
0
VERTEX
8
0
10
47.490125
20
18.67
30
0
0
VERTEX
8
0
10
48.059875000000005
20
18.67
30
0
0
SEQEND
0
POLYLINE
66
1
8
1_copper
10
0.0
20
0.0
30
0.0
70
1
0
VERTEX
8
0
10
48.07895
20
18.1751125
30
0
0
VERTEX
8
0
10
48.096050000000005
20
18.184984375000003
30
0
0
VERTEX
8
0
10
48.110015625
20
18.19895
30
0
0
VERTEX
8
0
10
48.119887500000004
20
18.21605
30
0
0
VERTEX
8
0
10
48.125
20
18.235125
30
0
0
VERTEX
8
0
10
48.125
20
18.404875
30
0
0
VERTEX
8
0
10
48.119887500000004
20
18.42395
30
0
0
VERTEX
8
0
10
48.110015625
20
18.44105
30
0
0
VERTEX
8
0
10
48.096050000000005
20
18.455015625
30
0
0
VERTEX
8
0
10
48.07895
20
18.4648875
30
0
0
VERTEX
8
0
10
48.059875000000005
20
18.470000000000002
30
0
0
VERTEX
8
0
10
47.490125
20
18.470000000000002
30
0
0
VERTEX
8
0
10
47.471050000000005
20
18.4648875
30
0
0
VERTEX
8
0
10
47.45395
20
18.455015625
30
0
0
VERTEX
8
0
10
47.439984375
20
18.44105
30
0
0
VERTEX
8
0
10
47.4301125
20
18.42395
30
0
0
VERTEX
8
0
10
47.425000000000004
20
18.404875
30
0
0
VERTEX
8
0
10
47.425000000000004
20
18.235125
30
0
0
VERTEX
8
0
10
47.4301125
20
18.21605
30
0
0
VERTEX
8
0
10
47.439984375
20
18.19895
30
0
0
VERTEX
8
0
10
47.45395
20
18.184984375000003
30
0
0
VERTEX
8
0
10
47.471050000000005
20
18.1751125
30
0
0
VERTEX
8
0
10
47.490125
20
18.17
30
0
0
VERTEX
8
0
10
48.059875000000005
20
18.17
30
0
0
SEQEND
0
POLYLINE
66
1
8
1_copper
10
0.0
20
0.0
30
0.0
70
1
0
VERTEX
8
0
10
41.42895
20
17.6751125
30
0
0
VERTEX
8
0
10
41.44605
20
17.684984375
30
0
0
VERTEX
8
0
10
41.460015625000004
20
17.69895
30
0
0
VERTEX
8
0
10
41.4698875
20
17.71605
30
0
0
VERTEX
8
0
10
41.475
20
17.735125
30
0
0
VERTEX
8
0
10
41.475
20
17.904875
30
0
0
VERTEX
8
0
10
41.4698875
20
17.92395
30
0
0
VERTEX
8
0
10
41.460015625000004
20
17.94105
30
0
0
VERTEX
8
0
10
41.44605
20
17.955015625
30
0
0
VERTEX
8
0
10
41.42895
20
17.9648875
30
0
0
VERTEX
8
0
10
41.409875
20
17.970000000000002
30
0
0
VERTEX
8
0
10
40.840125
20
17.970000000000002
30
0
0
VERTEX
8
0
10
40.82105
20
17.9648875
30
0
0
VERTEX
8
0
10
40.80395
20
17.955015625
30
0
0
VERTEX
8
0
10
40.789984375
20
17.94105
30
0
0
VERTEX
8
0
10
40.7801125
20
17.92395
30
0
0
VERTEX
8
0
10
40.775
20
17.904875
30
0
0
VERTEX
8
0
10
40.775
20
17.735125
30
0
0
VERTEX
8
0
10
40.7801125
20
17.71605
30
0
0
VERTEX
8
0
10
40.789984375
20
17.69895
30
0
0
VERTEX
8
0
10
40.80395
20
17.684984375
30
0
0
VERTEX
8
0
10
40.82105
20
17.6751125
30
0
0
VERTEX
8
0
10
40.840125
20
17.67
30
0
0
VERTEX
8
0
10
41.409875
20
17.67
30
0
0
SEQEND
0
POLYLINE
66
1
8
1_copper
10
0.0
20
0.0
30
0.0
70
1
0
VERTEX
8
0
10
48.07895
20
17.6751125
30
0
0
VERTEX
8
0
10
48.096050000000005
20
17.684984375
30
0
0
VERTEX
8
0
10
48.110015625
20
17.69895
30
0
0
VERTEX
8
0
10
48.119887500000004
20
17.71605
30
0
0
VERTEX
8
0
10
48.125
20
17.735125
30
0
0
VERTEX
8
0
10
48.125
20
17.904875
30
0
0
VERTEX
8
0
10
48.119887500000004
20
17.92395
30
0
0
VERTEX
8
0
10
48.110015625
20
17.94105
30
0
0
VERTEX
8
0
10
48.096050000000005
20
17.955015625
30
0
0
VERTEX
8
0
10
48.07895
20
17.9648875
30
0
0
VERTEX
8
0
10
48.059875000000005
20
17.970000000000002
30
0
0
VERTEX
8
0
10
47.490125
20
17.970000000000002
30
0
0
VERTEX
8
0
10
47.471050000000005
20
17.9648875
30
0
0
VERTEX
8
0
10
47.45395
20
17.955015625
30
0
0
VERTEX
8
0
10
47.439984375
20
17.94105
30
0
0
VERTEX
8
0
10
47.4301125
20
17.92395
30
0
0
VERTEX
8
0
10
47.425000000000004
20
17.904875
30
0
0
VERTEX
8
0
10
47.425000000000004
20
17.735125
30
0
0
VERTEX
8
0
10
47.4301125
20
17.71605
30
0
0
VERTEX
8
0
10
47.439984375
20
17.69895
30
0
0
VERTEX
8
0
10
47.45395
20
17.684984375
30
0
0
VERTEX
8
0
10
47.471050000000005
20
17.6751125
30
0
0
VERTEX
8
0
10
47.490125
20
17.67
30
0
0
VERTEX
8
0
10
48.059875000000005
20
17.67
30
0
0
SEQEND
0
POLYLINE
66
1
8
1_copper
10
0.0
20
0.0
30
0.0
70
1
0
VERTEX
8
0
10
44.05395
20
16.650112500000002
30
0
0
VERTEX
8
0
10
44.07105
20
16.659984375
30
0
0
VERTEX
8
0
10
44.085015625000004
20
16.67395
30
0
0
VERTEX
8
0
10
44.0948875
20
16.69105
30
0
0
VERTEX
8
0
10
44.1
20
16.710125
30
0
0
VERTEX
8
0
10
44.1
20
17.279875
30
0
0
VERTEX
8
0
10
44.0948875
20
17.29895
30
0
0
VERTEX
8
0
10
44.085015625000004
20
17.31605
30
0
0
VERTEX
8
0
10
44.07105
20
17.330015625
30
0
0
VERTEX
8
0
10
44.05395
20
17.3398875
30
0
0
VERTEX
8
0
10
44.034875
20
17.345000000000002
30
0
0
VERTEX
8
0
10
43.865125
20
17.345000000000002
30
0
0
VERTEX
8
0
10
43.846050000000005
20
17.3398875
30
0
0
VERTEX
8
0
10
43.82895
20
17.330015625
30
0
0
VERTEX
8
0
10
43.814984375
20
17.31605
30
0
0
VERTEX
8
0
10
43.8051125
20
17.29895
30
0
0
VERTEX
8
0
10
43.800000000000004
20
17.279875
30
0
0
VERTEX
8
0
10
43.800000000000004
20
16.710125
30
0
0
VERTEX
8
0
10
43.8051125
20
16.69105
30
0
0
VERTEX
8
0
10
43.814984375
20
16.67395
30
0
0
VERTEX
8
0
10
43.82895
20
16.659984375
30
0
0
VERTEX
8
0
10
43.846050000000005
20
16.650112500000002
30
0
0
VERTEX
8
0
10
43.865125
20
16.645
30
0
0
VERTEX
8
0
10
44.034875
20
16.645
30
0
0
SEQEND
0
POLYLINE
66
1
8
1_copper
10
0.0
20
0.0
30
0.0
70
1
0
VERTEX
8
0
10
46.05395
20
16.650112500000002
30
0
0
VERTEX
8
0
10
46.07105
20
16.659984375
30
0
0
VERTEX
8
0
10
46.085015625000004
20
16.67395
30
0
0
VERTEX
8
0
10
46.0948875
20
16.69105
30
0
0
VERTEX
8
0
10
46.1
20
16.710125
30
0
0
VERTEX
8
0
10
46.1
20
17.279875
30
0
0
VERTEX
8
0
10
46.0948875
20
17.29895
30
0
0
VERTEX
8
0
10
46.085015625000004
20
17.31605
30
0
0
VERTEX
8
0
10
46.07105
20
17.330015625
30
0
0
VERTEX
8
0
10
46.05395
20
17.3398875
30
0
0
VERTEX
8
0
10
46.034875
20
17.345000000000002
30
0
0
VERTEX
8
0
10
45.865125
20
17.345000000000002
30
0
0
VERTEX
8
0
10
45.846050000000005
20
17.3398875
30
0
0
VERTEX
8
0
10
45.82895
20
17.330015625
30
0
0
VERTEX
8
0
10
45.814984375
20
17.31605
30
0
0
VERTEX
8
0
10
45.8051125
20
17.29895
30
0
0
VERTEX
8
0
10
45.800000000000004
20
17.279875
30
0
0
VERTEX
8
0
10
45.800000000000004
20
16.710125
30
0
0
VERTEX
8
0
10
45.8051125
20
16.69105
30
0
0
VERTEX
8
0
10
45.814984375
20
16.67395
30
0
0
VERTEX
8
0
10
45.82895
20
16.659984375
30
0
0
VERTEX
8
0
10
45.846050000000005
20
16.650112500000002
30
0
0
VERTEX
8
0
10
45.865125
20
16.645
30
0
0
VERTEX
8
0
10
46.034875
20
16.645
30
0
0
SEQEND
0
POLYLINE
66
1
8
1_copper
10
0.0
20
0.0
30
0.0
70
1
0
VERTEX
8
0
10
43.55395
20
16.650112500000002
30
0
0
VERTEX
8
0
10
43.57105
20
16.659984375
30
0
0
VERTEX
8
0
10
43.585015625000004
20
16.67395
30
0
0
VERTEX
8
0
10
43.5948875
20
16.69105
30
0
0
VERTEX
8
0
10
43.6
20
16.710125
30
0
0
VERTEX
8
0
10
43.6
20
17.279875
30
0
0
VERTEX
8
0
10
43.5948875
20
17.29895
30
0
0
VERTEX
8
0
10
43.585015625000004
20
17.31605
30
0
0
VERTEX
8
0
10
43.57105
20
17.330015625
30
0
0
VERTEX
8
0
10
43.55395
20
17.3398875
30
0
0
VERTEX
8
0
10
43.534875
20
17.345000000000002
30
0
0
VERTEX
8
0
10
43.365125
20
17.345000000000002
30
0
0
VERTEX
8
0
10
43.346050000000005
20
17.3398875
30
0
0
VERTEX
8
0
10
43.32895
20
17.330015625
30
0
0
VERTEX
8
0
10
43.314984375
20
17.31605
30
0
0
VERTEX
8
0
10
43.3051125
20
17.29895
30
0
0
VERTEX
8
0
10
43.300000000000004
20
17.279875
30
0
0
VERTEX
8
0
10
43.300000000000004
20
16.710125
30
0
0
VERTEX
8
0
10
43.3051125
20
16.69105
30
0
0
VERTEX
8
0
10
43.314984375
20
16.67395
30
0
0
VERTEX
8
0
10
43.32895
20
16.659984375
30
0
0
VERTEX
8
0
10
43.346050000000005
20
16.650112500000002
30
0
0
VERTEX
8
0
10
43.365125
20
16.645
30
0
0
VERTEX
8
0
10
43.534875
20
16.645
30
0
0
SEQEND
0
POLYLINE
66
1
8
1_copper
10
0.0
20
0.0
30
0.0
70
1
0
VERTEX
8
0
10
43.05395
20
16.650112500000002
30
0
0
VERTEX
8
0
10
43.07105
20
16.659984375
30
0
0
VERTEX
8
0
10
43.085015625000004
20
16.67395
30
0
0
VERTEX
8
0
10
43.0948875
20
16.69105
30
0
0
VERTEX
8
0
10
43.1
20
16.710125
30
0
0
VERTEX
8
0
10
43.1
20
17.279875
30
0
0
VERTEX
8
0
10
43.0948875
20
17.29895
30
0
0
VERTEX
8
0
10
43.085015625000004
20
17.31605
30
0
0
VERTEX
8
0
10
43.07105
20
17.330015625
30
0
0
VERTEX
8
0
10
43.05395
20
17.3398875
30
0
0
VERTEX
8
0
10
43.034875
20
17.345000000000002
30
0
0
VERTEX
8
0
10
42.865125
20
17.345000000000002
30
0
0
VERTEX
8
0
10
42.846050000000005
20
17.3398875
30
0
0
VERTEX
8
0
10
42.82895
20
17.330015625
30
0
0
VERTEX
8
0
10
42.814984375
20
17.31605
30
0
0
VERTEX
8
0
10
42.8051125
20
17.29895
30
0
0
VERTEX
8
0
10
42.800000000000004
20
17.279875
30
0
0
VERTEX
8
0
10
42.800000000000004
20
16.710125
30
0
0
VERTEX
8
0
10
42.8051125
20
16.69105
30
0
0
VERTEX
8
0
10
42.814984375
20
16.67395
30
0
0
VERTEX
8
0
10
42.82895
20
16.659984375
30
0
0
VERTEX
8
0
10
42.846050000000005
20
16.650112500000002
30
0
0
VERTEX
8
0
10
42.865125
20
16.645
30
0
0
VERTEX
8
0
10
43.034875
20
16.645
30
0
0
SEQEND
0
POLYLINE
66
1
8
1_copper
10
0.0
20
0.0
30
0.0
70
1
0
VERTEX
8
0
10
42.55395
20
16.650112500000002
30
0
0
VERTEX
8
0
10
42.57105
20
16.659984375
30
0
0
VERTEX
8
0
10
42.585015625000004
20
16.67395
30
0
0
VERTEX
8
0
10
42.5948875
20
16.69105
30
0
0
VERTEX
8
0
10
42.6
20
16.710125
30
0
0
VERTEX
8
0
10
42.6
20
17.279875
30
0
0
VERTEX
8
0
10
42.5948875
20
17.29895
30
0
0
VERTEX
8
0
10
42.585015625000004
20
17.31605
30
0
0
VERTEX
8
0
10
42.57105
20
17.330015625
30
0
0
VERTEX
8
0
10
42.55395
20
17.3398875
30
0
0
VERTEX
8
0
10
42.534875
20
17.345000000000002
30
0
0
VERTEX
8
0
10
42.365125
20
17.345000000000002
30
0
0
VERTEX
8
0
10
42.346050000000005
20
17.3398875
30
0
0
VERTEX
8
0
10
42.32895
20
17.330015625
30
0
0
VERTEX
8
0
10
42.314984375
20
17.31605
30
0
0
VERTEX
8
0
10
42.3051125
20
17.29895
30
0
0
VERTEX
8
0
10
42.300000000000004
20
17.279875
30
0
0
VERTEX
8
0
10
42.300000000000004
20
16.710125
30
0
0
VERTEX
8
0
10
42.3051125
20
16.69105
30
0
0
VERTEX
8
0
10
42.314984375
20
16.67395
30
0
0
VERTEX
8
0
10
42.32895
20
16.659984375
30
0
0
VERTEX
8
0
10
42.346050000000005
20
16.650112500000002
30
0
0
VERTEX
8
0
10
42.365125
20
16.645
30
0
0
VERTEX
8
0
10
42.534875
20
16.645
30
0
0
SEQEND
0
POLYLINE
66
1
8
1_copper
10
0.0
20
0.0
30
0.0
70
1
0
VERTEX
8
0
10
42.05395
20
16.650112500000002
30
0
0
VERTEX
8
0
10
42.07105
20
16.659984375
30
0
0
VERTEX
8
0
10
42.085015625000004
20
16.67395
30
0
0
VERTEX
8
0
10
42.0948875
20
16.69105
30
0
0
VERTEX
8
0
10
42.1
20
16.710125
30
0
0
VERTEX
8
0
10
42.1
20
17.279875
30
0
0
VERTEX
8
0
10
42.0948875
20
17.29895
30
0
0
VERTEX
8
0
10
42.085015625000004
20
17.31605
30
0
0
VERTEX
8
0
10
42.07105
20
17.330015625
30
0
0
VERTEX
8
0
10
42.05395
20
17.3398875
30
0
0
VERTEX
8
0
10
42.034875
20
17.345000000000002
30
0
0
VERTEX
8
0
10
41.865125
20
17.345000000000002
30
0
0
VERTEX
8
0
10
41.846050000000005
20
17.3398875
30
0
0
VERTEX
8
0
10
41.82895
20
17.330015625
30
0
0
VERTEX
8
0
10
41.814984375
20
17.31605
30
0
0
VERTEX
8
0
10
41.8051125
20
17.29895
30
0
0
VERTEX
8
0
10
41.800000000000004
20
17.279875
30
0
0
VERTEX
8
0
10
41.800000000000004
20
16.710125
30
0
0
VERTEX
8
0
10
41.8051125
20
16.69105
30
0
0
VERTEX
8
0
10
41.814984375
20
16.67395
30
0
0
VERTEX
8
0
10
41.82895
20
16.659984375
30
0
0
VERTEX
8
0
10
41.846050000000005
20
16.650112500000002
30
0
0
VERTEX
8
0
10
41.865125
20
16.645
30
0
0
VERTEX
8
0
10
42.034875
20
16.645
30
0
0
SEQEND
0
POLYLINE
66
1
8
1_copper
10
0.0
20
0.0
30
0.0
70
1
0
VERTEX
8
0
10
47.05395
20
16.650112500000002
30
0
0
VERTEX
8
0
10
47.07105
20
16.659984375
30
0
0
VERTEX
8
0
10
47.085015625000004
20
16.67395
30
0
0
VERTEX
8
0
10
47.094887500000006
20
16.69105
30
0
0
VERTEX
8
0
10
47.1
20
16.710125
30
0
0
VERTEX
8
0
10
47.1
20
17.279875
30
0
0
VERTEX
8
0
10
47.094887500000006
20
17.29895
30
0
0
VERTEX
8
0
10
47.085015625000004
20
17.31605
30
0
0
VERTEX
8
0
10
47.07105
20
17.330015625
30
0
0
VERTEX
8
0
10
47.05395
20
17.3398875
30
0
0
VERTEX
8
0
10
47.034875
20
17.345000000000002
30
0
0
VERTEX
8
0
10
46.865125
20
17.345000000000002
30
0
0
VERTEX
8
0
10
46.846050000000005
20
17.3398875
30
0
0
VERTEX
8
0
10
46.82895
20
17.330015625
30
0
0
VERTEX
8
0
10
46.814984375
20
17.31605
30
0
0
VERTEX
8
0
10
46.8051125
20
17.29895
30
0
0
VERTEX
8
0
10
46.800000000000004
20
17.279875
30
0
0
VERTEX
8
0
10
46.800000000000004
20
16.710125
30
0
0
VERTEX
8
0
10
46.8051125
20
16.69105
30
0
0
VERTEX
8
0
10
46.814984375
20
16.67395
30
0
0
VERTEX
8
0
10
46.82895
20
16.659984375
30
0
0
VERTEX
8
0
10
46.846050000000005
20
16.650112500000002
30
0
0
VERTEX
8
0
10
46.865125
20
16.645
30
0
0
VERTEX
8
0
10
47.034875
20
16.645
30
0
0
SEQEND
0
POLYLINE
66
1
8
1_copper
10
0.0
20
0.0
30
0.0
70
1
0
VERTEX
8
0
10
46.55395
20
16.650112500000002
30
0
0
VERTEX
8
0
10
46.57105
20
16.659984375
30
0
0
VERTEX
8
0
10
46.585015625000004
20
16.67395
30
0
0
VERTEX
8
0
10
46.5948875
20
16.69105
30
0
0
VERTEX
8
0
10
46.6
20
16.710125
30
0
0
VERTEX
8
0
10
46.6
20
17.279875
30
0
0
VERTEX
8
0
10
46.5948875
20
17.29895
30
0
0
VERTEX
8
0
10
46.585015625000004
20
17.31605
30
0
0
VERTEX
8
0
10
46.57105
20
17.330015625
30
0
0
VERTEX
8
0
10
46.55395
20
17.3398875
30
0
0
VERTEX
8
0
10
46.534875
20
17.345000000000002
30
0
0
VERTEX
8
0
10
46.365125
20
17.345000000000002
30
0
0
VERTEX
8
0
10
46.346050000000005
20
17.3398875
30
0
0
VERTEX
8
0
10
46.32895
20
17.330015625
30
0
0
VERTEX
8
0
10
46.314984375
20
17.31605
30
0
0
VERTEX
8
0
10
46.3051125
20
17.29895
30
0
0
VERTEX
8
0
10
46.300000000000004
20
17.279875
30
0
0
VERTEX
8
0
10
46.300000000000004
20
16.710125
30
0
0
VERTEX
8
0
10
46.3051125
20
16.69105
30
0
0
VERTEX
8
0
10
46.314984375
20
16.67395
30
0
0
VERTEX
8
0
10
46.32895
20
16.659984375
30
0
0
VERTEX
8
0
10
46.346050000000005
20
16.650112500000002
30
0
0
VERTEX
8
0
10
46.365125
20
16.645
30
0
0
VERTEX
8
0
10
46.534875
20
16.645
30
0
0
SEQEND
0
POLYLINE
66
1
8
1_copper
10
0.0
20
0.0
30
0.0
70
1
0
VERTEX
8
0
10
45.55395
20
16.650112500000002
30
0
0
VERTEX
8
0
10
45.57105
20
16.659984375
30
0
0
VERTEX
8
0
10
45.585015625000004
20
16.67395
30
0
0
VERTEX
8
0
10
45.5948875
20
16.69105
30
0
0
VERTEX
8
0
10
45.6
20
16.710125
30
0
0
VERTEX
8
0
10
45.6
20
17.279875
30
0
0
VERTEX
8
0
10
45.5948875
20
17.29895
30
0
0
VERTEX
8
0
10
45.585015625000004
20
17.31605
30
0
0
VERTEX
8
0
10
45.57105
20
17.330015625
30
0
0
VERTEX
8
0
10
45.55395
20
17.3398875
30
0
0
VERTEX
8
0
10
45.534875
20
17.345000000000002
30
0
0
VERTEX
8
0
10
45.365125
20
17.345000000000002
30
0
0
VERTEX
8
0
10
45.346050000000005
20
17.3398875
30
0
0
VERTEX
8
0
10
45.32895
20
17.330015625
30
0
0
VERTEX
8
0
10
45.314984375
20
17.31605
30
0
0
VERTEX
8
0
10
45.3051125
20
17.29895
30
0
0
VERTEX
8
0
10
45.300000000000004
20
17.279875
30
0
0
VERTEX
8
0
10
45.300000000000004
20
16.710125
30
0
0
VERTEX
8
0
10
45.3051125
20
16.69105
30
0
0
VERTEX
8
0
10
45.314984375
20
16.67395
30
0
0
VERTEX
8
0
10
45.32895
20
16.659984375
30
0
0
VERTEX
8
0
10
45.346050000000005
20
16.650112500000002
30
0
0
VERTEX
8
0
10
45.365125
20
16.645
30
0
0
VERTEX
8
0
10
45.534875
20
16.645
30
0
0
SEQEND
0
POLYLINE
66
1
8
1_copper
10
0.0
20
0.0
30
0.0
70
1
0
VERTEX
8
0
10
7.107418750000001
20
9.505959375
30
0
42
0.9063462356499619
0
VERTEX
8
0
10
7.04284375
20
10.820400000000001
30
0
0
VERTEX
8
0
10
5.65715625
20
10.820400000000001
30
0
42
0.9520786018124834
0
VERTEX
8
0
10
5.65715625
20
9.499600000000001
30
0
0
VERTEX
8
0
10
7.04284375
20
9.499600000000001
30
0
0
SEQEND
0
POLYLINE
66
1
8
1_copper
10
0.0
20
0.0
30
0.0
70
1
0
VERTEX
8
0
10
14.72741875
20
9.505959375
30
0
42
0.9063462356499619
0
VERTEX
8
0
10
14.66284375
20
10.820400000000001
30
0
0
VERTEX
8
0
10
13.27715625
20
10.820400000000001
30
0
42
0.9520786018124834
0
VERTEX
8
0
10
13.27715625
20
9.499600000000001
30
0
0
VERTEX
8
0
10
14.66284375
20
9.499600000000001
30
0
0
SEQEND
0
POLYLINE
66
1
8
1_copper
10
0.0
20
0.0
30
0.0
70
1
0
VERTEX
8
0
10
36.6268
20
8.726771875
30
0
0
VERTEX
8
0
10
36.6268
20
9.358028125
30
0
0
VERTEX
8
0
10
36.180428125
20
9.804400000000001
30
0
0
VERTEX
8
0
10
35.549171875
20
9.804400000000001
30
0
0
VERTEX
8
0
10
35.1028
20
9.358028125
30
0
0
VERTEX
8
0
10
35.1028
20
8.726771875
30
0
0
VERTEX
8
0
10
35.549171875
20
8.2804
30
0
0
VERTEX
8
0
10
36.180428125
20
8.2804
30
0
0
SEQEND
0
POLYLINE
66
1
8
1_copper
10
0.0
20
0.0
30
0.0
70
1
0
VERTEX
8
0
10
28.3972
20
8.726771875
30
0
0
VERTEX
8
0
10
28.3972
20
9.358028125
30
0
0
VERTEX
8
0
10
27.950828125
20
9.804400000000001
30
0
0
VERTEX
8
0
10
27.319571875
20
9.804400000000001
30
0
0
VERTEX
8
0
10
26.8732
20
9.358028125
30
0
0
VERTEX
8
0
10
26.8732
20
8.726771875
30
0
0
VERTEX
8
0
10
27.319571875
20
8.2804
30
0
0
VERTEX
8
0
10
27.950828125
20
8.2804
30
0
0
SEQEND
0
POLYLINE
66
1
8
1_copper
10
0.0
20
0.0
30
0.0
70
1
0
VERTEX
8
0
10
31.140400000000003
20
8.726771875
30
0
0
VERTEX
8
0
10
31.140400000000003
20
9.358028125
30
0
0
VERTEX
8
0
10
30.694028125000003
20
9.804400000000001
30
0
0
VERTEX
8
0
10
30.062771875000003
20
9.804400000000001
30
0
0
VERTEX
8
0
10
29.616400000000002
20
9.358028125
30
0
0
VERTEX
8
0
10
29.616400000000002
20
8.726771875
30
0
0
VERTEX
8
0
10
30.062771875000003
20
8.2804
30
0
0
VERTEX
8
0
10
30.694028125000003
20
8.2804
30
0
0
SEQEND
0
POLYLINE
66
1
8
1_copper
10
0.0
20
0.0
30
0.0
70
1
0
VERTEX
8
0
10
33.8836
20
8.726771875
30
0
0
VERTEX
8
0
10
33.8836
20
9.358028125
30
0
0
VERTEX
8
0
10
33.437228125000004
20
9.804400000000001
30
0
0
VERTEX
8
0
10
32.805971875000004
20
9.804400000000001
30
0
0
VERTEX
8
0
10
32.3596
20
9.358028125
30
0
0
VERTEX
8
0
10
32.3596
20
8.726771875
30
0
0
VERTEX
8
0
10
32.805971875000004
20
8.2804
30
0
0
VERTEX
8
0
10
33.437228125000004
20
8.2804
30
0
0
SEQEND
0
POLYLINE
66
1
8
1_copper
10
0.0
20
0.0
30
0.0
70
1
0
VERTEX
8
0
10
14.72741875
20
6.965959375000001
30
0
42
0.9063462356499619
0
VERTEX
8
0
10
14.66284375
20
8.2804
30
0
0
VERTEX
8
0
10
13.27715625
20
8.2804
30
0
42
0.9520786018124834
0
VERTEX
8
0
10
13.27715625
20
6.9596
30
0
0
VERTEX
8
0
10
14.66284375
20
6.9596
30
0
0
SEQEND
0
POLYLINE
66
1
8
1_copper
10
0.0
20
0.0
30
0.0
70
1
0
VERTEX
8
0
10
7.107418750000001
20
6.965959375000001
30
0
42
0.9063462356499619
0
VERTEX
8
0
10
7.04284375
20
8.2804
30
0
0
VERTEX
8
0
10
5.65715625
20
8.2804
30
0
42
0.9520786018124834
0
VERTEX
8
0
10
5.65715625
20
6.9596
30
0
0
VERTEX
8
0
10
7.04284375
20
6.9596
30
0
0
SEQEND
0
POLYLINE
66
1
8
1_copper
10
0.0
20
0.0
30
0.0
70
1
0
VERTEX
8
0
10
35.2552
20
5.8819718750000005
30
0
0
VERTEX
8
0
10
35.2552
20
6.513228125
30
0
0
VERTEX
8
0
10
34.808828125000005
20
6.9596
30
0
0
VERTEX
8
0
10
34.177571875
20
6.9596
30
0
0
VERTEX
8
0
10
33.7312
20
6.513228125
30
0
0
VERTEX
8
0
10
33.7312
20
5.8819718750000005
30
0
0
VERTEX
8
0
10
34.177571875
20
5.4356
30
0
0
VERTEX
8
0
10
34.808828125000005
20
5.4356
30
0
0
SEQEND
0
POLYLINE
66
1
8
1_copper
10
0.0
20
0.0
30
0.0
70
1
0
VERTEX
8
0
10
27.0256
20
5.8819718750000005
30
0
0
VERTEX
8
0
10
27.0256
20
6.513228125
30
0
0
VERTEX
8
0
10
26.579228125
20
6.9596
30
0
0
VERTEX
8
0
10
25.947971875
20
6.9596
30
0
0
VERTEX
8
0
10
25.5016
20
6.513228125
30
0
0
VERTEX
8
0
10
25.5016
20
5.8819718750000005
30
0
0
VERTEX
8
0
10
25.947971875
20
5.4356
30
0
0
VERTEX
8
0
10
26.579228125
20
5.4356
30
0
0
SEQEND
0
POLYLINE
66
1
8
16_copper
10
0.0
20
0.0
30
0.0
70
1
0
VERTEX
8
0
10
7.107418750000001
20
9.505959375
30
0
42
0.9063462356499619
0
VERTEX
8
0
10
7.04284375
20
10.820400000000001
30
0
0
VERTEX
8
0
10
5.65715625
20
10.820400000000001
30
0
42
0.9520786018124834
0
VERTEX
8
0
10
5.65715625
20
9.499600000000001
30
0
0
VERTEX
8
0
10
7.04284375
20
9.499600000000001
30
0
0
SEQEND
0
POLYLINE
66
1
8
16_copper
10
0.0
20
0.0
30
0.0
70
1
0
VERTEX
8
0
10
14.72741875
20
9.505959375
30
0
42
0.9063462356499619
0
VERTEX
8
0
10
14.66284375
20
10.820400000000001
30
0
0
VERTEX
8
0
10
13.27715625
20
10.820400000000001
30
0
42
0.9520786018124834
0
VERTEX
8
0
10
13.27715625
20
9.499600000000001
30
0
0
VERTEX
8
0
10
14.66284375
20
9.499600000000001
30
0
0
SEQEND
0
POLYLINE
66
1
8
16_copper
10
0.0
20
0.0
30
0.0
70
1
0
VERTEX
8
0
10
28.3972
20
8.726771875
30
0
0
VERTEX
8
0
10
28.3972
20
9.358028125
30
0
0
VERTEX
8
0
10
27.950828125
20
9.804400000000001
30
0
0
VERTEX
8
0
10
27.319571875
20
9.804400000000001
30
0
0
VERTEX
8
0
10
26.8732
20
9.358028125
30
0
0
VERTEX
8
0
10
26.8732
20
8.726771875
30
0
0
VERTEX
8
0
10
27.319571875
20
8.2804
30
0
0
VERTEX
8
0
10
27.950828125
20
8.2804
30
0
0
SEQEND
0
POLYLINE
66
1
8
16_copper
10
0.0
20
0.0
30
0.0
70
1
0
VERTEX
8
0
10
31.140400000000003
20
8.726771875
30
0
0
VERTEX
8
0
10
31.140400000000003
20
9.358028125
30
0
0
VERTEX
8
0
10
30.694028125000003
20
9.804400000000001
30
0
0
VERTEX
8
0
10
30.062771875000003
20
9.804400000000001
30
0
0
VERTEX
8
0
10
29.616400000000002
20
9.358028125
30
0
0
VERTEX
8
0
10
29.616400000000002
20
8.726771875
30
0
0
VERTEX
8
0
10
30.062771875000003
20
8.2804
30
0
0
VERTEX
8
0
10
30.694028125000003
20
8.2804
30
0
0
SEQEND
0
POLYLINE
66
1
8
16_copper
10
0.0
20
0.0
30
0.0
70
1
0
VERTEX
8
0
10
33.8836
20
8.726771875
30
0
0
VERTEX
8
0
10
33.8836
20
9.358028125
30
0
0
VERTEX
8
0
10
33.437228125000004
20
9.804400000000001
30
0
0
VERTEX
8
0
10
32.805971875000004
20
9.804400000000001
30
0
0
VERTEX
8
0
10
32.3596
20
9.358028125
30
0
0
VERTEX
8
0
10
32.3596
20
8.726771875
30
0
0
VERTEX
8
0
10
32.805971875000004
20
8.2804
30
0
0
VERTEX
8
0
10
33.437228125000004
20
8.2804
30
0
0
SEQEND
0
POLYLINE
66
1
8
16_copper
10
0.0
20
0.0
30
0.0
70
1
0
VERTEX
8
0
10
36.6268
20
8.726771875
30
0
0
VERTEX
8
0
10
36.6268
20
9.358028125
30
0
0
VERTEX
8
0
10
36.180428125
20
9.804400000000001
30
0
0
VERTEX
8
0
10
35.549171875
20
9.804400000000001
30
0
0
VERTEX
8
0
10
35.1028
20
9.358028125
30
0
0
VERTEX
8
0
10
35.1028
20
8.726771875
30
0
0
VERTEX
8
0
10
35.549171875
20
8.2804
30
0
0
VERTEX
8
0
10
36.180428125
20
8.2804
30
0
0
SEQEND
0
POLYLINE
66
1
8
16_copper
10
0.0
20
0.0
30
0.0
70
1
0
VERTEX
8
0
10
7.107418750000001
20
6.965959375000001
30
0
42
0.9063462356499619
0
VERTEX
8
0
10
7.04284375
20
8.2804
30
0
0
VERTEX
8
0
10
5.65715625
20
8.2804
30
0
42
0.9520786018124834
0
VERTEX
8
0
10
5.65715625
20
6.9596
30
0
0
VERTEX
8
0
10
7.04284375
20
6.9596
30
0
0
SEQEND
0
POLYLINE
66
1
8
16_copper
10
0.0
20
0.0
30
0.0
70
1
0
VERTEX
8
0
10
14.72741875
20
6.965959375000001
30
0
42
0.9063462356499619
0
VERTEX
8
0
10
14.66284375
20
8.2804
30
0
0
VERTEX
8
0
10
13.27715625
20
8.2804
30
0
42
0.9520786018124834
0
VERTEX
8
0
10
13.27715625
20
6.9596
30
0
0
VERTEX
8
0
10
14.66284375
20
6.9596
30
0
0
SEQEND
0
POLYLINE
66
1
8
16_copper
10
0.0
20
0.0
30
0.0
70
1
0
VERTEX
8
0
10
27.0256
20
5.8819718750000005
30
0
0
VERTEX
8
0
10
27.0256
20
6.513228125
30
0
0
VERTEX
8
0
10
26.579228125
20
6.9596
30
0
0
VERTEX
8
0
10
25.947971875
20
6.9596
30
0
0
VERTEX
8
0
10
25.5016
20
6.513228125
30
0
0
VERTEX
8
0
10
25.5016
20
5.8819718750000005
30
0
0
VERTEX
8
0
10
25.947971875
20
5.4356
30
0
0
VERTEX
8
0
10
26.579228125
20
5.4356
30
0
0
SEQEND
0
POLYLINE
66
1
8
16_copper
10
0.0
20
0.0
30
0.0
70
1
0
VERTEX
8
0
10
35.2552
20
5.8819718750000005
30
0
0
VERTEX
8
0
10
35.2552
20
6.513228125
30
0
0
VERTEX
8
0
10
34.808828125000005
20
6.9596
30
0
0
VERTEX
8
0
10
34.177571875
20
6.9596
30
0
0
VERTEX
8
0
10
33.7312
20
6.513228125
30
0
0
VERTEX
8
0
10
33.7312
20
5.8819718750000005
30
0
0
VERTEX
8
0
10
34.177571875
20
5.4356
30
0
0
VERTEX
8
0
10
34.808828125000005
20
5.4356
30
0
0
SEQEND
0
POLYLINE
66
1
8
1_copper
10
0.0
20
0.0
30
0.0
70
1
0
VERTEX
8
0
10
41.42895
20
20.6751125
30
0
0
VERTEX
8
0
10
41.44605
20
20.684984375000003
30
0
0
VERTEX
8
0
10
41.460015625000004
20
20.69895
30
0
0
VERTEX
8
0
10
41.4698875
20
20.716050000000003
30
0
0
VERTEX
8
0
10
41.475
20
20.735125
30
0
0
VERTEX
8
0
10
41.475
20
20.904875
30
0
0
VERTEX
8
0
10
41.4698875
20
20.92395
30
0
0
VERTEX
8
0
10
41.460015625000004
20
20.94105
30
0
0
VERTEX
8
0
10
41.44605
20
20.955015625
30
0
0
VERTEX
8
0
10
41.42895
20
20.9648875
30
0
0
VERTEX
8
0
10
41.409875
20
20.970000000000002
30
0
0
VERTEX
8
0
10
40.840125
20
20.970000000000002
30
0
0
VERTEX
8
0
10
40.82105
20
20.9648875
30
0
0
VERTEX
8
0
10
40.80395
20
20.955015625
30
0
0
VERTEX
8
0
10
40.789984375
20
20.94105
30
0
0
VERTEX
8
0
10
40.7801125
20
20.92395
30
0
0
VERTEX
8
0
10
40.775
20
20.904875
30
0
0
VERTEX
8
0
10
40.775
20
20.8962
30
0
0
VERTEX
8
0
10
36.361562500000005
20
20.8962
30
0
0
VERTEX
8
0
10
31.80388125
20
25.453881250000002
30
0
42
0.198912367379658
0
VERTEX
8
0
10
31.75
20
25.476200000000002
30
0
0
VERTEX
8
0
10
15.286490625
20
25.476200000000002
30
0
42
0.36675309512609283
0
VERTEX
8
0
10
14.66284375
20
26.0604
30
0
0
VERTEX
8
0
10
13.27715625
20
26.0604
30
0
42
0.9520786018124834
0
VERTEX
8
0
10
13.27715625
20
24.739600000000003
30
0
0
VERTEX
8
0
10
14.66284375
20
24.739600000000003
30
0
42
0.36675309512609283
0
VERTEX
8
0
10
15.286490625
20
25.323800000000002
30
0
0
VERTEX
8
0
10
31.7184375
20
25.323800000000002
30
0
0
VERTEX
8
0
10
36.27611875
20
20.76611875
30
0
42
0.198912367379658
0
VERTEX
8
0
10
36.33
20
20.7438
30
0
0
VERTEX
8
0
10
40.775
20
20.7438
30
0
0
VERTEX
8
0
10
40.775
20
20.735125
30
0
0
VERTEX
8
0
10
40.7801125
20
20.716050000000003
30
0
0
VERTEX
8
0
10
40.789984375
20
20.69895
30
0
0
VERTEX
8
0
10
40.80395
20
20.684984375000003
30
0
0
VERTEX
8
0
10
40.82105
20
20.6751125
30
0
0
VERTEX
8
0
10
40.840125
20
20.67
30
0
0
VERTEX
8
0
10
41.409875
20
20.67
30
0
0
SEQEND
0
POLYLINE
66
1
8
16_copper
10
0.0
20
0.0
30
0.0
70
1
0
VERTEX
8
0
10
14.72741875
20
24.745959375
30
0
42
0.9063462356499619
0
VERTEX
8
0
10
14.66284375
20
26.0604
30
0
0
VERTEX
8
0
10
13.27715625
20
26.0604
30
0
42
0.9520786018124834
0
VERTEX
8
0
10
13.27715625
20
24.739600000000003
30
0
0
VERTEX
8
0
10
14.66284375
20
24.739600000000003
30
0
0
SEQEND
0
POLYLINE
66
1
8
1_copper
10
0.0
20
0.0
30
0.0
70
1
0
VERTEX
8
0
10
46.906671875
20
17.516415625
30
0
42
0.16997656369761122
0
VERTEX
8
0
10
46.952125
20
17.53751875
30
0
0
VERTEX
8
0
10
47.23248125
20
17.817875
30
0
42
0.198912367379658
0
VERTEX
8
0
10
47.2548
20
17.87175625
30
0
0
VERTEX
8
0
10
47.2548
20
19.97139375
30
0
0
VERTEX
8
0
10
47.46310625
20
20.1797
30
0
0
VERTEX
8
0
10
47.471050000000005
20
20.1751125
30
0
0
VERTEX
8
0
10
47.490125
20
20.17
30
0
0
VERTEX
8
0
10
48.059875000000005
20
20.17
30
0
0
VERTEX
8
0
10
48.07895
20
20.1751125
30
0
0
VERTEX
8
0
10
48.096050000000005
20
20.184984375000003
30
0
0
VERTEX
8
0
10
48.110015625
20
20.19895
30
0
0
VERTEX
8
0
10
48.119887500000004
20
20.216050000000003
30
0
0
VERTEX
8
0
10
48.125
20
20.235125
30
0
0
VERTEX
8
0
10
48.125
20
20.404875
30
0
0
VERTEX
8
0
10
48.119887500000004
20
20.42395
30
0
0
VERTEX
8
0
10
48.110015625
20
20.44105
30
0
0
VERTEX
8
0
10
48.096050000000005
20
20.455015625
30
0
0
VERTEX
8
0
10
48.07895
20
20.4648875
30
0
0
VERTEX
8
0
10
48.059875000000005
20
20.470000000000002
30
0
0
VERTEX
8
0
10
47.490125
20
20.470000000000002
30
0
0
VERTEX
8
0
10
47.471050000000005
20
20.4648875
30
0
0
VERTEX
8
0
10
47.45395
20
20.455015625
30
0
0
VERTEX
8
0
10
47.439984375
20
20.44105
30
0
0
VERTEX
8
0
10
47.4301125
20
20.42395
30
0
0
VERTEX
8
0
10
47.425000000000004
20
20.404875
30
0
0
VERTEX
8
0
10
47.425000000000004
20
20.35711875
30
0
0
VERTEX
8
0
10
47.12471875
20
20.0568375
30
0
42
0.198912367379658
0
VERTEX
8
0
10
47.1024
20
20.00295625
30
0
0
VERTEX
8
0
10
47.1024
20
17.90331875
30
0
0
VERTEX
8
0
10
46.86668125
20
17.6676
30
0
0
VERTEX
8
0
10
42.03331875
20
17.6676
30
0
0
VERTEX
8
0
10
41.7976
20
17.90331875
30
0
0
VERTEX
8
0
10
41.7976
20
20.00295625
30
0
42
0.198912367379658
0
VERTEX
8
0
10
41.77528125
20
20.0568375
30
0
0
VERTEX
8
0
10
41.475
20
20.35711875
30
0
0
VERTEX
8
0
10
41.475
20
20.404875
30
0
0
VERTEX
8
0
10
41.4698875
20
20.42395
30
0
0
VERTEX
8
0
10
41.460015625000004
20
20.44105
30
0
0
VERTEX
8
0
10
41.44605
20
20.455015625
30
0
0
VERTEX
8
0
10
41.42895
20
20.4648875
30
0
0
VERTEX
8
0
10
41.409875
20
20.470000000000002
30
0
0
VERTEX
8
0
10
40.840125
20
20.470000000000002
30
0
0
VERTEX
8
0
10
40.82105
20
20.4648875
30
0
0
VERTEX
8
0
10
40.80395
20
20.455015625
30
0
0
VERTEX
8
0
10
40.789984375
20
20.44105
30
0
0
VERTEX
8
0
10
40.7801125
20
20.42395
30
0
0
VERTEX
8
0
10
40.775
20
20.404875
30
0
0
VERTEX
8
0
10
40.775
20
20.3962
30
0
0
VERTEX
8
0
10
35.5915625
20
20.3962
30
0
0
VERTEX
8
0
10
33.07388125
20
22.913881250000003
30
0
42
0.198912367379658
0
VERTEX
8
0
10
33.02
20
22.9362
30
0
0
VERTEX
8
0
10
15.286490625
20
22.9362
30
0
42
0.36675309512609283
0
VERTEX
8
0
10
14.66284375
20
23.520400000000002
30
0
0
VERTEX
8
0
10
13.27715625
20
23.520400000000002
30
0
42
0.9520786018124834
0
VERTEX
8
0
10
13.27715625
20
22.1996
30
0
0
VERTEX
8
0
10
14.66284375
20
22.1996
30
0
42
0.36675309512609283
0
VERTEX
8
0
10
15.286490625
20
22.7838
30
0
0
VERTEX
8
0
10
32.9884375
20
22.7838
30
0
0
VERTEX
8
0
10
35.50611875
20
20.26611875
30
0
42
0.198912367379658
0
VERTEX
8
0
10
35.56
20
20.2438
30
0
0
VERTEX
8
0
10
40.775
20
20.2438
30
0
0
VERTEX
8
0
10
40.775
20
20.235125
30
0
0
VERTEX
8
0
10
40.7801125
20
20.216050000000003
30
0
0
VERTEX
8
0
10
40.789984375
20
20.19895
30
0
0
VERTEX
8
0
10
40.80395
20
20.184984375000003
30
0
0
VERTEX
8
0
10
40.82105
20
20.1751125
30
0
0
VERTEX
8
0
10
40.840125
20
20.17
30
0
0
VERTEX
8
0
10
41.409875
20
20.17
30
0
0
VERTEX
8
0
10
41.42895
20
20.1751125
30
0
0
VERTEX
8
0
10
41.43689375
20
20.1797
30
0
0
VERTEX
8
0
10
41.6452
20
19.97139375
30
0
0
VERTEX
8
0
10
41.6452
20
17.87175625
30
0
42
0.198912367379658
0
VERTEX
8
0
10
41.66751875
20
17.817875
30
0
0
VERTEX
8
0
10
41.947875
20
17.53751875
30
0
42
0.198912367379658
0
VERTEX
8
0
10
42.00175625
20
17.5152
30
0
0
VERTEX
8
0
10
46.89824375
20
17.5152
30
0
0
SEQEND
0
POLYLINE
66
1
8
16_copper
10
0.0
20
0.0
30
0.0
70
1
0
VERTEX
8
0
10
14.72741875
20
22.205959375000003
30
0
42
0.9063462356499619
0
VERTEX
8
0
10
14.66284375
20
23.520400000000002
30
0
0
VERTEX
8
0
10
13.27715625
20
23.520400000000002
30
0
42
0.9520786018124834
0
VERTEX
8
0
10
13.27715625
20
22.1996
30
0
0
VERTEX
8
0
10
14.66284375
20
22.1996
30
0
0
SEQEND
0
POLYLINE
66
1
8
1_copper
10
0.0
20
0.0
30
0.0
70
1
0
VERTEX
8
0
10
48.07895
20
19.6751125
30
0
0
VERTEX
8
0
10
48.096050000000005
20
19.684984375000003
30
0
0
VERTEX
8
0
10
48.110015625
20
19.69895
30
0
0
VERTEX
8
0
10
48.119887500000004
20
19.71605
30
0
0
VERTEX
8
0
10
48.125
20
19.735125
30
0
0
VERTEX
8
0
10
48.125
20
19.904875
30
0
0
VERTEX
8
0
10
48.119887500000004
20
19.92395
30
0
0
VERTEX
8
0
10
48.110015625
20
19.94105
30
0
0
VERTEX
8
0
10
48.096050000000005
20
19.955015625
30
0
0
VERTEX
8
0
10
48.07895
20
19.9648875
30
0
0
VERTEX
8
0
10
48.059875000000005
20
19.970000000000002
30
0
0
VERTEX
8
0
10
47.490125
20
19.970000000000002
30
0
0
VERTEX
8
0
10
47.471050000000005
20
19.9648875
30
0
0
VERTEX
8
0
10
47.45395
20
19.955015625
30
0
0
VERTEX
8
0
10
47.439984375
20
19.94105
30
0
0
VERTEX
8
0
10
47.4301125
20
19.92395
30
0
0
VERTEX
8
0
10
47.425000000000004
20
19.904875
30
0
0
VERTEX
8
0
10
47.425000000000004
20
19.735125
30
0
0
VERTEX
8
0
10
47.4301125
20
19.71605
30
0
0
VERTEX
8
0
10
47.439984375
20
19.69895
30
0
0
VERTEX
8
0
10
47.45395
20
19.684984375000003
30
0
0
VERTEX
8
0
10
47.471050000000005
20
19.6751125
30
0
0
VERTEX
8
0
10
47.490125
20
19.67
30
0
0
VERTEX
8
0
10
48.059875000000005
20
19.67
30
0
0
SEQEND
0
POLYLINE
66
1
8
1_copper
10
0.0
20
0.0
30
0.0
70
1
0
VERTEX
8
0
10
45.05395
20
16.650112500000002
30
0
0
VERTEX
8
0
10
45.07105
20
16.659984375
30
0
0
VERTEX
8
0
10
45.085015625000004
20
16.67395
30
0
0
VERTEX
8
0
10
45.0948875
20
16.69105
30
0
0
VERTEX
8
0
10
45.1
20
16.710125
30
0
0
VERTEX
8
0
10
45.1
20
17.279875
30
0
0
VERTEX
8
0
10
45.0948875
20
17.29895
30
0
0
VERTEX
8
0
10
45.085015625000004
20
17.31605
30
0
0
VERTEX
8
0
10
45.07105
20
17.330015625
30
0
0
VERTEX
8
0
10
45.05395
20
17.3398875
30
0
0
VERTEX
8
0
10
45.034875
20
17.345000000000002
30
0
0
VERTEX
8
0
10
44.865125
20
17.345000000000002
30
0
0
VERTEX
8
0
10
44.846050000000005
20
17.3398875
30
0
0
VERTEX
8
0
10
44.82895
20
17.330015625
30
0
0
VERTEX
8
0
10
44.814984375
20
17.31605
30
0
0
VERTEX
8
0
10
44.8051125
20
17.29895
30
0
0
VERTEX
8
0
10
44.800000000000004
20
17.279875
30
0
0
VERTEX
8
0
10
44.800000000000004
20
16.710125
30
0
0
VERTEX
8
0
10
44.8051125
20
16.69105
30
0
0
VERTEX
8
0
10
44.814984375
20
16.67395
30
0
0
VERTEX
8
0
10
44.82895
20
16.659984375
30
0
0
VERTEX
8
0
10
44.846050000000005
20
16.650112500000002
30
0
0
VERTEX
8
0
10
44.865125
20
16.645
30
0
0
VERTEX
8
0
10
45.034875
20
16.645
30
0
0
SEQEND
0
POLYLINE
66
1
8
1_copper
10
0.0
20
0.0
30
0.0
70
1
0
VERTEX
8
0
10
44.55395
20
16.650112500000002
30
0
0
VERTEX
8
0
10
44.57105
20
16.659984375
30
0
0
VERTEX
8
0
10
44.585015625000004
20
16.67395
30
0
0
VERTEX
8
0
10
44.5948875
20
16.69105
30
0
0
VERTEX
8
0
10
44.6
20
16.710125
30
0
0
VERTEX
8
0
10
44.6
20
17.279875
30
0
0
VERTEX
8
0
10
44.5948875
20
17.29895
30
0
0
VERTEX
8
0
10
44.585015625000004
20
17.31605
30
0
0
VERTEX
8
0
10
44.57105
20
17.330015625
30
0
0
VERTEX
8
0
10
44.55395
20
17.3398875
30
0
0
VERTEX
8
0
10
44.534875
20
17.345000000000002
30
0
0
VERTEX
8
0
10
44.365125
20
17.345000000000002
30
0
0
VERTEX
8
0
10
44.346050000000005
20
17.3398875
30
0
0
VERTEX
8
0
10
44.32895
20
17.330015625
30
0
0
VERTEX
8
0
10
44.314984375
20
17.31605
30
0
0
VERTEX
8
0
10
44.3051125
20
17.29895
30
0
0
VERTEX
8
0
10
44.300000000000004
20
17.279875
30
0
0
VERTEX
8
0
10
44.300000000000004
20
16.710125
30
0
0
VERTEX
8
0
10
44.3051125
20
16.69105
30
0
0
VERTEX
8
0
10
44.314984375
20
16.67395
30
0
0
VERTEX
8
0
10
44.32895
20
16.659984375
30
0
0
VERTEX
8
0
10
44.346050000000005
20
16.650112500000002
30
0
0
VERTEX
8
0
10
44.365125
20
16.645
30
0
0
VERTEX
8
0
10
44.534875
20
16.645
30
0
0
SEQEND
0
POLYLINE
66
1
8
1_copper
10
0.0
20
0.0
30
0.0
70
1
0
VERTEX
8
0
10
44.253615625
20
23.161571875
30
0
42
0.16997656369761122
0
VERTEX
8
0
10
44.274718750000005
20
23.116118750000002
30
0
0
VERTEX
8
0
10
44.39611875
20
22.99471875
30
0
42
0.198912367379658
0
VERTEX
8
0
10
44.45
20
22.9724
30
0
0
VERTEX
8
0
10
47.22424375
20
22.9724
30
0
42
0.198912367379658
0
VERTEX
8
0
10
47.278125
20
22.99471875
30
0
0
VERTEX
8
0
10
47.405806250000005
20
23.122400000000003
30
0
0
VERTEX
8
0
10
49.1598375
20
23.122400000000003
30
0
0
VERTEX
8
0
10
49.4538
20
22.8284375
30
0
0
VERTEX
8
0
10
49.4538
20
14.0015625
30
0
0
VERTEX
8
0
10
41.726037500000004
20
6.2738000000000005
30
0
0
VERTEX
8
0
10
37.998400000000004
20
6.2738000000000005
30
0
0
VERTEX
8
0
10
37.998400000000004
20
6.513228125
30
0
0
VERTEX
8
0
10
37.552028125
20
6.9596
30
0
0
VERTEX
8
0
10
36.920771875
20
6.9596
30
0
0
VERTEX
8
0
10
36.4744
20
6.513228125
30
0
0
VERTEX
8
0
10
36.4744
20
5.8819718750000005
30
0
0
VERTEX
8
0
10
36.920771875
20
5.4356
30
0
0
VERTEX
8
0
10
37.552028125
20
5.4356
30
0
0
VERTEX
8
0
10
37.998400000000004
20
5.8819718750000005
30
0
0
VERTEX
8
0
10
37.998400000000004
20
6.1214
30
0
0
VERTEX
8
0
10
41.757600000000004
20
6.1214
30
0
42
0.198912367379658
0
VERTEX
8
0
10
41.81148125
20
6.143718750000001
30
0
0
VERTEX
8
0
10
49.583881250000005
20
13.91611875
30
0
42
0.198912367379658
0
VERTEX
8
0
10
49.6062
20
13.97
30
0
0
VERTEX
8
0
10
49.6062
20
22.86
30
0
42
0.198912367379658
0
VERTEX
8
0
10
49.583881250000005
20
22.913881250000003
30
0
0
VERTEX
8
0
10
49.245281250000005
20
23.252481250000002
30
0
42
0.198912367379658
0
VERTEX
8
0
10
49.1914
20
23.274800000000003
30
0
0
VERTEX
8
0
10
47.374243750000005
20
23.274800000000003
30
0
42
0.198912367379658
0
VERTEX
8
0
10
47.3203625
20
23.252481250000002
30
0
0
VERTEX
8
0
10
47.19268125
20
23.1248
30
0
0
VERTEX
8
0
10
44.4815625
20
23.1248
30
0
0
VERTEX
8
0
10
44.4048
20
23.2015625
30
0
0
VERTEX
8
0
10
44.4048
20
23.295
30
0
0
VERTEX
8
0
10
44.534875
20
23.295
30
0
0
VERTEX
8
0
10
44.55395
20
23.3001125
30
0
0
VERTEX
8
0
10
44.57105
20
23.309984375000003
30
0
0
VERTEX
8
0
10
44.585015625000004
20
23.32395
30
0
0
VERTEX
8
0
10
44.5948875
20
23.341050000000003
30
0
0
VERTEX
8
0
10
44.6
20
23.360125
30
0
0
VERTEX
8
0
10
44.6
20
23.929875000000003
30
0
0
VERTEX
8
0
10
44.5948875
20
23.94895
30
0
0
VERTEX
8
0
10
44.585015625000004
20
23.966050000000003
30
0
0
VERTEX
8
0
10
44.57105
20
23.980015625
30
0
0
VERTEX
8
0
10
44.55395
20
23.989887500000002
30
0
0
VERTEX
8
0
10
44.534875
20
23.995
30
0
0
VERTEX
8
0
10
44.4048
20
23.995
30
0
42
0.3573986666421138
0
VERTEX
8
0
10
44.382481250000005
20
24.0996375
30
0
0
VERTEX
8
0
10
41.986200000000004
20
26.49591875
30
0
0
VERTEX
8
0
10
41.986200000000004
20
29.21
30
0
42
0.198912367379658
0
VERTEX
8
0
10
41.96388125
20
29.26388125
30
0
0
VERTEX
8
0
10
40.693881250000004
20
30.53388125
30
0
42
0.198912367379658
0
VERTEX
8
0
10
40.64
20
30.5562
30
0
0
VERTEX
8
0
10
38.9382
20
30.5562
30
0
0
VERTEX
8
0
10
38.9382
20
30.827193750000003
30
0
0
VERTEX
8
0
10
38.447193750000004
20
31.3182
30
0
0
VERTEX
8
0
10
37.75280625
20
31.3182
30
0
0
VERTEX
8
0
10
37.2618
20
30.827193750000003
30
0
0
VERTEX
8
0
10
37.2618
20
30.13280625
30
0
0
VERTEX
8
0
10
37.75280625
20
29.6418
30
0
0
VERTEX
8
0
10
38.447193750000004
20
29.6418
30
0
0
VERTEX
8
0
10
38.9382
20
30.13280625
30
0
0
VERTEX
8
0
10
38.9382
20
30.4038
30
0
0
VERTEX
8
0
10
40.6084375
20
30.4038
30
0
0
VERTEX
8
0
10
41.833800000000004
20
29.1784375
30
0
0
VERTEX
8
0
10
41.833800000000004
20
26.46435625
30
0
42
0.198912367379658
0
VERTEX
8
0
10
41.85611875
20
26.410475
30
0
0
VERTEX
8
0
10
44.2524
20
24.01419375
30
0
0
VERTEX
8
0
10
44.2524
20
23.17
30
0
0
SEQEND
0
POLYLINE
66
1
8
16_copper
10
0.0
20
0.0
30
0.0
70
1
0
VERTEX
8
0
10
38.9382
20
30.13280625
30
0
0
VERTEX
8
0
10
38.9382
20
30.827193750000003
30
0
0
VERTEX
8
0
10
38.447193750000004
20
31.3182
30
0
0
VERTEX
8
0
10
37.75280625
20
31.3182
30
0
0
VERTEX
8
0
10
37.2618
20
30.827193750000003
30
0
0
VERTEX
8
0
10
37.2618
20
30.13280625
30
0
0
VERTEX
8
0
10
37.75280625
20
29.6418
30
0
0
VERTEX
8
0
10
38.447193750000004
20
29.6418
30
0
0
SEQEND
0
POLYLINE
66
1
8
16_copper
10
0.0
20
0.0
30
0.0
70
1
0
VERTEX
8
0
10
37.998400000000004
20
5.8819718750000005
30
0
0
VERTEX
8
0
10
37.998400000000004
20
6.513228125
30
0
0
VERTEX
8
0
10
37.552028125
20
6.9596
30
0
0
VERTEX
8
0
10
36.920771875
20
6.9596
30
0
0
VERTEX
8
0
10
36.4744
20
6.513228125
30
0
0
VERTEX
8
0
10
36.4744
20
5.8819718750000005
30
0
0
VERTEX
8
0
10
36.920771875
20
5.4356
30
0
0
VERTEX
8
0
10
37.552028125
20
5.4356
30
0
0
SEQEND
0
POLYLINE
66
1
8
1_copper
10
0.0
20
0.0
30
0.0
70
1
0
VERTEX
8
0
10
14.72741875
20
12.045959375
30
0
42
0.33915074785084687
0
VERTEX
8
0
10
15.286490625
20
12.623800000000001
30
0
0
VERTEX
8
0
10
30.48
20
12.623800000000001
30
0
42
0.198912367379658
0
VERTEX
8
0
10
30.53388125
20
12.646118750000001
30
0
0
VERTEX
8
0
10
35.5915625
20
17.7038
30
0
0
VERTEX
8
0
10
40.30564375
20
17.7038
30
0
42
0.198912367379658
0
VERTEX
8
0
10
40.359525000000005
20
17.72611875
30
0
0
VERTEX
8
0
10
40.75580625
20
18.122400000000003
30
0
0
VERTEX
8
0
10
41.0036
20
18.122400000000003
30
0
42
0.3159518709647982
0
VERTEX
8
0
10
41.0827625
20
18.17
30
0
0
VERTEX
8
0
10
41.409875
20
18.17
30
0
0
VERTEX
8
0
10
41.42895
20
18.1751125
30
0
0
VERTEX
8
0
10
41.44605
20
18.184984375000003
30
0
0
VERTEX
8
0
10
41.460015625000004
20
18.19895
30
0
0
VERTEX
8
0
10
41.4698875
20
18.21605
30
0
0
VERTEX
8
0
10
41.475
20
18.235125
30
0
0
VERTEX
8
0
10
41.475
20
18.404875
30
0
0
VERTEX
8
0
10
41.4698875
20
18.42395
30
0
0
VERTEX
8
0
10
41.460015625000004
20
18.44105
30
0
0
VERTEX
8
0
10
41.44605
20
18.455015625
30
0
0
VERTEX
8
0
10
41.42895
20
18.4648875
30
0
0
VERTEX
8
0
10
41.409875
20
18.470000000000002
30
0
0
VERTEX
8
0
10
40.840125
20
18.470000000000002
30
0
0
VERTEX
8
0
10
40.82105
20
18.4648875
30
0
0
VERTEX
8
0
10
40.80395
20
18.455015625
30
0
0
VERTEX
8
0
10
40.789984375
20
18.44105
30
0
0
VERTEX
8
0
10
40.7801125
20
18.42395
30
0
0
VERTEX
8
0
10
40.775
20
18.404875
30
0
0
VERTEX
8
0
10
40.775
20
18.274800000000003
30
0
42
0.3573986666421138
0
VERTEX
8
0
10
40.6703625
20
18.252481250000002
30
0
0
VERTEX
8
0
10
40.27408125
20
17.8562
30
0
0
VERTEX
8
0
10
35.56
20
17.8562
30
0
42
0.198912367379658
0
VERTEX
8
0
10
35.50611875
20
17.83388125
30
0
0
VERTEX
8
0
10
30.4484375
20
12.776200000000001
30
0
0
VERTEX
8
0
10
15.286490625
20
12.776200000000001
30
0
42
0.36675309512609283
0
VERTEX
8
0
10
14.66284375
20
13.3604
30
0
0
VERTEX
8
0
10
13.27715625
20
13.3604
30
0
42
0.9520786018124834
0
VERTEX
8
0
10
13.27715625
20
12.0396
30
0
0
VERTEX
8
0
10
14.66284375
20
12.0396
30
0
0
SEQEND
0
POLYLINE
66
1
8
16_copper
10
0.0
20
0.0
30
0.0
70
1
0
VERTEX
8
0
10
14.72741875
20
12.045959375
30
0
42
0.9063462356499619
0
VERTEX
8
0
10
14.66284375
20
13.3604
30
0
0
VERTEX
8
0
10
13.27715625
20
13.3604
30
0
42
0.9520786018124834
0
VERTEX
8
0
10
13.27715625
20
12.0396
30
0
0
VERTEX
8
0
10
14.66284375
20
12.0396
30
0
0
SEQEND
0
POLYLINE
66
1
8
1_copper
10
0.0
20
0.0
30
0.0
70
1
0
VERTEX
8
0
10
14.72741875
20
14.585959375
30
0
42
0.33915074785084687
0
VERTEX
8
0
10
15.286490625
20
15.1638
30
0
0
VERTEX
8
0
10
31.75
20
15.1638
30
0
42
0.198912367379658
0
VERTEX
8
0
10
31.80388125
20
15.18611875
30
0
0
VERTEX
8
0
10
35.361562500000005
20
18.7438
30
0
0
VERTEX
8
0
10
40.775
20
18.7438
30
0
0
VERTEX
8
0
10
40.775
20
18.735125
30
0
0
VERTEX
8
0
10
40.7801125
20
18.71605
30
0
0
VERTEX
8
0
10
40.789984375
20
18.69895
30
0
0
VERTEX
8
0
10
40.80395
20
18.684984375000003
30
0
0
VERTEX
8
0
10
40.82105
20
18.6751125
30
0
0
VERTEX
8
0
10
40.840125
20
18.67
30
0
0
VERTEX
8
0
10
41.409875
20
18.67
30
0
0
VERTEX
8
0
10
41.42895
20
18.6751125
30
0
0
VERTEX
8
0
10
41.44605
20
18.684984375000003
30
0
0
VERTEX
8
0
10
41.460015625000004
20
18.69895
30
0
0
VERTEX
8
0
10
41.4698875
20
18.71605
30
0
0
VERTEX
8
0
10
41.475
20
18.735125
30
0
0
VERTEX
8
0
10
41.475
20
18.904875
30
0
0
VERTEX
8
0
10
41.4698875
20
18.92395
30
0
0
VERTEX
8
0
10
41.460015625000004
20
18.94105
30
0
0
VERTEX
8
0
10
41.44605
20
18.955015625
30
0
0
VERTEX
8
0
10
41.42895
20
18.9648875
30
0
0
VERTEX
8
0
10
41.409875
20
18.970000000000002
30
0
0
VERTEX
8
0
10
40.840125
20
18.970000000000002
30
0
0
VERTEX
8
0
10
40.82105
20
18.9648875
30
0
0
VERTEX
8
0
10
40.80395
20
18.955015625
30
0
0
VERTEX
8
0
10
40.789984375
20
18.94105
30
0
0
VERTEX
8
0
10
40.7801125
20
18.92395
30
0
0
VERTEX
8
0
10
40.775
20
18.904875
30
0
0
VERTEX
8
0
10
40.775
20
18.8962
30
0
0
VERTEX
8
0
10
35.33
20
18.8962
30
0
42
0.198912367379658
0
VERTEX
8
0
10
35.27611875
20
18.87388125
30
0
0
VERTEX
8
0
10
31.7184375
20
15.3162
30
0
0
VERTEX
8
0
10
15.286490625
20
15.3162
30
0
42
0.36675309512609283
0
VERTEX
8
0
10
14.66284375
20
15.900400000000001
30
0
0
VERTEX
8
0
10
13.27715625
20
15.900400000000001
30
0
42
0.9520786018124834
0
VERTEX
8
0
10
13.27715625
20
14.579600000000001
30
0
0
VERTEX
8
0
10
14.66284375
20
14.579600000000001
30
0
0
SEQEND
0
POLYLINE
66
1
8
16_copper
10
0.0
20
0.0
30
0.0
70
1
0
VERTEX
8
0
10
14.72741875
20
14.585959375
30
0
42
0.9063462356499619
0
VERTEX
8
0
10
14.66284375
20
15.900400000000001
30
0
0
VERTEX
8
0
10
13.27715625
20
15.900400000000001
30
0
42
0.9520786018124834
0
VERTEX
8
0
10
13.27715625
20
14.579600000000001
30
0
0
VERTEX
8
0
10
14.66284375
20
14.579600000000001
30
0
0
SEQEND
0
POLYLINE
66
1
8
1_copper
10
0.0
20
0.0
30
0.0
70
1
0
VERTEX
8
0
10
7.107418750000001
20
22.205959375000003
30
0
42
0.3303545576459427
0
VERTEX
8
0
10
7.664440625
20
22.762981250000003
30
0
0
VERTEX
8
0
10
7.668271875
20
22.801871875
30
0
0
VERTEX
8
0
10
7.67388125
20
22.80611875
30
0
0
VERTEX
8
0
10
8.94388125
20
24.076118750000003
30
0
42
0.198912367379658
0
VERTEX
8
0
10
8.9662
20
24.130000000000003
30
0
0
VERTEX
8
0
10
8.9662
20
26.638437500000002
30
0
0
VERTEX
8
0
10
10.1915625
20
27.8638
30
0
0
VERTEX
8
0
10
26.67
20
27.8638
30
0
42
0.198912367379658
0
VERTEX
8
0
10
26.72388125
20
27.88611875
30
0
0
VERTEX
8
0
10
28.671184375000003
20
29.833421875000003
30
0
0
VERTEX
8
0
10
28.862806250000002
20
29.6418
30
0
0
VERTEX
8
0
10
29.55719375
20
29.6418
30
0
0
VERTEX
8
0
10
30.0482
20
30.13280625
30
0
0
VERTEX
8
0
10
30.0482
20
30.827193750000003
30
0
0
VERTEX
8
0
10
29.55719375
20
31.3182
30
0
0
VERTEX
8
0
10
28.862806250000002
20
31.3182
30
0
0
VERTEX
8
0
10
28.3718
20
30.827193750000003
30
0
0
VERTEX
8
0
10
28.3718
20
30.13280625
30
0
0
VERTEX
8
0
10
28.563421875000003
20
29.941184375000002
30
0
0
VERTEX
8
0
10
26.638437500000002
20
28.0162
30
0
0
VERTEX
8
0
10
10.16
20
28.0162
30
0
42
0.198912367379658
0
VERTEX
8
0
10
10.10611875
20
27.99388125
30
0
0
VERTEX
8
0
10
8.83611875
20
26.72388125
30
0
42
0.198912367379658
0
VERTEX
8
0
10
8.8138
20
26.67
30
0
0
VERTEX
8
0
10
8.8138
20
24.161562500000002
30
0
0
VERTEX
8
0
10
7.655284375000001
20
23.003046875000003
30
0
42
0.3379014352391409
0
VERTEX
8
0
10
7.04284375
20
23.520400000000002
30
0
0
VERTEX
8
0
10
5.65715625
20
23.520400000000002
30
0
42
0.9520786018124834
0
VERTEX
8
0
10
5.65715625
20
22.1996
30
0
0
VERTEX
8
0
10
7.04284375
20
22.1996
30
0
0
SEQEND
0
POLYLINE
66
1
8
16_copper
10
0.0
20
0.0
30
0.0
70
1
0
VERTEX
8
0
10
30.0482
20
30.13280625
30
0
0
VERTEX
8
0
10
30.0482
20
30.827193750000003
30
0
0
VERTEX
8
0
10
29.55719375
20
31.3182
30
0
0
VERTEX
8
0
10
28.862806250000002
20
31.3182
30
0
0
VERTEX
8
0
10
28.3718
20
30.827193750000003
30
0
0
VERTEX
8
0
10
28.3718
20
30.13280625
30
0
0
VERTEX
8
0
10
28.862806250000002
20
29.6418
30
0
0
VERTEX
8
0
10
29.55719375
20
29.6418
30
0
0
SEQEND
0
POLYLINE
66
1
8
16_copper
10
0.0
20
0.0
30
0.0
70
1
0
VERTEX
8
0
10
7.107418750000001
20
22.205959375000003
30
0
42
0.9063462356499619
0
VERTEX
8
0
10
7.04284375
20
23.520400000000002
30
0
0
VERTEX
8
0
10
5.65715625
20
23.520400000000002
30
0
42
0.9520786018124834
0
VERTEX
8
0
10
5.65715625
20
22.1996
30
0
0
VERTEX
8
0
10
7.04284375
20
22.1996
30
0
0
SEQEND
0
POLYLINE
66
1
8
1_copper
10
0.0
20
0.0
30
0.0
70
1
0
VERTEX
8
0
10
7.107418750000001
20
12.045959375
30
0
42
0.3303545576459427
0
VERTEX
8
0
10
7.664440625
20
12.602981250000001
30
0
0
VERTEX
8
0
10
7.668271875
20
12.641871875000001
30
0
0
VERTEX
8
0
10
7.67388125
20
12.646118750000001
30
0
0
VERTEX
8
0
10
10.21388125
20
15.18611875
30
0
42
0.198912367379658
0
VERTEX
8
0
10
10.2362
20
15.24
30
0
0
VERTEX
8
0
10
10.2362
20
25.368437500000002
30
0
0
VERTEX
8
0
10
11.461562500000001
20
26.5938
30
0
0
VERTEX
8
0
10
31.75
20
26.5938
30
0
42
0.198912367379658
0
VERTEX
8
0
10
31.80388125
20
26.616118750000002
30
0
0
VERTEX
8
0
10
35.021184375000004
20
29.833421875000003
30
0
0
VERTEX
8
0
10
35.21280625
20
29.6418
30
0
0
VERTEX
8
0
10
35.907193750000005
20
29.6418
30
0
0
VERTEX
8
0
10
36.3982
20
30.13280625
30
0
0
VERTEX
8
0
10
36.3982
20
30.827193750000003
30
0
0
VERTEX
8
0
10
35.907193750000005
20
31.3182
30
0
0
VERTEX
8
0
10
35.21280625
20
31.3182
30
0
0
VERTEX
8
0
10
34.7218
20
30.827193750000003
30
0
0
VERTEX
8
0
10
34.7218
20
30.13280625
30
0
0
VERTEX
8
0
10
34.913421875000004
20
29.941184375000002
30
0
0
VERTEX
8
0
10
31.7184375
20
26.7462
30
0
0
VERTEX
8
0
10
11.43
20
26.7462
30
0
42
0.198912367379658
0
VERTEX
8
0
10
11.37611875
20
26.72388125
30
0
0
VERTEX
8
0
10
10.10611875
20
25.453881250000002
30
0
42
0.198912367379658
0
VERTEX
8
0
10
10.0838
20
25.400000000000002
30
0
0
VERTEX
8
0
10
10.0838
20
15.2715625
30
0
0
VERTEX
8
0
10
7.655284375000001
20
12.843046875
30
0
42
0.3379014352391409
0
VERTEX
8
0
10
7.04284375
20
13.3604
30
0
0
VERTEX
8
0
10
5.65715625
20
13.3604
30
0
42
0.9520786018124834
0
VERTEX
8
0
10
5.65715625
20
12.0396
30
0
0
VERTEX
8
0
10
7.04284375
20
12.0396
30
0
0
SEQEND
0
POLYLINE
66
1
8
16_copper
10
0.0
20
0.0
30
0.0
70
1
0
VERTEX
8
0
10
36.3982
20
30.13280625
30
0
0
VERTEX
8
0
10
36.3982
20
30.827193750000003
30
0
0
VERTEX
8
0
10
35.907193750000005
20
31.3182
30
0
0
VERTEX
8
0
10
35.21280625
20
31.3182
30
0
0
VERTEX
8
0
10
34.7218
20
30.827193750000003
30
0
0
VERTEX
8
0
10
34.7218
20
30.13280625
30
0
0
VERTEX
8
0
10
35.21280625
20
29.6418
30
0
0
VERTEX
8
0
10
35.907193750000005
20
29.6418
30
0
0
SEQEND
0
POLYLINE
66
1
8
16_copper
10
0.0
20
0.0
30
0.0
70
1
0
VERTEX
8
0
10
7.107418750000001
20
12.045959375
30
0
42
0.9063462356499619
0
VERTEX
8
0
10
7.04284375
20
13.3604
30
0
0
VERTEX
8
0
10
5.65715625
20
13.3604
30
0
42
0.9520786018124834
0
VERTEX
8
0
10
5.65715625
20
12.0396
30
0
0
VERTEX
8
0
10
7.04284375
20
12.0396
30
0
0
SEQEND
0
POLYLINE
66
1
8
1_copper
10
0.0
20
0.0
30
0.0
70
1
0
VERTEX
8
0
10
7.107418750000001
20
24.745959375
30
0
42
0.9063462356499619
0
VERTEX
8
0
10
7.04284375
20
26.0604
30
0
0
VERTEX
8
0
10
6.426200000000001
20
26.0604
30
0
0
VERTEX
8
0
10
6.426200000000001
20
27.9084375
30
0
0
VERTEX
8
0
10
8.9215625
20
30.4038
30
0
0
VERTEX
8
0
10
15.671800000000001
20
30.4038
30
0
0
VERTEX
8
0
10
15.671800000000001
20
30.13280625
30
0
0
VERTEX
8
0
10
16.16280625
20
29.6418
30
0
0
VERTEX
8
0
10
16.85719375
20
29.6418
30
0
0
VERTEX
8
0
10
17.348200000000002
20
30.13280625
30
0
0
VERTEX
8
0
10
17.348200000000002
20
30.827193750000003
30
0
0
VERTEX
8
0
10
16.85719375
20
31.3182
30
0
0
VERTEX
8
0
10
16.16280625
20
31.3182
30
0
0
VERTEX
8
0
10
15.671800000000001
20
30.827193750000003
30
0
0
VERTEX
8
0
10
15.671800000000001
20
30.5562
30
0
0
VERTEX
8
0
10
8.89
20
30.5562
30
0
42
0.198912367379658
0
VERTEX
8
0
10
8.83611875
20
30.53388125
30
0
0
VERTEX
8
0
10
6.296118750000001
20
27.99388125
30
0
42
0.198912367379658
0
VERTEX
8
0
10
6.2738000000000005
20
27.94
30
0
0
VERTEX
8
0
10
6.2738000000000005
20
26.0604
30
0
0
VERTEX
8
0
10
5.65715625
20
26.0604
30
0
42
0.9520786018124834
0
VERTEX
8
0
10
5.65715625
20
24.739600000000003
30
0
0
VERTEX
8
0
10
7.04284375
20
24.739600000000003
30
0
0
SEQEND
0
POLYLINE
66
1
8
16_copper
10
0.0
20
0.0
30
0.0
70
1
0
VERTEX
8
0
10
17.348200000000002
20
30.13280625
30
0
0
VERTEX
8
0
10
17.348200000000002
20
30.827193750000003
30
0
0
VERTEX
8
0
10
16.85719375
20
31.3182
30
0
0
VERTEX
8
0
10
16.16280625
20
31.3182
30
0
0
VERTEX
8
0
10
15.671800000000001
20
30.827193750000003
30
0
0
VERTEX
8
0
10
15.671800000000001
20
30.13280625
30
0
0
VERTEX
8
0
10
16.16280625
20
29.6418
30
0
0
VERTEX
8
0
10
16.85719375
20
29.6418
30
0
0
SEQEND
0
POLYLINE
66
1
8
16_copper
10
0.0
20
0.0
30
0.0
70
1
0
VERTEX
8
0
10
7.107418750000001
20
24.745959375
30
0
42
0.9063462356499619
0
VERTEX
8
0
10
7.04284375
20
26.0604
30
0
0
VERTEX
8
0
10
5.65715625
20
26.0604
30
0
42
0.9520786018124834
0
VERTEX
8
0
10
5.65715625
20
24.739600000000003
30
0
0
VERTEX
8
0
10
7.04284375
20
24.739600000000003
30
0
0
SEQEND
0
POLYLINE
66
1
8
1_copper
10
0.0
20
0.0
30
0.0
70
1
0
VERTEX
8
0
10
7.107418750000001
20
19.665959375
30
0
42
0.9063462356499619
0
VERTEX
8
0
10
7.04284375
20
20.9804
30
0
0
VERTEX
8
0
10
5.65715625
20
20.9804
30
0
42
0.3379014352391409
0
VERTEX
8
0
10
5.044715625
20
20.463046875
30
0
0
VERTEX
8
0
10
3.8862
20
21.6215625
30
0
0
VERTEX
8
0
10
3.8862
20
26.638437500000002
30
0
0
VERTEX
8
0
10
8.9215625
20
31.6738
30
0
0
VERTEX
8
0
10
17.7484375
20
31.6738
30
0
0
VERTEX
8
0
10
18.403421875
20
31.018815625000002
30
0
0
VERTEX
8
0
10
18.2118
20
30.827193750000003
30
0
0
VERTEX
8
0
10
18.2118
20
30.13280625
30
0
0
VERTEX
8
0
10
18.702806250000002
20
29.6418
30
0
0
VERTEX
8
0
10
19.39719375
20
29.6418
30
0
0
VERTEX
8
0
10
19.8882
20
30.13280625
30
0
0
VERTEX
8
0
10
19.8882
20
30.827193750000003
30
0
0
VERTEX
8
0
10
19.39719375
20
31.3182
30
0
0
VERTEX
8
0
10
18.702806250000002
20
31.3182
30
0
0
VERTEX
8
0
10
18.511184375
20
31.126578125
30
0
0
VERTEX
8
0
10
17.83388125
20
31.80388125
30
0
42
0.198912367379658
0
VERTEX
8
0
10
17.78
20
31.8262
30
0
0
VERTEX
8
0
10
8.89
20
31.8262
30
0
42
0.198912367379658
0
VERTEX
8
0
10
8.83611875
20
31.80388125
30
0
0
VERTEX
8
0
10
3.75611875
20
26.72388125
30
0
42
0.198912367379658
0
VERTEX
8
0
10
3.7338
20
26.67
30
0
0
VERTEX
8
0
10
3.7338
20
21.59
30
0
42
0.198912367379658
0
VERTEX
8
0
10
3.75611875
20
21.53611875
30
0
0
VERTEX
8
0
10
5.02611875
20
20.26611875
30
0
0
VERTEX
8
0
10
5.031725000000001
20
20.261928125
30
0
0
VERTEX
8
0
10
5.035559375
20
20.22298125
30
0
42
0.3578051432831595
0
VERTEX
8
0
10
5.65715625
20
19.6596
30
0
0
VERTEX
8
0
10
7.04284375
20
19.6596
30
0
0
SEQEND
0
POLYLINE
66
1
8
16_copper
10
0.0
20
0.0
30
0.0
70
1
0
VERTEX
8
0
10
19.8882
20
30.13280625
30
0
0
VERTEX
8
0
10
19.8882
20
30.827193750000003
30
0
0
VERTEX
8
0
10
19.39719375
20
31.3182
30
0
0
VERTEX
8
0
10
18.702806250000002
20
31.3182
30
0
0
VERTEX
8
0
10
18.2118
20
30.827193750000003
30
0
0
VERTEX
8
0
10
18.2118
20
30.13280625
30
0
0
VERTEX
8
0
10
18.702806250000002
20
29.6418
30
0
0
VERTEX
8
0
10
19.39719375
20
29.6418
30
0
0
SEQEND
0
POLYLINE
66
1
8
16_copper
10
0.0
20
0.0
30
0.0
70
1
0
VERTEX
8
0
10
7.107418750000001
20
19.665959375
30
0
42
0.9063462356499619
0
VERTEX
8
0
10
7.04284375
20
20.9804
30
0
0
VERTEX
8
0
10
5.65715625
20
20.9804
30
0
42
0.9520786018124834
0
VERTEX
8
0
10
5.65715625
20
19.6596
30
0
0
VERTEX
8
0
10
7.04284375
20
19.6596
30
0
0
SEQEND
0
POLYLINE
66
1
8
1_copper
10
0.0
20
0.0
30
0.0
70
1
0
VERTEX
8
0
10
7.107418750000001
20
17.125959375
30
0
42
0.9063462356499619
0
VERTEX
8
0
10
7.04284375
20
18.4404
30
0
0
VERTEX
8
0
10
5.65715625
20
18.4404
30
0
42
0.3379014352391409
0
VERTEX
8
0
10
5.044715625
20
17.923046875
30
0
0
VERTEX
8
0
10
2.6162
20
20.3515625
30
0
0
VERTEX
8
0
10
2.6162
20
26.638437500000002
30
0
0
VERTEX
8
0
10
8.9215625
20
32.9438
30
0
0
VERTEX
8
0
10
20.2884375
20
32.9438
30
0
0
VERTEX
8
0
10
22.213421875
20
31.018815625000002
30
0
0
VERTEX
8
0
10
22.021800000000002
20
30.827193750000003
30
0
0
VERTEX
8
0
10
22.021800000000002
20
30.13280625
30
0
0
VERTEX
8
0
10
22.51280625
20
29.6418
30
0
0
VERTEX
8
0
10
23.207193750000002
20
29.6418
30
0
0
VERTEX
8
0
10
23.6982
20
30.13280625
30
0
0
VERTEX
8
0
10
23.6982
20
30.827193750000003
30
0
0
VERTEX
8
0
10
23.207193750000002
20
31.3182
30
0
0
VERTEX
8
0
10
22.51280625
20
31.3182
30
0
0
VERTEX
8
0
10
22.321184375
20
31.126578125
30
0
0
VERTEX
8
0
10
20.37388125
20
33.07388125
30
0
42
0.198912367379658
0
VERTEX
8
0
10
20.32
20
33.0962
30
0
0
VERTEX
8
0
10
8.89
20
33.0962
30
0
42
0.198912367379658
0
VERTEX
8
0
10
8.83611875
20
33.07388125
30
0
0
VERTEX
8
0
10
2.48611875
20
26.72388125
30
0
42
0.198912367379658
0
VERTEX
8
0
10
2.4638
20
26.67
30
0
0
VERTEX
8
0
10
2.4638
20
20.32
30
0
42
0.198912367379658
0
VERTEX
8
0
10
2.48611875
20
20.26611875
30
0
0
VERTEX
8
0
10
5.02611875
20
17.72611875
30
0
0
VERTEX
8
0
10
5.031725000000001
20
17.721928125
30
0
0
VERTEX
8
0
10
5.035559375
20
17.68298125
30
0
42
0.3578051432831595
0
VERTEX
8
0
10
5.65715625
20
17.119600000000002
30
0
0
VERTEX
8
0
10
7.04284375
20
17.119600000000002
30
0
0
SEQEND
0
POLYLINE
66
1
8
16_copper
10
0.0
20
0.0
30
0.0
70
1
0
VERTEX
8
0
10
23.6982
20
30.13280625
30
0
0
VERTEX
8
0
10
23.6982
20
30.827193750000003
30
0
0
VERTEX
8
0
10
23.207193750000002
20
31.3182
30
0
0
VERTEX
8
0
10
22.51280625
20
31.3182
30
0
0
VERTEX
8
0
10
22.021800000000002
20
30.827193750000003
30
0
0
VERTEX
8
0
10
22.021800000000002
20
30.13280625
30
0
0
VERTEX
8
0
10
22.51280625
20
29.6418
30
0
0
VERTEX
8
0
10
23.207193750000002
20
29.6418
30
0
0
SEQEND
0
POLYLINE
66
1
8
16_copper
10
0.0
20
0.0
30
0.0
70
1
0
VERTEX
8
0
10
7.107418750000001
20
17.125959375
30
0
42
0.9063462356499619
0
VERTEX
8
0
10
7.04284375
20
18.4404
30
0
0
VERTEX
8
0
10
5.65715625
20
18.4404
30
0
42
0.9520786018124834
0
VERTEX
8
0
10
5.65715625
20
17.119600000000002
30
0
0
VERTEX
8
0
10
7.04284375
20
17.119600000000002
30
0
0
SEQEND
0
POLYLINE
66
1
8
1_copper
10
0.0
20
0.0
30
0.0
70
1
0
VERTEX
8
0
10
7.107418750000001
20
14.585959375
30
0
42
0.9063462356499619
0
VERTEX
8
0
10
7.04284375
20
15.900400000000001
30
0
0
VERTEX
8
0
10
5.65715625
20
15.900400000000001
30
0
42
0.3379014352391409
0
VERTEX
8
0
10
5.044715625
20
15.383046875000002
30
0
0
VERTEX
8
0
10
1.3462
20
19.0815625
30
0
0
VERTEX
8
0
10
1.3462
20
26.638437500000002
30
0
0
VERTEX
8
0
10
8.9215625
20
34.2138
30
0
0
VERTEX
8
0
10
21.5584375
20
34.2138
30
0
0
VERTEX
8
0
10
24.753421875
20
31.018815625000002
30
0
0
VERTEX
8
0
10
24.5618
20
30.827193750000003
30
0
0
VERTEX
8
0
10
24.5618
20
30.13280625
30
0
0
VERTEX
8
0
10
25.05280625
20
29.6418
30
0
0
VERTEX
8
0
10
25.74719375
20
29.6418
30
0
0
VERTEX
8
0
10
26.238200000000003
20
30.13280625
30
0
0
VERTEX
8
0
10
26.238200000000003
20
30.827193750000003
30
0
0
VERTEX
8
0
10
25.74719375
20
31.3182
30
0
0
VERTEX
8
0
10
25.05280625
20
31.3182
30
0
0
VERTEX
8
0
10
24.861184375
20
31.126578125
30
0
0
VERTEX
8
0
10
21.64388125
20
34.34388125
30
0
42
0.198912367379658
0
VERTEX
8
0
10
21.59
20
34.3662
30
0
0
VERTEX
8
0
10
8.89
20
34.3662
30
0
42
0.198912367379658
0
VERTEX
8
0
10
8.83611875
20
34.34388125
30
0
0
VERTEX
8
0
10
1.2161187500000001
20
26.72388125
30
0
42
0.198912367379658
0
VERTEX
8
0
10
1.1938
20
26.67
30
0
0
VERTEX
8
0
10
1.1938
20
19.05
30
0
42
0.198912367379658
0
VERTEX
8
0
10
1.2161187500000001
20
18.99611875
30
0
0
VERTEX
8
0
10
5.02611875
20
15.18611875
30
0
0
VERTEX
8
0
10
5.031725000000001
20
15.181928125
30
0
0
VERTEX
8
0
10
5.035559375
20
15.14298125
30
0
42
0.3578051432831595
0
VERTEX
8
0
10
5.65715625
20
14.579600000000001
30
0
0
VERTEX
8
0
10
7.04284375
20
14.579600000000001
30
0
0
SEQEND
0
POLYLINE
66
1
8
16_copper
10
0.0
20
0.0
30
0.0
70
1
0
VERTEX
8
0
10
26.238200000000003
20
30.13280625
30
0
0
VERTEX
8
0
10
26.238200000000003
20
30.827193750000003
30
0
0
VERTEX
8
0
10
25.74719375
20
31.3182
30
0
0
VERTEX
8
0
10
25.05280625
20
31.3182
30
0
0
VERTEX
8
0
10
24.5618
20
30.827193750000003
30
0
0
VERTEX
8
0
10
24.5618
20
30.13280625
30
0
0
VERTEX
8
0
10
25.05280625
20
29.6418
30
0
0
VERTEX
8
0
10
25.74719375
20
29.6418
30
0
0
SEQEND
0
POLYLINE
66
1
8
16_copper
10
0.0
20
0.0
30
0.0
70
1
0
VERTEX
8
0
10
7.107418750000001
20
14.585959375
30
0
42
0.9063462356499619
0
VERTEX
8
0
10
7.04284375
20
15.900400000000001
30
0
0
VERTEX
8
0
10
5.65715625
20
15.900400000000001
30
0
42
0.9520786018124834
0
VERTEX
8
0
10
5.65715625
20
14.579600000000001
30
0
0
VERTEX
8
0
10
7.04284375
20
14.579600000000001
30
0
0
SEQEND
0
POLYLINE
66
1
8
1_copper
10
0.0
20
0.0
30
0.0
70
1
0
VERTEX
8
0
10
32.5882
20
30.13280625
30
0
0
VERTEX
8
0
10
32.5882
20
30.827193750000003
30
0
0
VERTEX
8
0
10
32.396578125000005
20
31.018815625000002
30
0
0
VERTEX
8
0
10
33.0515625
20
31.6738
30
0
0
VERTEX
8
0
10
43.1484375
20
31.6738
30
0
0
VERTEX
8
0
10
43.63756875
20
31.18466875
30
0
42
0.9084360773702358
0
VERTEX
8
0
10
43.7038625
20
29.768800000000002
30
0
0
VERTEX
8
0
10
45.1961375
20
29.768800000000002
30
0
42
0.9520811731250587
0
VERTEX
8
0
10
45.1961375
20
31.191200000000002
30
0
0
VERTEX
8
0
10
43.846562500000005
20
31.191200000000002
30
0
0
VERTEX
8
0
10
43.23388125
20
31.80388125
30
0
42
0.198912367379658
0
VERTEX
8
0
10
43.18
20
31.8262
30
0
0
VERTEX
8
0
10
33.02
20
31.8262
30
0
42
0.198912367379658
0
VERTEX
8
0
10
32.96611875
20
31.80388125
30
0
0
VERTEX
8
0
10
32.288815625
20
31.126578125
30
0
0
VERTEX
8
0
10
32.09719375
20
31.3182
30
0
0
VERTEX
8
0
10
31.40280625
20
31.3182
30
0
0
VERTEX
8
0
10
30.911800000000003
20
30.827193750000003
30
0
0
VERTEX
8
0
10
30.911800000000003
20
30.13280625
30
0
0
VERTEX
8
0
10
31.40280625
20
29.6418
30
0
0
VERTEX
8
0
10
32.09719375
20
29.6418
30
0
0
SEQEND
0
POLYLINE
66
1
8
16_copper
10
0.0
20
0.0
30
0.0
70
1
0
VERTEX
8
0
10
32.5882
20
30.13280625
30
0
0
VERTEX
8
0
10
32.5882
20
30.827193750000003
30
0
0
VERTEX
8
0
10
32.09719375
20
31.3182
30
0
0
VERTEX
8
0
10
31.40280625
20
31.3182
30
0
0
VERTEX
8
0
10
30.911800000000003
20
30.827193750000003
30
0
0
VERTEX
8
0
10
30.911800000000003
20
30.13280625
30
0
0
VERTEX
8
0
10
31.40280625
20
29.6418
30
0
0
VERTEX
8
0
10
32.09719375
20
29.6418
30
0
0
SEQEND
0
POLYLINE
66
1
8
16_copper
10
0.0
20
0.0
30
0.0
70
1
0
VERTEX
8
0
10
45.26568125
20
29.775650000000002
30
0
42
0.9063476327778771
0
VERTEX
8
0
10
45.1961375
20
31.191200000000002
30
0
0
VERTEX
8
0
10
43.7038625
20
31.191200000000002
30
0
42
0.9520811731250587
0
VERTEX
8
0
10
43.7038625
20
29.768800000000002
30
0
0
VERTEX
8
0
10
45.1961375
20
29.768800000000002
30
0
0
SEQEND
0
POLYLINE
66
1
8
1_copper
10
0.0
20
0.0
30
0.0
70
1
0
VERTEX
8
0
10
45.05395
20
23.3001125
30
0
0
VERTEX
8
0
10
45.07105
20
23.309984375000003
30
0
0
VERTEX
8
0
10
45.085015625000004
20
23.32395
30
0
0
VERTEX
8
0
10
45.0948875
20
23.341050000000003
30
0
0
VERTEX
8
0
10
45.1
20
23.360125
30
0
0
VERTEX
8
0
10
45.1
20
23.929875000000003
30
0
0
VERTEX
8
0
10
45.0948875
20
23.94895
30
0
0
VERTEX
8
0
10
45.085015625000004
20
23.966050000000003
30
0
0
VERTEX
8
0
10
45.07105
20
23.980015625
30
0
0
VERTEX
8
0
10
45.05395
20
23.989887500000002
30
0
0
VERTEX
8
0
10
45.034875
20
23.995
30
0
0
VERTEX
8
0
10
45.0262
20
23.995
30
0
0
VERTEX
8
0
10
45.0262
20
27.2288
30
0
42
0.971486314623731
0
VERTEX
8
0
10
45.334215625
20
28.63071875
30
0
0
VERTEX
8
0
10
45.26568125
20
28.644350000000003
30
0
0
VERTEX
8
0
10
45.1961375
20
28.651200000000003
30
0
0
VERTEX
8
0
10
43.7038625
20
28.651200000000003
30
0
42
0.9520811731250587
0
VERTEX
8
0
10
43.7038625
20
27.2288
30
0
0
VERTEX
8
0
10
44.8738
20
27.2288
30
0
0
VERTEX
8
0
10
44.8738
20
23.995
30
0
0
VERTEX
8
0
10
44.865125
20
23.995
30
0
0
VERTEX
8
0
10
44.846050000000005
20
23.989887500000002
30
0
0
VERTEX
8
0
10
44.82895
20
23.980015625
30
0
0
VERTEX
8
0
10
44.814984375
20
23.966050000000003
30
0
0
VERTEX
8
0
10
44.8051125
20
23.94895
30
0
0
VERTEX
8
0
10
44.800000000000004
20
23.929875000000003
30
0
0
VERTEX
8
0
10
44.800000000000004
20
23.360125
30
0
0
VERTEX
8
0
10
44.8051125
20
23.341050000000003
30
0
0
VERTEX
8
0
10
44.814984375
20
23.32395
30
0
0
VERTEX
8
0
10
44.82895
20
23.309984375000003
30
0
0
VERTEX
8
0
10
44.846050000000005
20
23.3001125
30
0
0
VERTEX
8
0
10
44.865125
20
23.295
30
0
0
VERTEX
8
0
10
45.034875
20
23.295
30
0
0
SEQEND
0
POLYLINE
66
1
8
16_copper
10
0.0
20
0.0
30
0.0
70
1
0
VERTEX
8
0
10
45.26568125
20
27.23565
30
0
42
0.9063476327778771
0
VERTEX
8
0
10
45.1961375
20
28.651200000000003
30
0
0
VERTEX
8
0
10
43.7038625
20
28.651200000000003
30
0
42
0.9520811731250587
0
VERTEX
8
0
10
43.7038625
20
27.2288
30
0
0
VERTEX
8
0
10
45.1961375
20
27.2288
30
0
0
SEQEND
0
POLYLINE
66
1
8
1_copper
10
0.0
20
0.0
30
0.0
70
1
0
VERTEX
8
0
10
21.598428125
20
3.7350156250000004
30
0
42
0.16997656369761122
0
VERTEX
8
0
10
21.64388125
20
3.75611875
30
0
0
VERTEX
8
0
10
25.431562500000002
20
7.5438
30
0
0
VERTEX
8
0
10
29.1784375
20
7.5438
30
0
0
VERTEX
8
0
10
30.57851875
20
6.143718750000001
30
0
42
0.198912367379658
0
VERTEX
8
0
10
30.6324
20
6.1214
30
0
0
VERTEX
8
0
10
30.988000000000003
20
6.1214
30
0
0
VERTEX
8
0
10
30.988000000000003
20
5.8819718750000005
30
0
0
VERTEX
8
0
10
31.434371875
20
5.4356
30
0
0
VERTEX
8
0
10
32.065628125
20
5.4356
30
0
0
VERTEX
8
0
10
32.512
20
5.8819718750000005
30
0
0
VERTEX
8
0
10
32.512
20
6.513228125
30
0
0
VERTEX
8
0
10
32.065628125
20
6.9596
30
0
0
VERTEX
8
0
10
31.434371875
20
6.9596
30
0
0
VERTEX
8
0
10
30.988000000000003
20
6.513228125
30
0
0
VERTEX
8
0
10
30.988000000000003
20
6.2738000000000005
30
0
0
VERTEX
8
0
10
30.6639625
20
6.2738000000000005
30
0
0
VERTEX
8
0
10
29.26388125
20
7.67388125
30
0
42
0.198912367379658
0
VERTEX
8
0
10
29.21
20
7.6962
30
0
0
VERTEX
8
0
10
25.400000000000002
20
7.6962
30
0
42
0.198912367379658
0
VERTEX
8
0
10
25.346118750000002
20
7.67388125
30
0
0
VERTEX
8
0
10
21.5584375
20
3.8862
30
0
0
VERTEX
8
0
10
14.0015625
20
3.8862
30
0
0
VERTEX
8
0
10
12.4968
20
5.3909625000000005
30
0
0
VERTEX
8
0
10
12.4968
20
16.1990375
30
0
0
VERTEX
8
0
10
13.417362500000001
20
17.119600000000002
30
0
0
VERTEX
8
0
10
14.66284375
20
17.119600000000002
30
0
42
0.9520786018124834
0
VERTEX
8
0
10
14.66284375
20
18.4404
30
0
0
VERTEX
8
0
10
13.27715625
20
18.4404
30
0
42
0.9037844368990166
0
VERTEX
8
0
10
13.208925
20
17.1266875
30
0
0
VERTEX
8
0
10
12.36671875
20
16.284481250000002
30
0
42
0.198912367379658
0
VERTEX
8
0
10
12.3444
20
16.2306
30
0
0
VERTEX
8
0
10
12.3444
20
5.3594
30
0
42
0.198912367379658
0
VERTEX
8
0
10
12.36671875
20
5.30551875
30
0
0
VERTEX
8
0
10
13.91611875
20
3.75611875
30
0
42
0.198912367379658
0
VERTEX
8
0
10
13.97
20
3.7338
30
0
0
VERTEX
8
0
10
21.59
20
3.7338
30
0
0
SEQEND
0
POLYLINE
66
1
8
16_copper
10
0.0
20
0.0
30
0.0
70
1
0
VERTEX
8
0
10
14.72741875
20
17.125959375
30
0
42
0.9063462356499619
0
VERTEX
8
0
10
14.66284375
20
18.4404
30
0
0
VERTEX
8
0
10
13.27715625
20
18.4404
30
0
42
0.9520786018124834
0
VERTEX
8
0
10
13.27715625
20
17.119600000000002
30
0
0
VERTEX
8
0
10
14.66284375
20
17.119600000000002
30
0
0
SEQEND
0
POLYLINE
66
1
8
16_copper
10
0.0
20
0.0
30
0.0
70
1
0
VERTEX
8
0
10
32.512
20
5.8819718750000005
30
0
0
VERTEX
8
0
10
32.512
20
6.513228125
30
0
0
VERTEX
8
0
10
32.065628125
20
6.9596
30
0
0
VERTEX
8
0
10
31.434371875
20
6.9596
30
0
0
VERTEX
8
0
10
30.988000000000003
20
6.513228125
30
0
0
VERTEX
8
0
10
30.988000000000003
20
5.8819718750000005
30
0
0
VERTEX
8
0
10
31.434371875
20
5.4356
30
0
0
VERTEX
8
0
10
32.065628125
20
5.4356
30
0
0
SEQEND
0
POLYLINE
66
1
8
1_copper
10
0.0
20
0.0
30
0.0
70
1
0
VERTEX
8
0
10
25.408428125
20
2.465015625
30
0
42
0.16997656369761122
0
VERTEX
8
0
10
25.453881250000002
20
2.48611875
30
0
0
VERTEX
8
0
10
28.54726875
20
5.5795062500000006
30
0
0
VERTEX
8
0
10
28.691171875000002
20
5.4356
30
0
0
VERTEX
8
0
10
29.322428125000002
20
5.4356
30
0
0
VERTEX
8
0
10
29.768800000000002
20
5.8819718750000005
30
0
0
VERTEX
8
0
10
29.768800000000002
20
6.513228125
30
0
0
VERTEX
8
0
10
29.322428125000002
20
6.9596
30
0
0
VERTEX
8
0
10
28.691171875000002
20
6.9596
30
0
0
VERTEX
8
0
10
28.2448
20
6.513228125
30
0
0
VERTEX
8
0
10
28.2448
20
5.8819718750000005
30
0
0
VERTEX
8
0
10
28.43950625
20
5.68726875
30
0
0
VERTEX
8
0
10
25.368437500000002
20
2.6162
30
0
0
VERTEX
8
0
10
12.7315625
20
2.6162
30
0
0
VERTEX
8
0
10
11.5062
20
3.8415625
30
0
0
VERTEX
8
0
10
11.5062
20
19.0184375
30
0
0
VERTEX
8
0
10
12.664715625000001
20
20.176953125
30
0
42
0.3379014352391409
0
VERTEX
8
0
10
13.27715625
20
19.6596
30
0
0
VERTEX
8
0
10
14.66284375
20
19.6596
30
0
42
0.9520786018124834
0
VERTEX
8
0
10
14.66284375
20
20.9804
30
0
0
VERTEX
8
0
10
13.27715625
20
20.9804
30
0
42
0.3578051432831595
0
VERTEX
8
0
10
12.655559375000001
20
20.41701875
30
0
0
VERTEX
8
0
10
12.651728125
20
20.378128125
30
0
0
VERTEX
8
0
10
12.646118750000001
20
20.37388125
30
0
0
VERTEX
8
0
10
11.37611875
20
19.10388125
30
0
42
0.198912367379658
0
VERTEX
8
0
10
11.3538
20
19.05
30
0
0
VERTEX
8
0
10
11.3538
20
3.81
30
0
42
0.198912367379658
0
VERTEX
8
0
10
11.37611875
20
3.75611875
30
0
0
VERTEX
8
0
10
12.646118750000001
20
2.48611875
30
0
42
0.198912367379658
0
VERTEX
8
0
10
12.700000000000001
20
2.4638
30
0
0
VERTEX
8
0
10
25.400000000000002
20
2.4638
30
0
0
SEQEND
0
POLYLINE
66
1
8
16_copper
10
0.0
20
0.0
30
0.0
70
1
0
VERTEX
8
0
10
14.72741875
20
19.665959375
30
0
42
0.9063462356499619
0
VERTEX
8
0
10
14.66284375
20
20.9804
30
0
0
VERTEX
8
0
10
13.27715625
20
20.9804
30
0
42
0.9520786018124834
0
VERTEX
8
0
10
13.27715625
20
19.6596
30
0
0
VERTEX
8
0
10
14.66284375
20
19.6596
30
0
0
SEQEND
0
POLYLINE
66
1
8
16_copper
10
0.0
20
0.0
30
0.0
70
1
0
VERTEX
8
0
10
29.768800000000002
20
5.8819718750000005
30
0
0
VERTEX
8
0
10
29.768800000000002
20
6.513228125
30
0
0
VERTEX
8
0
10
29.322428125000002
20
6.9596
30
0
0
VERTEX
8
0
10
28.691171875000002
20
6.9596
30
0
0
VERTEX
8
0
10
28.2448
20
6.513228125
30
0
0
VERTEX
8
0
10
28.2448
20
5.8819718750000005
30
0
0
VERTEX
8
0
10
28.691171875000002
20
5.4356
30
0
0
VERTEX
8
0
10
29.322428125000002
20
5.4356
30
0
0
SEQEND
0
CIRCLE
8
drills_PTH
10
35.8648
20
9.0424
30
0
40
0.508
0
CIRCLE
8
drills_PTH
10
26.2636
20
6.1976
30
0
40
0.508
0
CIRCLE
8
drills_PTH
10
29.006800000000002
20
6.1976
30
0
40
0.508
0
CIRCLE
8
drills_PTH
10
31.75
20
6.1976
30
0
40
0.508
0
CIRCLE
8
drills_PTH
10
34.4932
20
6.1976
30
0
40
0.508
0
CIRCLE
8
drills_PTH
10
37.2364
20
6.1976
30
0
40
0.508
0
CIRCLE
8
drills_PTH
10
27.6352
20
9.0424
30
0
40
0.508
0
CIRCLE
8
drills_PTH
10
30.378400000000003
20
9.0424
30
0
40
0.508
0
CIRCLE
8
drills_PTH
10
33.1216
20
9.0424
30
0
40
0.508
0
CIRCLE
8
drills_PTH
10
44.45
20
27.94
30
0
40
0.4572
0
CIRCLE
8
drills_PTH
10
44.45
20
30.48
30
0
40
0.4572
0
CIRCLE
8
drills_PTH
10
6.3500000000000005
20
7.62
30
0
40
0.40640000000000004
0
CIRCLE
8
drills_PTH
10
6.3500000000000005
20
20.32
30
0
40
0.40640000000000004
0
CIRCLE
8
drills_PTH
10
6.3500000000000005
20
17.78
30
0
40
0.40640000000000004
0
CIRCLE
8
drills_PTH
10
6.3500000000000005
20
12.700000000000001
30
0
40
0.40640000000000004
0
CIRCLE
8
drills_PTH
10
6.3500000000000005
20
15.24
30
0
40
0.40640000000000004
0
CIRCLE
8
drills_PTH
10
13.97
20
7.62
30
0
40
0.40640000000000004
0
CIRCLE
8
drills_PTH
10
19.05
20
30.48
30
0
40
0.40640000000000004
0
CIRCLE
8
drills_PTH
10
13.97
20
12.700000000000001
30
0
40
0.40640000000000004
0
CIRCLE
8
drills_PTH
10
13.97
20
15.24
30
0
40
0.40640000000000004
0
CIRCLE
8
drills_PTH
10
13.97
20
17.78
30
0
40
0.40640000000000004
0
CIRCLE
8
drills_PTH
10
13.97
20
20.32
30
0
40
0.40640000000000004
0
CIRCLE
8
drills_PTH
10
13.97
20
22.86
30
0
40
0.40640000000000004
0
CIRCLE
8
drills_PTH
10
13.97
20
25.400000000000002
30
0
40
0.40640000000000004
0
CIRCLE
8
drills_PTH
10
16.51
20
30.48
30
0
40
0.40640000000000004
0
CIRCLE
8
drills_PTH
10
25.400000000000002
20
30.48
30
0
40
0.40640000000000004
0
CIRCLE
8
drills_PTH
10
22.86
20
30.48
30
0
40
0.40640000000000004
0
CIRCLE
8
drills_PTH
10
31.75
20
30.48
30
0
40
0.40640000000000004
0
CIRCLE
8
drills_PTH
10
29.21
20
30.48
30
0
40
0.40640000000000004
0
CIRCLE
8
drills_PTH
10
35.56
20
30.48
30
0
40
0.40640000000000004
0
CIRCLE
8
drills_PTH
10
38.1
20
30.48
30
0
40
0.40640000000000004
0
CIRCLE
8
drills_PTH
10
6.3500000000000005
20
25.400000000000002
30
0
40
0.40640000000000004
0
CIRCLE
8
drills_PTH
10
6.3500000000000005
20
22.86
30
0
40
0.40640000000000004
0
CIRCLE
8
drills_PTH
10
6.3500000000000005
20
10.16
30
0
40
0.40640000000000004
0
CIRCLE
8
drills_PTH
10
13.97
20
10.16
30
0
40
0.40640000000000004
0
ENDSEC
0
EOF