0
SECTION
2
HEADER
9
$ANGDIR
70
1
9
$AUNITS
70
0
9
$PROJECTNAME
1
NE555_sample
9
$TDCREATE
40
2460508.77396963
9
$INSUNITS
70
4
0
ENDSEC
0
SECTION
2
ENTITIES
0
POLYLINE
66
1
8
outline
10
0.0
20
0.0
30
0.0
70
1
0
VERTEX
8
0
10
0
20
0
30
0
0
VERTEX
8
0
10
22.53
20
0
30
0
0
VERTEX
8
0
10
22.53
20
27.93
30
0
0
VERTEX
8
0
10
0
20
27.93
30
0
0
VERTEX
8
0
10
0
20
0
30
0
0
SEQEND
0
POLYLINE
66
1
8
1_copper
10
0.0
20
0.0
30
0.0
70
1
0
VERTEX
8
0
10
5.18448125
20
8.74445
30
0
42
0.35780600851811184
0
VERTEX
8
0
10
5.7912
20
9.4138625
30
0
0
VERTEX
8
0
10
5.7912
20
10.9061375
30
0
42
0.3691040253224355
0
VERTEX
8
0
10
5.1562
20
11.578334375
30
0
0
VERTEX
8
0
10
5.1562
20
12.668437500000001
30
0
0
VERTEX
8
0
10
6.3815625
20
13.8938
30
0
0
VERTEX
8
0
10
6.9596
20
13.8938
30
0
0
VERTEX
8
0
10
6.9596
20
13.27715625
30
0
42
0.3578051432831595
0
VERTEX
8
0
10
7.52298125
20
12.655559375000001
30
0
0
VERTEX
8
0
10
7.562040625000001
20
12.6517125
30
0
42
0.46839111110905185
0
VERTEX
8
0
10
7.677940625000001
20
12.651709375000001
30
0
0
VERTEX
8
0
10
7.71701875
20
12.655559375000001
30
0
42
0.3287933503429485
0
VERTEX
8
0
10
8.273312500000001
20
13.208925
30
0
0
VERTEX
8
0
10
10.10611875
20
11.37611875
30
0
42
0.198912367379658
0
VERTEX
8
0
10
10.16
20
11.3538
30
0
0
VERTEX
8
0
10
11.058878125
20
11.3538
30
0
42
0.9969241442347151
0
VERTEX
8
0
10
11.801728125
20
11.503940625
30
0
0
VERTEX
8
0
10
11.788896875
20
11.551828125
30
0
42
0.7648843201253167
0
VERTEX
8
0
10
11.058878125
20
11.5062
30
0
0
VERTEX
8
0
10
10.1915625
20
11.5062
30
0
0
VERTEX
8
0
10
8.2804
20
13.417362500000001
30
0
0
VERTEX
8
0
10
8.2804
20
14.66284375
30
0
42
0.3379014352391409
0
VERTEX
8
0
10
7.763046875000001
20
15.275284375
30
0
0
VERTEX
8
0
10
10.1915625
20
17.7038
30
0
0
VERTEX
8
0
10
11.05
20
17.7038
30
0
0
VERTEX
8
0
10
11.05
20
17.18
30
0
0
VERTEX
8
0
10
12.25
20
17.18
30
0
0
VERTEX
8
0
10
12.25
20
18.380000000000003
30
0
0
VERTEX
8
0
10
11.05
20
18.380000000000003
30
0
0
VERTEX
8
0
10
11.05
20
17.8562
30
0
0
VERTEX
8
0
10
10.16
20
17.8562
30
0
42
0.198912367379658
0
VERTEX
8
0
10
10.10611875
20
17.83388125
30
0
0
VERTEX
8
0
10
7.56611875
20
15.29388125
30
0
0
VERTEX
8
0
10
7.5619281250000006
20
15.288275
30
0
0
VERTEX
8
0
10
7.52298125
20
15.284440625
30
0
42
0.3578051432831595
0
VERTEX
8
0
10
6.9596
20
14.66284375
30
0
0
VERTEX
8
0
10
6.9596
20
14.0462
30
0
0
VERTEX
8
0
10
6.3500000000000005
20
14.0462
30
0
42
0.198912367379658
0
VERTEX
8
0
10
6.296118750000001
20
14.02388125
30
0
0
VERTEX
8
0
10
5.02611875
20
12.753881250000001
30
0
42
0.198912367379658
0
VERTEX
8
0
10
5.0038
20
12.700000000000001
30
0
0
VERTEX
8
0
10
5.0038
20
11.578334375
30
0
42
0.34273995016510955
0
VERTEX
8
0
10
4.37533125
20
10.972431250000001
30
0
0
VERTEX
8
0
10
3.8862
20
11.461562500000001
30
0
0
VERTEX
8
0
10
3.8862
20
12.700000000000001
30
0
42
0.198912367379658
0
VERTEX
8
0
10
3.8638812500000004
20
12.753881250000001
30
0
0
VERTEX
8
0
10
2.6162
20
14.0015625
30
0
0
VERTEX
8
0
10
2.6162
20
21.59
30
0
42
0.198912367379658
0
VERTEX
8
0
10
2.59388125
20
21.64388125
30
0
0
VERTEX
8
0
10
1.3462
20
22.891562500000003
30
0
0
VERTEX
8
0
10
1.3462
20
23.380000000000003
30
0
0
VERTEX
8
0
10
2.24
20
23.380000000000003
30
0
0
VERTEX
8
0
10
2.24
20
24.880000000000003
30
0
0
VERTEX
8
0
10
0.9400000000000001
20
24.880000000000003
30
0
0
VERTEX
8
0
10
0.9400000000000001
20
23.380000000000003
30
0
0
VERTEX
8
0
10
1.1938
20
23.380000000000003
30
0
0
VERTEX
8
0
10
1.1938
20
22.86
30
0
42
0.198912367379658
0
VERTEX
8
0
10
1.2161187500000001
20
22.80611875
30
0
0
VERTEX
8
0
10
2.4638
20
21.5584375
30
0
0
VERTEX
8
0
10
2.4638
20
13.97
30
0
42
0.198912367379658
0
VERTEX
8
0
10
2.48611875
20
13.91611875
30
0
0
VERTEX
8
0
10
3.7338
20
12.668437500000001
30
0
0
VERTEX
8
0
10
3.7338
20
11.43
30
0
42
0.198912367379658
0
VERTEX
8
0
10
3.75611875
20
11.37611875
30
0
0
VERTEX
8
0
10
4.3688
20
10.7634375
30
0
0
VERTEX
8
0
10
4.3688
20
9.4138625
30
0
0
VERTEX
8
0
10
4.37565
20
9.344318750000001
30
0
0
VERTEX
8
0
10
4.38928125
20
9.275784375
30
0
0
VERTEX
8
0
10
4.409565625
20
9.208915625000001
30
0
0
VERTEX
8
0
10
4.43630625
20
9.144356250000001
30
0
0
VERTEX
8
0
10
4.4692468750000005
20
9.082728125000001
30
0
0
VERTEX
8
0
10
4.5080687500000005
20
9.024628125
30
0
0
VERTEX
8
0
10
4.5524000000000004
20
8.9706125
30
0
0
VERTEX
8
0
10
4.6018125
20
8.9212
30
0
0
VERTEX
8
0
10
4.655828125
20
8.87686875
30
0
0
VERTEX
8
0
10
4.713928125
20
8.838046875
30
0
0
VERTEX
8
0
10
4.77555625
20
8.80510625
30
0
0
VERTEX
8
0
10
4.840115625
20
8.778365625000001
30
0
0
VERTEX
8
0
10
4.906984375
20
8.75808125
30
0
0
VERTEX
8
0
10
4.97551875
20
8.74445
30
0
0
VERTEX
8
0
10
5.0450625
20
8.7376
30
0
0
VERTEX
8
0
10
5.1149375
20
8.7376
30
0
0
SEQEND
0
POLYLINE
66
1
8
1_copper
10
0.0
20
0.0
30
0.0
70
1
0
VERTEX
8
0
10
15.33701875
20
5.035559375
30
0
42
0.3578051432831595
0
VERTEX
8
0
10
15.900400000000001
20
5.65715625
30
0
0
VERTEX
8
0
10
15.900400000000001
20
7.04284375
30
0
42
0.36675309512609283
0
VERTEX
8
0
10
15.3162
20
7.666490625000001
30
0
0
VERTEX
8
0
10
15.3162
20
10.3858
30
0
42
0.198912367379658
0
VERTEX
8
0
10
15.29388125
20
10.439681250000001
30
0
0
VERTEX
8
0
10
14.51210625
20
11.221456250000001
30
0
42
0.9969257294187597
0
VERTEX
8
0
10
13.880662500000001
20
11.64056875
30
0
0
VERTEX
8
0
10
13.855875000000001
20
11.597631250000001
30
0
42
0.76488331982605
0
VERTEX
8
0
10
14.40434375
20
11.113693750000001
30
0
0
VERTEX
8
0
10
15.1638
20
10.3542375
30
0
0
VERTEX
8
0
10
15.1638
20
7.666490625000001
30
0
42
0.36675309512609283
0
VERTEX
8
0
10
14.579600000000001
20
7.04284375
30
0
0
VERTEX
8
0
10
14.579600000000001
20
5.65715625
30
0
0
VERTEX
8
0
10
14.585959375
20
5.59258125
30
0
0
VERTEX
8
0
10
14.59861875
20
5.52894375
30
0
0
VERTEX
8
0
10
14.617453125
20
5.46685
30
0
0
VERTEX
8
0
10
14.642284375000001
20
5.406903125
30
0
0
VERTEX
8
0
10
14.672871875
20
5.3496781250000005
30
0
0
VERTEX
8
0
10
14.708921875000001
20
5.295725
30
0
0
VERTEX
8
0
10
14.750084375
20
5.24556875
30
0
0
VERTEX
8
0
10
14.79596875
20
5.199684375
30
0
0
VERTEX
8
0
10
14.846125
20
5.158521875
30
0
0
VERTEX
8
0
10
14.900078125
20
5.1224718750000005
30
0
0
VERTEX
8
0
10
14.957303125000001
20
5.091884375
30
0
0
VERTEX
8
0
10
15.01725
20
5.067053125
30
0
0
VERTEX
8
0
10
15.079343750000001
20
5.04821875
30
0
0
VERTEX
8
0
10
15.14298125
20
5.035559375
30
0
0
VERTEX
8
0
10
15.207556250000001
20
5.0292
30
0
0
VERTEX
8
0
10
15.27244375
20
5.0292
30
0
0
SEQEND
0
POLYLINE
66
1
8
16_copper
10
0.0
20
0.0
30
0.0
70
1
0
VERTEX
8
0
10
7.71701875
20
12.655559375000001
30
0
42
0.3578051432831595
0
VERTEX
8
0
10
8.2804
20
13.27715625
30
0
0
VERTEX
8
0
10
8.2804
20
14.66284375
30
0
42
0.9520786018124834
0
VERTEX
8
0
10
6.9596
20
14.66284375
30
0
0
VERTEX
8
0
10
6.9596
20
13.27715625
30
0
0
VERTEX
8
0
10
6.965959375000001
20
13.212581250000001
30
0
0
VERTEX
8
0
10
6.978618750000001
20
13.14894375
30
0
0
VERTEX
8
0
10
6.997453125000001
20
13.08685
30
0
0
VERTEX
8
0
10
7.022284375
20
13.026903125
30
0
0
VERTEX
8
0
10
7.052871875
20
12.969678125000002
30
0
0
VERTEX
8
0
10
7.0889218750000005
20
12.915725
30
0
0
VERTEX
8
0
10
7.130084375
20
12.865568750000001
30
0
0
VERTEX
8
0
10
7.17596875
20
12.819684375000001
30
0
0
VERTEX
8
0
10
7.226125000000001
20
12.778521875000001
30
0
0
VERTEX
8
0
10
7.280078125
20
12.742471875000001
30
0
0
VERTEX
8
0
10
7.337303125
20
12.711884375
30
0
0
VERTEX
8
0
10
7.3972500000000005
20
12.687053125
30
0
0
VERTEX
8
0
10
7.45934375
20
12.668218750000001
30
0
0
VERTEX
8
0
10
7.52298125
20
12.655559375000001
30
0
0
VERTEX
8
0
10
7.5875562500000004
20
12.6492
30
0
0
VERTEX
8
0
10
7.652443750000001
20
12.6492
30
0
0
SEQEND
0
POLYLINE
66
1
8
16_copper
10
0.0
20
0.0
30
0.0
70
1
0
VERTEX
8
0
10
11.503940625
20
11.058271875
30
0
42
0.3016664185260731
0
VERTEX
8
0
10
11.801121875
20
11.3538
30
0
0
VERTEX
8
0
10
13.824678125
20
11.3538
30
0
42
0.9969241442347151
0
VERTEX
8
0
10
14.567528125
20
11.503940625
30
0
0
VERTEX
8
0
10
14.554696875000001
20
11.551828125
30
0
42
0.7648843201253167
0
VERTEX
8
0
10
13.824678125
20
11.5062
30
0
0
VERTEX
8
0
10
11.801121875
20
11.5062
30
0
0
VERTEX
8
0
10
11.788896875
20
11.551828125
30
0
0
VERTEX
8
0
10
11.769925
20
11.597631250000001
30
0
0
VERTEX
8
0
10
11.7451375
20
11.64056875
30
0
0
VERTEX
8
0
10
11.71495625
20
11.6799
30
0
0
VERTEX
8
0
10
11.6799
20
11.71495625
30
0
0
VERTEX
8
0
10
11.64056875
20
11.7451375
30
0
0
VERTEX
8
0
10
11.597631250000001
20
11.769925
30
0
0
VERTEX
8
0
10
11.551828125
20
11.788896875
30
0
0
VERTEX
8
0
10
11.503940625
20
11.801728125
30
0
0
VERTEX
8
0
10
11.4547875
20
11.808200000000001
30
0
0
VERTEX
8
0
10
11.405212500000001
20
11.808200000000001
30
0
0
VERTEX
8
0
10
11.356059375000001
20
11.801728125
30
0
0
VERTEX
8
0
10
11.308171875000001
20
11.788896875
30
0
0
VERTEX
8
0
10
11.26236875
20
11.769925
30
0
0
VERTEX
8
0
10
11.219431250000001
20
11.7451375
30
0
0
VERTEX
8
0
10
11.180100000000001
20
11.71495625
30
0
0
VERTEX
8
0
10
11.145043750000001
20
11.6799
30
0
0
VERTEX
8
0
10
11.114862500000001
20
11.64056875
30
0
0
VERTEX
8
0
10
11.090075
20
11.597631250000001
30
0
0
VERTEX
8
0
10
11.071103125
20
11.551828125
30
0
0
VERTEX
8
0
10
11.058271875
20
11.503940625
30
0
0
VERTEX
8
0
10
11.0518
20
11.4547875
30
0
0
VERTEX
8
0
10
11.0518
20
11.405212500000001
30
0
0
VERTEX
8
0
10
11.058271875
20
11.356059375000001
30
0
0
VERTEX
8
0
10
11.071103125
20
11.308171875000001
30
0
0
VERTEX
8
0
10
11.090075
20
11.26236875
30
0
0
VERTEX
8
0
10
11.114862500000001
20
11.219431250000001
30
0
0
VERTEX
8
0
10
11.145043750000001
20
11.180100000000001
30
0
0
VERTEX
8
0
10
11.180100000000001
20
11.145043750000001
30
0
0
VERTEX
8
0
10
11.219431250000001
20
11.114862500000001
30
0
0
VERTEX
8
0
10
11.26236875
20
11.090075
30
0
0
VERTEX
8
0
10
11.308171875000001
20
11.071103125
30
0
0
VERTEX
8
0
10
11.356059375000001
20
11.058271875
30
0
0
VERTEX
8
0
10
11.405212500000001
20
11.0518
30
0
0
VERTEX
8
0
10
11.4547875
20
11.0518
30
0
0
SEQEND
0
POLYLINE
66
1
8
16_copper
10
0.0
20
0.0
30
0.0
70
1
0
VERTEX
8
0
10
5.18448125
20
8.74445
30
0
42
0.35780600851811184
0
VERTEX
8
0
10
5.7912
20
9.4138625
30
0
0
VERTEX
8
0
10
5.7912
20
10.9061375
30
0
42
0.9520811731250587
0
VERTEX
8
0
10
4.3688
20
10.9061375
30
0
0
VERTEX
8
0
10
4.3688
20
9.4138625
30
0
0
VERTEX
8
0
10
4.37565
20
9.344318750000001
30
0
0
VERTEX
8
0
10
4.38928125
20
9.275784375
30
0
0
VERTEX
8
0
10
4.409565625
20
9.208915625000001
30
0
0
VERTEX
8
0
10
4.43630625
20
9.144356250000001
30
0
0
VERTEX
8
0
10
4.4692468750000005
20
9.082728125000001
30
0
0
VERTEX
8
0
10
4.5080687500000005
20
9.024628125
30
0
0
VERTEX
8
0
10
4.5524000000000004
20
8.9706125
30
0
0
VERTEX
8
0
10
4.6018125
20
8.9212
30
0
0
VERTEX
8
0
10
4.655828125
20
8.87686875
30
0
0
VERTEX
8
0
10
4.713928125
20
8.838046875
30
0
0
VERTEX
8
0
10
4.77555625
20
8.80510625
30
0
0
VERTEX
8
0
10
4.840115625
20
8.778365625000001
30
0
0
VERTEX
8
0
10
4.906984375
20
8.75808125
30
0
0
VERTEX
8
0
10
4.97551875
20
8.74445
30
0
0
VERTEX
8
0
10
5.0450625
20
8.7376
30
0
0
VERTEX
8
0
10
5.1149375
20
8.7376
30
0
0
SEQEND
0
POLYLINE
66
1
8
16_copper
10
0.0
20
0.0
30
0.0
70
1
0
VERTEX
8
0
10
15.33701875
20
5.035559375
30
0
42
0.3578051432831595
0
VERTEX
8
0
10
15.900400000000001
20
5.65715625
30
0
0
VERTEX
8
0
10
15.900400000000001
20
7.04284375
30
0
42
0.9520786018124834
0
VERTEX
8
0
10
14.579600000000001
20
7.04284375
30
0
0
VERTEX
8
0
10
14.579600000000001
20
5.65715625
30
0
0
VERTEX
8
0
10
14.585959375
20
5.59258125
30
0
0
VERTEX
8
0
10
14.59861875
20
5.52894375
30
0
0
VERTEX
8
0
10
14.617453125
20
5.46685
30
0
0
VERTEX
8
0
10
14.642284375000001
20
5.406903125
30
0
0
VERTEX
8
0
10
14.672871875
20
5.3496781250000005
30
0
0
VERTEX
8
0
10
14.708921875000001
20
5.295725
30
0
0
VERTEX
8
0
10
14.750084375
20
5.24556875
30
0
0
VERTEX
8
0
10
14.79596875
20
5.199684375
30
0
0
VERTEX
8
0
10
14.846125
20
5.158521875
30
0
0
VERTEX
8
0
10
14.900078125
20
5.1224718750000005
30
0
0
VERTEX
8
0
10
14.957303125000001
20
5.091884375
30
0
0
VERTEX
8
0
10
15.01725
20
5.067053125
30
0
0
VERTEX
8
0
10
15.079343750000001
20
5.04821875
30
0
0
VERTEX
8
0
10
15.14298125
20
5.035559375
30
0
0
VERTEX
8
0
10
15.207556250000001
20
5.0292
30
0
0
VERTEX
8
0
10
15.27244375
20
5.0292
30
0
0
SEQEND
0
POLYLINE
66
1
8
1_copper
10
0.0
20
0.0
30
0.0
70
1
0
VERTEX
8
0
10
14.350000000000001
20
18.380000000000003
30
0
0
VERTEX
8
0
10
13.8262
20
18.380000000000003
30
0
0
VERTEX
8
0
10
13.8262
20
19.27
30
0
42
0.198912367379658
0
VERTEX
8
0
10
13.80388125
20
19.32388125
30
0
0
VERTEX
8
0
10
11.5062
20
21.6215625
30
0
0
VERTEX
8
0
10
11.5062
20
23.380000000000003
30
0
0
VERTEX
8
0
10
12.4
20
23.380000000000003
30
0
0
VERTEX
8
0
10
12.4
20
24.880000000000003
30
0
0
VERTEX
8
0
10
11.1
20
24.880000000000003
30
0
0
VERTEX
8
0
10
11.1
20
23.380000000000003
30
0
0
VERTEX
8
0
10
11.3538
20
23.380000000000003
30
0
0
VERTEX
8
0
10
11.3538
20
21.59
30
0
42
0.198912367379658
0
VERTEX
8
0
10
11.37611875
20
21.53611875
30
0
0
VERTEX
8
0
10
13.6738
20
19.2384375
30
0
0
VERTEX
8
0
10
13.6738
20
18.380000000000003
30
0
0
VERTEX
8
0
10
13.15
20
18.380000000000003
30
0
0
VERTEX
8
0
10
13.15
20
17.18
30
0
0
VERTEX
8
0
10
14.350000000000001
20
17.18
30
0
0
SEQEND
0
POLYLINE
66
1
8
1_copper
10
0.0
20
0.0
30
0.0
70
1
0
VERTEX
8
0
10
14.043940625000001
20
16.138271875
30
0
42
0.5325344265187388
0
VERTEX
8
0
10
14.28630625
20
16.718543750000002
30
0
0
VERTEX
8
0
10
14.4429625
20
16.8752
30
0
42
0.13652134667804794
0
VERTEX
8
0
10
14.4916125
20
16.892253125
30
0
0
VERTEX
8
0
10
14.49856875
20
16.89751875
30
0
0
VERTEX
8
0
10
14.632481250000001
20
17.03143125
30
0
42
0.2048014252134768
0
VERTEX
8
0
10
14.6548
20
17.0870375
30
0
0
VERTEX
8
0
10
15.29388125
20
17.72611875
30
0
42
0.198912367379658
0
VERTEX
8
0
10
15.3162
20
17.78
30
0
0
VERTEX
8
0
10
15.3162
20
20.32
30
0
42
0.198912367379658
0
VERTEX
8
0
10
15.29388125
20
20.37388125
30
0
0
VERTEX
8
0
10
13.7262
20
21.9415625
30
0
0
VERTEX
8
0
10
13.7262
20
23.380000000000003
30
0
0
VERTEX
8
0
10
14.3
20
23.380000000000003
30
0
0
VERTEX
8
0
10
14.3
20
24.053800000000003
30
0
0
VERTEX
8
0
10
16.18
20
24.053800000000003
30
0
0
VERTEX
8
0
10
16.18
20
23.380000000000003
30
0
0
VERTEX
8
0
10
17.48
20
23.380000000000003
30
0
0
VERTEX
8
0
10
17.48
20
24.880000000000003
30
0
0
VERTEX
8
0
10
16.18
20
24.880000000000003
30
0
0
VERTEX
8
0
10
16.18
20
24.206200000000003
30
0
0
VERTEX
8
0
10
14.3
20
24.206200000000003
30
0
0
VERTEX
8
0
10
14.3
20
24.880000000000003
30
0
0
VERTEX
8
0
10
13
20
24.880000000000003
30
0
0
VERTEX
8
0
10
13
20
23.380000000000003
30
0
0
VERTEX
8
0
10
13.5738
20
23.380000000000003
30
0
0
VERTEX
8
0
10
13.5738
20
21.91
30
0
42
0.198912367379658
0
VERTEX
8
0
10
13.59611875
20
21.85611875
30
0
0
VERTEX
8
0
10
15.1638
20
20.2884375
30
0
0
VERTEX
8
0
10
15.1638
20
17.8115625
30
0
0
VERTEX
8
0
10
14.52471875
20
17.17248125
30
0
0
VERTEX
8
0
10
14.519646875000001
20
17.165696875000002
30
0
42
0.13718035911779006
0
VERTEX
8
0
10
14.502400000000002
20
17.116875
30
0
0
VERTEX
8
0
10
14.413125
20
17.0276
30
0
42
0.2048014252134768
0
VERTEX
8
0
10
14.35751875
20
17.00528125
30
0
0
VERTEX
8
0
10
14.178543750000001
20
16.826306250000002
30
0
0
VERTEX
8
0
10
14.13763125
20
16.849925000000002
30
0
0
VERTEX
8
0
10
14.091828125000001
20
16.868896875
30
0
0
VERTEX
8
0
10
14.043940625000001
20
16.881728125000002
30
0
0
VERTEX
8
0
10
13.994787500000001
20
16.8882
30
0
0
VERTEX
8
0
10
13.9452125
20
16.8882
30
0
0
VERTEX
8
0
10
13.896059375
20
16.881728125000002
30
0
0
VERTEX
8
0
10
13.848171875
20
16.868896875
30
0
0
VERTEX
8
0
10
13.802368750000001
20
16.849925000000002
30
0
0
VERTEX
8
0
10
13.75943125
20
16.8251375
30
0
0
VERTEX
8
0
10
13.7201
20
16.794956250000002
30
0
0
VERTEX
8
0
10
13.68504375
20
16.759900000000002
30
0
0
VERTEX
8
0
10
13.6548625
20
16.72056875
30
0
0
VERTEX
8
0
10
13.630075000000001
20
16.67763125
30
0
0
VERTEX
8
0
10
13.611103125000001
20
16.631828125000002
30
0
0
VERTEX
8
0
10
13.598271875
20
16.583940625
30
0
0
VERTEX
8
0
10
13.591800000000001
20
16.5347875
30
0
0
VERTEX
8
0
10
13.591800000000001
20
16.4852125
30
0
0
VERTEX
8
0
10
13.598271875
20
16.436059375
30
0
0
VERTEX
8
0
10
13.611103125000001
20
16.388171875
30
0
0
VERTEX
8
0
10
13.630075000000001
20
16.342368750000002
30
0
0
VERTEX
8
0
10
13.6548625
20
16.29943125
30
0
0
VERTEX
8
0
10
13.68504375
20
16.2601
30
0
0
VERTEX
8
0
10
13.7201
20
16.22504375
30
0
0
VERTEX
8
0
10
13.75943125
20
16.1948625
30
0
0
VERTEX
8
0
10
13.802368750000001
20
16.170075
30
0
0
VERTEX
8
0
10
13.848171875
20
16.151103125000002
30
0
0
VERTEX
8
0
10
13.896059375
20
16.138271875
30
0
0
VERTEX
8
0
10
13.9452125
20
16.131800000000002
30
0
0
VERTEX
8
0
10
13.994787500000001
20
16.131800000000002
30
0
0
SEQEND
0
POLYLINE
66
1
8
1_copper
10
0.0
20
0.0
30
0.0
70
1
0
VERTEX
8
0
10
10.25701875
20
12.655559375000001
30
0
42
0.3578051432831595
0
VERTEX
8
0
10
10.820400000000001
20
13.27715625
30
0
0
VERTEX
8
0
10
10.820400000000001
20
14.66284375
30
0
42
0.3379014352391409
0
VERTEX
8
0
10
10.303046875
20
15.275284375
30
0
0
VERTEX
8
0
10
11.221456250000001
20
16.19369375
30
0
42
0.9969257294187597
0
VERTEX
8
0
10
11.64056875
20
16.8251375
30
0
0
VERTEX
8
0
10
11.597631250000001
20
16.849925000000002
30
0
42
0.76488331982605
0
VERTEX
8
0
10
11.113693750000001
20
16.30145625
30
0
0
VERTEX
8
0
10
10.10611875
20
15.29388125
30
0
0
VERTEX
8
0
10
10.101928125
20
15.288275
30
0
0
VERTEX
8
0
10
10.06298125
20
15.284440625
30
0
42
0.3578051432831595
0
VERTEX
8
0
10
9.499600000000001
20
14.66284375
30
0
0
VERTEX
8
0
10
9.499600000000001
20
13.27715625
30
0
0
VERTEX
8
0
10
9.505959375
20
13.212581250000001
30
0
0
VERTEX
8
0
10
9.51861875
20
13.14894375
30
0
0
VERTEX
8
0
10
9.537453125
20
13.08685
30
0
0
VERTEX
8
0
10
9.562284375
20
13.026903125
30
0
0
VERTEX
8
0
10
9.592871875
20
12.969678125000002
30
0
0
VERTEX
8
0
10
9.628921875
20
12.915725
30
0
0
VERTEX
8
0
10
9.670084375
20
12.865568750000001
30
0
0
VERTEX
8
0
10
9.71596875
20
12.819684375000001
30
0
0
VERTEX
8
0
10
9.766125
20
12.778521875000001
30
0
0
VERTEX
8
0
10
9.820078125
20
12.742471875000001
30
0
0
VERTEX
8
0
10
9.877303125000001
20
12.711884375
30
0
0
VERTEX
8
0
10
9.93725
20
12.687053125
30
0
0
VERTEX
8
0
10
9.999343750000001
20
12.668218750000001
30
0
0
VERTEX
8
0
10
10.06298125
20
12.655559375000001
30
0
0
VERTEX
8
0
10
10.127556250000001
20
12.6492
30
0
0
VERTEX
8
0
10
10.19244375
20
12.6492
30
0
0
SEQEND
0
POLYLINE
66
1
8
16_copper
10
0.0
20
0.0
30
0.0
70
1
0
VERTEX
8
0
10
11.503940625
20
16.138271875
30
0
42
0.3016664185260731
0
VERTEX
8
0
10
11.801121875
20
16.4338
30
0
0
VERTEX
8
0
10
13.598878125
20
16.4338
30
0
42
0.9969241442347151
0
VERTEX
8
0
10
14.341728125000001
20
16.583940625
30
0
0
VERTEX
8
0
10
14.328896875
20
16.631828125000002
30
0
42
0.7648843201253167
0
VERTEX
8
0
10
13.598878125
20
16.5862
30
0
0
VERTEX
8
0
10
11.801121875
20
16.5862
30
0
0
VERTEX
8
0
10
11.788896875
20
16.631828125000002
30
0
0
VERTEX
8
0
10
11.769925
20
16.67763125
30
0
0
VERTEX
8
0
10
11.7451375
20
16.72056875
30
0
0
VERTEX
8
0
10
11.71495625
20
16.759900000000002
30
0
0
VERTEX
8
0
10
11.6799
20
16.794956250000002
30
0
0
VERTEX
8
0
10
11.64056875
20
16.8251375
30
0
0
VERTEX
8
0
10
11.597631250000001
20
16.849925000000002
30
0
0
VERTEX
8
0
10
11.551828125
20
16.868896875
30
0
0
VERTEX
8
0
10
11.503940625
20
16.881728125000002
30
0
0
VERTEX
8
0
10
11.4547875
20
16.8882
30
0
0
VERTEX
8
0
10
11.405212500000001
20
16.8882
30
0
0
VERTEX
8
0
10
11.356059375000001
20
16.881728125000002
30
0
0
VERTEX
8
0
10
11.308171875000001
20
16.868896875
30
0
0
VERTEX
8
0
10
11.26236875
20
16.849925000000002
30
0
0
VERTEX
8
0
10
11.219431250000001
20
16.8251375
30
0
0
VERTEX
8
0
10
11.180100000000001
20
16.794956250000002
30
0
0
VERTEX
8
0
10
11.145043750000001
20
16.759900000000002
30
0
0
VERTEX
8
0
10
11.114862500000001
20
16.72056875
30
0
0
VERTEX
8
0
10
11.090075
20
16.67763125
30
0
0
VERTEX
8
0
10
11.071103125
20
16.631828125000002
30
0
0
VERTEX
8
0
10
11.058271875
20
16.583940625
30
0
0
VERTEX
8
0
10
11.0518
20
16.5347875
30
0
0
VERTEX
8
0
10
11.0518
20
16.4852125
30
0
0
VERTEX
8
0
10
11.058271875
20
16.436059375
30
0
0
VERTEX
8
0
10
11.071103125
20
16.388171875
30
0
0
VERTEX
8
0
10
11.090075
20
16.342368750000002
30
0
0
VERTEX
8
0
10
11.114862500000001
20
16.29943125
30
0
0
VERTEX
8
0
10
11.145043750000001
20
16.2601
30
0
0
VERTEX
8
0
10
11.180100000000001
20
16.22504375
30
0
0
VERTEX
8
0
10
11.219431250000001
20
16.1948625
30
0
0
VERTEX
8
0
10
11.26236875
20
16.170075
30
0
0
VERTEX
8
0
10
11.308171875000001
20
16.151103125000002
30
0
0
VERTEX
8
0
10
11.356059375000001
20
16.138271875
30
0
0
VERTEX
8
0
10
11.405212500000001
20
16.131800000000002
30
0
0
VERTEX
8
0
10
11.4547875
20
16.131800000000002
30
0
0
SEQEND
0
POLYLINE
66
1
8
16_copper
10
0.0
20
0.0
30
0.0
70
1
0
VERTEX
8
0
10
10.25701875
20
12.655559375000001
30
0
42
0.3578051432831595
0
VERTEX
8
0
10
10.820400000000001
20
13.27715625
30
0
0
VERTEX
8
0
10
10.820400000000001
20
14.66284375
30
0
42
0.9520786018124834
0
VERTEX
8
0
10
9.499600000000001
20
14.66284375
30
0
0
VERTEX
8
0
10
9.499600000000001
20
13.27715625
30
0
0
VERTEX
8
0
10
9.505959375
20
13.212581250000001
30
0
0
VERTEX
8
0
10
9.51861875
20
13.14894375
30
0
0
VERTEX
8
0
10
9.537453125
20
13.08685
30
0
0
VERTEX
8
0
10
9.562284375
20
13.026903125
30
0
0
VERTEX
8
0
10
9.592871875
20
12.969678125000002
30
0
0
VERTEX
8
0
10
9.628921875
20
12.915725
30
0
0
VERTEX
8
0
10
9.670084375
20
12.865568750000001
30
0
0
VERTEX
8
0
10
9.71596875
20
12.819684375000001
30
0
0
VERTEX
8
0
10
9.766125
20
12.778521875000001
30
0
0
VERTEX
8
0
10
9.820078125
20
12.742471875000001
30
0
0
VERTEX
8
0
10
9.877303125000001
20
12.711884375
30
0
0
VERTEX
8
0
10
9.93725
20
12.687053125
30
0
0
VERTEX
8
0
10
9.999343750000001
20
12.668218750000001
30
0
0
VERTEX
8
0
10
10.06298125
20
12.655559375000001
30
0
0
VERTEX
8
0
10
10.127556250000001
20
12.6492
30
0
0
VERTEX
8
0
10
10.19244375
20
12.6492
30
0
0
SEQEND
0
POLYLINE
66
1
8
1_copper
10
0.0
20
0.0
30
0.0
70
1
0
VERTEX
8
0
10
20.7
20
18.380000000000003
30
0
0
VERTEX
8
0
10
19.6077625
20
18.380000000000003
30
0
0
VERTEX
8
0
10
19.1262
20
18.8615625
30
0
0
VERTEX
8
0
10
19.1262
20
23.380000000000003
30
0
0
VERTEX
8
0
10
19.380000000000003
20
23.380000000000003
30
0
0
VERTEX
8
0
10
19.380000000000003
20
24.880000000000003
30
0
0
VERTEX
8
0
10
18.080000000000002
20
24.880000000000003
30
0
0
VERTEX
8
0
10
18.080000000000002
20
23.380000000000003
30
0
0
VERTEX
8
0
10
18.9738
20
23.380000000000003
30
0
0
VERTEX
8
0
10
18.9738
20
18.830000000000002
30
0
42
0.198912367379658
0
VERTEX
8
0
10
18.99611875
20
18.776118750000002
30
0
0
VERTEX
8
0
10
19.5
20
18.2722375
30
0
0
VERTEX
8
0
10
19.5
20
17.18
30
0
0
VERTEX
8
0
10
20.7
20
17.18
30
0
0
SEQEND
0
POLYLINE
66
1
8
1_copper
10
0.0
20
0.0
30
0.0
70
1
0
VERTEX
8
0
10
13.028428125000001
20
1.1950156250000001
30
0
42
0.16997656369761122
0
VERTEX
8
0
10
13.073881250000001
20
1.2161187500000001
30
0
0
VERTEX
8
0
10
13.6477625
20
1.79
30
0
0
VERTEX
8
0
10
14.932237500000001
20
1.79
30
0
0
VERTEX
8
0
10
15.50611875
20
1.2161187500000001
30
0
42
0.198912367379658
0
VERTEX
8
0
10
15.56
20
1.1938
30
0
0
VERTEX
8
0
10
17.78
20
1.1938
30
0
42
0.198912367379658
0
VERTEX
8
0
10
17.83388125
20
1.2161187500000001
30
0
0
VERTEX
8
0
10
19.10388125
20
2.48611875
30
0
42
0.198912367379658
0
VERTEX
8
0
10
19.1262
20
2.54
30
0
0
VERTEX
8
0
10
19.1262
20
10.16
30
0
42
0.198912367379658
0
VERTEX
8
0
10
19.10388125
20
10.21388125
30
0
0
VERTEX
8
0
10
17.83388125
20
11.483881250000001
30
0
42
0.198912367379658
0
VERTEX
8
0
10
17.78
20
11.5062
30
0
0
VERTEX
8
0
10
16.5415625
20
11.5062
30
0
0
VERTEX
8
0
10
15.383046875000002
20
12.664715625000001
30
0
42
0.3379014352391409
0
VERTEX
8
0
10
15.900400000000001
20
13.27715625
30
0
0
VERTEX
8
0
10
15.900400000000001
20
13.8938
30
0
0
VERTEX
8
0
10
16.51
20
13.8938
30
0
42
0.198912367379658
0
VERTEX
8
0
10
16.56388125
20
13.91611875
30
0
0
VERTEX
8
0
10
17.83388125
20
15.18611875
30
0
42
0.198912367379658
0
VERTEX
8
0
10
17.8562
20
15.24
30
0
0
VERTEX
8
0
10
17.8562
20
17.18
30
0
0
VERTEX
8
0
10
18.6
20
17.18
30
0
0
VERTEX
8
0
10
18.6
20
18.380000000000003
30
0
0
VERTEX
8
0
10
17.400000000000002
20
18.380000000000003
30
0
0
VERTEX
8
0
10
17.400000000000002
20
17.18
30
0
0
VERTEX
8
0
10
17.7038
20
17.18
30
0
0
VERTEX
8
0
10
17.7038
20
15.2715625
30
0
0
VERTEX
8
0
10
16.478437500000002
20
14.0462
30
0
0
VERTEX
8
0
10
15.900400000000001
20
14.0462
30
0
0
VERTEX
8
0
10
15.900400000000001
20
14.66284375
30
0
42
0.9520786018124834
0
VERTEX
8
0
10
14.579600000000001
20
14.66284375
30
0
0
VERTEX
8
0
10
14.579600000000001
20
13.27715625
30
0
42
0.3578051432831595
0
VERTEX
8
0
10
15.14298125
20
12.655559375000001
30
0
0
VERTEX
8
0
10
15.181871875
20
12.651728125
30
0
0
VERTEX
8
0
10
15.18611875
20
12.646118750000001
30
0
0
VERTEX
8
0
10
16.45611875
20
11.37611875
30
0
42
0.198912367379658
0
VERTEX
8
0
10
16.51
20
11.3538
30
0
0
VERTEX
8
0
10
17.7484375
20
11.3538
30
0
0
VERTEX
8
0
10
18.9738
20
10.1284375
30
0
0
VERTEX
8
0
10
18.9738
20
2.5715625
30
0
0
VERTEX
8
0
10
17.7484375
20
1.3462
30
0
0
VERTEX
8
0
10
15.5915625
20
1.3462
30
0
0
VERTEX
8
0
10
14.940000000000001
20
1.9977625
30
0
0
VERTEX
8
0
10
14.940000000000001
20
3.29
30
0
0
VERTEX
8
0
10
13.64
20
3.29
30
0
0
VERTEX
8
0
10
13.64
20
1.9977625
30
0
0
VERTEX
8
0
10
12.9884375
20
1.3462
30
0
0
VERTEX
8
0
10
8.9215625
20
1.3462
30
0
0
VERTEX
8
0
10
8.4777625
20
1.79
30
0
0
VERTEX
8
0
10
8.59
20
1.79
30
0
0
VERTEX
8
0
10
8.59
20
3.29
30
0
0
VERTEX
8
0
10
7.29
20
3.29
30
0
0
VERTEX
8
0
10
7.29
20
2.6162
30
0
0
VERTEX
8
0
10
3.8415625
20
2.6162
30
0
0
VERTEX
8
0
10
2.6162
20
3.8415625
30
0
0
VERTEX
8
0
10
2.6162
20
8.741665625
30
0
42
0.3691040253224355
0
VERTEX
8
0
10
3.2512000000000003
20
9.4138625
30
0
0
VERTEX
8
0
10
3.2512000000000003
20
10.9061375
30
0
42
0.9520811731250587
0
VERTEX
8
0
10
1.8288
20
10.9061375
30
0
0
VERTEX
8
0
10
1.8288
20
9.4138625
30
0
42
0.3691040253224355
0
VERTEX
8
0
10
2.4638
20
8.741665625
30
0
0
VERTEX
8
0
10
2.4638
20
3.81
30
0
42
0.198912367379658
0
VERTEX
8
0
10
2.48611875
20
3.75611875
30
0
0
VERTEX
8
0
10
3.75611875
20
2.48611875
30
0
42
0.198912367379658
0
VERTEX
8
0
10
3.81
20
2.4638
30
0
0
VERTEX
8
0
10
7.29
20
2.4638
30
0
0
VERTEX
8
0
10
7.29
20
1.79
30
0
0
VERTEX
8
0
10
8.262237500000001
20
1.79
30
0
0
VERTEX
8
0
10
8.83611875
20
1.2161187500000001
30
0
42
0.198912367379658
0
VERTEX
8
0
10
8.89
20
1.1938
30
0
0
VERTEX
8
0
10
13.020000000000001
20
1.1938
30
0
0
SEQEND
0
POLYLINE
66
1
8
16_copper
10
0.0
20
0.0
30
0.0
70
1
0
VERTEX
8
0
10
15.33701875
20
12.655559375000001
30
0
42
0.3578051432831595
0
VERTEX
8
0
10
15.900400000000001
20
13.27715625
30
0
0
VERTEX
8
0
10
15.900400000000001
20
14.66284375
30
0
42
0.9520786018124834
0
VERTEX
8
0
10
14.579600000000001
20
14.66284375
30
0
0
VERTEX
8
0
10
14.579600000000001
20
13.27715625
30
0
0
VERTEX
8
0
10
14.585959375
20
13.212581250000001
30
0
0
VERTEX
8
0
10
14.59861875
20
13.14894375
30
0
0
VERTEX
8
0
10
14.617453125
20
13.08685
30
0
0
VERTEX
8
0
10
14.642284375000001
20
13.026903125
30
0
0
VERTEX
8
0
10
14.672871875
20
12.969678125000002
30
0
0
VERTEX
8
0
10
14.708921875000001
20
12.915725
30
0
0
VERTEX
8
0
10
14.750084375
20
12.865568750000001
30
0
0
VERTEX
8
0
10
14.79596875
20
12.819684375000001
30
0
0
VERTEX
8
0
10
14.846125
20
12.778521875000001
30
0
0
VERTEX
8
0
10
14.900078125
20
12.742471875000001
30
0
0
VERTEX
8
0
10
14.957303125000001
20
12.711884375
30
0
0
VERTEX
8
0
10
15.01725
20
12.687053125
30
0
0
VERTEX
8
0
10
15.079343750000001
20
12.668218750000001
30
0
0
VERTEX
8
0
10
15.14298125
20
12.655559375000001
30
0
0
VERTEX
8
0
10
15.207556250000001
20
12.6492
30
0
0
VERTEX
8
0
10
15.27244375
20
12.6492
30
0
0
SEQEND
0
POLYLINE
66
1
8
16_copper
10
0.0
20
0.0
30
0.0
70
1
0
VERTEX
8
0
10
2.64448125
20
8.74445
30
0
42
0.35780600851811184
0
VERTEX
8
0
10
3.2512000000000003
20
9.4138625
30
0
0
VERTEX
8
0
10
3.2512000000000003
20
10.9061375
30
0
42
0.9520811731250587
0
VERTEX
8
0
10
1.8288
20
10.9061375
30
0
0
VERTEX
8
0
10
1.8288
20
9.4138625
30
0
0
VERTEX
8
0
10
1.83565
20
9.344318750000001
30
0
0
VERTEX
8
0
10
1.84928125
20
9.275784375
30
0
0
VERTEX
8
0
10
1.8695656250000001
20
9.208915625000001
30
0
0
VERTEX
8
0
10
1.89630625
20
9.144356250000001
30
0
0
VERTEX
8
0
10
1.929246875
20
9.082728125000001
30
0
0
VERTEX
8
0
10
1.96806875
20
9.024628125
30
0
0
VERTEX
8
0
10
2.0124
20
8.9706125
30
0
0
VERTEX
8
0
10
2.0618125000000003
20
8.9212
30
0
0
VERTEX
8
0
10
2.115828125
20
8.87686875
30
0
0
VERTEX
8
0
10
2.173928125
20
8.838046875
30
0
0
VERTEX
8
0
10
2.23555625
20
8.80510625
30
0
0
VERTEX
8
0
10
2.300115625
20
8.778365625000001
30
0
0
VERTEX
8
0
10
2.366984375
20
8.75808125
30
0
0
VERTEX
8
0
10
2.43551875
20
8.74445
30
0
0
VERTEX
8
0
10
2.5050625
20
8.7376
30
0
0
VERTEX
8
0
10
2.5749375000000003
20
8.7376
30
0
0
SEQEND
0
POLYLINE
66
1
8
1_copper
10
0.0
20
0.0
30
0.0
70
1
0
VERTEX
8
0
10
10.49
20
3.29
30
0
0
VERTEX
8
0
10
9.190000000000001
20
3.29
30
0
0
VERTEX
8
0
10
9.190000000000001
20
3.1210500000000003
30
0
0
VERTEX
8
0
10
8.447168750000001
20
3.8638812500000004
30
0
42
0.198912367379658
0
VERTEX
8
0
10
8.3932875
20
3.8862
30
0
0
VERTEX
8
0
10
7.651562500000001
20
3.8862
30
0
0
VERTEX
8
0
10
6.426200000000001
20
5.111562500000001
30
0
0
VERTEX
8
0
10
6.426200000000001
20
7.5884375
30
0
0
VERTEX
8
0
10
7.651562500000001
20
8.8138
30
0
0
VERTEX
8
0
10
8.8584375
20
8.8138
30
0
0
VERTEX
8
0
10
10.016953125
20
7.655284375000001
30
0
42
0.3379014352391409
0
VERTEX
8
0
10
9.499600000000001
20
7.04284375
30
0
0
VERTEX
8
0
10
9.499600000000001
20
5.65715625
30
0
42
0.9520786018124834
0
VERTEX
8
0
10
10.820400000000001
20
5.65715625
30
0
0
VERTEX
8
0
10
10.820400000000001
20
7.04284375
30
0
42
0.3379014352391409
0
VERTEX
8
0
10
10.303046875
20
7.655284375000001
30
0
0
VERTEX
8
0
10
12.753881250000001
20
10.10611875
30
0
42
0.198912367379658
0
VERTEX
8
0
10
12.776200000000001
20
10.16
30
0
0
VERTEX
8
0
10
12.776200000000001
20
12.653509375
30
0
42
0.36675309512609283
0
VERTEX
8
0
10
13.3604
20
13.27715625
30
0
0
VERTEX
8
0
10
13.3604
20
14.66284375
30
0
42
0.36675309512609283
0
VERTEX
8
0
10
12.776200000000001
20
15.286490625
30
0
0
VERTEX
8
0
10
12.776200000000001
20
19.05
30
0
42
0.198912367379658
0
VERTEX
8
0
10
12.753881250000001
20
19.10388125
30
0
0
VERTEX
8
0
10
10.2362
20
21.6215625
30
0
0
VERTEX
8
0
10
10.2362
20
22.540000000000003
30
0
42
0.198912367379658
0
VERTEX
8
0
10
10.21388125
20
22.593881250000003
30
0
0
VERTEX
8
0
10
9.22
20
23.5877625
30
0
0
VERTEX
8
0
10
9.22
20
24.880000000000003
30
0
0
VERTEX
8
0
10
7.920000000000001
20
24.880000000000003
30
0
0
VERTEX
8
0
10
7.920000000000001
20
23.380000000000003
30
0
0
VERTEX
8
0
10
9.2122375
20
23.380000000000003
30
0
0
VERTEX
8
0
10
10.0838
20
22.5084375
30
0
0
VERTEX
8
0
10
10.0838
20
21.59
30
0
42
0.198912367379658
0
VERTEX
8
0
10
10.10611875
20
21.53611875
30
0
0
VERTEX
8
0
10
12.623800000000001
20
19.0184375
30
0
0
VERTEX
8
0
10
12.623800000000001
20
15.286490625
30
0
42
0.36675309512609283
0
VERTEX
8
0
10
12.0396
20
14.66284375
30
0
0
VERTEX
8
0
10
12.0396
20
13.27715625
30
0
42
0.36675309512609283
0
VERTEX
8
0
10
12.623800000000001
20
12.653509375
30
0
0
VERTEX
8
0
10
12.623800000000001
20
10.1915625
30
0
0
VERTEX
8
0
10
10.16
20
7.727762500000001
30
0
0
VERTEX
8
0
10
8.94388125
20
8.94388125
30
0
42
0.198912367379658
0
VERTEX
8
0
10
8.89
20
8.9662
30
0
0
VERTEX
8
0
10
7.62
20
8.9662
30
0
42
0.198912367379658
0
VERTEX
8
0
10
7.56611875
20
8.94388125
30
0
0
VERTEX
8
0
10
6.296118750000001
20
7.67388125
30
0
42
0.198912367379658
0
VERTEX
8
0
10
6.2738000000000005
20
7.62
30
0
0
VERTEX
8
0
10
6.2738000000000005
20
5.08
30
0
42
0.198912367379658
0
VERTEX
8
0
10
6.296118750000001
20
5.02611875
30
0
0
VERTEX
8
0
10
7.56611875
20
3.75611875
30
0
42
0.198912367379658
0
VERTEX
8
0
10
7.62
20
3.7338
30
0
0
VERTEX
8
0
10
8.361725
20
3.7338
30
0
0
VERTEX
8
0
10
9.190000000000001
20
2.9055250000000004
30
0
0
VERTEX
8
0
10
9.190000000000001
20
1.79
30
0
0
VERTEX
8
0
10
10.49
20
1.79
30
0
0
SEQEND
0
POLYLINE
66
1
8
16_copper
10
0.0
20
0.0
30
0.0
70
1
0
VERTEX
8
0
10
12.797018750000001
20
12.655559375000001
30
0
42
0.3578051432831595
0
VERTEX
8
0
10
13.3604
20
13.27715625
30
0
0
VERTEX
8
0
10
13.3604
20
14.66284375
30
0
42
0.9520786018124834
0
VERTEX
8
0
10
12.0396
20
14.66284375
30
0
0
VERTEX
8
0
10
12.0396
20
13.27715625
30
0
0
VERTEX
8
0
10
12.045959375
20
13.212581250000001
30
0
0
VERTEX
8
0
10
12.05861875
20
13.14894375
30
0
0
VERTEX
8
0
10
12.077453125
20
13.08685
30
0
0
VERTEX
8
0
10
12.102284375
20
13.026903125
30
0
0
VERTEX
8
0
10
12.132871875000001
20
12.969678125000002
30
0
0
VERTEX
8
0
10
12.168921875
20
12.915725
30
0
0
VERTEX
8
0
10
12.210084375000001
20
12.865568750000001
30
0
0
VERTEX
8
0
10
12.255968750000001
20
12.819684375000001
30
0
0
VERTEX
8
0
10
12.306125
20
12.778521875000001
30
0
0
VERTEX
8
0
10
12.360078125000001
20
12.742471875000001
30
0
0
VERTEX
8
0
10
12.417303125
20
12.711884375
30
0
0
VERTEX
8
0
10
12.47725
20
12.687053125
30
0
0
VERTEX
8
0
10
12.53934375
20
12.668218750000001
30
0
0
VERTEX
8
0
10
12.602981250000001
20
12.655559375000001
30
0
0
VERTEX
8
0
10
12.66755625
20
12.6492
30
0
0
VERTEX
8
0
10
12.73244375
20
12.6492
30
0
0
SEQEND
0
POLYLINE
66
1
8
16_copper
10
0.0
20
0.0
30
0.0
70
1
0
VERTEX
8
0
10
10.25701875
20
5.035559375
30
0
42
0.3578051432831595
0
VERTEX
8
0
10
10.820400000000001
20
5.65715625
30
0
0
VERTEX
8
0
10
10.820400000000001
20
7.04284375
30
0
42
0.9520786018124834
0
VERTEX
8
0
10
9.499600000000001
20
7.04284375
30
0
0
VERTEX
8
0
10
9.499600000000001
20
5.65715625
30
0
0
VERTEX
8
0
10
9.505959375
20
5.59258125
30
0
0
VERTEX
8
0
10
9.51861875
20
5.52894375
30
0
0
VERTEX
8
0
10
9.537453125
20
5.46685
30
0
0
VERTEX
8
0
10
9.562284375
20
5.406903125
30
0
0
VERTEX
8
0
10
9.592871875
20
5.3496781250000005
30
0
0
VERTEX
8
0
10
9.628921875
20
5.295725
30
0
0
VERTEX
8
0
10
9.670084375
20
5.24556875
30
0
0
VERTEX
8
0
10
9.71596875
20
5.199684375
30
0
0
VERTEX
8
0
10
9.766125
20
5.158521875
30
0
0
VERTEX
8
0
10
9.820078125
20
5.1224718750000005
30
0
0
VERTEX
8
0
10
9.877303125000001
20
5.091884375
30
0
0
VERTEX
8
0
10
9.93725
20
5.067053125
30
0
0
VERTEX
8
0
10
9.999343750000001
20
5.04821875
30
0
0
VERTEX
8
0
10
10.06298125
20
5.035559375
30
0
0
VERTEX
8
0
10
10.127556250000001
20
5.0292
30
0
0
VERTEX
8
0
10
10.19244375
20
5.0292
30
0
0
SEQEND
0
POLYLINE
66
1
8
1_copper
10
0.0
20
0.0
30
0.0
70
1
0
VERTEX
8
0
10
12.797018750000001
20
5.035559375
30
0
42
0.3578051432831595
0
VERTEX
8
0
10
13.3604
20
5.65715625
30
0
0
VERTEX
8
0
10
13.3604
20
7.04284375
30
0
42
0.36675309512609283
0
VERTEX
8
0
10
12.776200000000001
20
7.666490625000001
30
0
0
VERTEX
8
0
10
12.776200000000001
20
8.42738125
30
0
0
VERTEX
8
0
10
13.64288125
20
9.2940625
30
0
42
0.198912367379658
0
VERTEX
8
0
10
13.6652
20
9.34794375
30
0
0
VERTEX
8
0
10
13.6652
20
15.239287500000001
30
0
0
VERTEX
8
0
10
17.83388125
20
19.407968750000002
30
0
42
0.198912367379658
0
VERTEX
8
0
10
17.8562
20
19.461850000000002
30
0
0
VERTEX
8
0
10
17.8562
20
24.130000000000003
30
0
42
0.198912367379658
0
VERTEX
8
0
10
17.83388125
20
24.183881250000002
30
0
0
VERTEX
8
0
10
17.7848
20
24.232962500000003
30
0
0
VERTEX
8
0
10
17.7848
20
24.9746875
30
0
42
0.198912367379658
0
VERTEX
8
0
10
17.76248125
20
25.02856875
30
0
0
VERTEX
8
0
10
17.33716875
20
25.453881250000002
30
0
42
0.198912367379658
0
VERTEX
8
0
10
17.2832875
20
25.476200000000002
30
0
0
VERTEX
8
0
10
8.1167125
20
25.476200000000002
30
0
42
0.198912367379658
0
VERTEX
8
0
10
8.06283125
20
25.453881250000002
30
0
0
VERTEX
8
0
10
7.32
20
24.71105
30
0
0
VERTEX
8
0
10
7.32
20
24.880000000000003
30
0
0
VERTEX
8
0
10
6.0200000000000005
20
24.880000000000003
30
0
0
VERTEX
8
0
10
6.0200000000000005
20
24.206200000000003
30
0
0
VERTEX
8
0
10
4.140000000000001
20
24.206200000000003
30
0
0
VERTEX
8
0
10
4.140000000000001
20
24.880000000000003
30
0
0
VERTEX
8
0
10
2.8400000000000003
20
24.880000000000003
30
0
0
VERTEX
8
0
10
2.8400000000000003
20
23.380000000000003
30
0
0
VERTEX
8
0
10
4.140000000000001
20
23.380000000000003
30
0
0
VERTEX
8
0
10
4.140000000000001
20
24.053800000000003
30
0
0
VERTEX
8
0
10
6.0200000000000005
20
24.053800000000003
30
0
0
VERTEX
8
0
10
6.0200000000000005
20
23.380000000000003
30
0
0
VERTEX
8
0
10
7.32
20
23.380000000000003
30
0
0
VERTEX
8
0
10
7.32
20
24.495525
30
0
0
VERTEX
8
0
10
8.148275
20
25.323800000000002
30
0
0
VERTEX
8
0
10
17.251725
20
25.323800000000002
30
0
0
VERTEX
8
0
10
17.6324
20
24.943125000000002
30
0
0
VERTEX
8
0
10
17.6324
20
24.2014
30
0
42
0.198912367379658
0
VERTEX
8
0
10
17.65471875
20
24.14751875
30
0
0
VERTEX
8
0
10
17.7038
20
24.098437500000003
30
0
0
VERTEX
8
0
10
17.7038
20
19.4934125
30
0
0
VERTEX
8
0
10
13.53511875
20
15.324731250000001
30
0
42
0.198912367379658
0
VERTEX
8
0
10
13.5128
20
15.270850000000001
30
0
0
VERTEX
8
0
10
13.5128
20
9.37950625
30
0
0
VERTEX
8
0
10
12.646118750000001
20
8.512825000000001
30
0
42
0.198912367379658
0
VERTEX
8
0
10
12.623800000000001
20
8.45894375
30
0
0
VERTEX
8
0
10
12.623800000000001
20
7.666490625000001
30
0
42
0.36675309512609283
0
VERTEX
8
0
10
12.0396
20
7.04284375
30
0
0
VERTEX
8
0
10
12.0396
20
5.65715625
30
0
0
VERTEX
8
0
10
12.045959375
20
5.59258125
30
0
0
VERTEX
8
0
10
12.05861875
20
5.52894375
30
0
0
VERTEX
8
0
10
12.077453125
20
5.46685
30
0
0
VERTEX
8
0
10
12.102284375
20
5.406903125
30
0
0
VERTEX
8
0
10
12.132871875000001
20
5.3496781250000005
30
0
0
VERTEX
8
0
10
12.168921875
20
5.295725
30
0
0
VERTEX
8
0
10
12.210084375000001
20
5.24556875
30
0
0
VERTEX
8
0
10
12.255968750000001
20
5.199684375
30
0
0
VERTEX
8
0
10
12.306125
20
5.158521875
30
0
0
VERTEX
8
0
10
12.360078125000001
20
5.1224718750000005
30
0
0
VERTEX
8
0
10
12.417303125
20
5.091884375
30
0
0
VERTEX
8
0
10
12.47725
20
5.067053125
30
0
0
VERTEX
8
0
10
12.53934375
20
5.04821875
30
0
0
VERTEX
8
0
10
12.602981250000001
20
5.035559375
30
0
0
VERTEX
8
0
10
12.66755625
20
5.0292
30
0
0
VERTEX
8
0
10
12.73244375
20
5.0292
30
0
0
SEQEND
0
POLYLINE
66
1
8
16_copper
10
0.0
20
0.0
30
0.0
70
1
0
VERTEX
8
0
10
12.797018750000001
20
5.035559375
30
0
42
0.3578051432831595
0
VERTEX
8
0
10
13.3604
20
5.65715625
30
0
0
VERTEX
8
0
10
13.3604
20
7.04284375
30
0
42
0.9520786018124834
0
VERTEX
8
0
10
12.0396
20
7.04284375
30
0
0
VERTEX
8
0
10
12.0396
20
5.65715625
30
0
0
VERTEX
8
0
10
12.045959375
20
5.59258125
30
0
0
VERTEX
8
0
10
12.05861875
20
5.52894375
30
0
0
VERTEX
8
0
10
12.077453125
20
5.46685
30
0
0
VERTEX
8
0
10
12.102284375
20
5.406903125
30
0
0
VERTEX
8
0
10
12.132871875000001
20
5.3496781250000005
30
0
0
VERTEX
8
0
10
12.168921875
20
5.295725
30
0
0
VERTEX
8
0
10
12.210084375000001
20
5.24556875
30
0
0
VERTEX
8
0
10
12.255968750000001
20
5.199684375
30
0
0
VERTEX
8
0
10
12.306125
20
5.158521875
30
0
0
VERTEX
8
0
10
12.360078125000001
20
5.1224718750000005
30
0
0
VERTEX
8
0
10
12.417303125
20
5.091884375
30
0
0
VERTEX
8
0
10
12.47725
20
5.067053125
30
0
0
VERTEX
8
0
10
12.53934375
20
5.04821875
30
0
0
VERTEX
8
0
10
12.602981250000001
20
5.035559375
30
0
0
VERTEX
8
0
10
12.66755625
20
5.0292
30
0
0
VERTEX
8
0
10
12.73244375
20
5.0292
30
0
0
SEQEND
0
POLYLINE
66
1
8
1_copper
10
0.0
20
0.0
30
0.0
70
1
0
VERTEX
8
0
10
16.84
20
3.29
30
0
0
VERTEX
8
0
10
15.547762500000001
20
3.29
30
0
0
VERTEX
8
0
10
14.973881250000002
20
3.8638812500000004
30
0
42
0.198912367379658
0
VERTEX
8
0
10
14.92
20
3.8862
30
0
0
VERTEX
8
0
10
10.1915625
20
3.8862
30
0
0
VERTEX
8
0
10
8.2804
20
5.7973625
30
0
0
VERTEX
8
0
10
8.2804
20
7.04284375
30
0
42
0.9520786018124834
0
VERTEX
8
0
10
6.9596
20
7.04284375
30
0
0
VERTEX
8
0
10
6.9596
20
5.65715625
30
0
42
0.9037844368990166
0
VERTEX
8
0
10
8.273312500000001
20
5.588925000000001
30
0
0
VERTEX
8
0
10
10.10611875
20
3.75611875
30
0
42
0.198912367379658
0
VERTEX
8
0
10
10.16
20
3.7338
30
0
0
VERTEX
8
0
10
14.8884375
20
3.7338
30
0
0
VERTEX
8
0
10
15.540000000000001
20
3.0822375
30
0
0
VERTEX
8
0
10
15.540000000000001
20
1.79
30
0
0
VERTEX
8
0
10
16.84
20
1.79
30
0
0
SEQEND
0
POLYLINE
66
1
8
16_copper
10
0.0
20
0.0
30
0.0
70
1
0
VERTEX
8
0
10
7.71701875
20
5.035559375
30
0
42
0.3578051432831595
0
VERTEX
8
0
10
8.2804
20
5.65715625
30
0
0
VERTEX
8
0
10
8.2804
20
7.04284375
30
0
42
0.9520786018124834
0
VERTEX
8
0
10
6.9596
20
7.04284375
30
0
0
VERTEX
8
0
10
6.9596
20
5.65715625
30
0
0
VERTEX
8
0
10
6.965959375000001
20
5.59258125
30
0
0
VERTEX
8
0
10
6.978618750000001
20
5.52894375
30
0
0
VERTEX
8
0
10
6.997453125000001
20
5.46685
30
0
0
VERTEX
8
0
10
7.022284375
20
5.406903125
30
0
0
VERTEX
8
0
10
7.052871875
20
5.3496781250000005
30
0
0
VERTEX
8
0
10
7.0889218750000005
20
5.295725
30
0
0
VERTEX
8
0
10
7.130084375
20
5.24556875
30
0
0
VERTEX
8
0
10
7.17596875
20
5.199684375
30
0
0
VERTEX
8
0
10
7.226125000000001
20
5.158521875
30
0
0
VERTEX
8
0
10
7.280078125
20
5.1224718750000005
30
0
0
VERTEX
8
0
10
7.337303125
20
5.091884375
30
0
0
VERTEX
8
0
10
7.3972500000000005
20
5.067053125
30
0
0
VERTEX
8
0
10
7.45934375
20
5.04821875
30
0
0
VERTEX
8
0
10
7.52298125
20
5.035559375
30
0
0
VERTEX
8
0
10
7.5875562500000004
20
5.0292
30
0
0
VERTEX
8
0
10
7.652443750000001
20
5.0292
30
0
0
SEQEND
0
CIRCLE
8
drills_PTH
10
2.54
20
10.16
30
0
40
0.4572
0
CIRCLE
8
drills_PTH
10
5.08
20
10.16
30
0
40
0.4572
0
CIRCLE
8
drills_PTH
10
15.24
20
13.97
30
0
40
0.40640000000000004
0
CIRCLE
8
drills_PTH
10
12.700000000000001
20
13.97
30
0
40
0.40640000000000004
0
CIRCLE
8
drills_PTH
10
12.700000000000001
20
6.3500000000000005
30
0
40
0.40640000000000004
0
CIRCLE
8
drills_PTH
10
15.24
20
6.3500000000000005
30
0
40
0.40640000000000004
0
CIRCLE
8
drills_PTH
10
10.16
20
13.97
30
0
40
0.40640000000000004
0
CIRCLE
8
drills_PTH
10
7.62
20
13.97
30
0
40
0.40640000000000004
0
CIRCLE
8
drills_PTH
10
10.16
20
6.3500000000000005
30
0
40
0.40640000000000004
0
CIRCLE
8
drills_PTH
10
7.62
20
6.3500000000000005
30
0
40
0.40640000000000004
0
CIRCLE
8
drills_via_1_16
10
11.43
20
11.43
30
0
40
0.17500000000000002
0
CIRCLE
8
drills_via_1_16
10
14.1958
20
11.43
30
0
40
0.17500000000000002
0
CIRCLE
8
drills_via_1_16
10
11.43
20
16.51
30
0
40
0.17500000000000002
0
CIRCLE
8
drills_via_1_16
10
13.97
20
16.51
30
0
40
0.17500000000000002
0
ENDSEC
0
EOF